M48
; DRILL file {KiCad (5.1.6)-1} date 09/13/22 10:15:08
; FORMAT={-:-/ absolute / inch / decimal}
; #@! TF.CreationDate,2022-09-13T10:15:08+02:00
; #@! TF.GenerationSoftware,Kicad,Pcbnew,(5.1.6)-1
FMAT,2
INCH
T1C0.0118
T2C0.0157
T3C0.0300
%
G90
G05
T1
X3.9705Y-5.1024
X3.9795Y-5.2244
X4.0173Y-5.1024
X4.0173Y-5.1323
X4.0193Y-5.1642
X4.0327Y-4.4854
X4.063Y-5.2472
X4.063Y-5.2768
X4.1173Y-5.3106
X4.1181Y-4.4846
X4.1276Y-5.6079
X4.1346Y-5.2858
X4.1787Y-5.3094
X4.2012Y-5.5039
X4.2059Y-4.9142
X4.2276Y-5.6102
X4.2496Y-4.485
X4.2673Y-5.0228
X4.2673Y-5.1618
X4.2925Y-4.9142
X4.3139Y-5.1574
X4.3276Y-5.6102
X4.3319Y-4.9882
X4.3358Y-4.9142
X4.3795Y-5.0461
X4.4276Y-5.6102
X4.4697Y-5.4697
X4.4976Y-5.4697
X4.5256Y-5.4697
X4.5276Y-5.6102
X4.5535Y-5.4697
X4.5819Y-5.4697
X4.6098Y-5.4701
X4.6276Y-5.6102
X4.6965Y-5.3283
X4.7256Y-5.3283
X4.7276Y-5.6102
X4.7358Y-5.2205
X4.7547Y-5.3283
X4.9283Y-5.1315
X4.9283Y-5.176
X4.9547Y-5.3252
X4.965Y-4.7559
X4.7825Y-4.7987
X4.9338Y-5.0536
X4.566Y-5.2091
X4.4248Y-4.5913
X4.6661Y-5.3969
X4.4555Y-4.5661
X4.8673Y-4.6657
X4.7333Y-4.8808
X4.5343Y-4.2957
X4.6841Y-4.8488
X4.5338Y-5.001
X4.6506Y-4.7691
X4.752Y-4.9844
X4.4334Y-4.7763
X4.8189Y-4.948
X4.566Y-5.2927
X4.1913Y-4.4386
X4.5768Y-4.0846
X4.9039Y-4.4397
X4.5789Y-4.4396
X4.9465Y-4.9688
X4.7825Y-4.8333
X4.6627Y-5.0627
X4.6079Y-5.2927
X4.5346Y-4.5654
X4.1819Y-5.1945
X4.4949Y-4.5661
X4.139Y-4.9606
X4.9453Y-4.7918
X4.6437Y-4.3236
X4.9767Y-4.8594
X4.7127Y-4.9809
X4.6288Y-4.8475
X4.5841Y-4.9844
X4.4344Y-4.8923
X4.566Y-5.2509
X4.5242Y-5.3345
X4.6378Y-4.0256
X4.8607Y-4.4395
X4.8253Y-5.0283
X4.704Y-5.0615
X4.7906Y-4.6469
X4.4824Y-5.2091
X4.6079Y-5.3345
X4.6051Y-4.5299
X4.1252Y-5.1378
X4.7327Y-4.5949
X4.687Y-4.3957
X4.8657Y-4.906
X4.4713Y-4.692
X4.0012Y-4.4386
X4.8312Y-4.8797
X4.5485Y-4.7322
X4.6454Y-4.951
X4.7769Y-4.9468
X4.6051Y-4.9504
X4.5242Y-5.2509
X4.5242Y-5.2927
X4.8171Y-4.4395
X4.6228Y-4.4394
X4.8258Y-5.0743
X4.8272Y-4.6646
X4.6079Y-5.2509
X4.6079Y-5.2091
X4.7024Y-4.6524
X4.674Y-4.3539
X4.8583Y-5.2976
X4.4484Y-4.4386
X4.7054Y-4.7659
X4.4227Y-4.7373
X4.6681Y-4.7283
X4.4335Y-5.0027
X4.6729Y-4.9803
X4.5078Y-4.6757
X4.2339Y-4.4386
X4.3193Y-4.4386
X4.4055Y-4.4386
X4.1492Y-4.4386
X4.8253Y-4.9936
X4.5357Y-4.4394
X4.9468Y-5.01
X4.991Y-4.4397
X4.9767Y-4.9006
X4.9462Y-4.9279
X4.5689Y-4.5461
X4.1819Y-5.1378
X4.7024Y-4.7043
X4.6134Y-4.2957
X4.8694Y-4.865
X4.4219Y-4.8546
X4.6312Y-4.6917
X4.8643Y-4.9471
X4.5499Y-4.9645
X4.5342Y-4.8881
X4.1071Y-4.4386
X4.0453Y-4.4386
X4.6063Y-4.0551
X4.4824Y-5.2927
X4.6228Y-4.3953
X4.7739Y-4.4393
X5.0378Y-4.4394
X4.6226Y-5.0582
X4.897Y-5.0565
X4.7016Y-4.5299
X4.1252Y-5.1945
X4.7906Y-4.6862
X4.5893Y-4.8355
X4.4333Y-4.8163
X4.5913Y-4.3638
X4.9106Y-4.77
X4.4527Y-4.9286
X4.7821Y-4.8858
X4.5552Y-4.7714
X4.4533Y-4.9681
X4.5345Y-4.9281
X4.4824Y-5.2509
X4.2768Y-4.4386
X4.689Y-4.1004
X4.4824Y-5.3345
X4.5472Y-4.1142
X4.73Y-4.4395
X4.9478Y-4.4395
X4.5829Y-5.064
X4.5242Y-5.2091
X4.7016Y-4.5697
X4.4248Y-4.6307
X4.374Y-4.9484
X4.9465Y-4.8318
X4.5598Y-4.3323
X4.787Y-4.7526
X4.5343Y-4.8475
X4.6273Y-4.8792
X4.5556Y-4.8129
X4.432Y-4.6989
X4.7651Y-5.1193
X4.566Y-5.3345
X4.4927Y-4.4394
X4.6575Y-4.1299
X4.3622Y-4.4386
X4.6868Y-4.4393
T2
X4.6833Y-5.1261
T3
X4.8276Y-5.6205
X4.9276Y-5.6205
T0
M30
