G04 #@! TF.GenerationSoftware,KiCad,Pcbnew,(5.1.6)-1*
G04 #@! TF.CreationDate,2022-09-01T14:03:48+02:00*
G04 #@! TF.ProjectId,LoRa_Balloon,4c6f5261-5f42-4616-9c6c-6f6f6e2e6b69,2*
G04 #@! TF.SameCoordinates,Original*
G04 #@! TF.FileFunction,Copper,L2,Bot*
G04 #@! TF.FilePolarity,Positive*
%FSLAX46Y46*%
G04 Gerber Fmt 4.6, Leading zero omitted, Abs format (unit mm)*
G04 Created by KiCad (PCBNEW (5.1.6)-1) date 2022-09-01 14:03:48*
%MOMM*%
%LPD*%
G01*
G04 APERTURE LIST*
G04 #@! TA.AperFunction,ComponentPad*
%ADD10C,0.600000*%
G04 #@! TD*
G04 #@! TA.AperFunction,SMDPad,CuDef*
%ADD11R,0.800000X1.800000*%
G04 #@! TD*
G04 #@! TA.AperFunction,SMDPad,CuDef*
%ADD12R,1.700000X2.400000*%
G04 #@! TD*
G04 #@! TA.AperFunction,SMDPad,CuDef*
%ADD13R,2.000000X1.000000*%
G04 #@! TD*
G04 #@! TA.AperFunction,SMDPad,CuDef*
%ADD14R,2.450000X2.450000*%
G04 #@! TD*
G04 #@! TA.AperFunction,SMDPad,CuDef*
%ADD15O,0.250000X0.800000*%
G04 #@! TD*
G04 #@! TA.AperFunction,SMDPad,CuDef*
%ADD16O,0.800000X0.250000*%
G04 #@! TD*
G04 #@! TA.AperFunction,SMDPad,CuDef*
%ADD17R,0.400000X0.600000*%
G04 #@! TD*
G04 #@! TA.AperFunction,SMDPad,CuDef*
%ADD18R,0.600000X0.400000*%
G04 #@! TD*
G04 #@! TA.AperFunction,ViaPad*
%ADD19C,0.700000*%
G04 #@! TD*
G04 #@! TA.AperFunction,ViaPad*
%ADD20C,0.800000*%
G04 #@! TD*
G04 #@! TA.AperFunction,Conductor*
%ADD21C,0.250000*%
G04 #@! TD*
G04 #@! TA.AperFunction,Conductor*
%ADD22C,0.300000*%
G04 #@! TD*
G04 #@! TA.AperFunction,Conductor*
%ADD23C,0.500000*%
G04 #@! TD*
G04 #@! TA.AperFunction,Conductor*
%ADD24C,0.254000*%
G04 #@! TD*
G04 APERTURE END LIST*
D10*
X118520000Y-137080000D03*
X105130000Y-126000000D03*
X123400000Y-134560000D03*
X111100000Y-125690000D03*
X123630000Y-118510000D03*
X121680000Y-119030000D03*
X119440000Y-119490000D03*
X119440000Y-118170000D03*
X120210000Y-116710000D03*
X119420000Y-116070000D03*
X119420000Y-115060000D03*
X116970000Y-115060000D03*
X116050000Y-115470000D03*
X115180000Y-115960000D03*
X114170000Y-115980000D03*
X113170000Y-115980000D03*
X112390000Y-116620000D03*
X112390000Y-117620000D03*
X106220000Y-131940000D03*
X104780000Y-131940000D03*
X106220000Y-130500000D03*
X104780000Y-130500000D03*
X112990000Y-112740000D03*
X101630000Y-112740000D03*
X117180000Y-109110000D03*
X117950000Y-109820000D03*
X118720000Y-110590000D03*
X119050000Y-111650000D03*
X115170000Y-109110000D03*
X115820000Y-110040000D03*
X116620000Y-110840000D03*
D11*
X111230000Y-114370000D03*
X110130000Y-114370000D03*
X109030000Y-114370000D03*
X107930000Y-114370000D03*
X106830000Y-114370000D03*
X105730000Y-114370000D03*
X104630000Y-114370000D03*
X103530000Y-114370000D03*
X102430000Y-114370000D03*
X102430000Y-124270000D03*
X103530000Y-124270000D03*
X104630000Y-124270000D03*
X105730000Y-124270000D03*
X106830000Y-124270000D03*
X107930000Y-124270000D03*
X109030000Y-124270000D03*
X110130000Y-124270000D03*
X111230000Y-124270000D03*
D10*
X111900000Y-112740000D03*
D12*
X106380000Y-136880000D03*
X102280000Y-136880000D03*
D10*
X118300000Y-104900000D03*
X119100000Y-104150000D03*
X117800000Y-102250000D03*
X117000000Y-103000000D03*
X116250000Y-103750000D03*
X115500000Y-104500000D03*
X117420000Y-111640000D03*
D13*
X103530000Y-101760000D03*
X103530000Y-108760000D03*
D14*
X105500000Y-131220000D03*
D15*
X104150000Y-133220000D03*
X104600000Y-133220000D03*
X105050000Y-133220000D03*
X105500000Y-133220000D03*
X105950000Y-133220000D03*
X106400000Y-133220000D03*
X106850000Y-129220000D03*
X106400000Y-129220000D03*
X105950000Y-129220000D03*
X105500000Y-129220000D03*
X105050000Y-129220000D03*
X104600000Y-129220000D03*
D16*
X107500000Y-132570000D03*
X107500000Y-132120000D03*
X107500000Y-131670000D03*
X107500000Y-131220000D03*
X107500000Y-130770000D03*
X107500000Y-130320000D03*
X103500000Y-129870000D03*
X103500000Y-130320000D03*
X103500000Y-130770000D03*
X103500000Y-131220000D03*
X103500000Y-131670000D03*
X103500000Y-132120000D03*
D15*
X106850000Y-133220000D03*
D16*
X107500000Y-129870000D03*
D15*
X104150000Y-129220000D03*
D16*
X103500000Y-132570000D03*
D17*
X103530000Y-126990000D03*
X104430000Y-126990000D03*
D18*
X103590000Y-139050000D03*
X103590000Y-139950000D03*
X104890000Y-139050000D03*
X104890000Y-139950000D03*
X110040000Y-127580000D03*
X110040000Y-126680000D03*
D10*
X121034200Y-130030520D03*
X121680000Y-118030000D03*
X122610000Y-118480000D03*
X122562440Y-127718200D03*
X122562440Y-126838200D03*
X121476160Y-122766280D03*
X121476160Y-121886280D03*
X123462420Y-112763220D03*
X126772040Y-112768300D03*
X125674760Y-112763220D03*
X124559700Y-112768300D03*
X127960760Y-112760680D03*
X117419360Y-112760680D03*
X115207020Y-112760680D03*
X116304300Y-112765760D03*
X119045360Y-112758140D03*
X120142640Y-112763220D03*
X121257700Y-112758140D03*
X122354980Y-112763220D03*
X102750000Y-112740000D03*
X104320000Y-112740000D03*
X105390000Y-112740000D03*
X106460000Y-112740000D03*
X107540000Y-112740000D03*
X108630000Y-112740000D03*
X109710000Y-112740000D03*
X114114820Y-112760680D03*
X110800000Y-112740000D03*
X114914470Y-135497470D03*
X113851970Y-135497470D03*
X114914470Y-133372470D03*
X113851970Y-134434970D03*
X113851970Y-133372470D03*
X114914470Y-134434970D03*
X115976970Y-133372470D03*
X115976970Y-134434970D03*
X115976970Y-135497470D03*
X117039470Y-135497470D03*
X117039470Y-134434970D03*
X117039470Y-133372470D03*
X117039470Y-132309970D03*
X115976970Y-132309970D03*
X114914470Y-132309970D03*
X113851970Y-132309970D03*
X116406320Y-128625480D03*
X117414700Y-128478160D03*
X118433240Y-128592460D03*
X119482260Y-128561980D03*
X122575980Y-128887100D03*
X124384460Y-128434980D03*
X125319180Y-128361320D03*
X125649380Y-127253880D03*
X125641760Y-126207400D03*
X125634140Y-125168540D03*
X126408840Y-124475120D03*
X126408840Y-123428640D03*
X125641760Y-122727600D03*
X125611280Y-121711600D03*
X121590460Y-120715920D03*
X118570400Y-120098700D03*
X117633140Y-119169060D03*
X119517820Y-121053740D03*
X118125900Y-121135020D03*
X116568880Y-122821580D03*
X117572180Y-123126380D03*
X117534080Y-123931560D03*
X118976800Y-123159400D03*
X120226480Y-123972200D03*
X121466000Y-124099200D03*
X122713140Y-123944260D03*
X124729900Y-121157880D03*
X123683420Y-123570880D03*
X123589440Y-124612280D03*
X123553880Y-125656220D03*
X122400720Y-125679080D03*
X121333920Y-125648600D03*
X120701460Y-126603640D03*
X119703240Y-126514740D03*
X118692320Y-126499500D03*
X117993820Y-125755280D03*
X116970200Y-125740040D03*
X115568120Y-126098180D03*
X116436800Y-126603640D03*
X115159180Y-127025280D03*
X115176960Y-125173620D03*
X115169340Y-124157620D03*
X115171880Y-123126380D03*
X115712900Y-122247540D03*
X115702740Y-121193440D03*
X115532560Y-120197760D03*
X112611560Y-127068460D03*
X113114480Y-126189620D03*
X113099240Y-125186320D03*
X112634420Y-124264300D03*
X112316920Y-123306720D03*
X112606480Y-122333900D03*
X112609020Y-121317900D03*
X112337240Y-120327300D03*
X112573460Y-119351940D03*
X113571680Y-119176680D03*
X114498780Y-118762660D03*
D19*
X125850000Y-135260000D03*
X104840000Y-142440000D03*
X110030000Y-126700000D03*
X102090000Y-131170000D03*
X107940000Y-113920000D03*
X104600000Y-113910000D03*
X102430000Y-113930000D03*
X111240000Y-128170000D03*
X106830000Y-124820000D03*
X125180000Y-130340000D03*
X125180000Y-131470000D03*
X109573720Y-130997140D03*
X126110000Y-120800000D03*
D20*
X118956281Y-130203719D03*
D19*
X117540000Y-142500000D03*
X105020000Y-134260000D03*
X120080000Y-142500000D03*
X104580000Y-134890000D03*
X107380000Y-142500000D03*
X106710000Y-139800000D03*
X113530000Y-138930000D03*
X114240000Y-138930000D03*
X114950000Y-138930000D03*
X115660000Y-138930000D03*
X116380000Y-138930000D03*
X117090000Y-138940000D03*
X109920000Y-142500000D03*
X119290000Y-135340000D03*
X112460000Y-142500000D03*
X120030000Y-135340000D03*
X115000000Y-142500000D03*
X120770000Y-135340000D03*
X120290000Y-132600000D03*
X102040000Y-130360000D03*
X101080000Y-132700000D03*
X102040000Y-129600000D03*
X100850000Y-129600000D03*
X106140000Y-134860000D03*
X108390000Y-131110000D03*
X108390000Y-127580000D03*
X110130000Y-124820000D03*
X103200000Y-134030000D03*
X109030000Y-124820000D03*
X103200000Y-133280000D03*
D21*
X105500000Y-131220000D02*
X107714999Y-131220000D01*
X103200000Y-131220000D02*
X105500000Y-131220000D01*
X102140000Y-131220000D02*
X102090000Y-131170000D01*
X103200000Y-131220000D02*
X102140000Y-131220000D01*
X111100000Y-124300000D02*
X111230000Y-124170000D01*
X111100000Y-125690000D02*
X111100000Y-124300000D01*
X110264974Y-126700000D02*
X110030000Y-126700000D01*
X111240000Y-127675026D02*
X110264974Y-126700000D01*
X111240000Y-128170000D02*
X111240000Y-127675026D01*
D22*
X125180000Y-131470000D02*
X125180000Y-130340000D01*
X106830000Y-124170000D02*
X105730000Y-124170000D01*
X105730000Y-124170000D02*
X104630000Y-124170000D01*
X104630000Y-124170000D02*
X103530000Y-124170000D01*
X126110000Y-120800000D02*
X128020000Y-122710000D01*
X128020000Y-127500000D02*
X125180000Y-130340000D01*
X128020000Y-122710000D02*
X128020000Y-127500000D01*
D21*
X109573720Y-130997140D02*
X109276142Y-130997140D01*
X108599002Y-130320000D02*
X107800000Y-130320000D01*
X109276142Y-130997140D02*
X108599002Y-130320000D01*
X103530000Y-126990000D02*
X103530000Y-124170000D01*
X101364999Y-129155001D02*
X103530000Y-126990000D01*
X103200000Y-131670000D02*
X102589002Y-131670000D01*
X102414001Y-131845001D02*
X101765999Y-131845001D01*
X101765999Y-131845001D02*
X101364999Y-131444001D01*
X102589002Y-131670000D02*
X102414001Y-131845001D01*
X101364999Y-131444001D02*
X101364999Y-129155001D01*
X118492522Y-129739960D02*
X118956281Y-130203719D01*
X103200000Y-129258590D02*
X106303591Y-126154999D01*
X103200000Y-129870000D02*
X103200000Y-129258590D01*
X110773097Y-126154999D02*
X114358058Y-129739960D01*
X106303591Y-126154999D02*
X110773097Y-126154999D01*
X114358058Y-129739960D02*
X118492522Y-129739960D01*
X105020000Y-134260000D02*
X105020000Y-134080000D01*
X105049980Y-134050020D02*
X105049980Y-133520000D01*
X105020000Y-134080000D02*
X105049980Y-134050020D01*
X104599970Y-133681440D02*
X104599970Y-133520000D01*
X104599970Y-133681440D02*
X104336400Y-133945010D01*
X104344999Y-134654999D02*
X104580000Y-134890000D01*
X104344999Y-134374999D02*
X104344999Y-134654999D01*
X104336400Y-134366400D02*
X104344999Y-134374999D01*
X104336400Y-133945010D02*
X104336400Y-134366400D01*
X106710000Y-141830000D02*
X107380000Y-142500000D01*
X106710000Y-139800000D02*
X106710000Y-141830000D01*
X113160000Y-138930000D02*
X108650020Y-134420020D01*
X113530000Y-138930000D02*
X113160000Y-138930000D01*
X105950000Y-134026410D02*
X105950000Y-133520000D01*
X106343610Y-134420020D02*
X105950000Y-134026410D01*
X108650020Y-134420020D02*
X106343610Y-134420020D01*
X114220000Y-138930000D02*
X114205001Y-138915001D01*
X114240000Y-138930000D02*
X114220000Y-138930000D01*
X114240000Y-138435026D02*
X114240000Y-138930000D01*
X113935010Y-138130036D02*
X114240000Y-138435026D01*
X113013898Y-138130036D02*
X113935010Y-138130036D01*
X106663600Y-133970010D02*
X108853870Y-133970010D01*
X108853870Y-133970010D02*
X113013898Y-138130036D01*
X106400000Y-133706410D02*
X106663600Y-133970010D01*
X106400000Y-133520000D02*
X106400000Y-133706410D01*
X114950000Y-138930000D02*
X114950000Y-138214256D01*
X114950000Y-138214256D02*
X114415772Y-137680028D01*
X114415772Y-137680028D02*
X113200297Y-137680027D01*
X113200297Y-137680027D02*
X109035135Y-133514866D01*
X109030001Y-133520000D02*
X106850000Y-133520000D01*
X109035135Y-133514866D02*
X109030001Y-133520000D01*
X108726678Y-132570000D02*
X113386698Y-137230018D01*
X107800000Y-132570000D02*
X108726678Y-132570000D01*
X113386698Y-137230018D02*
X114602172Y-137230018D01*
X115660000Y-138287846D02*
X115660000Y-138930000D01*
X114602172Y-137230018D02*
X115660000Y-138287846D01*
X116380000Y-138930000D02*
X116380000Y-138371436D01*
X114788574Y-136780010D02*
X113573097Y-136780009D01*
X116380000Y-138371436D02*
X114788574Y-136780010D01*
X108913088Y-132120000D02*
X107800000Y-132120000D01*
X113573097Y-136780009D02*
X108913088Y-132120000D01*
X109099498Y-131670000D02*
X113759498Y-136330000D01*
X107800000Y-131670000D02*
X109099498Y-131670000D01*
X117090000Y-138445026D02*
X117090000Y-138940000D01*
X114974974Y-136330000D02*
X117090000Y-138445026D01*
X113759498Y-136330000D02*
X114974974Y-136330000D01*
X119290000Y-137739002D02*
X117299002Y-139730000D01*
X119290000Y-135340000D02*
X119290000Y-137739002D01*
X112690000Y-139730000D02*
X109920000Y-142500000D01*
X117299002Y-139730000D02*
X112690000Y-139730000D01*
X107800009Y-129869991D02*
X109409991Y-129869991D01*
X107800000Y-129870000D02*
X107800009Y-129869991D01*
X109409991Y-129869991D02*
X111080000Y-131540000D01*
X119290000Y-133635498D02*
X119290000Y-135340000D01*
X117194502Y-131540000D02*
X119290000Y-133635498D01*
X111080000Y-131540000D02*
X117194502Y-131540000D01*
X120030000Y-137635412D02*
X117455412Y-140210000D01*
X120030000Y-135340000D02*
X120030000Y-137635412D01*
X114750000Y-140210000D02*
X112460000Y-142500000D01*
X117455412Y-140210000D02*
X114750000Y-140210000D01*
X107220000Y-128920000D02*
X107719981Y-129419981D01*
X106850000Y-128920000D02*
X107220000Y-128920000D01*
X107719981Y-129419981D02*
X109596392Y-129419982D01*
X111266400Y-131089990D02*
X117380902Y-131089990D01*
X109596392Y-129419982D02*
X111266400Y-131089990D01*
X120030000Y-133739088D02*
X120030000Y-135340000D01*
X117380902Y-131089990D02*
X120030000Y-133739088D01*
X120770000Y-137531822D02*
X117611822Y-140690000D01*
X120770000Y-135340000D02*
X120770000Y-137531822D01*
X116810000Y-140690000D02*
X115000000Y-142500000D01*
X117611822Y-140690000D02*
X116810000Y-140690000D01*
X120770000Y-135340000D02*
X120770000Y-133842678D01*
X120770000Y-133842678D02*
X117567302Y-130639980D01*
X111452800Y-130639980D02*
X109782791Y-128969973D01*
X117567302Y-130639980D02*
X111452800Y-130639980D01*
X106660010Y-128469990D02*
X106400000Y-128730000D01*
X106400000Y-128730000D02*
X106400000Y-128920000D01*
X107406400Y-128469990D02*
X106660010Y-128469990D01*
X107906383Y-128969973D02*
X107406400Y-128469990D01*
X109782791Y-128969973D02*
X107906383Y-128969973D01*
X105499990Y-128919990D02*
X105500000Y-128920000D01*
X107592800Y-128019980D02*
X106238608Y-128019982D01*
X120290000Y-132600000D02*
X117879970Y-130189970D01*
X117879970Y-130189970D02*
X111639198Y-130189970D01*
X111639198Y-130189970D02*
X109969191Y-128519963D01*
X106238608Y-128019982D02*
X105499990Y-128758600D01*
X109969191Y-128519963D02*
X108092783Y-128519963D01*
X105499990Y-128758600D02*
X105499990Y-128919990D01*
X108092783Y-128519963D02*
X107592800Y-128019980D01*
X102450000Y-130770000D02*
X102040000Y-130360000D01*
X103200000Y-130770000D02*
X102450000Y-130770000D01*
X104918616Y-136880000D02*
X107030000Y-136880000D01*
X101080000Y-133041384D02*
X104918616Y-136880000D01*
X101080000Y-132700000D02*
X101080000Y-133041384D01*
X104890000Y-139020000D02*
X107030000Y-136880000D01*
X104890000Y-139050000D02*
X104890000Y-139020000D01*
X101630000Y-137090000D02*
X103590000Y-139050000D01*
X101630000Y-136880000D02*
X101630000Y-137090000D01*
X102040000Y-129600000D02*
X102040000Y-129640000D01*
X102040000Y-129640000D02*
X102084999Y-129684999D01*
X102534974Y-129600000D02*
X102040000Y-129600000D01*
X102715001Y-130165001D02*
X102715001Y-129780027D01*
X102715001Y-129780027D02*
X102534974Y-129600000D01*
X102870000Y-130320000D02*
X102715001Y-130165001D01*
X103200000Y-130320000D02*
X102870000Y-130320000D01*
X100404999Y-135654999D02*
X101630000Y-136880000D01*
X100850000Y-129600000D02*
X100404999Y-130045001D01*
X100404999Y-130045001D02*
X100404999Y-135654999D01*
X105499990Y-134219990D02*
X105499990Y-133520000D01*
X106140000Y-134860000D02*
X105499990Y-134219990D01*
X108050000Y-130770000D02*
X108390000Y-131110000D01*
X107800000Y-130770000D02*
X108050000Y-130770000D01*
X108390000Y-127580000D02*
X110040000Y-127580000D01*
D23*
X103530000Y-114470000D02*
X103530000Y-108760000D01*
D21*
X103200000Y-132120000D02*
X102910000Y-132120000D01*
X102524999Y-132505001D02*
X102524999Y-133849973D01*
X102705026Y-134030000D02*
X103200000Y-134030000D01*
X102524999Y-133849973D02*
X102705026Y-134030000D01*
X102910000Y-132120000D02*
X102524999Y-132505001D01*
X103200000Y-132570000D02*
X103200000Y-133280000D01*
D24*
G36*
X119873000Y-112000000D02*
G01*
X119875440Y-112024776D01*
X119882667Y-112048601D01*
X119894403Y-112070557D01*
X119910197Y-112089803D01*
X119929443Y-112105597D01*
X119951399Y-112117333D01*
X119975224Y-112124560D01*
X120000000Y-112127000D01*
X129340000Y-112127000D01*
X129340001Y-141340000D01*
X126082419Y-141340000D01*
X126050000Y-141336807D01*
X126017581Y-141340000D01*
X125920617Y-141349550D01*
X125796207Y-141387290D01*
X125681550Y-141448575D01*
X125581052Y-141531052D01*
X125498575Y-141631550D01*
X125437290Y-141746207D01*
X125399550Y-141870617D01*
X125386807Y-142000000D01*
X125390001Y-142032429D01*
X125390000Y-147340000D01*
X104610000Y-147340000D01*
X104610000Y-142032419D01*
X104613193Y-142000000D01*
X104600450Y-141870617D01*
X104562710Y-141746207D01*
X104501425Y-141631550D01*
X104418948Y-141531052D01*
X104318450Y-141448575D01*
X104203793Y-141387290D01*
X104079383Y-141349550D01*
X103982419Y-141340000D01*
X103950000Y-141336807D01*
X103917581Y-141340000D01*
X100660000Y-141340000D01*
X100660000Y-140181750D01*
X102655000Y-140181750D01*
X102667594Y-140290524D01*
X102706968Y-140409249D01*
X102768748Y-140518012D01*
X102850559Y-140612631D01*
X102949258Y-140689473D01*
X103061051Y-140745582D01*
X103181643Y-140778804D01*
X103304250Y-140785000D01*
X103463000Y-140626250D01*
X103463000Y-140023000D01*
X103717000Y-140023000D01*
X103717000Y-140626250D01*
X103875750Y-140785000D01*
X103998357Y-140778804D01*
X104118949Y-140745582D01*
X104230742Y-140689473D01*
X104240000Y-140682265D01*
X104249258Y-140689473D01*
X104361051Y-140745582D01*
X104481643Y-140778804D01*
X104604250Y-140785000D01*
X104763000Y-140626250D01*
X104763000Y-140023000D01*
X103717000Y-140023000D01*
X103463000Y-140023000D01*
X102813750Y-140023000D01*
X102655000Y-140181750D01*
X100660000Y-140181750D01*
X100660000Y-136984802D01*
X100791928Y-137116730D01*
X100791928Y-138080000D01*
X100804188Y-138204482D01*
X100840498Y-138324180D01*
X100899463Y-138434494D01*
X100978815Y-138531185D01*
X101075506Y-138610537D01*
X101185820Y-138669502D01*
X101305518Y-138705812D01*
X101430000Y-138718072D01*
X102183270Y-138718072D01*
X102651928Y-139186730D01*
X102651928Y-139250000D01*
X102664188Y-139374482D01*
X102700498Y-139494180D01*
X102703789Y-139500337D01*
X102667594Y-139609476D01*
X102655000Y-139718250D01*
X102813750Y-139877000D01*
X103177580Y-139877000D01*
X103290000Y-139888072D01*
X103890000Y-139888072D01*
X104002420Y-139877000D01*
X104477580Y-139877000D01*
X104590000Y-139888072D01*
X105037000Y-139888072D01*
X105037000Y-140023000D01*
X105017000Y-140023000D01*
X105017000Y-140626250D01*
X105175750Y-140785000D01*
X105298357Y-140778804D01*
X105418949Y-140745582D01*
X105530742Y-140689473D01*
X105629441Y-140612631D01*
X105711252Y-140518012D01*
X105773032Y-140409249D01*
X105812406Y-140290524D01*
X105819969Y-140225204D01*
X105837104Y-140266572D01*
X105944901Y-140427901D01*
X105950000Y-140433000D01*
X105950001Y-141792668D01*
X105946324Y-141830000D01*
X105950001Y-141867333D01*
X105960998Y-141978986D01*
X105974180Y-142022442D01*
X106004454Y-142122246D01*
X106075026Y-142254276D01*
X106146201Y-142341002D01*
X106170000Y-142370001D01*
X106198998Y-142393799D01*
X106395000Y-142589801D01*
X106395000Y-142597014D01*
X106432853Y-142787314D01*
X106507104Y-142966572D01*
X106614901Y-143127901D01*
X106752099Y-143265099D01*
X106913428Y-143372896D01*
X107092686Y-143447147D01*
X107282986Y-143485000D01*
X107477014Y-143485000D01*
X107667314Y-143447147D01*
X107846572Y-143372896D01*
X108007901Y-143265099D01*
X108145099Y-143127901D01*
X108252896Y-142966572D01*
X108327147Y-142787314D01*
X108365000Y-142597014D01*
X108365000Y-142402986D01*
X108327147Y-142212686D01*
X108252896Y-142033428D01*
X108145099Y-141872099D01*
X108007901Y-141734901D01*
X107846572Y-141627104D01*
X107667314Y-141552853D01*
X107477014Y-141515000D01*
X107470000Y-141515000D01*
X107470000Y-140433000D01*
X107475099Y-140427901D01*
X107582896Y-140266572D01*
X107657147Y-140087314D01*
X107695000Y-139897014D01*
X107695000Y-139702986D01*
X107657147Y-139512686D01*
X107582896Y-139333428D01*
X107475099Y-139172099D01*
X107337901Y-139034901D01*
X107176572Y-138927104D01*
X106997314Y-138852853D01*
X106807014Y-138815000D01*
X106612986Y-138815000D01*
X106422686Y-138852853D01*
X106243428Y-138927104D01*
X106082099Y-139034901D01*
X105944901Y-139172099D01*
X105837104Y-139333428D01*
X105804082Y-139413149D01*
X105815812Y-139374482D01*
X105828072Y-139250000D01*
X105828072Y-139156729D01*
X106266729Y-138718072D01*
X107230000Y-138718072D01*
X107354482Y-138705812D01*
X107474180Y-138669502D01*
X107584494Y-138610537D01*
X107681185Y-138531185D01*
X107760537Y-138434494D01*
X107819502Y-138324180D01*
X107855812Y-138204482D01*
X107868072Y-138080000D01*
X107868072Y-135680000D01*
X107855812Y-135555518D01*
X107819502Y-135435820D01*
X107760537Y-135325506D01*
X107681185Y-135228815D01*
X107621728Y-135180020D01*
X108335219Y-135180020D01*
X112257211Y-139102013D01*
X112149999Y-139189999D01*
X112126201Y-139218997D01*
X109830199Y-141515000D01*
X109822986Y-141515000D01*
X109632686Y-141552853D01*
X109453428Y-141627104D01*
X109292099Y-141734901D01*
X109154901Y-141872099D01*
X109047104Y-142033428D01*
X108972853Y-142212686D01*
X108935000Y-142402986D01*
X108935000Y-142597014D01*
X108972853Y-142787314D01*
X109047104Y-142966572D01*
X109154901Y-143127901D01*
X109292099Y-143265099D01*
X109453428Y-143372896D01*
X109632686Y-143447147D01*
X109822986Y-143485000D01*
X110017014Y-143485000D01*
X110207314Y-143447147D01*
X110386572Y-143372896D01*
X110547901Y-143265099D01*
X110685099Y-143127901D01*
X110792896Y-142966572D01*
X110867147Y-142787314D01*
X110905000Y-142597014D01*
X110905000Y-142589801D01*
X113004802Y-140490000D01*
X113395198Y-140490000D01*
X112370199Y-141515000D01*
X112362986Y-141515000D01*
X112172686Y-141552853D01*
X111993428Y-141627104D01*
X111832099Y-141734901D01*
X111694901Y-141872099D01*
X111587104Y-142033428D01*
X111512853Y-142212686D01*
X111475000Y-142402986D01*
X111475000Y-142597014D01*
X111512853Y-142787314D01*
X111587104Y-142966572D01*
X111694901Y-143127901D01*
X111832099Y-143265099D01*
X111993428Y-143372896D01*
X112172686Y-143447147D01*
X112362986Y-143485000D01*
X112557014Y-143485000D01*
X112747314Y-143447147D01*
X112926572Y-143372896D01*
X113087901Y-143265099D01*
X113225099Y-143127901D01*
X113332896Y-142966572D01*
X113407147Y-142787314D01*
X113445000Y-142597014D01*
X113445000Y-142589801D01*
X115064802Y-140970000D01*
X115455198Y-140970000D01*
X114910199Y-141515000D01*
X114902986Y-141515000D01*
X114712686Y-141552853D01*
X114533428Y-141627104D01*
X114372099Y-141734901D01*
X114234901Y-141872099D01*
X114127104Y-142033428D01*
X114052853Y-142212686D01*
X114015000Y-142402986D01*
X114015000Y-142597014D01*
X114052853Y-142787314D01*
X114127104Y-142966572D01*
X114234901Y-143127901D01*
X114372099Y-143265099D01*
X114533428Y-143372896D01*
X114712686Y-143447147D01*
X114902986Y-143485000D01*
X115097014Y-143485000D01*
X115287314Y-143447147D01*
X115466572Y-143372896D01*
X115627901Y-143265099D01*
X115765099Y-143127901D01*
X115872896Y-142966572D01*
X115947147Y-142787314D01*
X115985000Y-142597014D01*
X115985000Y-142589801D01*
X116171815Y-142402986D01*
X116555000Y-142402986D01*
X116555000Y-142597014D01*
X116592853Y-142787314D01*
X116667104Y-142966572D01*
X116774901Y-143127901D01*
X116912099Y-143265099D01*
X117073428Y-143372896D01*
X117252686Y-143447147D01*
X117442986Y-143485000D01*
X117637014Y-143485000D01*
X117827314Y-143447147D01*
X118006572Y-143372896D01*
X118167901Y-143265099D01*
X118305099Y-143127901D01*
X118412896Y-142966572D01*
X118487147Y-142787314D01*
X118525000Y-142597014D01*
X118525000Y-142402986D01*
X119095000Y-142402986D01*
X119095000Y-142597014D01*
X119132853Y-142787314D01*
X119207104Y-142966572D01*
X119314901Y-143127901D01*
X119452099Y-143265099D01*
X119613428Y-143372896D01*
X119792686Y-143447147D01*
X119982986Y-143485000D01*
X120177014Y-143485000D01*
X120367314Y-143447147D01*
X120546572Y-143372896D01*
X120707901Y-143265099D01*
X120845099Y-143127901D01*
X120952896Y-142966572D01*
X121027147Y-142787314D01*
X121065000Y-142597014D01*
X121065000Y-142402986D01*
X121027147Y-142212686D01*
X120952896Y-142033428D01*
X120845099Y-141872099D01*
X120707901Y-141734901D01*
X120546572Y-141627104D01*
X120367314Y-141552853D01*
X120177014Y-141515000D01*
X119982986Y-141515000D01*
X119792686Y-141552853D01*
X119613428Y-141627104D01*
X119452099Y-141734901D01*
X119314901Y-141872099D01*
X119207104Y-142033428D01*
X119132853Y-142212686D01*
X119095000Y-142402986D01*
X118525000Y-142402986D01*
X118487147Y-142212686D01*
X118412896Y-142033428D01*
X118305099Y-141872099D01*
X118167901Y-141734901D01*
X118006572Y-141627104D01*
X117827314Y-141552853D01*
X117637014Y-141515000D01*
X117442986Y-141515000D01*
X117252686Y-141552853D01*
X117073428Y-141627104D01*
X116912099Y-141734901D01*
X116774901Y-141872099D01*
X116667104Y-142033428D01*
X116592853Y-142212686D01*
X116555000Y-142402986D01*
X116171815Y-142402986D01*
X117124802Y-141450000D01*
X117574500Y-141450000D01*
X117611822Y-141453676D01*
X117649144Y-141450000D01*
X117649155Y-141450000D01*
X117760808Y-141439003D01*
X117904069Y-141395546D01*
X118036098Y-141324974D01*
X118151823Y-141230001D01*
X118175626Y-141200997D01*
X121281003Y-138095621D01*
X121310001Y-138071823D01*
X121404974Y-137956098D01*
X121475546Y-137824069D01*
X121519003Y-137680808D01*
X121530000Y-137569155D01*
X121530000Y-137569146D01*
X121533676Y-137531823D01*
X121530000Y-137494500D01*
X121530000Y-135973000D01*
X121535099Y-135967901D01*
X121642896Y-135806572D01*
X121717147Y-135627314D01*
X121755000Y-135437014D01*
X121755000Y-135242986D01*
X121717147Y-135052686D01*
X121642896Y-134873428D01*
X121535099Y-134712099D01*
X121530000Y-134707000D01*
X121530000Y-133880001D01*
X121533676Y-133842678D01*
X121530000Y-133805355D01*
X121530000Y-133805345D01*
X121519003Y-133693692D01*
X121475546Y-133550431D01*
X121469970Y-133539999D01*
X121404974Y-133418401D01*
X121333799Y-133331675D01*
X121310001Y-133302677D01*
X121281003Y-133278879D01*
X121125165Y-133123041D01*
X121162896Y-133066572D01*
X121237147Y-132887314D01*
X121275000Y-132697014D01*
X121275000Y-132502986D01*
X121237147Y-132312686D01*
X121162896Y-132133428D01*
X121055099Y-131972099D01*
X120917901Y-131834901D01*
X120756572Y-131727104D01*
X120577314Y-131652853D01*
X120387014Y-131615000D01*
X120379802Y-131615000D01*
X119694256Y-130929455D01*
X119760218Y-130863493D01*
X119873486Y-130693975D01*
X119951507Y-130505617D01*
X119991281Y-130305658D01*
X119991281Y-130242986D01*
X124195000Y-130242986D01*
X124195000Y-130437014D01*
X124232853Y-130627314D01*
X124307104Y-130806572D01*
X124372872Y-130905000D01*
X124307104Y-131003428D01*
X124232853Y-131182686D01*
X124195000Y-131372986D01*
X124195000Y-131567014D01*
X124232853Y-131757314D01*
X124307104Y-131936572D01*
X124414901Y-132097901D01*
X124552099Y-132235099D01*
X124713428Y-132342896D01*
X124892686Y-132417147D01*
X125082986Y-132455000D01*
X125277014Y-132455000D01*
X125467314Y-132417147D01*
X125646572Y-132342896D01*
X125807901Y-132235099D01*
X125945099Y-132097901D01*
X126052896Y-131936572D01*
X126127147Y-131757314D01*
X126165000Y-131567014D01*
X126165000Y-131372986D01*
X126127147Y-131182686D01*
X126052896Y-131003428D01*
X125987128Y-130905000D01*
X126052896Y-130806572D01*
X126127147Y-130627314D01*
X126158012Y-130472145D01*
X128547810Y-128082347D01*
X128577764Y-128057764D01*
X128675862Y-127938233D01*
X128748754Y-127801860D01*
X128758127Y-127770961D01*
X128793642Y-127653887D01*
X128801020Y-127578974D01*
X128805000Y-127538561D01*
X128805000Y-127538556D01*
X128808797Y-127500000D01*
X128805000Y-127461444D01*
X128805000Y-122748556D01*
X128808797Y-122710000D01*
X128805000Y-122671440D01*
X128805000Y-122671439D01*
X128801020Y-122631026D01*
X128793642Y-122556113D01*
X128748754Y-122408140D01*
X128675862Y-122271767D01*
X128577764Y-122152236D01*
X128547817Y-122127659D01*
X127088012Y-120667855D01*
X127057147Y-120512686D01*
X126982896Y-120333428D01*
X126875099Y-120172099D01*
X126737901Y-120034901D01*
X126576572Y-119927104D01*
X126397314Y-119852853D01*
X126207014Y-119815000D01*
X126012986Y-119815000D01*
X125822686Y-119852853D01*
X125643428Y-119927104D01*
X125482099Y-120034901D01*
X125344901Y-120172099D01*
X125237104Y-120333428D01*
X125162853Y-120512686D01*
X125125000Y-120702986D01*
X125125000Y-120897014D01*
X125162853Y-121087314D01*
X125237104Y-121266572D01*
X125344901Y-121427901D01*
X125482099Y-121565099D01*
X125643428Y-121672896D01*
X125822686Y-121747147D01*
X125977855Y-121778012D01*
X127235000Y-123035158D01*
X127235001Y-127174842D01*
X125047855Y-129361988D01*
X124892686Y-129392853D01*
X124713428Y-129467104D01*
X124552099Y-129574901D01*
X124414901Y-129712099D01*
X124307104Y-129873428D01*
X124232853Y-130052686D01*
X124195000Y-130242986D01*
X119991281Y-130242986D01*
X119991281Y-130101780D01*
X119951507Y-129901821D01*
X119873486Y-129713463D01*
X119760218Y-129543945D01*
X119616055Y-129399782D01*
X119446537Y-129286514D01*
X119258179Y-129208493D01*
X119058220Y-129168719D01*
X118994457Y-129168719D01*
X118916798Y-129104986D01*
X118784769Y-129034414D01*
X118641508Y-128990957D01*
X118529855Y-128979960D01*
X118529844Y-128979960D01*
X118492522Y-128976284D01*
X118455200Y-128979960D01*
X114672861Y-128979960D01*
X111357002Y-125664103D01*
X111357002Y-125646252D01*
X111515750Y-125805000D01*
X111630000Y-125808072D01*
X111754482Y-125795812D01*
X111874180Y-125759502D01*
X111984494Y-125700537D01*
X112081185Y-125621185D01*
X112160537Y-125524494D01*
X112219502Y-125414180D01*
X112255812Y-125294482D01*
X112268072Y-125170000D01*
X112265000Y-124555750D01*
X112106250Y-124397000D01*
X111357000Y-124397000D01*
X111357000Y-124417000D01*
X111168072Y-124417000D01*
X111168072Y-123370000D01*
X111155812Y-123245518D01*
X111119502Y-123125820D01*
X111103000Y-123094947D01*
X111103000Y-122893750D01*
X111357000Y-122893750D01*
X111357000Y-124143000D01*
X112106250Y-124143000D01*
X112265000Y-123984250D01*
X112268072Y-123370000D01*
X112255812Y-123245518D01*
X112219502Y-123125820D01*
X112160537Y-123015506D01*
X112081185Y-122918815D01*
X111984494Y-122839463D01*
X111874180Y-122780498D01*
X111754482Y-122744188D01*
X111630000Y-122731928D01*
X111515750Y-122735000D01*
X111357000Y-122893750D01*
X111103000Y-122893750D01*
X110944250Y-122735000D01*
X110830000Y-122731928D01*
X110705518Y-122744188D01*
X110680000Y-122751929D01*
X110654482Y-122744188D01*
X110530000Y-122731928D01*
X109730000Y-122731928D01*
X109605518Y-122744188D01*
X109580000Y-122751929D01*
X109554482Y-122744188D01*
X109430000Y-122731928D01*
X108630000Y-122731928D01*
X108505518Y-122744188D01*
X108480000Y-122751929D01*
X108454482Y-122744188D01*
X108330000Y-122731928D01*
X107530000Y-122731928D01*
X107405518Y-122744188D01*
X107380000Y-122751929D01*
X107354482Y-122744188D01*
X107230000Y-122731928D01*
X106430000Y-122731928D01*
X106305518Y-122744188D01*
X106280000Y-122751929D01*
X106254482Y-122744188D01*
X106130000Y-122731928D01*
X105330000Y-122731928D01*
X105205518Y-122744188D01*
X105180000Y-122751929D01*
X105154482Y-122744188D01*
X105030000Y-122731928D01*
X104230000Y-122731928D01*
X104105518Y-122744188D01*
X104080000Y-122751929D01*
X104054482Y-122744188D01*
X103930000Y-122731928D01*
X103130000Y-122731928D01*
X103005518Y-122744188D01*
X102980000Y-122751929D01*
X102954482Y-122744188D01*
X102830000Y-122731928D01*
X102030000Y-122731928D01*
X101905518Y-122744188D01*
X101785820Y-122780498D01*
X101675506Y-122839463D01*
X101578815Y-122918815D01*
X101499463Y-123015506D01*
X101440498Y-123125820D01*
X101404188Y-123245518D01*
X101391928Y-123370000D01*
X101391928Y-125170000D01*
X101404188Y-125294482D01*
X101440498Y-125414180D01*
X101499463Y-125524494D01*
X101578815Y-125621185D01*
X101675506Y-125700537D01*
X101785820Y-125759502D01*
X101905518Y-125795812D01*
X102030000Y-125808072D01*
X102770000Y-125808072D01*
X102770000Y-126390626D01*
X102740498Y-126445820D01*
X102704188Y-126565518D01*
X102691928Y-126690000D01*
X102691928Y-126753270D01*
X100853997Y-128591202D01*
X100824999Y-128615000D01*
X100752986Y-128615000D01*
X100660000Y-128633496D01*
X100660000Y-115270000D01*
X101391928Y-115270000D01*
X101404188Y-115394482D01*
X101440498Y-115514180D01*
X101499463Y-115624494D01*
X101578815Y-115721185D01*
X101675506Y-115800537D01*
X101785820Y-115859502D01*
X101905518Y-115895812D01*
X102030000Y-115908072D01*
X102144250Y-115905000D01*
X102303000Y-115746250D01*
X102303000Y-114497000D01*
X101553750Y-114497000D01*
X101395000Y-114655750D01*
X101391928Y-115270000D01*
X100660000Y-115270000D01*
X100660000Y-113470000D01*
X101391928Y-113470000D01*
X101395000Y-114084250D01*
X101553750Y-114243000D01*
X102303000Y-114243000D01*
X102303000Y-112993750D01*
X102144250Y-112835000D01*
X102030000Y-112831928D01*
X101905518Y-112844188D01*
X101785820Y-112880498D01*
X101675506Y-112939463D01*
X101578815Y-113018815D01*
X101499463Y-113115506D01*
X101440498Y-113225820D01*
X101404188Y-113345518D01*
X101391928Y-113470000D01*
X100660000Y-113470000D01*
X100660000Y-112127000D01*
X102645000Y-112127000D01*
X102645000Y-112905750D01*
X102557000Y-112993750D01*
X102557000Y-113194947D01*
X102540498Y-113225820D01*
X102504188Y-113345518D01*
X102491928Y-113470000D01*
X102491928Y-115270000D01*
X102504188Y-115394482D01*
X102540498Y-115514180D01*
X102557000Y-115545053D01*
X102557000Y-115746250D01*
X102715750Y-115905000D01*
X102830000Y-115908072D01*
X102954482Y-115895812D01*
X102980000Y-115888071D01*
X103005518Y-115895812D01*
X103130000Y-115908072D01*
X103930000Y-115908072D01*
X104054482Y-115895812D01*
X104080000Y-115888071D01*
X104105518Y-115895812D01*
X104230000Y-115908072D01*
X104344250Y-115905000D01*
X104503000Y-115746250D01*
X104503000Y-115545053D01*
X104519502Y-115514180D01*
X104555812Y-115394482D01*
X104568072Y-115270000D01*
X104568072Y-113470000D01*
X104691928Y-113470000D01*
X104691928Y-115270000D01*
X104704188Y-115394482D01*
X104740498Y-115514180D01*
X104757000Y-115545053D01*
X104757000Y-115746250D01*
X104915750Y-115905000D01*
X105030000Y-115908072D01*
X105154482Y-115895812D01*
X105180000Y-115888071D01*
X105205518Y-115895812D01*
X105330000Y-115908072D01*
X106130000Y-115908072D01*
X106254482Y-115895812D01*
X106280000Y-115888071D01*
X106305518Y-115895812D01*
X106430000Y-115908072D01*
X107230000Y-115908072D01*
X107354482Y-115895812D01*
X107380000Y-115888071D01*
X107405518Y-115895812D01*
X107530000Y-115908072D01*
X107644250Y-115905000D01*
X107803000Y-115746250D01*
X107803000Y-115545053D01*
X107819502Y-115514180D01*
X107855812Y-115394482D01*
X107868072Y-115270000D01*
X107868072Y-113470000D01*
X107991928Y-113470000D01*
X107991928Y-115270000D01*
X108004188Y-115394482D01*
X108040498Y-115514180D01*
X108057000Y-115545053D01*
X108057000Y-115746250D01*
X108215750Y-115905000D01*
X108330000Y-115908072D01*
X108454482Y-115895812D01*
X108480000Y-115888071D01*
X108505518Y-115895812D01*
X108630000Y-115908072D01*
X109430000Y-115908072D01*
X109554482Y-115895812D01*
X109580000Y-115888071D01*
X109605518Y-115895812D01*
X109730000Y-115908072D01*
X110530000Y-115908072D01*
X110654482Y-115895812D01*
X110680000Y-115888071D01*
X110705518Y-115895812D01*
X110830000Y-115908072D01*
X111630000Y-115908072D01*
X111754482Y-115895812D01*
X111874180Y-115859502D01*
X111984494Y-115800537D01*
X112081185Y-115721185D01*
X112160537Y-115624494D01*
X112219502Y-115514180D01*
X112255812Y-115394482D01*
X112268072Y-115270000D01*
X112268072Y-113470000D01*
X112255812Y-113345518D01*
X112219502Y-113225820D01*
X112160537Y-113115506D01*
X112081185Y-113018815D01*
X111984494Y-112939463D01*
X111874180Y-112880498D01*
X111754482Y-112844188D01*
X111630000Y-112831928D01*
X110830000Y-112831928D01*
X110705518Y-112844188D01*
X110680000Y-112851929D01*
X110654482Y-112844188D01*
X110530000Y-112831928D01*
X109730000Y-112831928D01*
X109605518Y-112844188D01*
X109580000Y-112851929D01*
X109554482Y-112844188D01*
X109430000Y-112831928D01*
X108630000Y-112831928D01*
X108505518Y-112844188D01*
X108480000Y-112851929D01*
X108454482Y-112844188D01*
X108330000Y-112831928D01*
X108215750Y-112835000D01*
X108057000Y-112993750D01*
X108057000Y-113194947D01*
X108040498Y-113225820D01*
X108004188Y-113345518D01*
X107991928Y-113470000D01*
X107868072Y-113470000D01*
X107855812Y-113345518D01*
X107819502Y-113225820D01*
X107803000Y-113194947D01*
X107803000Y-112993750D01*
X107644250Y-112835000D01*
X107530000Y-112831928D01*
X107405518Y-112844188D01*
X107380000Y-112851929D01*
X107354482Y-112844188D01*
X107230000Y-112831928D01*
X106430000Y-112831928D01*
X106305518Y-112844188D01*
X106280000Y-112851929D01*
X106254482Y-112844188D01*
X106130000Y-112831928D01*
X105330000Y-112831928D01*
X105205518Y-112844188D01*
X105180000Y-112851929D01*
X105154482Y-112844188D01*
X105030000Y-112831928D01*
X104915750Y-112835000D01*
X104757000Y-112993750D01*
X104757000Y-113194947D01*
X104740498Y-113225820D01*
X104704188Y-113345518D01*
X104691928Y-113470000D01*
X104568072Y-113470000D01*
X104555812Y-113345518D01*
X104519502Y-113225820D01*
X104503000Y-113194947D01*
X104503000Y-112993750D01*
X104415000Y-112905750D01*
X104415000Y-112127000D01*
X111750000Y-112127000D01*
X111774776Y-112124560D01*
X111798601Y-112117333D01*
X111820557Y-112105597D01*
X111839803Y-112089803D01*
X111855597Y-112070557D01*
X111867333Y-112048601D01*
X111874560Y-112024776D01*
X111877000Y-112000000D01*
X111877000Y-101660000D01*
X119873000Y-101660000D01*
X119873000Y-112000000D01*
G37*
X119873000Y-112000000D02*
X119875440Y-112024776D01*
X119882667Y-112048601D01*
X119894403Y-112070557D01*
X119910197Y-112089803D01*
X119929443Y-112105597D01*
X119951399Y-112117333D01*
X119975224Y-112124560D01*
X120000000Y-112127000D01*
X129340000Y-112127000D01*
X129340001Y-141340000D01*
X126082419Y-141340000D01*
X126050000Y-141336807D01*
X126017581Y-141340000D01*
X125920617Y-141349550D01*
X125796207Y-141387290D01*
X125681550Y-141448575D01*
X125581052Y-141531052D01*
X125498575Y-141631550D01*
X125437290Y-141746207D01*
X125399550Y-141870617D01*
X125386807Y-142000000D01*
X125390001Y-142032429D01*
X125390000Y-147340000D01*
X104610000Y-147340000D01*
X104610000Y-142032419D01*
X104613193Y-142000000D01*
X104600450Y-141870617D01*
X104562710Y-141746207D01*
X104501425Y-141631550D01*
X104418948Y-141531052D01*
X104318450Y-141448575D01*
X104203793Y-141387290D01*
X104079383Y-141349550D01*
X103982419Y-141340000D01*
X103950000Y-141336807D01*
X103917581Y-141340000D01*
X100660000Y-141340000D01*
X100660000Y-140181750D01*
X102655000Y-140181750D01*
X102667594Y-140290524D01*
X102706968Y-140409249D01*
X102768748Y-140518012D01*
X102850559Y-140612631D01*
X102949258Y-140689473D01*
X103061051Y-140745582D01*
X103181643Y-140778804D01*
X103304250Y-140785000D01*
X103463000Y-140626250D01*
X103463000Y-140023000D01*
X103717000Y-140023000D01*
X103717000Y-140626250D01*
X103875750Y-140785000D01*
X103998357Y-140778804D01*
X104118949Y-140745582D01*
X104230742Y-140689473D01*
X104240000Y-140682265D01*
X104249258Y-140689473D01*
X104361051Y-140745582D01*
X104481643Y-140778804D01*
X104604250Y-140785000D01*
X104763000Y-140626250D01*
X104763000Y-140023000D01*
X103717000Y-140023000D01*
X103463000Y-140023000D01*
X102813750Y-140023000D01*
X102655000Y-140181750D01*
X100660000Y-140181750D01*
X100660000Y-136984802D01*
X100791928Y-137116730D01*
X100791928Y-138080000D01*
X100804188Y-138204482D01*
X100840498Y-138324180D01*
X100899463Y-138434494D01*
X100978815Y-138531185D01*
X101075506Y-138610537D01*
X101185820Y-138669502D01*
X101305518Y-138705812D01*
X101430000Y-138718072D01*
X102183270Y-138718072D01*
X102651928Y-139186730D01*
X102651928Y-139250000D01*
X102664188Y-139374482D01*
X102700498Y-139494180D01*
X102703789Y-139500337D01*
X102667594Y-139609476D01*
X102655000Y-139718250D01*
X102813750Y-139877000D01*
X103177580Y-139877000D01*
X103290000Y-139888072D01*
X103890000Y-139888072D01*
X104002420Y-139877000D01*
X104477580Y-139877000D01*
X104590000Y-139888072D01*
X105037000Y-139888072D01*
X105037000Y-140023000D01*
X105017000Y-140023000D01*
X105017000Y-140626250D01*
X105175750Y-140785000D01*
X105298357Y-140778804D01*
X105418949Y-140745582D01*
X105530742Y-140689473D01*
X105629441Y-140612631D01*
X105711252Y-140518012D01*
X105773032Y-140409249D01*
X105812406Y-140290524D01*
X105819969Y-140225204D01*
X105837104Y-140266572D01*
X105944901Y-140427901D01*
X105950000Y-140433000D01*
X105950001Y-141792668D01*
X105946324Y-141830000D01*
X105950001Y-141867333D01*
X105960998Y-141978986D01*
X105974180Y-142022442D01*
X106004454Y-142122246D01*
X106075026Y-142254276D01*
X106146201Y-142341002D01*
X106170000Y-142370001D01*
X106198998Y-142393799D01*
X106395000Y-142589801D01*
X106395000Y-142597014D01*
X106432853Y-142787314D01*
X106507104Y-142966572D01*
X106614901Y-143127901D01*
X106752099Y-143265099D01*
X106913428Y-143372896D01*
X107092686Y-143447147D01*
X107282986Y-143485000D01*
X107477014Y-143485000D01*
X107667314Y-143447147D01*
X107846572Y-143372896D01*
X108007901Y-143265099D01*
X108145099Y-143127901D01*
X108252896Y-142966572D01*
X108327147Y-142787314D01*
X108365000Y-142597014D01*
X108365000Y-142402986D01*
X108327147Y-142212686D01*
X108252896Y-142033428D01*
X108145099Y-141872099D01*
X108007901Y-141734901D01*
X107846572Y-141627104D01*
X107667314Y-141552853D01*
X107477014Y-141515000D01*
X107470000Y-141515000D01*
X107470000Y-140433000D01*
X107475099Y-140427901D01*
X107582896Y-140266572D01*
X107657147Y-140087314D01*
X107695000Y-139897014D01*
X107695000Y-139702986D01*
X107657147Y-139512686D01*
X107582896Y-139333428D01*
X107475099Y-139172099D01*
X107337901Y-139034901D01*
X107176572Y-138927104D01*
X106997314Y-138852853D01*
X106807014Y-138815000D01*
X106612986Y-138815000D01*
X106422686Y-138852853D01*
X106243428Y-138927104D01*
X106082099Y-139034901D01*
X105944901Y-139172099D01*
X105837104Y-139333428D01*
X105804082Y-139413149D01*
X105815812Y-139374482D01*
X105828072Y-139250000D01*
X105828072Y-139156729D01*
X106266729Y-138718072D01*
X107230000Y-138718072D01*
X107354482Y-138705812D01*
X107474180Y-138669502D01*
X107584494Y-138610537D01*
X107681185Y-138531185D01*
X107760537Y-138434494D01*
X107819502Y-138324180D01*
X107855812Y-138204482D01*
X107868072Y-138080000D01*
X107868072Y-135680000D01*
X107855812Y-135555518D01*
X107819502Y-135435820D01*
X107760537Y-135325506D01*
X107681185Y-135228815D01*
X107621728Y-135180020D01*
X108335219Y-135180020D01*
X112257211Y-139102013D01*
X112149999Y-139189999D01*
X112126201Y-139218997D01*
X109830199Y-141515000D01*
X109822986Y-141515000D01*
X109632686Y-141552853D01*
X109453428Y-141627104D01*
X109292099Y-141734901D01*
X109154901Y-141872099D01*
X109047104Y-142033428D01*
X108972853Y-142212686D01*
X108935000Y-142402986D01*
X108935000Y-142597014D01*
X108972853Y-142787314D01*
X109047104Y-142966572D01*
X109154901Y-143127901D01*
X109292099Y-143265099D01*
X109453428Y-143372896D01*
X109632686Y-143447147D01*
X109822986Y-143485000D01*
X110017014Y-143485000D01*
X110207314Y-143447147D01*
X110386572Y-143372896D01*
X110547901Y-143265099D01*
X110685099Y-143127901D01*
X110792896Y-142966572D01*
X110867147Y-142787314D01*
X110905000Y-142597014D01*
X110905000Y-142589801D01*
X113004802Y-140490000D01*
X113395198Y-140490000D01*
X112370199Y-141515000D01*
X112362986Y-141515000D01*
X112172686Y-141552853D01*
X111993428Y-141627104D01*
X111832099Y-141734901D01*
X111694901Y-141872099D01*
X111587104Y-142033428D01*
X111512853Y-142212686D01*
X111475000Y-142402986D01*
X111475000Y-142597014D01*
X111512853Y-142787314D01*
X111587104Y-142966572D01*
X111694901Y-143127901D01*
X111832099Y-143265099D01*
X111993428Y-143372896D01*
X112172686Y-143447147D01*
X112362986Y-143485000D01*
X112557014Y-143485000D01*
X112747314Y-143447147D01*
X112926572Y-143372896D01*
X113087901Y-143265099D01*
X113225099Y-143127901D01*
X113332896Y-142966572D01*
X113407147Y-142787314D01*
X113445000Y-142597014D01*
X113445000Y-142589801D01*
X115064802Y-140970000D01*
X115455198Y-140970000D01*
X114910199Y-141515000D01*
X114902986Y-141515000D01*
X114712686Y-141552853D01*
X114533428Y-141627104D01*
X114372099Y-141734901D01*
X114234901Y-141872099D01*
X114127104Y-142033428D01*
X114052853Y-142212686D01*
X114015000Y-142402986D01*
X114015000Y-142597014D01*
X114052853Y-142787314D01*
X114127104Y-142966572D01*
X114234901Y-143127901D01*
X114372099Y-143265099D01*
X114533428Y-143372896D01*
X114712686Y-143447147D01*
X114902986Y-143485000D01*
X115097014Y-143485000D01*
X115287314Y-143447147D01*
X115466572Y-143372896D01*
X115627901Y-143265099D01*
X115765099Y-143127901D01*
X115872896Y-142966572D01*
X115947147Y-142787314D01*
X115985000Y-142597014D01*
X115985000Y-142589801D01*
X116171815Y-142402986D01*
X116555000Y-142402986D01*
X116555000Y-142597014D01*
X116592853Y-142787314D01*
X116667104Y-142966572D01*
X116774901Y-143127901D01*
X116912099Y-143265099D01*
X117073428Y-143372896D01*
X117252686Y-143447147D01*
X117442986Y-143485000D01*
X117637014Y-143485000D01*
X117827314Y-143447147D01*
X118006572Y-143372896D01*
X118167901Y-143265099D01*
X118305099Y-143127901D01*
X118412896Y-142966572D01*
X118487147Y-142787314D01*
X118525000Y-142597014D01*
X118525000Y-142402986D01*
X119095000Y-142402986D01*
X119095000Y-142597014D01*
X119132853Y-142787314D01*
X119207104Y-142966572D01*
X119314901Y-143127901D01*
X119452099Y-143265099D01*
X119613428Y-143372896D01*
X119792686Y-143447147D01*
X119982986Y-143485000D01*
X120177014Y-143485000D01*
X120367314Y-143447147D01*
X120546572Y-143372896D01*
X120707901Y-143265099D01*
X120845099Y-143127901D01*
X120952896Y-142966572D01*
X121027147Y-142787314D01*
X121065000Y-142597014D01*
X121065000Y-142402986D01*
X121027147Y-142212686D01*
X120952896Y-142033428D01*
X120845099Y-141872099D01*
X120707901Y-141734901D01*
X120546572Y-141627104D01*
X120367314Y-141552853D01*
X120177014Y-141515000D01*
X119982986Y-141515000D01*
X119792686Y-141552853D01*
X119613428Y-141627104D01*
X119452099Y-141734901D01*
X119314901Y-141872099D01*
X119207104Y-142033428D01*
X119132853Y-142212686D01*
X119095000Y-142402986D01*
X118525000Y-142402986D01*
X118487147Y-142212686D01*
X118412896Y-142033428D01*
X118305099Y-141872099D01*
X118167901Y-141734901D01*
X118006572Y-141627104D01*
X117827314Y-141552853D01*
X117637014Y-141515000D01*
X117442986Y-141515000D01*
X117252686Y-141552853D01*
X117073428Y-141627104D01*
X116912099Y-141734901D01*
X116774901Y-141872099D01*
X116667104Y-142033428D01*
X116592853Y-142212686D01*
X116555000Y-142402986D01*
X116171815Y-142402986D01*
X117124802Y-141450000D01*
X117574500Y-141450000D01*
X117611822Y-141453676D01*
X117649144Y-141450000D01*
X117649155Y-141450000D01*
X117760808Y-141439003D01*
X117904069Y-141395546D01*
X118036098Y-141324974D01*
X118151823Y-141230001D01*
X118175626Y-141200997D01*
X121281003Y-138095621D01*
X121310001Y-138071823D01*
X121404974Y-137956098D01*
X121475546Y-137824069D01*
X121519003Y-137680808D01*
X121530000Y-137569155D01*
X121530000Y-137569146D01*
X121533676Y-137531823D01*
X121530000Y-137494500D01*
X121530000Y-135973000D01*
X121535099Y-135967901D01*
X121642896Y-135806572D01*
X121717147Y-135627314D01*
X121755000Y-135437014D01*
X121755000Y-135242986D01*
X121717147Y-135052686D01*
X121642896Y-134873428D01*
X121535099Y-134712099D01*
X121530000Y-134707000D01*
X121530000Y-133880001D01*
X121533676Y-133842678D01*
X121530000Y-133805355D01*
X121530000Y-133805345D01*
X121519003Y-133693692D01*
X121475546Y-133550431D01*
X121469970Y-133539999D01*
X121404974Y-133418401D01*
X121333799Y-133331675D01*
X121310001Y-133302677D01*
X121281003Y-133278879D01*
X121125165Y-133123041D01*
X121162896Y-133066572D01*
X121237147Y-132887314D01*
X121275000Y-132697014D01*
X121275000Y-132502986D01*
X121237147Y-132312686D01*
X121162896Y-132133428D01*
X121055099Y-131972099D01*
X120917901Y-131834901D01*
X120756572Y-131727104D01*
X120577314Y-131652853D01*
X120387014Y-131615000D01*
X120379802Y-131615000D01*
X119694256Y-130929455D01*
X119760218Y-130863493D01*
X119873486Y-130693975D01*
X119951507Y-130505617D01*
X119991281Y-130305658D01*
X119991281Y-130242986D01*
X124195000Y-130242986D01*
X124195000Y-130437014D01*
X124232853Y-130627314D01*
X124307104Y-130806572D01*
X124372872Y-130905000D01*
X124307104Y-131003428D01*
X124232853Y-131182686D01*
X124195000Y-131372986D01*
X124195000Y-131567014D01*
X124232853Y-131757314D01*
X124307104Y-131936572D01*
X124414901Y-132097901D01*
X124552099Y-132235099D01*
X124713428Y-132342896D01*
X124892686Y-132417147D01*
X125082986Y-132455000D01*
X125277014Y-132455000D01*
X125467314Y-132417147D01*
X125646572Y-132342896D01*
X125807901Y-132235099D01*
X125945099Y-132097901D01*
X126052896Y-131936572D01*
X126127147Y-131757314D01*
X126165000Y-131567014D01*
X126165000Y-131372986D01*
X126127147Y-131182686D01*
X126052896Y-131003428D01*
X125987128Y-130905000D01*
X126052896Y-130806572D01*
X126127147Y-130627314D01*
X126158012Y-130472145D01*
X128547810Y-128082347D01*
X128577764Y-128057764D01*
X128675862Y-127938233D01*
X128748754Y-127801860D01*
X128758127Y-127770961D01*
X128793642Y-127653887D01*
X128801020Y-127578974D01*
X128805000Y-127538561D01*
X128805000Y-127538556D01*
X128808797Y-127500000D01*
X128805000Y-127461444D01*
X128805000Y-122748556D01*
X128808797Y-122710000D01*
X128805000Y-122671440D01*
X128805000Y-122671439D01*
X128801020Y-122631026D01*
X128793642Y-122556113D01*
X128748754Y-122408140D01*
X128675862Y-122271767D01*
X128577764Y-122152236D01*
X128547817Y-122127659D01*
X127088012Y-120667855D01*
X127057147Y-120512686D01*
X126982896Y-120333428D01*
X126875099Y-120172099D01*
X126737901Y-120034901D01*
X126576572Y-119927104D01*
X126397314Y-119852853D01*
X126207014Y-119815000D01*
X126012986Y-119815000D01*
X125822686Y-119852853D01*
X125643428Y-119927104D01*
X125482099Y-120034901D01*
X125344901Y-120172099D01*
X125237104Y-120333428D01*
X125162853Y-120512686D01*
X125125000Y-120702986D01*
X125125000Y-120897014D01*
X125162853Y-121087314D01*
X125237104Y-121266572D01*
X125344901Y-121427901D01*
X125482099Y-121565099D01*
X125643428Y-121672896D01*
X125822686Y-121747147D01*
X125977855Y-121778012D01*
X127235000Y-123035158D01*
X127235001Y-127174842D01*
X125047855Y-129361988D01*
X124892686Y-129392853D01*
X124713428Y-129467104D01*
X124552099Y-129574901D01*
X124414901Y-129712099D01*
X124307104Y-129873428D01*
X124232853Y-130052686D01*
X124195000Y-130242986D01*
X119991281Y-130242986D01*
X119991281Y-130101780D01*
X119951507Y-129901821D01*
X119873486Y-129713463D01*
X119760218Y-129543945D01*
X119616055Y-129399782D01*
X119446537Y-129286514D01*
X119258179Y-129208493D01*
X119058220Y-129168719D01*
X118994457Y-129168719D01*
X118916798Y-129104986D01*
X118784769Y-129034414D01*
X118641508Y-128990957D01*
X118529855Y-128979960D01*
X118529844Y-128979960D01*
X118492522Y-128976284D01*
X118455200Y-128979960D01*
X114672861Y-128979960D01*
X111357002Y-125664103D01*
X111357002Y-125646252D01*
X111515750Y-125805000D01*
X111630000Y-125808072D01*
X111754482Y-125795812D01*
X111874180Y-125759502D01*
X111984494Y-125700537D01*
X112081185Y-125621185D01*
X112160537Y-125524494D01*
X112219502Y-125414180D01*
X112255812Y-125294482D01*
X112268072Y-125170000D01*
X112265000Y-124555750D01*
X112106250Y-124397000D01*
X111357000Y-124397000D01*
X111357000Y-124417000D01*
X111168072Y-124417000D01*
X111168072Y-123370000D01*
X111155812Y-123245518D01*
X111119502Y-123125820D01*
X111103000Y-123094947D01*
X111103000Y-122893750D01*
X111357000Y-122893750D01*
X111357000Y-124143000D01*
X112106250Y-124143000D01*
X112265000Y-123984250D01*
X112268072Y-123370000D01*
X112255812Y-123245518D01*
X112219502Y-123125820D01*
X112160537Y-123015506D01*
X112081185Y-122918815D01*
X111984494Y-122839463D01*
X111874180Y-122780498D01*
X111754482Y-122744188D01*
X111630000Y-122731928D01*
X111515750Y-122735000D01*
X111357000Y-122893750D01*
X111103000Y-122893750D01*
X110944250Y-122735000D01*
X110830000Y-122731928D01*
X110705518Y-122744188D01*
X110680000Y-122751929D01*
X110654482Y-122744188D01*
X110530000Y-122731928D01*
X109730000Y-122731928D01*
X109605518Y-122744188D01*
X109580000Y-122751929D01*
X109554482Y-122744188D01*
X109430000Y-122731928D01*
X108630000Y-122731928D01*
X108505518Y-122744188D01*
X108480000Y-122751929D01*
X108454482Y-122744188D01*
X108330000Y-122731928D01*
X107530000Y-122731928D01*
X107405518Y-122744188D01*
X107380000Y-122751929D01*
X107354482Y-122744188D01*
X107230000Y-122731928D01*
X106430000Y-122731928D01*
X106305518Y-122744188D01*
X106280000Y-122751929D01*
X106254482Y-122744188D01*
X106130000Y-122731928D01*
X105330000Y-122731928D01*
X105205518Y-122744188D01*
X105180000Y-122751929D01*
X105154482Y-122744188D01*
X105030000Y-122731928D01*
X104230000Y-122731928D01*
X104105518Y-122744188D01*
X104080000Y-122751929D01*
X104054482Y-122744188D01*
X103930000Y-122731928D01*
X103130000Y-122731928D01*
X103005518Y-122744188D01*
X102980000Y-122751929D01*
X102954482Y-122744188D01*
X102830000Y-122731928D01*
X102030000Y-122731928D01*
X101905518Y-122744188D01*
X101785820Y-122780498D01*
X101675506Y-122839463D01*
X101578815Y-122918815D01*
X101499463Y-123015506D01*
X101440498Y-123125820D01*
X101404188Y-123245518D01*
X101391928Y-123370000D01*
X101391928Y-125170000D01*
X101404188Y-125294482D01*
X101440498Y-125414180D01*
X101499463Y-125524494D01*
X101578815Y-125621185D01*
X101675506Y-125700537D01*
X101785820Y-125759502D01*
X101905518Y-125795812D01*
X102030000Y-125808072D01*
X102770000Y-125808072D01*
X102770000Y-126390626D01*
X102740498Y-126445820D01*
X102704188Y-126565518D01*
X102691928Y-126690000D01*
X102691928Y-126753270D01*
X100853997Y-128591202D01*
X100824999Y-128615000D01*
X100752986Y-128615000D01*
X100660000Y-128633496D01*
X100660000Y-115270000D01*
X101391928Y-115270000D01*
X101404188Y-115394482D01*
X101440498Y-115514180D01*
X101499463Y-115624494D01*
X101578815Y-115721185D01*
X101675506Y-115800537D01*
X101785820Y-115859502D01*
X101905518Y-115895812D01*
X102030000Y-115908072D01*
X102144250Y-115905000D01*
X102303000Y-115746250D01*
X102303000Y-114497000D01*
X101553750Y-114497000D01*
X101395000Y-114655750D01*
X101391928Y-115270000D01*
X100660000Y-115270000D01*
X100660000Y-113470000D01*
X101391928Y-113470000D01*
X101395000Y-114084250D01*
X101553750Y-114243000D01*
X102303000Y-114243000D01*
X102303000Y-112993750D01*
X102144250Y-112835000D01*
X102030000Y-112831928D01*
X101905518Y-112844188D01*
X101785820Y-112880498D01*
X101675506Y-112939463D01*
X101578815Y-113018815D01*
X101499463Y-113115506D01*
X101440498Y-113225820D01*
X101404188Y-113345518D01*
X101391928Y-113470000D01*
X100660000Y-113470000D01*
X100660000Y-112127000D01*
X102645000Y-112127000D01*
X102645000Y-112905750D01*
X102557000Y-112993750D01*
X102557000Y-113194947D01*
X102540498Y-113225820D01*
X102504188Y-113345518D01*
X102491928Y-113470000D01*
X102491928Y-115270000D01*
X102504188Y-115394482D01*
X102540498Y-115514180D01*
X102557000Y-115545053D01*
X102557000Y-115746250D01*
X102715750Y-115905000D01*
X102830000Y-115908072D01*
X102954482Y-115895812D01*
X102980000Y-115888071D01*
X103005518Y-115895812D01*
X103130000Y-115908072D01*
X103930000Y-115908072D01*
X104054482Y-115895812D01*
X104080000Y-115888071D01*
X104105518Y-115895812D01*
X104230000Y-115908072D01*
X104344250Y-115905000D01*
X104503000Y-115746250D01*
X104503000Y-115545053D01*
X104519502Y-115514180D01*
X104555812Y-115394482D01*
X104568072Y-115270000D01*
X104568072Y-113470000D01*
X104691928Y-113470000D01*
X104691928Y-115270000D01*
X104704188Y-115394482D01*
X104740498Y-115514180D01*
X104757000Y-115545053D01*
X104757000Y-115746250D01*
X104915750Y-115905000D01*
X105030000Y-115908072D01*
X105154482Y-115895812D01*
X105180000Y-115888071D01*
X105205518Y-115895812D01*
X105330000Y-115908072D01*
X106130000Y-115908072D01*
X106254482Y-115895812D01*
X106280000Y-115888071D01*
X106305518Y-115895812D01*
X106430000Y-115908072D01*
X107230000Y-115908072D01*
X107354482Y-115895812D01*
X107380000Y-115888071D01*
X107405518Y-115895812D01*
X107530000Y-115908072D01*
X107644250Y-115905000D01*
X107803000Y-115746250D01*
X107803000Y-115545053D01*
X107819502Y-115514180D01*
X107855812Y-115394482D01*
X107868072Y-115270000D01*
X107868072Y-113470000D01*
X107991928Y-113470000D01*
X107991928Y-115270000D01*
X108004188Y-115394482D01*
X108040498Y-115514180D01*
X108057000Y-115545053D01*
X108057000Y-115746250D01*
X108215750Y-115905000D01*
X108330000Y-115908072D01*
X108454482Y-115895812D01*
X108480000Y-115888071D01*
X108505518Y-115895812D01*
X108630000Y-115908072D01*
X109430000Y-115908072D01*
X109554482Y-115895812D01*
X109580000Y-115888071D01*
X109605518Y-115895812D01*
X109730000Y-115908072D01*
X110530000Y-115908072D01*
X110654482Y-115895812D01*
X110680000Y-115888071D01*
X110705518Y-115895812D01*
X110830000Y-115908072D01*
X111630000Y-115908072D01*
X111754482Y-115895812D01*
X111874180Y-115859502D01*
X111984494Y-115800537D01*
X112081185Y-115721185D01*
X112160537Y-115624494D01*
X112219502Y-115514180D01*
X112255812Y-115394482D01*
X112268072Y-115270000D01*
X112268072Y-113470000D01*
X112255812Y-113345518D01*
X112219502Y-113225820D01*
X112160537Y-113115506D01*
X112081185Y-113018815D01*
X111984494Y-112939463D01*
X111874180Y-112880498D01*
X111754482Y-112844188D01*
X111630000Y-112831928D01*
X110830000Y-112831928D01*
X110705518Y-112844188D01*
X110680000Y-112851929D01*
X110654482Y-112844188D01*
X110530000Y-112831928D01*
X109730000Y-112831928D01*
X109605518Y-112844188D01*
X109580000Y-112851929D01*
X109554482Y-112844188D01*
X109430000Y-112831928D01*
X108630000Y-112831928D01*
X108505518Y-112844188D01*
X108480000Y-112851929D01*
X108454482Y-112844188D01*
X108330000Y-112831928D01*
X108215750Y-112835000D01*
X108057000Y-112993750D01*
X108057000Y-113194947D01*
X108040498Y-113225820D01*
X108004188Y-113345518D01*
X107991928Y-113470000D01*
X107868072Y-113470000D01*
X107855812Y-113345518D01*
X107819502Y-113225820D01*
X107803000Y-113194947D01*
X107803000Y-112993750D01*
X107644250Y-112835000D01*
X107530000Y-112831928D01*
X107405518Y-112844188D01*
X107380000Y-112851929D01*
X107354482Y-112844188D01*
X107230000Y-112831928D01*
X106430000Y-112831928D01*
X106305518Y-112844188D01*
X106280000Y-112851929D01*
X106254482Y-112844188D01*
X106130000Y-112831928D01*
X105330000Y-112831928D01*
X105205518Y-112844188D01*
X105180000Y-112851929D01*
X105154482Y-112844188D01*
X105030000Y-112831928D01*
X104915750Y-112835000D01*
X104757000Y-112993750D01*
X104757000Y-113194947D01*
X104740498Y-113225820D01*
X104704188Y-113345518D01*
X104691928Y-113470000D01*
X104568072Y-113470000D01*
X104555812Y-113345518D01*
X104519502Y-113225820D01*
X104503000Y-113194947D01*
X104503000Y-112993750D01*
X104415000Y-112905750D01*
X104415000Y-112127000D01*
X111750000Y-112127000D01*
X111774776Y-112124560D01*
X111798601Y-112117333D01*
X111820557Y-112105597D01*
X111839803Y-112089803D01*
X111855597Y-112070557D01*
X111867333Y-112048601D01*
X111874560Y-112024776D01*
X111877000Y-112000000D01*
X111877000Y-101660000D01*
X119873000Y-101660000D01*
X119873000Y-112000000D01*
G36*
X110787753Y-132245546D02*
G01*
X110931014Y-132289003D01*
X111042667Y-132300000D01*
X111042676Y-132300000D01*
X111079999Y-132303676D01*
X111117322Y-132300000D01*
X116879701Y-132300000D01*
X118530000Y-133950300D01*
X118530001Y-134706999D01*
X118524901Y-134712099D01*
X118417104Y-134873428D01*
X118342853Y-135052686D01*
X118305000Y-135242986D01*
X118305000Y-135437014D01*
X118342853Y-135627314D01*
X118417104Y-135806572D01*
X118524901Y-135967901D01*
X118530000Y-135973000D01*
X118530001Y-137424198D01*
X117796913Y-138157287D01*
X117795546Y-138152779D01*
X117724974Y-138020750D01*
X117685190Y-137972273D01*
X117653799Y-137934022D01*
X117653795Y-137934018D01*
X117630001Y-137905025D01*
X117601009Y-137881232D01*
X115538778Y-135819002D01*
X115514975Y-135789999D01*
X115399250Y-135695026D01*
X115267221Y-135624454D01*
X115123960Y-135580997D01*
X115012307Y-135570000D01*
X115012296Y-135570000D01*
X114974974Y-135566324D01*
X114937652Y-135570000D01*
X114074300Y-135570000D01*
X110706315Y-132202016D01*
X110787753Y-132245546D01*
G37*
X110787753Y-132245546D02*
X110931014Y-132289003D01*
X111042667Y-132300000D01*
X111042676Y-132300000D01*
X111079999Y-132303676D01*
X111117322Y-132300000D01*
X116879701Y-132300000D01*
X118530000Y-133950300D01*
X118530001Y-134706999D01*
X118524901Y-134712099D01*
X118417104Y-134873428D01*
X118342853Y-135052686D01*
X118305000Y-135242986D01*
X118305000Y-135437014D01*
X118342853Y-135627314D01*
X118417104Y-135806572D01*
X118524901Y-135967901D01*
X118530000Y-135973000D01*
X118530001Y-137424198D01*
X117796913Y-138157287D01*
X117795546Y-138152779D01*
X117724974Y-138020750D01*
X117685190Y-137972273D01*
X117653799Y-137934022D01*
X117653795Y-137934018D01*
X117630001Y-137905025D01*
X117601009Y-137881232D01*
X115538778Y-135819002D01*
X115514975Y-135789999D01*
X115399250Y-135695026D01*
X115267221Y-135624454D01*
X115123960Y-135580997D01*
X115012307Y-135570000D01*
X115012296Y-135570000D01*
X114974974Y-135566324D01*
X114937652Y-135570000D01*
X114074300Y-135570000D01*
X110706315Y-132202016D01*
X110787753Y-132245546D01*
G36*
X112973265Y-129429970D02*
G01*
X111954000Y-129429970D01*
X110771428Y-128247399D01*
X110791185Y-128231185D01*
X110870537Y-128134494D01*
X110929502Y-128024180D01*
X110965812Y-127904482D01*
X110978072Y-127780000D01*
X110978072Y-127434775D01*
X112973265Y-129429970D01*
G37*
X112973265Y-129429970D02*
X111954000Y-129429970D01*
X110771428Y-128247399D01*
X110791185Y-128231185D01*
X110870537Y-128134494D01*
X110929502Y-128024180D01*
X110965812Y-127904482D01*
X110978072Y-127780000D01*
X110978072Y-127434775D01*
X112973265Y-129429970D01*
G36*
X105205518Y-125795812D02*
G01*
X105330000Y-125808072D01*
X105575715Y-125808072D01*
X105110402Y-126273385D01*
X105092631Y-126250559D01*
X104998012Y-126168748D01*
X104889249Y-126106968D01*
X104770524Y-126067594D01*
X104661750Y-126055000D01*
X104503000Y-126213750D01*
X104503000Y-126863000D01*
X104520788Y-126863000D01*
X104368072Y-127015716D01*
X104368072Y-126690000D01*
X104357000Y-126577580D01*
X104357000Y-126213750D01*
X104290000Y-126146750D01*
X104290000Y-125808072D01*
X105030000Y-125808072D01*
X105154482Y-125795812D01*
X105180000Y-125788071D01*
X105205518Y-125795812D01*
G37*
X105205518Y-125795812D02*
X105330000Y-125808072D01*
X105575715Y-125808072D01*
X105110402Y-126273385D01*
X105092631Y-126250559D01*
X104998012Y-126168748D01*
X104889249Y-126106968D01*
X104770524Y-126067594D01*
X104661750Y-126055000D01*
X104503000Y-126213750D01*
X104503000Y-126863000D01*
X104520788Y-126863000D01*
X104368072Y-127015716D01*
X104368072Y-126690000D01*
X104357000Y-126577580D01*
X104357000Y-126213750D01*
X104290000Y-126146750D01*
X104290000Y-125808072D01*
X105030000Y-125808072D01*
X105154482Y-125795812D01*
X105180000Y-125788071D01*
X105205518Y-125795812D01*
M02*
