G04 #@! TF.GenerationSoftware,KiCad,Pcbnew,(5.1.6)-1*
G04 #@! TF.CreationDate,2022-11-14T19:34:08+01:00*
G04 #@! TF.ProjectId,LoRa_Balloon,4c6f5261-5f42-4616-9c6c-6f6f6e2e6b69,2*
G04 #@! TF.SameCoordinates,Original*
G04 #@! TF.FileFunction,Other,Fab,Bot*
%FSLAX46Y46*%
G04 Gerber Fmt 4.6, Leading zero omitted, Abs format (unit mm)*
G04 Created by KiCad (PCBNEW (5.1.6)-1) date 2022-11-14 19:34:08*
%MOMM*%
%LPD*%
G01*
G04 APERTURE LIST*
%ADD10C,0.150000*%
G04 APERTURE END LIST*
D10*
X112515714Y-113889047D02*
X113182380Y-113889047D01*
X112515714Y-113460476D02*
X113039523Y-113460476D01*
X113134761Y-113508095D01*
X113182380Y-113603333D01*
X113182380Y-113746190D01*
X113134761Y-113841428D01*
X113087142Y-113889047D01*
X113182380Y-114365238D02*
X112182380Y-114365238D01*
X112563333Y-114365238D02*
X112515714Y-114460476D01*
X112515714Y-114650952D01*
X112563333Y-114746190D01*
X112610952Y-114793809D01*
X112706190Y-114841428D01*
X112991904Y-114841428D01*
X113087142Y-114793809D01*
X113134761Y-114746190D01*
X113182380Y-114650952D01*
X113182380Y-114460476D01*
X113134761Y-114365238D01*
X113182380Y-115412857D02*
X113134761Y-115317619D01*
X113039523Y-115270000D01*
X112182380Y-115270000D01*
X113182380Y-115936666D02*
X113134761Y-115841428D01*
X113087142Y-115793809D01*
X112991904Y-115746190D01*
X112706190Y-115746190D01*
X112610952Y-115793809D01*
X112563333Y-115841428D01*
X112515714Y-115936666D01*
X112515714Y-116079523D01*
X112563333Y-116174761D01*
X112610952Y-116222380D01*
X112706190Y-116270000D01*
X112991904Y-116270000D01*
X113087142Y-116222380D01*
X113134761Y-116174761D01*
X113182380Y-116079523D01*
X113182380Y-115936666D01*
X113182380Y-116603333D02*
X112515714Y-117127142D01*
X112515714Y-116603333D02*
X113182380Y-117127142D01*
X113277619Y-117270000D02*
X113277619Y-118031904D01*
X113182380Y-118270000D02*
X112182380Y-118270000D01*
X112896666Y-118603333D01*
X112182380Y-118936666D01*
X113182380Y-118936666D01*
X112896666Y-119365238D02*
X112896666Y-119841428D01*
X113182380Y-119270000D02*
X112182380Y-119603333D01*
X113182380Y-119936666D01*
X112182380Y-120174761D02*
X113182380Y-120841428D01*
X112182380Y-120841428D02*
X113182380Y-120174761D01*
X112801428Y-121222380D02*
X112801428Y-121984285D01*
X113182380Y-122460476D02*
X112182380Y-122460476D01*
X112896666Y-122793809D01*
X112182380Y-123127142D01*
X113182380Y-123127142D01*
X112610952Y-123746190D02*
X112563333Y-123650952D01*
X112515714Y-123603333D01*
X112420476Y-123555714D01*
X112372857Y-123555714D01*
X112277619Y-123603333D01*
X112230000Y-123650952D01*
X112182380Y-123746190D01*
X112182380Y-123936666D01*
X112230000Y-124031904D01*
X112277619Y-124079523D01*
X112372857Y-124127142D01*
X112420476Y-124127142D01*
X112515714Y-124079523D01*
X112563333Y-124031904D01*
X112610952Y-123936666D01*
X112610952Y-123746190D01*
X112658571Y-123650952D01*
X112706190Y-123603333D01*
X112801428Y-123555714D01*
X112991904Y-123555714D01*
X113087142Y-123603333D01*
X113134761Y-123650952D01*
X113182380Y-123746190D01*
X113182380Y-123936666D01*
X113134761Y-124031904D01*
X113087142Y-124079523D01*
X112991904Y-124127142D01*
X112801428Y-124127142D01*
X112706190Y-124079523D01*
X112658571Y-124031904D01*
X112610952Y-123936666D01*
X113087142Y-125127142D02*
X113134761Y-125079523D01*
X113182380Y-124936666D01*
X113182380Y-124841428D01*
X113134761Y-124698571D01*
X113039523Y-124603333D01*
X112944285Y-124555714D01*
X112753809Y-124508095D01*
X112610952Y-124508095D01*
X112420476Y-124555714D01*
X112325238Y-124603333D01*
X112230000Y-124698571D01*
X112182380Y-124841428D01*
X112182380Y-124936666D01*
X112230000Y-125079523D01*
X112277619Y-125127142D01*
X114187142Y-133843180D02*
X113520476Y-133843180D01*
X113949047Y-134843180D01*
X113187142Y-134557466D02*
X112710952Y-134557466D01*
X113282380Y-134843180D02*
X112949047Y-133843180D01*
X112615714Y-134843180D01*
X112282380Y-134462228D02*
X111520476Y-134462228D01*
X110520476Y-134843180D02*
X111091904Y-134843180D01*
X110806190Y-134843180D02*
X110806190Y-133843180D01*
X110901428Y-133986038D01*
X110996666Y-134081276D01*
X111091904Y-134128895D01*
X110139523Y-133938419D02*
X110091904Y-133890800D01*
X109996666Y-133843180D01*
X109758571Y-133843180D01*
X109663333Y-133890800D01*
X109615714Y-133938419D01*
X109568095Y-134033657D01*
X109568095Y-134128895D01*
X109615714Y-134271752D01*
X110187142Y-134843180D01*
X109568095Y-134843180D01*
X109139523Y-134747942D02*
X109091904Y-134795561D01*
X109139523Y-134843180D01*
X109187142Y-134795561D01*
X109139523Y-134747942D01*
X109139523Y-134843180D01*
X108472857Y-133843180D02*
X108377619Y-133843180D01*
X108282380Y-133890800D01*
X108234761Y-133938419D01*
X108187142Y-134033657D01*
X108139523Y-134224133D01*
X108139523Y-134462228D01*
X108187142Y-134652704D01*
X108234761Y-134747942D01*
X108282380Y-134795561D01*
X108377619Y-134843180D01*
X108472857Y-134843180D01*
X108568095Y-134795561D01*
X108615714Y-134747942D01*
X108663333Y-134652704D01*
X108710952Y-134462228D01*
X108710952Y-134224133D01*
X108663333Y-134033657D01*
X108615714Y-133938419D01*
X108568095Y-133890800D01*
X108472857Y-133843180D01*
X107520476Y-133843180D02*
X107425238Y-133843180D01*
X107330000Y-133890800D01*
X107282380Y-133938419D01*
X107234761Y-134033657D01*
X107187142Y-134224133D01*
X107187142Y-134462228D01*
X107234761Y-134652704D01*
X107282380Y-134747942D01*
X107330000Y-134795561D01*
X107425238Y-134843180D01*
X107520476Y-134843180D01*
X107615714Y-134795561D01*
X107663333Y-134747942D01*
X107710952Y-134652704D01*
X107758571Y-134462228D01*
X107758571Y-134224133D01*
X107710952Y-134033657D01*
X107663333Y-133938419D01*
X107615714Y-133890800D01*
X107520476Y-133843180D01*
X106568095Y-133843180D02*
X106472857Y-133843180D01*
X106377619Y-133890800D01*
X106330000Y-133938419D01*
X106282380Y-134033657D01*
X106234761Y-134224133D01*
X106234761Y-134462228D01*
X106282380Y-134652704D01*
X106330000Y-134747942D01*
X106377619Y-134795561D01*
X106472857Y-134843180D01*
X106568095Y-134843180D01*
X106663333Y-134795561D01*
X106710952Y-134747942D01*
X106758571Y-134652704D01*
X106806190Y-134462228D01*
X106806190Y-134224133D01*
X106758571Y-134033657D01*
X106710952Y-133938419D01*
X106663333Y-133890800D01*
X106568095Y-133843180D01*
X105806190Y-134843180D02*
X105806190Y-133843180D01*
X105472857Y-134557466D01*
X105139523Y-133843180D01*
X105139523Y-134843180D01*
X104710952Y-134557466D02*
X104234761Y-134557466D01*
X104806190Y-134843180D02*
X104472857Y-133843180D01*
X104139523Y-134843180D01*
X103853809Y-134557466D02*
X103377619Y-134557466D01*
X103949047Y-134843180D02*
X103615714Y-133843180D01*
X103282380Y-134843180D01*
X102663333Y-133843180D02*
X102663333Y-134557466D01*
X102710952Y-134700323D01*
X102806190Y-134795561D01*
X102949047Y-134843180D01*
X103044285Y-134843180D01*
X102187142Y-134462228D02*
X101425238Y-134462228D01*
X101091904Y-133843180D02*
X100520476Y-133843180D01*
X100806190Y-134843180D02*
X100806190Y-133843180D01*
X100425238Y-134938419D02*
X99663333Y-134938419D01*
X98853809Y-134747942D02*
X98901428Y-134795561D01*
X99044285Y-134843180D01*
X99139523Y-134843180D01*
X99282380Y-134795561D01*
X99377619Y-134700323D01*
X99425238Y-134605085D01*
X99472857Y-134414609D01*
X99472857Y-134271752D01*
X99425238Y-134081276D01*
X99377619Y-133986038D01*
X99282380Y-133890800D01*
X99139523Y-133843180D01*
X99044285Y-133843180D01*
X98901428Y-133890800D01*
X98853809Y-133938419D01*
X98425238Y-134843180D02*
X98425238Y-133843180D01*
X97949047Y-134843180D02*
X97949047Y-133843180D01*
X97710952Y-133843180D01*
X97568095Y-133890800D01*
X97472857Y-133986038D01*
X97425238Y-134081276D01*
X97377619Y-134271752D01*
X97377619Y-134414609D01*
X97425238Y-134605085D01*
X97472857Y-134700323D01*
X97568095Y-134795561D01*
X97710952Y-134843180D01*
X97949047Y-134843180D01*
X96425238Y-134843180D02*
X96996666Y-134843180D01*
X96710952Y-134843180D02*
X96710952Y-133843180D01*
X96806190Y-133986038D01*
X96901428Y-134081276D01*
X96996666Y-134128895D01*
X95472857Y-134843180D02*
X96044285Y-134843180D01*
X95758571Y-134843180D02*
X95758571Y-133843180D01*
X95853809Y-133986038D01*
X95949047Y-134081276D01*
X96044285Y-134128895D01*
X95139523Y-133843180D02*
X94472857Y-133843180D01*
X94901428Y-134843180D01*
X105130000Y-99336190D02*
X105091904Y-99260000D01*
X105091904Y-99145714D01*
X105130000Y-99031428D01*
X105206190Y-98955238D01*
X105282380Y-98917142D01*
X105434761Y-98879047D01*
X105549047Y-98879047D01*
X105701428Y-98917142D01*
X105777619Y-98955238D01*
X105853809Y-99031428D01*
X105891904Y-99145714D01*
X105891904Y-99221904D01*
X105853809Y-99336190D01*
X105815714Y-99374285D01*
X105549047Y-99374285D01*
X105549047Y-99221904D01*
X105891904Y-99717142D02*
X105091904Y-99717142D01*
X105091904Y-100021904D01*
X105130000Y-100098095D01*
X105168095Y-100136190D01*
X105244285Y-100174285D01*
X105358571Y-100174285D01*
X105434761Y-100136190D01*
X105472857Y-100098095D01*
X105510952Y-100021904D01*
X105510952Y-99717142D01*
X105853809Y-100479047D02*
X105891904Y-100593333D01*
X105891904Y-100783809D01*
X105853809Y-100860000D01*
X105815714Y-100898095D01*
X105739523Y-100936190D01*
X105663333Y-100936190D01*
X105587142Y-100898095D01*
X105549047Y-100860000D01*
X105510952Y-100783809D01*
X105472857Y-100631428D01*
X105434761Y-100555238D01*
X105396666Y-100517142D01*
X105320476Y-100479047D01*
X105244285Y-100479047D01*
X105168095Y-100517142D01*
X105130000Y-100555238D01*
X105091904Y-100631428D01*
X105091904Y-100821904D01*
X105130000Y-100936190D01*
X105968095Y-101088571D02*
X105968095Y-101698095D01*
X105853809Y-102231428D02*
X105891904Y-102155238D01*
X105891904Y-102002857D01*
X105853809Y-101926666D01*
X105815714Y-101888571D01*
X105739523Y-101850476D01*
X105510952Y-101850476D01*
X105434761Y-101888571D01*
X105396666Y-101926666D01*
X105358571Y-102002857D01*
X105358571Y-102155238D01*
X105396666Y-102231428D01*
X105853809Y-102879047D02*
X105891904Y-102802857D01*
X105891904Y-102650476D01*
X105853809Y-102574285D01*
X105777619Y-102536190D01*
X105472857Y-102536190D01*
X105396666Y-102574285D01*
X105358571Y-102650476D01*
X105358571Y-102802857D01*
X105396666Y-102879047D01*
X105472857Y-102917142D01*
X105549047Y-102917142D01*
X105625238Y-102536190D01*
X105891904Y-103260000D02*
X105358571Y-103260000D01*
X105510952Y-103260000D02*
X105434761Y-103298095D01*
X105396666Y-103336190D01*
X105358571Y-103412380D01*
X105358571Y-103488571D01*
X105891904Y-104098095D02*
X105472857Y-104098095D01*
X105396666Y-104060000D01*
X105358571Y-103983809D01*
X105358571Y-103831428D01*
X105396666Y-103755238D01*
X105853809Y-104098095D02*
X105891904Y-104021904D01*
X105891904Y-103831428D01*
X105853809Y-103755238D01*
X105777619Y-103717142D01*
X105701428Y-103717142D01*
X105625238Y-103755238D01*
X105587142Y-103831428D01*
X105587142Y-104021904D01*
X105549047Y-104098095D01*
X105891904Y-104479047D02*
X105358571Y-104479047D01*
X105434761Y-104479047D02*
X105396666Y-104517142D01*
X105358571Y-104593333D01*
X105358571Y-104707619D01*
X105396666Y-104783809D01*
X105472857Y-104821904D01*
X105891904Y-104821904D01*
X105472857Y-104821904D02*
X105396666Y-104860000D01*
X105358571Y-104936190D01*
X105358571Y-105050476D01*
X105396666Y-105126666D01*
X105472857Y-105164761D01*
X105891904Y-105164761D01*
X105891904Y-105545714D02*
X105358571Y-105545714D01*
X105091904Y-105545714D02*
X105130000Y-105507619D01*
X105168095Y-105545714D01*
X105130000Y-105583809D01*
X105091904Y-105545714D01*
X105168095Y-105545714D01*
X105853809Y-106269523D02*
X105891904Y-106193333D01*
X105891904Y-106040952D01*
X105853809Y-105964761D01*
X105815714Y-105926666D01*
X105739523Y-105888571D01*
X105510952Y-105888571D01*
X105434761Y-105926666D01*
X105396666Y-105964761D01*
X105358571Y-106040952D01*
X105358571Y-106193333D01*
X105396666Y-106269523D01*
X105968095Y-106421904D02*
X105968095Y-107031428D01*
X105891904Y-107564761D02*
X105472857Y-107564761D01*
X105396666Y-107526666D01*
X105358571Y-107450476D01*
X105358571Y-107298095D01*
X105396666Y-107221904D01*
X105853809Y-107564761D02*
X105891904Y-107488571D01*
X105891904Y-107298095D01*
X105853809Y-107221904D01*
X105777619Y-107183809D01*
X105701428Y-107183809D01*
X105625238Y-107221904D01*
X105587142Y-107298095D01*
X105587142Y-107488571D01*
X105549047Y-107564761D01*
X105358571Y-107945714D02*
X105891904Y-107945714D01*
X105434761Y-107945714D02*
X105396666Y-107983809D01*
X105358571Y-108059999D01*
X105358571Y-108174285D01*
X105396666Y-108250476D01*
X105472857Y-108288571D01*
X105891904Y-108288571D01*
X105358571Y-108555238D02*
X105358571Y-108859999D01*
X105091904Y-108669523D02*
X105777619Y-108669523D01*
X105853809Y-108707619D01*
X105891904Y-108783809D01*
X105891904Y-108859999D01*
X105853809Y-109431428D02*
X105891904Y-109355238D01*
X105891904Y-109202857D01*
X105853809Y-109126666D01*
X105777619Y-109088571D01*
X105472857Y-109088571D01*
X105396666Y-109126666D01*
X105358571Y-109202857D01*
X105358571Y-109355238D01*
X105396666Y-109431428D01*
X105472857Y-109469523D01*
X105549047Y-109469523D01*
X105625238Y-109088571D01*
X105358571Y-109812380D02*
X105891904Y-109812380D01*
X105434761Y-109812380D02*
X105396666Y-109850476D01*
X105358571Y-109926666D01*
X105358571Y-110040952D01*
X105396666Y-110117142D01*
X105472857Y-110155238D01*
X105891904Y-110155238D01*
X105358571Y-110536190D02*
X105891904Y-110536190D01*
X105434761Y-110536190D02*
X105396666Y-110574285D01*
X105358571Y-110650476D01*
X105358571Y-110764761D01*
X105396666Y-110840952D01*
X105472857Y-110879047D01*
X105891904Y-110879047D01*
X105891904Y-111602857D02*
X105472857Y-111602857D01*
X105396666Y-111564761D01*
X105358571Y-111488571D01*
X105358571Y-111336190D01*
X105396666Y-111259999D01*
X105853809Y-111602857D02*
X105891904Y-111526666D01*
X105891904Y-111336190D01*
X105853809Y-111259999D01*
X105777619Y-111221904D01*
X105701428Y-111221904D01*
X105625238Y-111259999D01*
X105587142Y-111336190D01*
X105587142Y-111526666D01*
X105549047Y-111602857D01*
X112285714Y-135186666D02*
X111809523Y-135186666D01*
X112380952Y-135472380D02*
X112047619Y-134472380D01*
X111714285Y-135472380D01*
X111523809Y-134472380D02*
X110952380Y-134472380D01*
X111238095Y-135472380D02*
X111238095Y-134472380D01*
X110619047Y-135472380D02*
X110619047Y-134472380D01*
X110285714Y-135186666D01*
X109952380Y-134472380D01*
X109952380Y-135472380D01*
X109476190Y-134948571D02*
X109142857Y-134948571D01*
X109000000Y-135472380D02*
X109476190Y-135472380D01*
X109476190Y-134472380D01*
X109000000Y-134472380D01*
X108047619Y-134520000D02*
X108142857Y-134472380D01*
X108285714Y-134472380D01*
X108428571Y-134520000D01*
X108523809Y-134615238D01*
X108571428Y-134710476D01*
X108619047Y-134900952D01*
X108619047Y-135043809D01*
X108571428Y-135234285D01*
X108523809Y-135329523D01*
X108428571Y-135424761D01*
X108285714Y-135472380D01*
X108190476Y-135472380D01*
X108047619Y-135424761D01*
X108000000Y-135377142D01*
X108000000Y-135043809D01*
X108190476Y-135043809D01*
X107619047Y-135186666D02*
X107142857Y-135186666D01*
X107714285Y-135472380D02*
X107380952Y-134472380D01*
X107047619Y-135472380D01*
X106809523Y-134472380D02*
X106190476Y-134472380D01*
X106523809Y-134853333D01*
X106380952Y-134853333D01*
X106285714Y-134900952D01*
X106238095Y-134948571D01*
X106190476Y-135043809D01*
X106190476Y-135281904D01*
X106238095Y-135377142D01*
X106285714Y-135424761D01*
X106380952Y-135472380D01*
X106666666Y-135472380D01*
X106761904Y-135424761D01*
X106809523Y-135377142D01*
X105809523Y-134567619D02*
X105761904Y-134520000D01*
X105666666Y-134472380D01*
X105428571Y-134472380D01*
X105333333Y-134520000D01*
X105285714Y-134567619D01*
X105238095Y-134662857D01*
X105238095Y-134758095D01*
X105285714Y-134900952D01*
X105857142Y-135472380D01*
X105238095Y-135472380D01*
X104666666Y-134900952D02*
X104761904Y-134853333D01*
X104809523Y-134805714D01*
X104857142Y-134710476D01*
X104857142Y-134662857D01*
X104809523Y-134567619D01*
X104761904Y-134520000D01*
X104666666Y-134472380D01*
X104476190Y-134472380D01*
X104380952Y-134520000D01*
X104333333Y-134567619D01*
X104285714Y-134662857D01*
X104285714Y-134710476D01*
X104333333Y-134805714D01*
X104380952Y-134853333D01*
X104476190Y-134900952D01*
X104666666Y-134900952D01*
X104761904Y-134948571D01*
X104809523Y-134996190D01*
X104857142Y-135091428D01*
X104857142Y-135281904D01*
X104809523Y-135377142D01*
X104761904Y-135424761D01*
X104666666Y-135472380D01*
X104476190Y-135472380D01*
X104380952Y-135424761D01*
X104333333Y-135377142D01*
X104285714Y-135281904D01*
X104285714Y-135091428D01*
X104333333Y-134996190D01*
X104380952Y-134948571D01*
X104476190Y-134900952D01*
X103857142Y-135472380D02*
X103857142Y-134472380D01*
X103476190Y-134472380D01*
X103380952Y-134520000D01*
X103333333Y-134567619D01*
X103285714Y-134662857D01*
X103285714Y-134805714D01*
X103333333Y-134900952D01*
X103380952Y-134948571D01*
X103476190Y-134996190D01*
X103857142Y-134996190D01*
X102857142Y-135091428D02*
X102095238Y-135091428D01*
X101619047Y-135472380D02*
X101619047Y-134472380D01*
X101285714Y-135186666D01*
X100952380Y-134472380D01*
X100952380Y-135472380D01*
X100476190Y-135472380D02*
X100476190Y-134472380D01*
X100142857Y-135186666D01*
X99809523Y-134472380D01*
X99809523Y-135472380D01*
X99333333Y-135472380D02*
X99333333Y-134472380D01*
X99333333Y-134948571D02*
X98761904Y-134948571D01*
X98761904Y-135472380D02*
X98761904Y-134472380D01*
X112170476Y-129047142D02*
X112218095Y-129094761D01*
X112360952Y-129142380D01*
X112456190Y-129142380D01*
X112599047Y-129094761D01*
X112694285Y-128999523D01*
X112741904Y-128904285D01*
X112789523Y-128713809D01*
X112789523Y-128570952D01*
X112741904Y-128380476D01*
X112694285Y-128285238D01*
X112599047Y-128190000D01*
X112456190Y-128142380D01*
X112360952Y-128142380D01*
X112218095Y-128190000D01*
X112170476Y-128237619D01*
X111980000Y-129237619D02*
X111218095Y-129237619D01*
X110789523Y-128142380D02*
X110694285Y-128142380D01*
X110599047Y-128190000D01*
X110551428Y-128237619D01*
X110503809Y-128332857D01*
X110456190Y-128523333D01*
X110456190Y-128761428D01*
X110503809Y-128951904D01*
X110551428Y-129047142D01*
X110599047Y-129094761D01*
X110694285Y-129142380D01*
X110789523Y-129142380D01*
X110884761Y-129094761D01*
X110932380Y-129047142D01*
X110980000Y-128951904D01*
X111027619Y-128761428D01*
X111027619Y-128523333D01*
X110980000Y-128332857D01*
X110932380Y-128237619D01*
X110884761Y-128190000D01*
X110789523Y-128142380D01*
X109599047Y-128475714D02*
X109599047Y-129142380D01*
X109837142Y-128094761D02*
X110075238Y-128809047D01*
X109456190Y-128809047D01*
X108884761Y-128142380D02*
X108789523Y-128142380D01*
X108694285Y-128190000D01*
X108646666Y-128237619D01*
X108599047Y-128332857D01*
X108551428Y-128523333D01*
X108551428Y-128761428D01*
X108599047Y-128951904D01*
X108646666Y-129047142D01*
X108694285Y-129094761D01*
X108789523Y-129142380D01*
X108884761Y-129142380D01*
X108980000Y-129094761D01*
X109027619Y-129047142D01*
X109075238Y-128951904D01*
X109122857Y-128761428D01*
X109122857Y-128523333D01*
X109075238Y-128332857D01*
X109027619Y-128237619D01*
X108980000Y-128190000D01*
X108884761Y-128142380D01*
X108170476Y-128237619D02*
X108122857Y-128190000D01*
X108027619Y-128142380D01*
X107789523Y-128142380D01*
X107694285Y-128190000D01*
X107646666Y-128237619D01*
X107599047Y-128332857D01*
X107599047Y-128428095D01*
X107646666Y-128570952D01*
X108218095Y-129142380D01*
X107599047Y-129142380D01*
X107408571Y-129237619D02*
X106646666Y-129237619D01*
X105884761Y-129142380D02*
X106456190Y-129142380D01*
X106170476Y-129142380D02*
X106170476Y-128142380D01*
X106265714Y-128285238D01*
X106360952Y-128380476D01*
X106456190Y-128428095D01*
X105265714Y-128142380D02*
X105170476Y-128142380D01*
X105075238Y-128190000D01*
X105027619Y-128237619D01*
X104980000Y-128332857D01*
X104932380Y-128523333D01*
X104932380Y-128761428D01*
X104980000Y-128951904D01*
X105027619Y-129047142D01*
X105075238Y-129094761D01*
X105170476Y-129142380D01*
X105265714Y-129142380D01*
X105360952Y-129094761D01*
X105408571Y-129047142D01*
X105456190Y-128951904D01*
X105503809Y-128761428D01*
X105503809Y-128523333D01*
X105456190Y-128332857D01*
X105408571Y-128237619D01*
X105360952Y-128190000D01*
X105265714Y-128142380D01*
X104313333Y-128142380D02*
X104218095Y-128142380D01*
X104122857Y-128190000D01*
X104075238Y-128237619D01*
X104027619Y-128332857D01*
X103980000Y-128523333D01*
X103980000Y-128761428D01*
X104027619Y-128951904D01*
X104075238Y-129047142D01*
X104122857Y-129094761D01*
X104218095Y-129142380D01*
X104313333Y-129142380D01*
X104408571Y-129094761D01*
X104456190Y-129047142D01*
X104503809Y-128951904D01*
X104551428Y-128761428D01*
X104551428Y-128523333D01*
X104503809Y-128332857D01*
X104456190Y-128237619D01*
X104408571Y-128190000D01*
X104313333Y-128142380D01*
X103551428Y-128475714D02*
X103551428Y-129142380D01*
X103551428Y-128570952D02*
X103503809Y-128523333D01*
X103408571Y-128475714D01*
X103265714Y-128475714D01*
X103170476Y-128523333D01*
X103122857Y-128618571D01*
X103122857Y-129142380D01*
X102313333Y-128618571D02*
X102646666Y-128618571D01*
X102646666Y-129142380D02*
X102646666Y-128142380D01*
X102170476Y-128142380D01*
X102027619Y-129237619D02*
X101265714Y-129237619D01*
X100456190Y-129047142D02*
X100503809Y-129094761D01*
X100646666Y-129142380D01*
X100741904Y-129142380D01*
X100884761Y-129094761D01*
X100980000Y-128999523D01*
X101027619Y-128904285D01*
X101075238Y-128713809D01*
X101075238Y-128570952D01*
X101027619Y-128380476D01*
X100980000Y-128285238D01*
X100884761Y-128190000D01*
X100741904Y-128142380D01*
X100646666Y-128142380D01*
X100503809Y-128190000D01*
X100456190Y-128237619D01*
X100027619Y-129142380D02*
X100027619Y-128142380D01*
X99551428Y-129142380D02*
X99551428Y-128142380D01*
X99313333Y-128142380D01*
X99170476Y-128190000D01*
X99075238Y-128285238D01*
X99027619Y-128380476D01*
X98980000Y-128570952D01*
X98980000Y-128713809D01*
X99027619Y-128904285D01*
X99075238Y-128999523D01*
X99170476Y-129094761D01*
X99313333Y-129142380D01*
X99551428Y-129142380D01*
X98599047Y-128237619D02*
X98551428Y-128190000D01*
X98456190Y-128142380D01*
X98218095Y-128142380D01*
X98122857Y-128190000D01*
X98075238Y-128237619D01*
X98027619Y-128332857D01*
X98027619Y-128428095D01*
X98075238Y-128570952D01*
X98646666Y-129142380D01*
X98027619Y-129142380D01*
X97408571Y-128142380D02*
X97313333Y-128142380D01*
X97218095Y-128190000D01*
X97170476Y-128237619D01*
X97122857Y-128332857D01*
X97075238Y-128523333D01*
X97075238Y-128761428D01*
X97122857Y-128951904D01*
X97170476Y-129047142D01*
X97218095Y-129094761D01*
X97313333Y-129142380D01*
X97408571Y-129142380D01*
X97503809Y-129094761D01*
X97551428Y-129047142D01*
X97599047Y-128951904D01*
X97646666Y-128761428D01*
X97646666Y-128523333D01*
X97599047Y-128332857D01*
X97551428Y-128237619D01*
X97503809Y-128190000D01*
X97408571Y-128142380D01*
X96741904Y-128142380D02*
X96075238Y-128142380D01*
X96503809Y-129142380D01*
X95741904Y-128237619D02*
X95694285Y-128190000D01*
X95599047Y-128142380D01*
X95360952Y-128142380D01*
X95265714Y-128190000D01*
X95218095Y-128237619D01*
X95170476Y-128332857D01*
X95170476Y-128428095D01*
X95218095Y-128570952D01*
X95789523Y-129142380D01*
X95170476Y-129142380D01*
X102247142Y-131785714D02*
X102294761Y-131738095D01*
X102342380Y-131595238D01*
X102342380Y-131500000D01*
X102294761Y-131357142D01*
X102199523Y-131261904D01*
X102104285Y-131214285D01*
X101913809Y-131166666D01*
X101770952Y-131166666D01*
X101580476Y-131214285D01*
X101485238Y-131261904D01*
X101390000Y-131357142D01*
X101342380Y-131500000D01*
X101342380Y-131595238D01*
X101390000Y-131738095D01*
X101437619Y-131785714D01*
X102437619Y-131976190D02*
X102437619Y-132738095D01*
X101342380Y-133166666D02*
X101342380Y-133261904D01*
X101390000Y-133357142D01*
X101437619Y-133404761D01*
X101532857Y-133452380D01*
X101723333Y-133500000D01*
X101961428Y-133500000D01*
X102151904Y-133452380D01*
X102247142Y-133404761D01*
X102294761Y-133357142D01*
X102342380Y-133261904D01*
X102342380Y-133166666D01*
X102294761Y-133071428D01*
X102247142Y-133023809D01*
X102151904Y-132976190D01*
X101961428Y-132928571D01*
X101723333Y-132928571D01*
X101532857Y-132976190D01*
X101437619Y-133023809D01*
X101390000Y-133071428D01*
X101342380Y-133166666D01*
X101342380Y-134357142D02*
X101342380Y-134166666D01*
X101390000Y-134071428D01*
X101437619Y-134023809D01*
X101580476Y-133928571D01*
X101770952Y-133880952D01*
X102151904Y-133880952D01*
X102247142Y-133928571D01*
X102294761Y-133976190D01*
X102342380Y-134071428D01*
X102342380Y-134261904D01*
X102294761Y-134357142D01*
X102247142Y-134404761D01*
X102151904Y-134452380D01*
X101913809Y-134452380D01*
X101818571Y-134404761D01*
X101770952Y-134357142D01*
X101723333Y-134261904D01*
X101723333Y-134071428D01*
X101770952Y-133976190D01*
X101818571Y-133928571D01*
X101913809Y-133880952D01*
X101342380Y-135071428D02*
X101342380Y-135166666D01*
X101390000Y-135261904D01*
X101437619Y-135309523D01*
X101532857Y-135357142D01*
X101723333Y-135404761D01*
X101961428Y-135404761D01*
X102151904Y-135357142D01*
X102247142Y-135309523D01*
X102294761Y-135261904D01*
X102342380Y-135166666D01*
X102342380Y-135071428D01*
X102294761Y-134976190D01*
X102247142Y-134928571D01*
X102151904Y-134880952D01*
X101961428Y-134833333D01*
X101723333Y-134833333D01*
X101532857Y-134880952D01*
X101437619Y-134928571D01*
X101390000Y-134976190D01*
X101342380Y-135071428D01*
X101342380Y-135738095D02*
X101342380Y-136357142D01*
X101723333Y-136023809D01*
X101723333Y-136166666D01*
X101770952Y-136261904D01*
X101818571Y-136309523D01*
X101913809Y-136357142D01*
X102151904Y-136357142D01*
X102247142Y-136309523D01*
X102294761Y-136261904D01*
X102342380Y-136166666D01*
X102342380Y-135880952D01*
X102294761Y-135785714D01*
X102247142Y-135738095D01*
X102437619Y-136547619D02*
X102437619Y-137309523D01*
X102342380Y-138071428D02*
X102342380Y-137500000D01*
X102342380Y-137785714D02*
X101342380Y-137785714D01*
X101485238Y-137690476D01*
X101580476Y-137595238D01*
X101628095Y-137500000D01*
X101770952Y-138642857D02*
X101723333Y-138547619D01*
X101675714Y-138500000D01*
X101580476Y-138452380D01*
X101532857Y-138452380D01*
X101437619Y-138500000D01*
X101390000Y-138547619D01*
X101342380Y-138642857D01*
X101342380Y-138833333D01*
X101390000Y-138928571D01*
X101437619Y-138976190D01*
X101532857Y-139023809D01*
X101580476Y-139023809D01*
X101675714Y-138976190D01*
X101723333Y-138928571D01*
X101770952Y-138833333D01*
X101770952Y-138642857D01*
X101818571Y-138547619D01*
X101866190Y-138500000D01*
X101961428Y-138452380D01*
X102151904Y-138452380D01*
X102247142Y-138500000D01*
X102294761Y-138547619D01*
X102342380Y-138642857D01*
X102342380Y-138833333D01*
X102294761Y-138928571D01*
X102247142Y-138976190D01*
X102151904Y-139023809D01*
X101961428Y-139023809D01*
X101866190Y-138976190D01*
X101818571Y-138928571D01*
X101770952Y-138833333D01*
X101675714Y-139452380D02*
X102675714Y-139452380D01*
X101723333Y-139452380D02*
X101675714Y-139547619D01*
X101675714Y-139738095D01*
X101723333Y-139833333D01*
X101770952Y-139880952D01*
X101866190Y-139928571D01*
X102151904Y-139928571D01*
X102247142Y-139880952D01*
X102294761Y-139833333D01*
X102342380Y-139738095D01*
X102342380Y-139547619D01*
X102294761Y-139452380D01*
X101818571Y-140690476D02*
X101818571Y-140357142D01*
X102342380Y-140357142D02*
X101342380Y-140357142D01*
X101342380Y-140833333D01*
X102437619Y-140976190D02*
X102437619Y-141738095D01*
X102247142Y-142547619D02*
X102294761Y-142500000D01*
X102342380Y-142357142D01*
X102342380Y-142261904D01*
X102294761Y-142119047D01*
X102199523Y-142023809D01*
X102104285Y-141976190D01*
X101913809Y-141928571D01*
X101770952Y-141928571D01*
X101580476Y-141976190D01*
X101485238Y-142023809D01*
X101390000Y-142119047D01*
X101342380Y-142261904D01*
X101342380Y-142357142D01*
X101390000Y-142500000D01*
X101437619Y-142547619D01*
X102342380Y-142976190D02*
X101342380Y-142976190D01*
X102342380Y-143452380D02*
X101342380Y-143452380D01*
X101342380Y-143690476D01*
X101390000Y-143833333D01*
X101485238Y-143928571D01*
X101580476Y-143976190D01*
X101770952Y-144023809D01*
X101913809Y-144023809D01*
X102104285Y-143976190D01*
X102199523Y-143928571D01*
X102294761Y-143833333D01*
X102342380Y-143690476D01*
X102342380Y-143452380D01*
X101437619Y-144404761D02*
X101390000Y-144452380D01*
X101342380Y-144547619D01*
X101342380Y-144785714D01*
X101390000Y-144880952D01*
X101437619Y-144928571D01*
X101532857Y-144976190D01*
X101628095Y-144976190D01*
X101770952Y-144928571D01*
X102342380Y-144357142D01*
X102342380Y-144976190D01*
X101342380Y-145595238D02*
X101342380Y-145690476D01*
X101390000Y-145785714D01*
X101437619Y-145833333D01*
X101532857Y-145880952D01*
X101723333Y-145928571D01*
X101961428Y-145928571D01*
X102151904Y-145880952D01*
X102247142Y-145833333D01*
X102294761Y-145785714D01*
X102342380Y-145690476D01*
X102342380Y-145595238D01*
X102294761Y-145500000D01*
X102247142Y-145452380D01*
X102151904Y-145404761D01*
X101961428Y-145357142D01*
X101723333Y-145357142D01*
X101532857Y-145404761D01*
X101437619Y-145452380D01*
X101390000Y-145500000D01*
X101342380Y-145595238D01*
X102342380Y-146880952D02*
X102342380Y-146309523D01*
X102342380Y-146595238D02*
X101342380Y-146595238D01*
X101485238Y-146500000D01*
X101580476Y-146404761D01*
X101628095Y-146309523D01*
X102342380Y-147357142D02*
X102342380Y-147547619D01*
X102294761Y-147642857D01*
X102247142Y-147690476D01*
X102104285Y-147785714D01*
X101913809Y-147833333D01*
X101532857Y-147833333D01*
X101437619Y-147785714D01*
X101390000Y-147738095D01*
X101342380Y-147642857D01*
X101342380Y-147452380D01*
X101390000Y-147357142D01*
X101437619Y-147309523D01*
X101532857Y-147261904D01*
X101770952Y-147261904D01*
X101866190Y-147309523D01*
X101913809Y-147357142D01*
X101961428Y-147452380D01*
X101961428Y-147642857D01*
X101913809Y-147738095D01*
X101866190Y-147785714D01*
X101770952Y-147833333D01*
X103547142Y-131785714D02*
X103594761Y-131738095D01*
X103642380Y-131595238D01*
X103642380Y-131500000D01*
X103594761Y-131357142D01*
X103499523Y-131261904D01*
X103404285Y-131214285D01*
X103213809Y-131166666D01*
X103070952Y-131166666D01*
X102880476Y-131214285D01*
X102785238Y-131261904D01*
X102690000Y-131357142D01*
X102642380Y-131500000D01*
X102642380Y-131595238D01*
X102690000Y-131738095D01*
X102737619Y-131785714D01*
X103737619Y-131976190D02*
X103737619Y-132738095D01*
X102642380Y-133166666D02*
X102642380Y-133261904D01*
X102690000Y-133357142D01*
X102737619Y-133404761D01*
X102832857Y-133452380D01*
X103023333Y-133500000D01*
X103261428Y-133500000D01*
X103451904Y-133452380D01*
X103547142Y-133404761D01*
X103594761Y-133357142D01*
X103642380Y-133261904D01*
X103642380Y-133166666D01*
X103594761Y-133071428D01*
X103547142Y-133023809D01*
X103451904Y-132976190D01*
X103261428Y-132928571D01*
X103023333Y-132928571D01*
X102832857Y-132976190D01*
X102737619Y-133023809D01*
X102690000Y-133071428D01*
X102642380Y-133166666D01*
X102642380Y-134357142D02*
X102642380Y-134166666D01*
X102690000Y-134071428D01*
X102737619Y-134023809D01*
X102880476Y-133928571D01*
X103070952Y-133880952D01*
X103451904Y-133880952D01*
X103547142Y-133928571D01*
X103594761Y-133976190D01*
X103642380Y-134071428D01*
X103642380Y-134261904D01*
X103594761Y-134357142D01*
X103547142Y-134404761D01*
X103451904Y-134452380D01*
X103213809Y-134452380D01*
X103118571Y-134404761D01*
X103070952Y-134357142D01*
X103023333Y-134261904D01*
X103023333Y-134071428D01*
X103070952Y-133976190D01*
X103118571Y-133928571D01*
X103213809Y-133880952D01*
X102642380Y-135071428D02*
X102642380Y-135166666D01*
X102690000Y-135261904D01*
X102737619Y-135309523D01*
X102832857Y-135357142D01*
X103023333Y-135404761D01*
X103261428Y-135404761D01*
X103451904Y-135357142D01*
X103547142Y-135309523D01*
X103594761Y-135261904D01*
X103642380Y-135166666D01*
X103642380Y-135071428D01*
X103594761Y-134976190D01*
X103547142Y-134928571D01*
X103451904Y-134880952D01*
X103261428Y-134833333D01*
X103023333Y-134833333D01*
X102832857Y-134880952D01*
X102737619Y-134928571D01*
X102690000Y-134976190D01*
X102642380Y-135071428D01*
X102642380Y-135738095D02*
X102642380Y-136357142D01*
X103023333Y-136023809D01*
X103023333Y-136166666D01*
X103070952Y-136261904D01*
X103118571Y-136309523D01*
X103213809Y-136357142D01*
X103451904Y-136357142D01*
X103547142Y-136309523D01*
X103594761Y-136261904D01*
X103642380Y-136166666D01*
X103642380Y-135880952D01*
X103594761Y-135785714D01*
X103547142Y-135738095D01*
X103737619Y-136547619D02*
X103737619Y-137309523D01*
X103642380Y-138071428D02*
X103642380Y-137500000D01*
X103642380Y-137785714D02*
X102642380Y-137785714D01*
X102785238Y-137690476D01*
X102880476Y-137595238D01*
X102928095Y-137500000D01*
X103070952Y-138642857D02*
X103023333Y-138547619D01*
X102975714Y-138500000D01*
X102880476Y-138452380D01*
X102832857Y-138452380D01*
X102737619Y-138500000D01*
X102690000Y-138547619D01*
X102642380Y-138642857D01*
X102642380Y-138833333D01*
X102690000Y-138928571D01*
X102737619Y-138976190D01*
X102832857Y-139023809D01*
X102880476Y-139023809D01*
X102975714Y-138976190D01*
X103023333Y-138928571D01*
X103070952Y-138833333D01*
X103070952Y-138642857D01*
X103118571Y-138547619D01*
X103166190Y-138500000D01*
X103261428Y-138452380D01*
X103451904Y-138452380D01*
X103547142Y-138500000D01*
X103594761Y-138547619D01*
X103642380Y-138642857D01*
X103642380Y-138833333D01*
X103594761Y-138928571D01*
X103547142Y-138976190D01*
X103451904Y-139023809D01*
X103261428Y-139023809D01*
X103166190Y-138976190D01*
X103118571Y-138928571D01*
X103070952Y-138833333D01*
X102975714Y-139452380D02*
X103975714Y-139452380D01*
X103023333Y-139452380D02*
X102975714Y-139547619D01*
X102975714Y-139738095D01*
X103023333Y-139833333D01*
X103070952Y-139880952D01*
X103166190Y-139928571D01*
X103451904Y-139928571D01*
X103547142Y-139880952D01*
X103594761Y-139833333D01*
X103642380Y-139738095D01*
X103642380Y-139547619D01*
X103594761Y-139452380D01*
X103118571Y-140690476D02*
X103118571Y-140357142D01*
X103642380Y-140357142D02*
X102642380Y-140357142D01*
X102642380Y-140833333D01*
X103737619Y-140976190D02*
X103737619Y-141738095D01*
X103547142Y-142547619D02*
X103594761Y-142500000D01*
X103642380Y-142357142D01*
X103642380Y-142261904D01*
X103594761Y-142119047D01*
X103499523Y-142023809D01*
X103404285Y-141976190D01*
X103213809Y-141928571D01*
X103070952Y-141928571D01*
X102880476Y-141976190D01*
X102785238Y-142023809D01*
X102690000Y-142119047D01*
X102642380Y-142261904D01*
X102642380Y-142357142D01*
X102690000Y-142500000D01*
X102737619Y-142547619D01*
X103642380Y-142976190D02*
X102642380Y-142976190D01*
X103642380Y-143452380D02*
X102642380Y-143452380D01*
X102642380Y-143690476D01*
X102690000Y-143833333D01*
X102785238Y-143928571D01*
X102880476Y-143976190D01*
X103070952Y-144023809D01*
X103213809Y-144023809D01*
X103404285Y-143976190D01*
X103499523Y-143928571D01*
X103594761Y-143833333D01*
X103642380Y-143690476D01*
X103642380Y-143452380D01*
X102737619Y-144404761D02*
X102690000Y-144452380D01*
X102642380Y-144547619D01*
X102642380Y-144785714D01*
X102690000Y-144880952D01*
X102737619Y-144928571D01*
X102832857Y-144976190D01*
X102928095Y-144976190D01*
X103070952Y-144928571D01*
X103642380Y-144357142D01*
X103642380Y-144976190D01*
X102642380Y-145595238D02*
X102642380Y-145690476D01*
X102690000Y-145785714D01*
X102737619Y-145833333D01*
X102832857Y-145880952D01*
X103023333Y-145928571D01*
X103261428Y-145928571D01*
X103451904Y-145880952D01*
X103547142Y-145833333D01*
X103594761Y-145785714D01*
X103642380Y-145690476D01*
X103642380Y-145595238D01*
X103594761Y-145500000D01*
X103547142Y-145452380D01*
X103451904Y-145404761D01*
X103261428Y-145357142D01*
X103023333Y-145357142D01*
X102832857Y-145404761D01*
X102737619Y-145452380D01*
X102690000Y-145500000D01*
X102642380Y-145595238D01*
X103642380Y-146880952D02*
X103642380Y-146309523D01*
X103642380Y-146595238D02*
X102642380Y-146595238D01*
X102785238Y-146500000D01*
X102880476Y-146404761D01*
X102928095Y-146309523D01*
X103642380Y-147357142D02*
X103642380Y-147547619D01*
X103594761Y-147642857D01*
X103547142Y-147690476D01*
X103404285Y-147785714D01*
X103213809Y-147833333D01*
X102832857Y-147833333D01*
X102737619Y-147785714D01*
X102690000Y-147738095D01*
X102642380Y-147642857D01*
X102642380Y-147452380D01*
X102690000Y-147357142D01*
X102737619Y-147309523D01*
X102832857Y-147261904D01*
X103070952Y-147261904D01*
X103166190Y-147309523D01*
X103213809Y-147357142D01*
X103261428Y-147452380D01*
X103261428Y-147642857D01*
X103213809Y-147738095D01*
X103166190Y-147785714D01*
X103070952Y-147833333D01*
X112097142Y-118939523D02*
X112144761Y-118891904D01*
X112192380Y-118749047D01*
X112192380Y-118653809D01*
X112144761Y-118510952D01*
X112049523Y-118415714D01*
X111954285Y-118368095D01*
X111763809Y-118320476D01*
X111620952Y-118320476D01*
X111430476Y-118368095D01*
X111335238Y-118415714D01*
X111240000Y-118510952D01*
X111192380Y-118653809D01*
X111192380Y-118749047D01*
X111240000Y-118891904D01*
X111287619Y-118939523D01*
X112287619Y-119130000D02*
X112287619Y-119891904D01*
X111192380Y-120320476D02*
X111192380Y-120415714D01*
X111240000Y-120510952D01*
X111287619Y-120558571D01*
X111382857Y-120606190D01*
X111573333Y-120653809D01*
X111811428Y-120653809D01*
X112001904Y-120606190D01*
X112097142Y-120558571D01*
X112144761Y-120510952D01*
X112192380Y-120415714D01*
X112192380Y-120320476D01*
X112144761Y-120225238D01*
X112097142Y-120177619D01*
X112001904Y-120130000D01*
X111811428Y-120082380D01*
X111573333Y-120082380D01*
X111382857Y-120130000D01*
X111287619Y-120177619D01*
X111240000Y-120225238D01*
X111192380Y-120320476D01*
X111525714Y-121510952D02*
X112192380Y-121510952D01*
X111144761Y-121272857D02*
X111859047Y-121034761D01*
X111859047Y-121653809D01*
X111192380Y-122225238D02*
X111192380Y-122320476D01*
X111240000Y-122415714D01*
X111287619Y-122463333D01*
X111382857Y-122510952D01*
X111573333Y-122558571D01*
X111811428Y-122558571D01*
X112001904Y-122510952D01*
X112097142Y-122463333D01*
X112144761Y-122415714D01*
X112192380Y-122320476D01*
X112192380Y-122225238D01*
X112144761Y-122130000D01*
X112097142Y-122082380D01*
X112001904Y-122034761D01*
X111811428Y-121987142D01*
X111573333Y-121987142D01*
X111382857Y-122034761D01*
X111287619Y-122082380D01*
X111240000Y-122130000D01*
X111192380Y-122225238D01*
X111287619Y-122939523D02*
X111240000Y-122987142D01*
X111192380Y-123082380D01*
X111192380Y-123320476D01*
X111240000Y-123415714D01*
X111287619Y-123463333D01*
X111382857Y-123510952D01*
X111478095Y-123510952D01*
X111620952Y-123463333D01*
X112192380Y-122891904D01*
X112192380Y-123510952D01*
X112287619Y-123701428D02*
X112287619Y-124463333D01*
X112192380Y-125225238D02*
X112192380Y-124653809D01*
X112192380Y-124939523D02*
X111192380Y-124939523D01*
X111335238Y-124844285D01*
X111430476Y-124749047D01*
X111478095Y-124653809D01*
X111192380Y-125844285D02*
X111192380Y-125939523D01*
X111240000Y-126034761D01*
X111287619Y-126082380D01*
X111382857Y-126130000D01*
X111573333Y-126177619D01*
X111811428Y-126177619D01*
X112001904Y-126130000D01*
X112097142Y-126082380D01*
X112144761Y-126034761D01*
X112192380Y-125939523D01*
X112192380Y-125844285D01*
X112144761Y-125749047D01*
X112097142Y-125701428D01*
X112001904Y-125653809D01*
X111811428Y-125606190D01*
X111573333Y-125606190D01*
X111382857Y-125653809D01*
X111287619Y-125701428D01*
X111240000Y-125749047D01*
X111192380Y-125844285D01*
X111192380Y-126796666D02*
X111192380Y-126891904D01*
X111240000Y-126987142D01*
X111287619Y-127034761D01*
X111382857Y-127082380D01*
X111573333Y-127130000D01*
X111811428Y-127130000D01*
X112001904Y-127082380D01*
X112097142Y-127034761D01*
X112144761Y-126987142D01*
X112192380Y-126891904D01*
X112192380Y-126796666D01*
X112144761Y-126701428D01*
X112097142Y-126653809D01*
X112001904Y-126606190D01*
X111811428Y-126558571D01*
X111573333Y-126558571D01*
X111382857Y-126606190D01*
X111287619Y-126653809D01*
X111240000Y-126701428D01*
X111192380Y-126796666D01*
X111525714Y-127558571D02*
X112192380Y-127558571D01*
X111620952Y-127558571D02*
X111573333Y-127606190D01*
X111525714Y-127701428D01*
X111525714Y-127844285D01*
X111573333Y-127939523D01*
X111668571Y-127987142D01*
X112192380Y-127987142D01*
X111668571Y-128796666D02*
X111668571Y-128463333D01*
X112192380Y-128463333D02*
X111192380Y-128463333D01*
X111192380Y-128939523D01*
X112287619Y-129082380D02*
X112287619Y-129844285D01*
X112097142Y-130653809D02*
X112144761Y-130606190D01*
X112192380Y-130463333D01*
X112192380Y-130368095D01*
X112144761Y-130225238D01*
X112049523Y-130130000D01*
X111954285Y-130082380D01*
X111763809Y-130034761D01*
X111620952Y-130034761D01*
X111430476Y-130082380D01*
X111335238Y-130130000D01*
X111240000Y-130225238D01*
X111192380Y-130368095D01*
X111192380Y-130463333D01*
X111240000Y-130606190D01*
X111287619Y-130653809D01*
X112192380Y-131082380D02*
X111192380Y-131082380D01*
X112192380Y-131558571D02*
X111192380Y-131558571D01*
X111192380Y-131796666D01*
X111240000Y-131939523D01*
X111335238Y-132034761D01*
X111430476Y-132082380D01*
X111620952Y-132130000D01*
X111763809Y-132130000D01*
X111954285Y-132082380D01*
X112049523Y-132034761D01*
X112144761Y-131939523D01*
X112192380Y-131796666D01*
X112192380Y-131558571D01*
X111287619Y-132510952D02*
X111240000Y-132558571D01*
X111192380Y-132653809D01*
X111192380Y-132891904D01*
X111240000Y-132987142D01*
X111287619Y-133034761D01*
X111382857Y-133082380D01*
X111478095Y-133082380D01*
X111620952Y-133034761D01*
X112192380Y-132463333D01*
X112192380Y-133082380D01*
X111192380Y-133701428D02*
X111192380Y-133796666D01*
X111240000Y-133891904D01*
X111287619Y-133939523D01*
X111382857Y-133987142D01*
X111573333Y-134034761D01*
X111811428Y-134034761D01*
X112001904Y-133987142D01*
X112097142Y-133939523D01*
X112144761Y-133891904D01*
X112192380Y-133796666D01*
X112192380Y-133701428D01*
X112144761Y-133606190D01*
X112097142Y-133558571D01*
X112001904Y-133510952D01*
X111811428Y-133463333D01*
X111573333Y-133463333D01*
X111382857Y-133510952D01*
X111287619Y-133558571D01*
X111240000Y-133606190D01*
X111192380Y-133701428D01*
X111192380Y-134368095D02*
X111192380Y-135034761D01*
X112192380Y-134606190D01*
X111287619Y-135368095D02*
X111240000Y-135415714D01*
X111192380Y-135510952D01*
X111192380Y-135749047D01*
X111240000Y-135844285D01*
X111287619Y-135891904D01*
X111382857Y-135939523D01*
X111478095Y-135939523D01*
X111620952Y-135891904D01*
X112192380Y-135320476D01*
X112192380Y-135939523D01*
M02*
