G04 #@! TF.GenerationSoftware,KiCad,Pcbnew,(5.1.6)-1*
G04 #@! TF.CreationDate,2022-09-01T14:03:48+02:00*
G04 #@! TF.ProjectId,LoRa_Balloon,4c6f5261-5f42-4616-9c6c-6f6f6e2e6b69,2*
G04 #@! TF.SameCoordinates,Original*
G04 #@! TF.FileFunction,OtherDrawing,Comment*
%FSLAX46Y46*%
G04 Gerber Fmt 4.6, Leading zero omitted, Abs format (unit mm)*
G04 Created by KiCad (PCBNEW (5.1.6)-1) date 2022-09-01 14:03:48*
%MOMM*%
%LPD*%
G01*
G04 APERTURE LIST*
%ADD10C,0.150000*%
G04 APERTURE END LIST*
D10*
X134215714Y-128166666D02*
X134882380Y-128166666D01*
X133834761Y-128404761D02*
X134549047Y-128642857D01*
X134549047Y-128023809D01*
X133882380Y-127738095D02*
X133882380Y-127071428D01*
X134882380Y-127500000D01*
X134834761Y-126642857D02*
X134882380Y-126642857D01*
X134977619Y-126690476D01*
X135025238Y-126738095D01*
X133882380Y-126023809D02*
X133882380Y-125928571D01*
X133930000Y-125833333D01*
X133977619Y-125785714D01*
X134072857Y-125738095D01*
X134263333Y-125690476D01*
X134501428Y-125690476D01*
X134691904Y-125738095D01*
X134787142Y-125785714D01*
X134834761Y-125833333D01*
X134882380Y-125928571D01*
X134882380Y-126023809D01*
X134834761Y-126119047D01*
X134787142Y-126166666D01*
X134691904Y-126214285D01*
X134501428Y-126261904D01*
X134263333Y-126261904D01*
X134072857Y-126214285D01*
X133977619Y-126166666D01*
X133930000Y-126119047D01*
X133882380Y-126023809D01*
X133882380Y-125071428D02*
X133882380Y-124976190D01*
X133930000Y-124880952D01*
X133977619Y-124833333D01*
X134072857Y-124785714D01*
X134263333Y-124738095D01*
X134501428Y-124738095D01*
X134691904Y-124785714D01*
X134787142Y-124833333D01*
X134834761Y-124880952D01*
X134882380Y-124976190D01*
X134882380Y-125071428D01*
X134834761Y-125166666D01*
X134787142Y-125214285D01*
X134691904Y-125261904D01*
X134501428Y-125309523D01*
X134263333Y-125309523D01*
X134072857Y-125261904D01*
X133977619Y-125214285D01*
X133930000Y-125166666D01*
X133882380Y-125071428D01*
X133882380Y-124119047D02*
X133882380Y-124023809D01*
X133930000Y-123928571D01*
X133977619Y-123880952D01*
X134072857Y-123833333D01*
X134263333Y-123785714D01*
X134501428Y-123785714D01*
X134691904Y-123833333D01*
X134787142Y-123880952D01*
X134834761Y-123928571D01*
X134882380Y-124023809D01*
X134882380Y-124119047D01*
X134834761Y-124214285D01*
X134787142Y-124261904D01*
X134691904Y-124309523D01*
X134501428Y-124357142D01*
X134263333Y-124357142D01*
X134072857Y-124309523D01*
X133977619Y-124261904D01*
X133930000Y-124214285D01*
X133882380Y-124119047D01*
X134882380Y-122595238D02*
X134215714Y-122595238D01*
X134310952Y-122595238D02*
X134263333Y-122547619D01*
X134215714Y-122452380D01*
X134215714Y-122309523D01*
X134263333Y-122214285D01*
X134358571Y-122166666D01*
X134882380Y-122166666D01*
X134358571Y-122166666D02*
X134263333Y-122119047D01*
X134215714Y-122023809D01*
X134215714Y-121880952D01*
X134263333Y-121785714D01*
X134358571Y-121738095D01*
X134882380Y-121738095D01*
X134882380Y-121261904D02*
X134215714Y-121261904D01*
X134310952Y-121261904D02*
X134263333Y-121214285D01*
X134215714Y-121119047D01*
X134215714Y-120976190D01*
X134263333Y-120880952D01*
X134358571Y-120833333D01*
X134882380Y-120833333D01*
X134358571Y-120833333D02*
X134263333Y-120785714D01*
X134215714Y-120690476D01*
X134215714Y-120547619D01*
X134263333Y-120452380D01*
X134358571Y-120404761D01*
X134882380Y-120404761D01*
X133130000Y-148000000D02*
X133130000Y-101000000D01*
X126050000Y-148000000D02*
X133716421Y-148000000D01*
X126050000Y-101000000D02*
X133716421Y-101000000D01*
X133130000Y-101000000D02*
X133716421Y-102126504D01*
X133130000Y-101000000D02*
X132543579Y-102126504D01*
X133130000Y-148000000D02*
X133716421Y-146873496D01*
X133130000Y-148000000D02*
X132543579Y-146873496D01*
X110809523Y-98162380D02*
X111428571Y-98162380D01*
X111095238Y-98543333D01*
X111238095Y-98543333D01*
X111333333Y-98590952D01*
X111380952Y-98638571D01*
X111428571Y-98733809D01*
X111428571Y-98971904D01*
X111380952Y-99067142D01*
X111333333Y-99114761D01*
X111238095Y-99162380D01*
X110952380Y-99162380D01*
X110857142Y-99114761D01*
X110809523Y-99067142D01*
X112047619Y-98162380D02*
X112142857Y-98162380D01*
X112238095Y-98210000D01*
X112285714Y-98257619D01*
X112333333Y-98352857D01*
X112380952Y-98543333D01*
X112380952Y-98781428D01*
X112333333Y-98971904D01*
X112285714Y-99067142D01*
X112238095Y-99114761D01*
X112142857Y-99162380D01*
X112047619Y-99162380D01*
X111952380Y-99114761D01*
X111904761Y-99067142D01*
X111857142Y-98971904D01*
X111809523Y-98781428D01*
X111809523Y-98543333D01*
X111857142Y-98352857D01*
X111904761Y-98257619D01*
X111952380Y-98210000D01*
X112047619Y-98162380D01*
X112857142Y-99114761D02*
X112857142Y-99162380D01*
X112809523Y-99257619D01*
X112761904Y-99305238D01*
X113476190Y-98162380D02*
X113571428Y-98162380D01*
X113666666Y-98210000D01*
X113714285Y-98257619D01*
X113761904Y-98352857D01*
X113809523Y-98543333D01*
X113809523Y-98781428D01*
X113761904Y-98971904D01*
X113714285Y-99067142D01*
X113666666Y-99114761D01*
X113571428Y-99162380D01*
X113476190Y-99162380D01*
X113380952Y-99114761D01*
X113333333Y-99067142D01*
X113285714Y-98971904D01*
X113238095Y-98781428D01*
X113238095Y-98543333D01*
X113285714Y-98352857D01*
X113333333Y-98257619D01*
X113380952Y-98210000D01*
X113476190Y-98162380D01*
X114428571Y-98162380D02*
X114523809Y-98162380D01*
X114619047Y-98210000D01*
X114666666Y-98257619D01*
X114714285Y-98352857D01*
X114761904Y-98543333D01*
X114761904Y-98781428D01*
X114714285Y-98971904D01*
X114666666Y-99067142D01*
X114619047Y-99114761D01*
X114523809Y-99162380D01*
X114428571Y-99162380D01*
X114333333Y-99114761D01*
X114285714Y-99067142D01*
X114238095Y-98971904D01*
X114190476Y-98781428D01*
X114190476Y-98543333D01*
X114238095Y-98352857D01*
X114285714Y-98257619D01*
X114333333Y-98210000D01*
X114428571Y-98162380D01*
X115380952Y-98162380D02*
X115476190Y-98162380D01*
X115571428Y-98210000D01*
X115619047Y-98257619D01*
X115666666Y-98352857D01*
X115714285Y-98543333D01*
X115714285Y-98781428D01*
X115666666Y-98971904D01*
X115619047Y-99067142D01*
X115571428Y-99114761D01*
X115476190Y-99162380D01*
X115380952Y-99162380D01*
X115285714Y-99114761D01*
X115238095Y-99067142D01*
X115190476Y-98971904D01*
X115142857Y-98781428D01*
X115142857Y-98543333D01*
X115190476Y-98352857D01*
X115238095Y-98257619D01*
X115285714Y-98210000D01*
X115380952Y-98162380D01*
X116904761Y-99162380D02*
X116904761Y-98495714D01*
X116904761Y-98590952D02*
X116952380Y-98543333D01*
X117047619Y-98495714D01*
X117190476Y-98495714D01*
X117285714Y-98543333D01*
X117333333Y-98638571D01*
X117333333Y-99162380D01*
X117333333Y-98638571D02*
X117380952Y-98543333D01*
X117476190Y-98495714D01*
X117619047Y-98495714D01*
X117714285Y-98543333D01*
X117761904Y-98638571D01*
X117761904Y-99162380D01*
X118238095Y-99162380D02*
X118238095Y-98495714D01*
X118238095Y-98590952D02*
X118285714Y-98543333D01*
X118380952Y-98495714D01*
X118523809Y-98495714D01*
X118619047Y-98543333D01*
X118666666Y-98638571D01*
X118666666Y-99162380D01*
X118666666Y-98638571D02*
X118714285Y-98543333D01*
X118809523Y-98495714D01*
X118952380Y-98495714D01*
X119047619Y-98543333D01*
X119095238Y-98638571D01*
X119095238Y-99162380D01*
X100000000Y-100010000D02*
X130000000Y-100010000D01*
X100000000Y-101000000D02*
X100000000Y-99423579D01*
X130000000Y-101000000D02*
X130000000Y-99423579D01*
X130000000Y-100010000D02*
X128873496Y-100596421D01*
X130000000Y-100010000D02*
X128873496Y-99423579D01*
X100000000Y-100010000D02*
X101126504Y-100596421D01*
X100000000Y-100010000D02*
X101126504Y-99423579D01*
X95215714Y-125166666D02*
X95882380Y-125166666D01*
X94834761Y-125404761D02*
X95549047Y-125642857D01*
X95549047Y-125023809D01*
X95882380Y-124119047D02*
X95882380Y-124690476D01*
X95882380Y-124404761D02*
X94882380Y-124404761D01*
X95025238Y-124500000D01*
X95120476Y-124595238D01*
X95168095Y-124690476D01*
X95834761Y-123642857D02*
X95882380Y-123642857D01*
X95977619Y-123690476D01*
X96025238Y-123738095D01*
X94882380Y-123023809D02*
X94882380Y-122928571D01*
X94930000Y-122833333D01*
X94977619Y-122785714D01*
X95072857Y-122738095D01*
X95263333Y-122690476D01*
X95501428Y-122690476D01*
X95691904Y-122738095D01*
X95787142Y-122785714D01*
X95834761Y-122833333D01*
X95882380Y-122928571D01*
X95882380Y-123023809D01*
X95834761Y-123119047D01*
X95787142Y-123166666D01*
X95691904Y-123214285D01*
X95501428Y-123261904D01*
X95263333Y-123261904D01*
X95072857Y-123214285D01*
X94977619Y-123166666D01*
X94930000Y-123119047D01*
X94882380Y-123023809D01*
X94882380Y-122071428D02*
X94882380Y-121976190D01*
X94930000Y-121880952D01*
X94977619Y-121833333D01*
X95072857Y-121785714D01*
X95263333Y-121738095D01*
X95501428Y-121738095D01*
X95691904Y-121785714D01*
X95787142Y-121833333D01*
X95834761Y-121880952D01*
X95882380Y-121976190D01*
X95882380Y-122071428D01*
X95834761Y-122166666D01*
X95787142Y-122214285D01*
X95691904Y-122261904D01*
X95501428Y-122309523D01*
X95263333Y-122309523D01*
X95072857Y-122261904D01*
X94977619Y-122214285D01*
X94930000Y-122166666D01*
X94882380Y-122071428D01*
X94882380Y-121119047D02*
X94882380Y-121023809D01*
X94930000Y-120928571D01*
X94977619Y-120880952D01*
X95072857Y-120833333D01*
X95263333Y-120785714D01*
X95501428Y-120785714D01*
X95691904Y-120833333D01*
X95787142Y-120880952D01*
X95834761Y-120928571D01*
X95882380Y-121023809D01*
X95882380Y-121119047D01*
X95834761Y-121214285D01*
X95787142Y-121261904D01*
X95691904Y-121309523D01*
X95501428Y-121357142D01*
X95263333Y-121357142D01*
X95072857Y-121309523D01*
X94977619Y-121261904D01*
X94930000Y-121214285D01*
X94882380Y-121119047D01*
X95882380Y-119595238D02*
X95215714Y-119595238D01*
X95310952Y-119595238D02*
X95263333Y-119547619D01*
X95215714Y-119452380D01*
X95215714Y-119309523D01*
X95263333Y-119214285D01*
X95358571Y-119166666D01*
X95882380Y-119166666D01*
X95358571Y-119166666D02*
X95263333Y-119119047D01*
X95215714Y-119023809D01*
X95215714Y-118880952D01*
X95263333Y-118785714D01*
X95358571Y-118738095D01*
X95882380Y-118738095D01*
X95882380Y-118261904D02*
X95215714Y-118261904D01*
X95310952Y-118261904D02*
X95263333Y-118214285D01*
X95215714Y-118119047D01*
X95215714Y-117976190D01*
X95263333Y-117880952D01*
X95358571Y-117833333D01*
X95882380Y-117833333D01*
X95358571Y-117833333D02*
X95263333Y-117785714D01*
X95215714Y-117690476D01*
X95215714Y-117547619D01*
X95263333Y-117452380D01*
X95358571Y-117404761D01*
X95882380Y-117404761D01*
X96730000Y-142000000D02*
X96730000Y-101000000D01*
X100000000Y-142000000D02*
X96143579Y-142000000D01*
X100000000Y-101000000D02*
X96143579Y-101000000D01*
X96730000Y-101000000D02*
X97316421Y-102126504D01*
X96730000Y-101000000D02*
X96143579Y-102126504D01*
X96730000Y-142000000D02*
X97316421Y-140873496D01*
X96730000Y-142000000D02*
X96143579Y-140873496D01*
X110857142Y-153747618D02*
X110904761Y-153699999D01*
X111000000Y-153652379D01*
X111238095Y-153652379D01*
X111333333Y-153699999D01*
X111380952Y-153747618D01*
X111428571Y-153842856D01*
X111428571Y-153938094D01*
X111380952Y-154080951D01*
X110809523Y-154652379D01*
X111428571Y-154652379D01*
X111809523Y-153747618D02*
X111857142Y-153699999D01*
X111952380Y-153652379D01*
X112190476Y-153652379D01*
X112285714Y-153699999D01*
X112333333Y-153747618D01*
X112380952Y-153842856D01*
X112380952Y-153938094D01*
X112333333Y-154080951D01*
X111761904Y-154652379D01*
X112380952Y-154652379D01*
X112857142Y-154604760D02*
X112857142Y-154652379D01*
X112809523Y-154747618D01*
X112761904Y-154795237D01*
X113809523Y-154652379D02*
X113238095Y-154652379D01*
X113523809Y-154652379D02*
X113523809Y-153652379D01*
X113428571Y-153795237D01*
X113333333Y-153890475D01*
X113238095Y-153938094D01*
X114428571Y-153652379D02*
X114523809Y-153652379D01*
X114619047Y-153699999D01*
X114666666Y-153747618D01*
X114714285Y-153842856D01*
X114761904Y-154033332D01*
X114761904Y-154271427D01*
X114714285Y-154461903D01*
X114666666Y-154557141D01*
X114619047Y-154604760D01*
X114523809Y-154652379D01*
X114428571Y-154652379D01*
X114333333Y-154604760D01*
X114285714Y-154557141D01*
X114238095Y-154461903D01*
X114190476Y-154271427D01*
X114190476Y-154033332D01*
X114238095Y-153842856D01*
X114285714Y-153747618D01*
X114333333Y-153699999D01*
X114428571Y-153652379D01*
X115380952Y-153652379D02*
X115476190Y-153652379D01*
X115571428Y-153699999D01*
X115619047Y-153747618D01*
X115666666Y-153842856D01*
X115714285Y-154033332D01*
X115714285Y-154271427D01*
X115666666Y-154461903D01*
X115619047Y-154557141D01*
X115571428Y-154604760D01*
X115476190Y-154652379D01*
X115380952Y-154652379D01*
X115285714Y-154604760D01*
X115238095Y-154557141D01*
X115190476Y-154461903D01*
X115142857Y-154271427D01*
X115142857Y-154033332D01*
X115190476Y-153842856D01*
X115238095Y-153747618D01*
X115285714Y-153699999D01*
X115380952Y-153652379D01*
X116904761Y-154652379D02*
X116904761Y-153985713D01*
X116904761Y-154080951D02*
X116952380Y-154033332D01*
X117047619Y-153985713D01*
X117190476Y-153985713D01*
X117285714Y-154033332D01*
X117333333Y-154128570D01*
X117333333Y-154652379D01*
X117333333Y-154128570D02*
X117380952Y-154033332D01*
X117476190Y-153985713D01*
X117619047Y-153985713D01*
X117714285Y-154033332D01*
X117761904Y-154128570D01*
X117761904Y-154652379D01*
X118238095Y-154652379D02*
X118238095Y-153985713D01*
X118238095Y-154080951D02*
X118285714Y-154033332D01*
X118380952Y-153985713D01*
X118523809Y-153985713D01*
X118619047Y-154033332D01*
X118666666Y-154128570D01*
X118666666Y-154652379D01*
X118666666Y-154128570D02*
X118714285Y-154033332D01*
X118809523Y-153985713D01*
X118952380Y-153985713D01*
X119047619Y-154033332D01*
X119095238Y-154128570D01*
X119095238Y-154652379D01*
X103950000Y-152899999D02*
X126050000Y-152899999D01*
X103950000Y-148000000D02*
X103950000Y-153486420D01*
X126050000Y-148000000D02*
X126050000Y-153486420D01*
X126050000Y-152899999D02*
X124923496Y-153486420D01*
X126050000Y-152899999D02*
X124923496Y-152313578D01*
X103950000Y-152899999D02*
X105076504Y-153486420D01*
X103950000Y-152899999D02*
X105076504Y-152313578D01*
M02*
