G04 #@! TF.GenerationSoftware,KiCad,Pcbnew,(5.1.6)-1*
G04 #@! TF.CreationDate,2022-09-13T10:15:17+02:00*
G04 #@! TF.ProjectId,LoRa_Balloon,4c6f5261-5f42-4616-9c6c-6f6f6e2e6b69,2*
G04 #@! TF.SameCoordinates,Original*
G04 #@! TF.FileFunction,Other,User*
%FSLAX46Y46*%
G04 Gerber Fmt 4.6, Leading zero omitted, Abs format (unit mm)*
G04 Created by KiCad (PCBNEW (5.1.6)-1) date 2022-09-13 10:15:17*
%MOMM*%
%LPD*%
G01*
G04 APERTURE LIST*
%ADD10C,0.080000*%
%ADD11C,0.050000*%
G04 APERTURE END LIST*
D10*
X102530000Y-101760000D02*
X102530000Y-108760000D01*
X102530000Y-101760000D02*
X104530000Y-101760000D01*
X104530000Y-101760000D02*
X104530000Y-108760000D01*
X102530000Y-108760000D02*
X104530000Y-108760000D01*
D11*
X104930000Y-126340000D02*
X103030000Y-126340000D01*
X104930000Y-127640000D02*
X103030000Y-127640000D01*
X104930000Y-126340000D02*
X104930000Y-127640000D01*
X103030000Y-126340000D02*
X103030000Y-127640000D01*
X104240000Y-140450000D02*
X104240000Y-138550000D01*
X102940000Y-140450000D02*
X102940000Y-138550000D01*
X104240000Y-140450000D02*
X102940000Y-140450000D01*
X104240000Y-138550000D02*
X102940000Y-138550000D01*
X105540000Y-140450000D02*
X105540000Y-138550000D01*
X104240000Y-140450000D02*
X104240000Y-138550000D01*
X105540000Y-140450000D02*
X104240000Y-140450000D01*
X105540000Y-138550000D02*
X104240000Y-138550000D01*
X109390000Y-126180000D02*
X109390000Y-128080000D01*
X110690000Y-126180000D02*
X110690000Y-128080000D01*
X109390000Y-126180000D02*
X110690000Y-126180000D01*
X109390000Y-128080000D02*
X110690000Y-128080000D01*
M02*
