G04 #@! TF.GenerationSoftware,KiCad,Pcbnew,(5.1.4)-1*
G04 #@! TF.CreationDate,2020-12-03T17:51:28+01:00*
G04 #@! TF.ProjectId,LoRa_Balloon,4c6f5261-5f42-4616-9c6c-6f6f6e2e6b69,2*
G04 #@! TF.SameCoordinates,Original*
G04 #@! TF.FileFunction,Legend,Top*
G04 #@! TF.FilePolarity,Positive*
%FSLAX46Y46*%
G04 Gerber Fmt 4.6, Leading zero omitted, Abs format (unit mm)*
G04 Created by KiCad (PCBNEW (5.1.4)-1) date 2020-12-03 17:51:28*
%MOMM*%
%LPD*%
G04 APERTURE LIST*
%ADD10C,0.150000*%
%ADD11C,0.120000*%
%ADD12C,0.080000*%
%ADD13C,0.125000*%
G04 APERTURE END LIST*
D10*
X203304761Y-157561904D02*
X203304761Y-158133333D01*
X203266666Y-158247619D01*
X203190476Y-158323809D01*
X203076190Y-158361904D01*
X203000000Y-158361904D01*
X204066666Y-158361904D02*
X203685714Y-158361904D01*
X203685714Y-157561904D01*
X204790476Y-158285714D02*
X204752380Y-158323809D01*
X204638095Y-158361904D01*
X204561904Y-158361904D01*
X204447619Y-158323809D01*
X204371428Y-158247619D01*
X204333333Y-158171428D01*
X204295238Y-158019047D01*
X204295238Y-157904761D01*
X204333333Y-157752380D01*
X204371428Y-157676190D01*
X204447619Y-157600000D01*
X204561904Y-157561904D01*
X204638095Y-157561904D01*
X204752380Y-157600000D01*
X204790476Y-157638095D01*
X205361904Y-157561904D02*
X205361904Y-158133333D01*
X205323809Y-158247619D01*
X205247619Y-158323809D01*
X205133333Y-158361904D01*
X205057142Y-158361904D01*
X206123809Y-158361904D02*
X205742857Y-158361904D01*
X205742857Y-157561904D01*
X206847619Y-158285714D02*
X206809523Y-158323809D01*
X206695238Y-158361904D01*
X206619047Y-158361904D01*
X206504761Y-158323809D01*
X206428571Y-158247619D01*
X206390476Y-158171428D01*
X206352380Y-158019047D01*
X206352380Y-157904761D01*
X206390476Y-157752380D01*
X206428571Y-157676190D01*
X206504761Y-157600000D01*
X206619047Y-157561904D01*
X206695238Y-157561904D01*
X206809523Y-157600000D01*
X206847619Y-157638095D01*
X207419047Y-157561904D02*
X207419047Y-158133333D01*
X207380952Y-158247619D01*
X207304761Y-158323809D01*
X207190476Y-158361904D01*
X207114285Y-158361904D01*
X208180952Y-158361904D02*
X207800000Y-158361904D01*
X207800000Y-157561904D01*
X208904761Y-158285714D02*
X208866666Y-158323809D01*
X208752380Y-158361904D01*
X208676190Y-158361904D01*
X208561904Y-158323809D01*
X208485714Y-158247619D01*
X208447619Y-158171428D01*
X208409523Y-158019047D01*
X208409523Y-157904761D01*
X208447619Y-157752380D01*
X208485714Y-157676190D01*
X208561904Y-157600000D01*
X208676190Y-157561904D01*
X208752380Y-157561904D01*
X208866666Y-157600000D01*
X208904761Y-157638095D01*
X209476190Y-157561904D02*
X209476190Y-158133333D01*
X209438095Y-158247619D01*
X209361904Y-158323809D01*
X209247619Y-158361904D01*
X209171428Y-158361904D01*
X210238095Y-158361904D02*
X209857142Y-158361904D01*
X209857142Y-157561904D01*
X210961904Y-158285714D02*
X210923809Y-158323809D01*
X210809523Y-158361904D01*
X210733333Y-158361904D01*
X210619047Y-158323809D01*
X210542857Y-158247619D01*
X210504761Y-158171428D01*
X210466666Y-158019047D01*
X210466666Y-157904761D01*
X210504761Y-157752380D01*
X210542857Y-157676190D01*
X210619047Y-157600000D01*
X210733333Y-157561904D01*
X210809523Y-157561904D01*
X210923809Y-157600000D01*
X210961904Y-157638095D01*
D11*
X191541400Y-122707400D02*
X191541400Y-121983500D01*
X190677800Y-126974600D02*
X190677800Y-126695200D01*
X196977000Y-125577600D02*
X196977000Y-122783600D01*
X194703700Y-125577600D02*
X196977000Y-125577600D01*
X194068700Y-126796800D02*
X194068700Y-125577600D01*
X190677800Y-126974600D02*
X193560700Y-126974600D01*
X190677800Y-122707400D02*
X190677800Y-126288800D01*
X195580000Y-122707400D02*
X190677800Y-122707400D01*
X188861700Y-117779800D02*
X194068700Y-117779800D01*
X188861700Y-121970800D02*
X188861700Y-117779800D01*
X194068700Y-121970800D02*
X188861700Y-121970800D01*
X194068700Y-117779800D02*
X194068700Y-121970800D01*
X202514200Y-125945900D02*
X206756000Y-125945900D01*
X208241900Y-124968000D02*
X208241900Y-125945900D01*
X208241900Y-123913900D02*
X208241900Y-124536200D01*
X203238100Y-123913900D02*
X208241900Y-123913900D01*
X201942700Y-123913900D02*
X202095100Y-123913900D01*
X201942700Y-125272800D02*
X201942700Y-123913900D01*
X210362800Y-126542800D02*
X204114400Y-126542800D01*
X210362800Y-129463800D02*
X210362800Y-126542800D01*
X204114400Y-129463800D02*
X210362800Y-129463800D01*
X204114400Y-126542800D02*
X204114400Y-129463800D01*
X205384400Y-109321600D02*
X205384400Y-112674400D01*
X207492600Y-112699800D02*
X207492600Y-118491000D01*
X202082400Y-112699800D02*
X207492600Y-112699800D01*
X202082400Y-118948200D02*
X206197200Y-118948200D01*
X202082400Y-112699800D02*
X202082400Y-118948200D01*
X208790400Y-109321600D02*
X202790400Y-109321600D01*
X208790400Y-109321600D02*
X208790400Y-103362800D01*
X202790400Y-103362800D02*
X208790400Y-103362800D01*
X202790400Y-109321600D02*
X202790400Y-103362800D01*
X211040000Y-147130000D02*
X215540000Y-147130000D01*
X215540000Y-147130000D02*
X215540000Y-141130000D01*
X211040000Y-141130000D02*
X215540000Y-141130000D01*
X211040000Y-147130000D02*
X211040000Y-141130000D01*
D10*
X196292960Y-117316480D02*
X196292960Y-116816480D01*
X195242960Y-116816480D02*
X195242960Y-117316480D01*
X209073860Y-155251660D02*
X209073860Y-153251660D01*
X207023860Y-153251660D02*
X207023860Y-155251660D01*
X204725160Y-153251660D02*
X204725160Y-155251660D01*
X206775160Y-155251660D02*
X206775160Y-153251660D01*
D11*
X192481700Y-154282580D02*
X192481700Y-158782580D01*
X192481700Y-158782580D02*
X200481700Y-158782580D01*
X200481700Y-154282580D02*
X200481700Y-158782580D01*
X192481700Y-154282580D02*
X200481700Y-154282580D01*
D10*
X197283260Y-152254440D02*
X197783260Y-152254440D01*
X197783260Y-151204440D02*
X197283260Y-151204440D01*
D12*
X201970840Y-151152840D02*
X205170840Y-151152840D01*
X205170840Y-151152840D02*
X205170840Y-145752840D01*
X205170840Y-145752840D02*
X201970840Y-145752840D01*
X201970840Y-151152840D02*
X201970840Y-145752840D01*
D11*
X193281420Y-149222340D02*
X193281420Y-142222340D01*
X193281420Y-142222340D02*
X200281420Y-142222340D01*
X200281420Y-149222340D02*
X200281420Y-142222340D01*
X193281420Y-149222340D02*
X200281420Y-149222340D01*
X194281420Y-148522340D02*
G75*
G03X194281420Y-148522340I-300000J0D01*
G01*
D10*
X194709560Y-124382720D02*
X194709560Y-124882720D01*
X195759560Y-124882720D02*
X195759560Y-124382720D01*
X199551520Y-114943400D02*
X199051520Y-114943400D01*
X199051520Y-115993400D02*
X199551520Y-115993400D01*
X193885040Y-126287760D02*
X193885040Y-125787760D01*
X192835040Y-125787760D02*
X192835040Y-126287760D01*
X199717726Y-116846904D02*
X199364172Y-116493350D01*
X198621710Y-117235812D02*
X198975264Y-117589366D01*
X190864120Y-124687200D02*
X190864120Y-125687200D01*
X192564120Y-125687200D02*
X192564120Y-124687200D01*
X193277300Y-127110000D02*
X192777300Y-127110000D01*
X192777300Y-128160000D02*
X193277300Y-128160000D01*
X202187320Y-113412040D02*
X202187320Y-113912040D01*
X203237320Y-113912040D02*
X203237320Y-113412040D01*
X194064280Y-123035840D02*
X193564280Y-123035840D01*
X193564280Y-124085840D02*
X194064280Y-124085840D01*
X192781960Y-129216640D02*
X193281960Y-129216640D01*
X193281960Y-128166640D02*
X192781960Y-128166640D01*
X193564280Y-125162800D02*
X194064280Y-125162800D01*
X194064280Y-124112800D02*
X193564280Y-124112800D01*
X201088180Y-133880080D02*
X201588180Y-133880080D01*
X201588180Y-132830080D02*
X201088180Y-132830080D01*
X205543640Y-115378040D02*
X205543640Y-114878040D01*
X204493640Y-114878040D02*
X204493640Y-115378040D01*
X205789040Y-114878040D02*
X205789040Y-115378040D01*
X206839040Y-115378040D02*
X206839040Y-114878040D01*
X207275920Y-118062400D02*
X207275920Y-117562400D01*
X206225920Y-117562400D02*
X206225920Y-118062400D01*
X207450920Y-118682280D02*
X206950920Y-118682280D01*
X206950920Y-119732280D02*
X207450920Y-119732280D01*
X207275920Y-120867400D02*
X207275920Y-120367400D01*
X206225920Y-120367400D02*
X206225920Y-120867400D01*
X206891400Y-124044900D02*
X206891400Y-124544900D01*
X207941400Y-124544900D02*
X207941400Y-124044900D01*
X189995200Y-128694960D02*
X189495200Y-128694960D01*
X189495200Y-129744960D02*
X189995200Y-129744960D01*
X191052220Y-133829280D02*
X191552220Y-133829280D01*
X191552220Y-132779280D02*
X191052220Y-132779280D01*
X203178900Y-125111320D02*
X203178900Y-124611320D01*
X202128900Y-124611320D02*
X202128900Y-125111320D01*
X196086120Y-122710720D02*
X195586120Y-122710720D01*
X195586120Y-123760720D02*
X196086120Y-123760720D01*
X203139820Y-124611320D02*
X203139820Y-125111320D01*
X204189820Y-125111320D02*
X204189820Y-124611320D01*
X196811120Y-122080680D02*
X196811120Y-121580680D01*
X195761120Y-121580680D02*
X195761120Y-122080680D01*
X199063120Y-122111540D02*
X199063120Y-122611540D01*
X200113120Y-122611540D02*
X200113120Y-122111540D01*
X201300740Y-122284000D02*
X200800740Y-122284000D01*
X200800740Y-123334000D02*
X201300740Y-123334000D01*
X195578500Y-119186180D02*
X196078500Y-119186180D01*
X196078500Y-118136180D02*
X195578500Y-118136180D01*
X197339440Y-117316480D02*
X197339440Y-116816480D01*
X196289440Y-116816480D02*
X196289440Y-117316480D01*
X196261800Y-111743000D02*
X195761800Y-111743000D01*
X195761800Y-112793000D02*
X196261800Y-112793000D01*
X196097120Y-114938320D02*
X195597120Y-114938320D01*
X195597120Y-115988320D02*
X196097120Y-115988320D01*
X200105200Y-112793000D02*
X200605200Y-112793000D01*
X200605200Y-111743000D02*
X200105200Y-111743000D01*
X197671200Y-109157960D02*
X197671200Y-109657960D01*
X198721200Y-109657960D02*
X198721200Y-109157960D01*
X205918320Y-145802840D02*
X206618320Y-145802840D01*
X206618320Y-147002840D02*
X205918320Y-147002840D01*
X206618320Y-151102840D02*
X205918320Y-151102840D01*
X205918320Y-149902840D02*
X206618320Y-149902840D01*
X191510140Y-152828220D02*
X191510140Y-152328220D01*
X190460140Y-152328220D02*
X190460140Y-152828220D01*
X196482740Y-140242780D02*
X196982740Y-140242780D01*
X196982740Y-139192780D02*
X196482740Y-139192780D01*
X198255400Y-139173140D02*
X198255400Y-139673140D01*
X199305400Y-139673140D02*
X199305400Y-139173140D01*
X201514520Y-116833160D02*
X201014520Y-116833160D01*
X201014520Y-117883160D02*
X201514520Y-117883160D01*
X206193880Y-117158160D02*
X206193880Y-116658160D01*
X205143880Y-116658160D02*
X205143880Y-117158160D01*
X196811120Y-124885680D02*
X196811120Y-124385680D01*
X195761120Y-124385680D02*
X195761120Y-124885680D01*
X207275920Y-122609840D02*
X207275920Y-122109840D01*
X206225920Y-122109840D02*
X206225920Y-122609840D01*
X197707804Y-122581032D02*
X197354250Y-122934586D01*
X198096712Y-123677048D02*
X198450266Y-123323494D01*
X203178900Y-123508580D02*
X203178900Y-123008580D01*
X202128900Y-123008580D02*
X202128900Y-123508580D01*
X196811120Y-120320880D02*
X196811120Y-119820880D01*
X195761120Y-119820880D02*
X195761120Y-120320880D01*
X202187320Y-115164640D02*
X202187320Y-115664640D01*
X203237320Y-115664640D02*
X203237320Y-115164640D01*
X192807100Y-132338000D02*
X192807100Y-132838000D01*
X193857100Y-132838000D02*
X193857100Y-132338000D01*
X205804960Y-125269480D02*
X206304960Y-125269480D01*
X206304960Y-124219480D02*
X205804960Y-124219480D01*
X188606240Y-145597340D02*
X188106240Y-145597340D01*
X188106240Y-146647340D02*
X188606240Y-146647340D01*
X202966560Y-118757080D02*
X204266560Y-118757080D01*
X202391560Y-116457080D02*
X204266560Y-116457080D01*
X200736120Y-126034520D02*
X200736120Y-126824520D01*
X194436120Y-132334520D02*
X194436120Y-131544520D01*
X200736120Y-132334520D02*
X200736120Y-131544520D01*
X194436120Y-126034520D02*
X195226120Y-126034520D01*
X194436120Y-132334520D02*
X195226120Y-132334520D01*
X200736120Y-132334520D02*
X199946120Y-132334520D01*
X200736120Y-126034520D02*
X199946120Y-126034520D01*
X205927840Y-123709000D02*
X204052840Y-123709000D01*
X205352840Y-121409000D02*
X204052840Y-121409000D01*
D11*
X197036200Y-112518000D02*
X197036200Y-114418000D01*
X199356200Y-113918000D02*
X199356200Y-112518000D01*
D10*
X193095913Y-107059737D02*
X192829246Y-107059737D01*
X192829246Y-107478784D02*
X192829246Y-106678784D01*
X193210199Y-106678784D01*
X193934008Y-107478784D02*
X193476865Y-107478784D01*
X193705437Y-107478784D02*
X193705437Y-106678784D01*
X193629246Y-106793070D01*
X193553056Y-106869260D01*
X193476865Y-106907356D01*
X202062175Y-152073360D02*
X202062175Y-152882884D01*
X202109794Y-152978122D01*
X202157413Y-153025741D01*
X202252651Y-153073360D01*
X202443127Y-153073360D01*
X202538365Y-153025741D01*
X202585984Y-152978122D01*
X202633603Y-152882884D01*
X202633603Y-152073360D01*
X203538365Y-152073360D02*
X203347889Y-152073360D01*
X203252651Y-152120980D01*
X203205032Y-152168599D01*
X203109794Y-152311456D01*
X203062175Y-152501932D01*
X203062175Y-152882884D01*
X203109794Y-152978122D01*
X203157413Y-153025741D01*
X203252651Y-153073360D01*
X203443127Y-153073360D01*
X203538365Y-153025741D01*
X203585984Y-152978122D01*
X203633603Y-152882884D01*
X203633603Y-152644789D01*
X203585984Y-152549551D01*
X203538365Y-152501932D01*
X203443127Y-152454313D01*
X203252651Y-152454313D01*
X203157413Y-152501932D01*
X203109794Y-152549551D01*
X203062175Y-152644789D01*
X212742380Y-144463333D02*
X213456666Y-144463333D01*
X213599523Y-144510952D01*
X213694761Y-144606190D01*
X213742380Y-144749047D01*
X213742380Y-144844285D01*
X212742380Y-144082380D02*
X212742380Y-143463333D01*
X213123333Y-143796666D01*
X213123333Y-143653809D01*
X213170952Y-143558571D01*
X213218571Y-143510952D01*
X213313809Y-143463333D01*
X213551904Y-143463333D01*
X213647142Y-143510952D01*
X213694761Y-143558571D01*
X213742380Y-143653809D01*
X213742380Y-143939523D01*
X213694761Y-144034761D01*
X213647142Y-144082380D01*
X200716904Y-105591666D02*
X201288333Y-105591666D01*
X201402619Y-105629761D01*
X201478809Y-105705952D01*
X201516904Y-105820238D01*
X201516904Y-105896428D01*
X201516904Y-104791666D02*
X201516904Y-105248809D01*
X201516904Y-105020238D02*
X200716904Y-105020238D01*
X200831190Y-105096428D01*
X200907380Y-105172619D01*
X200945476Y-105248809D01*
X194768424Y-117207013D02*
X194768424Y-117587965D01*
X193968424Y-117587965D01*
X194768424Y-116902251D02*
X194768424Y-116749870D01*
X194730329Y-116673680D01*
X194692234Y-116635584D01*
X194577948Y-116559394D01*
X194425567Y-116521299D01*
X194120805Y-116521299D01*
X194044615Y-116559394D01*
X194006520Y-116597489D01*
X193968424Y-116673680D01*
X193968424Y-116826060D01*
X194006520Y-116902251D01*
X194044615Y-116940346D01*
X194120805Y-116978441D01*
X194311281Y-116978441D01*
X194387472Y-116940346D01*
X194425567Y-116902251D01*
X194463662Y-116826060D01*
X194463662Y-116673680D01*
X194425567Y-116597489D01*
X194387472Y-116559394D01*
X194311281Y-116521299D01*
X207525382Y-154753582D02*
X207477763Y-154801201D01*
X207334906Y-154848820D01*
X207239668Y-154848820D01*
X207096811Y-154801201D01*
X207001573Y-154705963D01*
X206953954Y-154610725D01*
X206906335Y-154420249D01*
X206906335Y-154277392D01*
X206953954Y-154086916D01*
X207001573Y-153991678D01*
X207096811Y-153896440D01*
X207239668Y-153848820D01*
X207334906Y-153848820D01*
X207477763Y-153896440D01*
X207525382Y-153944059D01*
X207858716Y-153848820D02*
X208477763Y-153848820D01*
X208144430Y-154229773D01*
X208287287Y-154229773D01*
X208382525Y-154277392D01*
X208430144Y-154325011D01*
X208477763Y-154420249D01*
X208477763Y-154658344D01*
X208430144Y-154753582D01*
X208382525Y-154801201D01*
X208287287Y-154848820D01*
X208001573Y-154848820D01*
X207906335Y-154801201D01*
X207858716Y-154753582D01*
X209049192Y-154277392D02*
X208953954Y-154229773D01*
X208906335Y-154182154D01*
X208858716Y-154086916D01*
X208858716Y-154039297D01*
X208906335Y-153944059D01*
X208953954Y-153896440D01*
X209049192Y-153848820D01*
X209239668Y-153848820D01*
X209334906Y-153896440D01*
X209382525Y-153944059D01*
X209430144Y-154039297D01*
X209430144Y-154086916D01*
X209382525Y-154182154D01*
X209334906Y-154229773D01*
X209239668Y-154277392D01*
X209049192Y-154277392D01*
X208953954Y-154325011D01*
X208906335Y-154372630D01*
X208858716Y-154467868D01*
X208858716Y-154658344D01*
X208906335Y-154753582D01*
X208953954Y-154801201D01*
X209049192Y-154848820D01*
X209239668Y-154848820D01*
X209334906Y-154801201D01*
X209382525Y-154753582D01*
X209430144Y-154658344D01*
X209430144Y-154467868D01*
X209382525Y-154372630D01*
X209334906Y-154325011D01*
X209239668Y-154277392D01*
X205226682Y-154608802D02*
X205179063Y-154656421D01*
X205036206Y-154704040D01*
X204940968Y-154704040D01*
X204798111Y-154656421D01*
X204702873Y-154561183D01*
X204655254Y-154465945D01*
X204607635Y-154275469D01*
X204607635Y-154132612D01*
X204655254Y-153942136D01*
X204702873Y-153846898D01*
X204798111Y-153751660D01*
X204940968Y-153704040D01*
X205036206Y-153704040D01*
X205179063Y-153751660D01*
X205226682Y-153799279D01*
X205560016Y-153704040D02*
X206179063Y-153704040D01*
X205845730Y-154084993D01*
X205988587Y-154084993D01*
X206083825Y-154132612D01*
X206131444Y-154180231D01*
X206179063Y-154275469D01*
X206179063Y-154513564D01*
X206131444Y-154608802D01*
X206083825Y-154656421D01*
X205988587Y-154704040D01*
X205702873Y-154704040D01*
X205607635Y-154656421D01*
X205560016Y-154608802D01*
X206512397Y-153704040D02*
X207179063Y-153704040D01*
X206750492Y-154704040D01*
X196148366Y-155984960D02*
X196148366Y-156699246D01*
X196100747Y-156842103D01*
X196005509Y-156937341D01*
X195862652Y-156984960D01*
X195767414Y-156984960D01*
X196576938Y-156080199D02*
X196624557Y-156032580D01*
X196719795Y-155984960D01*
X196957890Y-155984960D01*
X197053128Y-156032580D01*
X197100747Y-156080199D01*
X197148366Y-156175437D01*
X197148366Y-156270675D01*
X197100747Y-156413532D01*
X196529319Y-156984960D01*
X197148366Y-156984960D01*
X198899542Y-153061942D02*
X198851923Y-153109561D01*
X198709066Y-153157180D01*
X198613828Y-153157180D01*
X198470971Y-153109561D01*
X198375733Y-153014323D01*
X198328114Y-152919085D01*
X198280495Y-152728609D01*
X198280495Y-152585752D01*
X198328114Y-152395276D01*
X198375733Y-152300038D01*
X198470971Y-152204800D01*
X198613828Y-152157180D01*
X198709066Y-152157180D01*
X198851923Y-152204800D01*
X198899542Y-152252419D01*
X199232876Y-152157180D02*
X199851923Y-152157180D01*
X199518590Y-152538133D01*
X199661447Y-152538133D01*
X199756685Y-152585752D01*
X199804304Y-152633371D01*
X199851923Y-152728609D01*
X199851923Y-152966704D01*
X199804304Y-153061942D01*
X199756685Y-153109561D01*
X199661447Y-153157180D01*
X199375733Y-153157180D01*
X199280495Y-153109561D01*
X199232876Y-153061942D01*
X200709066Y-152157180D02*
X200518590Y-152157180D01*
X200423352Y-152204800D01*
X200375733Y-152252419D01*
X200280495Y-152395276D01*
X200232876Y-152585752D01*
X200232876Y-152966704D01*
X200280495Y-153061942D01*
X200328114Y-153109561D01*
X200423352Y-153157180D01*
X200613828Y-153157180D01*
X200709066Y-153109561D01*
X200756685Y-153061942D01*
X200804304Y-152966704D01*
X200804304Y-152728609D01*
X200756685Y-152633371D01*
X200709066Y-152585752D01*
X200613828Y-152538133D01*
X200423352Y-152538133D01*
X200328114Y-152585752D01*
X200280495Y-152633371D01*
X200232876Y-152728609D01*
D13*
X203510390Y-148456281D02*
X204010390Y-148122948D01*
X203510390Y-148122948D02*
X204010390Y-148456281D01*
X203558009Y-147956281D02*
X203534200Y-147932472D01*
X203510390Y-147884853D01*
X203510390Y-147765805D01*
X203534200Y-147718186D01*
X203558009Y-147694377D01*
X203605628Y-147670567D01*
X203653247Y-147670567D01*
X203724676Y-147694377D01*
X204010390Y-147980091D01*
X204010390Y-147670567D01*
D10*
X196343324Y-146331863D02*
X196990943Y-146331863D01*
X197067134Y-146293768D01*
X197105229Y-146255673D01*
X197143324Y-146179482D01*
X197143324Y-146027101D01*
X197105229Y-145950911D01*
X197067134Y-145912816D01*
X196990943Y-145874720D01*
X196343324Y-145874720D01*
X196343324Y-145112816D02*
X196343324Y-145493768D01*
X196724277Y-145531863D01*
X196686181Y-145493768D01*
X196648086Y-145417578D01*
X196648086Y-145227101D01*
X196686181Y-145150911D01*
X196724277Y-145112816D01*
X196800467Y-145074720D01*
X196990943Y-145074720D01*
X197067134Y-145112816D01*
X197105229Y-145150911D01*
X197143324Y-145227101D01*
X197143324Y-145417578D01*
X197105229Y-145493768D01*
X197067134Y-145531863D01*
X192805004Y-119843533D02*
X192805004Y-120224485D01*
X192005004Y-120224485D01*
X192081195Y-119614961D02*
X192043100Y-119576866D01*
X192005004Y-119500676D01*
X192005004Y-119310200D01*
X192043100Y-119234009D01*
X192081195Y-119195914D01*
X192157385Y-119157819D01*
X192233576Y-119157819D01*
X192347861Y-119195914D01*
X192805004Y-119653057D01*
X192805004Y-119157819D01*
X200615566Y-114966714D02*
X200577471Y-115004809D01*
X200463185Y-115042904D01*
X200386995Y-115042904D01*
X200272709Y-115004809D01*
X200196519Y-114928619D01*
X200158423Y-114852428D01*
X200120328Y-114700047D01*
X200120328Y-114585761D01*
X200158423Y-114433380D01*
X200196519Y-114357190D01*
X200272709Y-114281000D01*
X200386995Y-114242904D01*
X200463185Y-114242904D01*
X200577471Y-114281000D01*
X200615566Y-114319095D01*
X201377471Y-115042904D02*
X200920328Y-115042904D01*
X201148900Y-115042904D02*
X201148900Y-114242904D01*
X201072709Y-114357190D01*
X200996519Y-114433380D01*
X200920328Y-114471476D01*
X191090514Y-121164333D02*
X191128609Y-121202428D01*
X191166704Y-121316714D01*
X191166704Y-121392904D01*
X191128609Y-121507190D01*
X191052419Y-121583380D01*
X190976228Y-121621476D01*
X190823847Y-121659571D01*
X190709561Y-121659571D01*
X190557180Y-121621476D01*
X190480990Y-121583380D01*
X190404800Y-121507190D01*
X190366704Y-121392904D01*
X190366704Y-121316714D01*
X190404800Y-121202428D01*
X190442895Y-121164333D01*
X190442895Y-120859571D02*
X190404800Y-120821476D01*
X190366704Y-120745285D01*
X190366704Y-120554809D01*
X190404800Y-120478619D01*
X190442895Y-120440523D01*
X190519085Y-120402428D01*
X190595276Y-120402428D01*
X190709561Y-120440523D01*
X191166704Y-120897666D01*
X191166704Y-120402428D01*
X200501049Y-116602912D02*
X200501049Y-116656787D01*
X200447174Y-116764536D01*
X200393300Y-116818411D01*
X200285550Y-116872286D01*
X200177800Y-116872286D01*
X200096988Y-116845349D01*
X199962301Y-116764536D01*
X199881489Y-116683724D01*
X199800677Y-116549037D01*
X199773739Y-116468225D01*
X199773739Y-116360475D01*
X199827614Y-116252726D01*
X199881489Y-116198851D01*
X199989238Y-116144976D01*
X200043113Y-116144976D01*
X200177800Y-115902539D02*
X200527987Y-115552353D01*
X200554924Y-115956414D01*
X200635736Y-115875602D01*
X200716548Y-115848665D01*
X200770423Y-115848665D01*
X200851235Y-115875602D01*
X200985922Y-116010289D01*
X201012860Y-116091101D01*
X201012860Y-116144976D01*
X200985922Y-116225788D01*
X200824298Y-116387413D01*
X200743486Y-116414350D01*
X200689611Y-116414350D01*
X189845914Y-120326133D02*
X189884009Y-120364228D01*
X189922104Y-120478514D01*
X189922104Y-120554704D01*
X189884009Y-120668990D01*
X189807819Y-120745180D01*
X189731628Y-120783276D01*
X189579247Y-120821371D01*
X189464961Y-120821371D01*
X189312580Y-120783276D01*
X189236390Y-120745180D01*
X189160200Y-120668990D01*
X189122104Y-120554704D01*
X189122104Y-120478514D01*
X189160200Y-120364228D01*
X189198295Y-120326133D01*
X189388771Y-119640419D02*
X189922104Y-119640419D01*
X189084009Y-119830895D02*
X189655438Y-120021371D01*
X189655438Y-119526133D01*
X191293766Y-127882614D02*
X191255671Y-127920709D01*
X191141385Y-127958804D01*
X191065195Y-127958804D01*
X190950909Y-127920709D01*
X190874719Y-127844519D01*
X190836623Y-127768328D01*
X190798528Y-127615947D01*
X190798528Y-127501661D01*
X190836623Y-127349280D01*
X190874719Y-127273090D01*
X190950909Y-127196900D01*
X191065195Y-127158804D01*
X191141385Y-127158804D01*
X191255671Y-127196900D01*
X191293766Y-127234995D01*
X192017576Y-127158804D02*
X191636623Y-127158804D01*
X191598528Y-127539757D01*
X191636623Y-127501661D01*
X191712814Y-127463566D01*
X191903290Y-127463566D01*
X191979480Y-127501661D01*
X192017576Y-127539757D01*
X192055671Y-127615947D01*
X192055671Y-127806423D01*
X192017576Y-127882614D01*
X191979480Y-127920709D01*
X191903290Y-127958804D01*
X191712814Y-127958804D01*
X191636623Y-127920709D01*
X191598528Y-127882614D01*
X203938142Y-105221066D02*
X203985761Y-105268685D01*
X204033380Y-105411542D01*
X204033380Y-105506780D01*
X203985761Y-105649638D01*
X203890523Y-105744876D01*
X203795285Y-105792495D01*
X203604809Y-105840114D01*
X203461952Y-105840114D01*
X203271476Y-105792495D01*
X203176238Y-105744876D01*
X203081000Y-105649638D01*
X203033380Y-105506780D01*
X203033380Y-105411542D01*
X203081000Y-105268685D01*
X203128619Y-105221066D01*
X203033380Y-104363923D02*
X203033380Y-104554400D01*
X203081000Y-104649638D01*
X203128619Y-104697257D01*
X203271476Y-104792495D01*
X203461952Y-104840114D01*
X203842904Y-104840114D01*
X203938142Y-104792495D01*
X203985761Y-104744876D01*
X204033380Y-104649638D01*
X204033380Y-104459161D01*
X203985761Y-104363923D01*
X203938142Y-104316304D01*
X203842904Y-104268685D01*
X203604809Y-104268685D01*
X203509571Y-104316304D01*
X203461952Y-104363923D01*
X203414333Y-104459161D01*
X203414333Y-104649638D01*
X203461952Y-104744876D01*
X203509571Y-104792495D01*
X203604809Y-104840114D01*
X190620666Y-118916414D02*
X190582571Y-118954509D01*
X190468285Y-118992604D01*
X190392095Y-118992604D01*
X190277809Y-118954509D01*
X190201619Y-118878319D01*
X190163523Y-118802128D01*
X190125428Y-118649747D01*
X190125428Y-118535461D01*
X190163523Y-118383080D01*
X190201619Y-118306890D01*
X190277809Y-118230700D01*
X190392095Y-118192604D01*
X190468285Y-118192604D01*
X190582571Y-118230700D01*
X190620666Y-118268795D01*
X190887333Y-118192604D02*
X191420666Y-118192604D01*
X191077809Y-118992604D01*
X191319166Y-128936714D02*
X191281071Y-128974809D01*
X191166785Y-129012904D01*
X191090595Y-129012904D01*
X190976309Y-128974809D01*
X190900119Y-128898619D01*
X190862023Y-128822428D01*
X190823928Y-128670047D01*
X190823928Y-128555761D01*
X190862023Y-128403380D01*
X190900119Y-128327190D01*
X190976309Y-128251000D01*
X191090595Y-128212904D01*
X191166785Y-128212904D01*
X191281071Y-128251000D01*
X191319166Y-128289095D01*
X191776309Y-128555761D02*
X191700119Y-128517666D01*
X191662023Y-128479571D01*
X191623928Y-128403380D01*
X191623928Y-128365285D01*
X191662023Y-128289095D01*
X191700119Y-128251000D01*
X191776309Y-128212904D01*
X191928690Y-128212904D01*
X192004880Y-128251000D01*
X192042976Y-128289095D01*
X192081071Y-128365285D01*
X192081071Y-128403380D01*
X192042976Y-128479571D01*
X192004880Y-128517666D01*
X191928690Y-128555761D01*
X191776309Y-128555761D01*
X191700119Y-128593857D01*
X191662023Y-128631952D01*
X191623928Y-128708142D01*
X191623928Y-128860523D01*
X191662023Y-128936714D01*
X191700119Y-128974809D01*
X191776309Y-129012904D01*
X191928690Y-129012904D01*
X192004880Y-128974809D01*
X192042976Y-128936714D01*
X192081071Y-128860523D01*
X192081071Y-128708142D01*
X192042976Y-128631952D01*
X192004880Y-128593857D01*
X191928690Y-128555761D01*
X190582566Y-119995914D02*
X190544471Y-120034009D01*
X190430185Y-120072104D01*
X190353995Y-120072104D01*
X190239709Y-120034009D01*
X190163519Y-119957819D01*
X190125423Y-119881628D01*
X190087328Y-119729247D01*
X190087328Y-119614961D01*
X190125423Y-119462580D01*
X190163519Y-119386390D01*
X190239709Y-119310200D01*
X190353995Y-119272104D01*
X190430185Y-119272104D01*
X190544471Y-119310200D01*
X190582566Y-119348295D01*
X190963519Y-120072104D02*
X191115900Y-120072104D01*
X191192090Y-120034009D01*
X191230185Y-119995914D01*
X191306376Y-119881628D01*
X191344471Y-119729247D01*
X191344471Y-119424485D01*
X191306376Y-119348295D01*
X191268280Y-119310200D01*
X191192090Y-119272104D01*
X191039709Y-119272104D01*
X190963519Y-119310200D01*
X190925423Y-119348295D01*
X190887328Y-119424485D01*
X190887328Y-119614961D01*
X190925423Y-119691152D01*
X190963519Y-119729247D01*
X191039709Y-119767342D01*
X191192090Y-119767342D01*
X191268280Y-119729247D01*
X191306376Y-119691152D01*
X191344471Y-119614961D01*
X203074542Y-133992857D02*
X203122161Y-134040476D01*
X203169780Y-134183333D01*
X203169780Y-134278571D01*
X203122161Y-134421428D01*
X203026923Y-134516666D01*
X202931685Y-134564285D01*
X202741209Y-134611904D01*
X202598352Y-134611904D01*
X202407876Y-134564285D01*
X202312638Y-134516666D01*
X202217400Y-134421428D01*
X202169780Y-134278571D01*
X202169780Y-134183333D01*
X202217400Y-134040476D01*
X202265019Y-133992857D01*
X203169780Y-133040476D02*
X203169780Y-133611904D01*
X203169780Y-133326190D02*
X202169780Y-133326190D01*
X202312638Y-133421428D01*
X202407876Y-133516666D01*
X202455495Y-133611904D01*
X202169780Y-132421428D02*
X202169780Y-132326190D01*
X202217400Y-132230952D01*
X202265019Y-132183333D01*
X202360257Y-132135714D01*
X202550733Y-132088095D01*
X202788828Y-132088095D01*
X202979304Y-132135714D01*
X203074542Y-132183333D01*
X203122161Y-132230952D01*
X203169780Y-132326190D01*
X203169780Y-132421428D01*
X203122161Y-132516666D01*
X203074542Y-132564285D01*
X202979304Y-132611904D01*
X202788828Y-132659523D01*
X202550733Y-132659523D01*
X202360257Y-132611904D01*
X202265019Y-132564285D01*
X202217400Y-132516666D01*
X202169780Y-132421428D01*
X206249542Y-105443257D02*
X206297161Y-105490876D01*
X206344780Y-105633733D01*
X206344780Y-105728971D01*
X206297161Y-105871828D01*
X206201923Y-105967066D01*
X206106685Y-106014685D01*
X205916209Y-106062304D01*
X205773352Y-106062304D01*
X205582876Y-106014685D01*
X205487638Y-105967066D01*
X205392400Y-105871828D01*
X205344780Y-105728971D01*
X205344780Y-105633733D01*
X205392400Y-105490876D01*
X205440019Y-105443257D01*
X206344780Y-104490876D02*
X206344780Y-105062304D01*
X206344780Y-104776590D02*
X205344780Y-104776590D01*
X205487638Y-104871828D01*
X205582876Y-104967066D01*
X205630495Y-105062304D01*
X206344780Y-103538495D02*
X206344780Y-104109923D01*
X206344780Y-103824209D02*
X205344780Y-103824209D01*
X205487638Y-103919447D01*
X205582876Y-104014685D01*
X205630495Y-104109923D01*
X207544942Y-105468657D02*
X207592561Y-105516276D01*
X207640180Y-105659133D01*
X207640180Y-105754371D01*
X207592561Y-105897228D01*
X207497323Y-105992466D01*
X207402085Y-106040085D01*
X207211609Y-106087704D01*
X207068752Y-106087704D01*
X206878276Y-106040085D01*
X206783038Y-105992466D01*
X206687800Y-105897228D01*
X206640180Y-105754371D01*
X206640180Y-105659133D01*
X206687800Y-105516276D01*
X206735419Y-105468657D01*
X207640180Y-104516276D02*
X207640180Y-105087704D01*
X207640180Y-104801990D02*
X206640180Y-104801990D01*
X206783038Y-104897228D01*
X206878276Y-104992466D01*
X206925895Y-105087704D01*
X206735419Y-104135323D02*
X206687800Y-104087704D01*
X206640180Y-103992466D01*
X206640180Y-103754371D01*
X206687800Y-103659133D01*
X206735419Y-103611514D01*
X206830657Y-103563895D01*
X206925895Y-103563895D01*
X207068752Y-103611514D01*
X207640180Y-104182942D01*
X207640180Y-103563895D01*
X208484742Y-108491257D02*
X208532361Y-108538876D01*
X208579980Y-108681733D01*
X208579980Y-108776971D01*
X208532361Y-108919828D01*
X208437123Y-109015066D01*
X208341885Y-109062685D01*
X208151409Y-109110304D01*
X208008552Y-109110304D01*
X207818076Y-109062685D01*
X207722838Y-109015066D01*
X207627600Y-108919828D01*
X207579980Y-108776971D01*
X207579980Y-108681733D01*
X207627600Y-108538876D01*
X207675219Y-108491257D01*
X208579980Y-107538876D02*
X208579980Y-108110304D01*
X208579980Y-107824590D02*
X207579980Y-107824590D01*
X207722838Y-107919828D01*
X207818076Y-108015066D01*
X207865695Y-108110304D01*
X207579980Y-107205542D02*
X207579980Y-106586495D01*
X207960933Y-106919828D01*
X207960933Y-106776971D01*
X208008552Y-106681733D01*
X208056171Y-106634114D01*
X208151409Y-106586495D01*
X208389504Y-106586495D01*
X208484742Y-106634114D01*
X208532361Y-106681733D01*
X208579980Y-106776971D01*
X208579980Y-107062685D01*
X208532361Y-107157923D01*
X208484742Y-107205542D01*
X208883214Y-119678385D02*
X208921309Y-119716480D01*
X208959404Y-119830766D01*
X208959404Y-119906957D01*
X208921309Y-120021242D01*
X208845119Y-120097433D01*
X208768928Y-120135528D01*
X208616547Y-120173623D01*
X208502261Y-120173623D01*
X208349880Y-120135528D01*
X208273690Y-120097433D01*
X208197500Y-120021242D01*
X208159404Y-119906957D01*
X208159404Y-119830766D01*
X208197500Y-119716480D01*
X208235595Y-119678385D01*
X208959404Y-118916480D02*
X208959404Y-119373623D01*
X208959404Y-119145052D02*
X208159404Y-119145052D01*
X208273690Y-119221242D01*
X208349880Y-119297433D01*
X208387976Y-119373623D01*
X208426071Y-118230766D02*
X208959404Y-118230766D01*
X208121309Y-118421242D02*
X208692738Y-118611719D01*
X208692738Y-118116480D01*
X207892714Y-121418314D02*
X207854619Y-121456409D01*
X207740333Y-121494504D01*
X207664142Y-121494504D01*
X207549857Y-121456409D01*
X207473666Y-121380219D01*
X207435571Y-121304028D01*
X207397476Y-121151647D01*
X207397476Y-121037361D01*
X207435571Y-120884980D01*
X207473666Y-120808790D01*
X207549857Y-120732600D01*
X207664142Y-120694504D01*
X207740333Y-120694504D01*
X207854619Y-120732600D01*
X207892714Y-120770695D01*
X208654619Y-121494504D02*
X208197476Y-121494504D01*
X208426047Y-121494504D02*
X208426047Y-120694504D01*
X208349857Y-120808790D01*
X208273666Y-120884980D01*
X208197476Y-120923076D01*
X209378428Y-120694504D02*
X208997476Y-120694504D01*
X208959380Y-121075457D01*
X208997476Y-121037361D01*
X209073666Y-120999266D01*
X209264142Y-120999266D01*
X209340333Y-121037361D01*
X209378428Y-121075457D01*
X209416523Y-121151647D01*
X209416523Y-121342123D01*
X209378428Y-121418314D01*
X209340333Y-121456409D01*
X209264142Y-121494504D01*
X209073666Y-121494504D01*
X208997476Y-121456409D01*
X208959380Y-121418314D01*
X205548502Y-122144177D02*
X205596121Y-122191796D01*
X205643740Y-122334653D01*
X205643740Y-122429891D01*
X205596121Y-122572748D01*
X205500883Y-122667986D01*
X205405645Y-122715605D01*
X205215169Y-122763224D01*
X205072312Y-122763224D01*
X204881836Y-122715605D01*
X204786598Y-122667986D01*
X204691360Y-122572748D01*
X204643740Y-122429891D01*
X204643740Y-122334653D01*
X204691360Y-122191796D01*
X204738979Y-122144177D01*
X205643740Y-121191796D02*
X205643740Y-121763224D01*
X205643740Y-121477510D02*
X204643740Y-121477510D01*
X204786598Y-121572748D01*
X204881836Y-121667986D01*
X204929455Y-121763224D01*
X204643740Y-120334653D02*
X204643740Y-120525129D01*
X204691360Y-120620367D01*
X204738979Y-120667986D01*
X204881836Y-120763224D01*
X205072312Y-120810843D01*
X205453264Y-120810843D01*
X205548502Y-120763224D01*
X205596121Y-120715605D01*
X205643740Y-120620367D01*
X205643740Y-120429891D01*
X205596121Y-120334653D01*
X205548502Y-120287034D01*
X205453264Y-120239415D01*
X205215169Y-120239415D01*
X205119931Y-120287034D01*
X205072312Y-120334653D01*
X205024693Y-120429891D01*
X205024693Y-120620367D01*
X205072312Y-120715605D01*
X205119931Y-120763224D01*
X205215169Y-120810843D01*
X190353914Y-128009585D02*
X190392009Y-128047680D01*
X190430104Y-128161966D01*
X190430104Y-128238157D01*
X190392009Y-128352442D01*
X190315819Y-128428633D01*
X190239628Y-128466728D01*
X190087247Y-128504823D01*
X189972961Y-128504823D01*
X189820580Y-128466728D01*
X189744390Y-128428633D01*
X189668200Y-128352442D01*
X189630104Y-128238157D01*
X189630104Y-128161966D01*
X189668200Y-128047680D01*
X189706295Y-128009585D01*
X190430104Y-127247680D02*
X190430104Y-127704823D01*
X190430104Y-127476252D02*
X189630104Y-127476252D01*
X189744390Y-127552442D01*
X189820580Y-127628633D01*
X189858676Y-127704823D01*
X189630104Y-126981014D02*
X189630104Y-126447680D01*
X190430104Y-126790538D01*
X190176214Y-134702514D02*
X190138119Y-134740609D01*
X190023833Y-134778704D01*
X189947642Y-134778704D01*
X189833357Y-134740609D01*
X189757166Y-134664419D01*
X189719071Y-134588228D01*
X189680976Y-134435847D01*
X189680976Y-134321561D01*
X189719071Y-134169180D01*
X189757166Y-134092990D01*
X189833357Y-134016800D01*
X189947642Y-133978704D01*
X190023833Y-133978704D01*
X190138119Y-134016800D01*
X190176214Y-134054895D01*
X190938119Y-134778704D02*
X190480976Y-134778704D01*
X190709547Y-134778704D02*
X190709547Y-133978704D01*
X190633357Y-134092990D01*
X190557166Y-134169180D01*
X190480976Y-134207276D01*
X191395261Y-134321561D02*
X191319071Y-134283466D01*
X191280976Y-134245371D01*
X191242880Y-134169180D01*
X191242880Y-134131085D01*
X191280976Y-134054895D01*
X191319071Y-134016800D01*
X191395261Y-133978704D01*
X191547642Y-133978704D01*
X191623833Y-134016800D01*
X191661928Y-134054895D01*
X191700023Y-134131085D01*
X191700023Y-134169180D01*
X191661928Y-134245371D01*
X191623833Y-134283466D01*
X191547642Y-134321561D01*
X191395261Y-134321561D01*
X191319071Y-134359657D01*
X191280976Y-134397752D01*
X191242880Y-134473942D01*
X191242880Y-134626323D01*
X191280976Y-134702514D01*
X191319071Y-134740609D01*
X191395261Y-134778704D01*
X191547642Y-134778704D01*
X191623833Y-134740609D01*
X191661928Y-134702514D01*
X191700023Y-134626323D01*
X191700023Y-134473942D01*
X191661928Y-134397752D01*
X191623833Y-134359657D01*
X191547642Y-134321561D01*
X205284342Y-128633457D02*
X205331961Y-128681076D01*
X205379580Y-128823933D01*
X205379580Y-128919171D01*
X205331961Y-129062028D01*
X205236723Y-129157266D01*
X205141485Y-129204885D01*
X204951009Y-129252504D01*
X204808152Y-129252504D01*
X204617676Y-129204885D01*
X204522438Y-129157266D01*
X204427200Y-129062028D01*
X204379580Y-128919171D01*
X204379580Y-128823933D01*
X204427200Y-128681076D01*
X204474819Y-128633457D01*
X205379580Y-127681076D02*
X205379580Y-128252504D01*
X205379580Y-127966790D02*
X204379580Y-127966790D01*
X204522438Y-128062028D01*
X204617676Y-128157266D01*
X204665295Y-128252504D01*
X205379580Y-127204885D02*
X205379580Y-127014409D01*
X205331961Y-126919171D01*
X205284342Y-126871552D01*
X205141485Y-126776314D01*
X204951009Y-126728695D01*
X204570057Y-126728695D01*
X204474819Y-126776314D01*
X204427200Y-126823933D01*
X204379580Y-126919171D01*
X204379580Y-127109647D01*
X204427200Y-127204885D01*
X204474819Y-127252504D01*
X204570057Y-127300123D01*
X204808152Y-127300123D01*
X204903390Y-127252504D01*
X204951009Y-127204885D01*
X204998628Y-127109647D01*
X204998628Y-126919171D01*
X204951009Y-126823933D01*
X204903390Y-126776314D01*
X204808152Y-126728695D01*
X192373314Y-118713214D02*
X192335219Y-118751309D01*
X192220933Y-118789404D01*
X192144742Y-118789404D01*
X192030457Y-118751309D01*
X191954266Y-118675119D01*
X191916171Y-118598928D01*
X191878076Y-118446547D01*
X191878076Y-118332261D01*
X191916171Y-118179880D01*
X191954266Y-118103690D01*
X192030457Y-118027500D01*
X192144742Y-117989404D01*
X192220933Y-117989404D01*
X192335219Y-118027500D01*
X192373314Y-118065595D01*
X192678076Y-118065595D02*
X192716171Y-118027500D01*
X192792361Y-117989404D01*
X192982838Y-117989404D01*
X193059028Y-118027500D01*
X193097123Y-118065595D01*
X193135219Y-118141785D01*
X193135219Y-118217976D01*
X193097123Y-118332261D01*
X192639980Y-118789404D01*
X193135219Y-118789404D01*
X193630457Y-117989404D02*
X193706647Y-117989404D01*
X193782838Y-118027500D01*
X193820933Y-118065595D01*
X193859028Y-118141785D01*
X193897123Y-118294166D01*
X193897123Y-118484642D01*
X193859028Y-118637023D01*
X193820933Y-118713214D01*
X193782838Y-118751309D01*
X193706647Y-118789404D01*
X193630457Y-118789404D01*
X193554266Y-118751309D01*
X193516171Y-118713214D01*
X193478076Y-118637023D01*
X193439980Y-118484642D01*
X193439980Y-118294166D01*
X193478076Y-118141785D01*
X193516171Y-118065595D01*
X193554266Y-118027500D01*
X193630457Y-117989404D01*
X206490842Y-128633457D02*
X206538461Y-128681076D01*
X206586080Y-128823933D01*
X206586080Y-128919171D01*
X206538461Y-129062028D01*
X206443223Y-129157266D01*
X206347985Y-129204885D01*
X206157509Y-129252504D01*
X206014652Y-129252504D01*
X205824176Y-129204885D01*
X205728938Y-129157266D01*
X205633700Y-129062028D01*
X205586080Y-128919171D01*
X205586080Y-128823933D01*
X205633700Y-128681076D01*
X205681319Y-128633457D01*
X205681319Y-128252504D02*
X205633700Y-128204885D01*
X205586080Y-128109647D01*
X205586080Y-127871552D01*
X205633700Y-127776314D01*
X205681319Y-127728695D01*
X205776557Y-127681076D01*
X205871795Y-127681076D01*
X206014652Y-127728695D01*
X206586080Y-128300123D01*
X206586080Y-127681076D01*
X206586080Y-126728695D02*
X206586080Y-127300123D01*
X206586080Y-127014409D02*
X205586080Y-127014409D01*
X205728938Y-127109647D01*
X205824176Y-127204885D01*
X205871795Y-127300123D01*
X195421214Y-122180285D02*
X195459309Y-122218380D01*
X195497404Y-122332666D01*
X195497404Y-122408857D01*
X195459309Y-122523142D01*
X195383119Y-122599333D01*
X195306928Y-122637428D01*
X195154547Y-122675523D01*
X195040261Y-122675523D01*
X194887880Y-122637428D01*
X194811690Y-122599333D01*
X194735500Y-122523142D01*
X194697404Y-122408857D01*
X194697404Y-122332666D01*
X194735500Y-122218380D01*
X194773595Y-122180285D01*
X194773595Y-121875523D02*
X194735500Y-121837428D01*
X194697404Y-121761238D01*
X194697404Y-121570761D01*
X194735500Y-121494571D01*
X194773595Y-121456476D01*
X194849785Y-121418380D01*
X194925976Y-121418380D01*
X195040261Y-121456476D01*
X195497404Y-121913619D01*
X195497404Y-121418380D01*
X194773595Y-121113619D02*
X194735500Y-121075523D01*
X194697404Y-120999333D01*
X194697404Y-120808857D01*
X194735500Y-120732666D01*
X194773595Y-120694571D01*
X194849785Y-120656476D01*
X194925976Y-120656476D01*
X195040261Y-120694571D01*
X195497404Y-121151714D01*
X195497404Y-120656476D01*
X198418514Y-121278614D02*
X198380419Y-121316709D01*
X198266133Y-121354804D01*
X198189942Y-121354804D01*
X198075657Y-121316709D01*
X197999466Y-121240519D01*
X197961371Y-121164328D01*
X197923276Y-121011947D01*
X197923276Y-120897661D01*
X197961371Y-120745280D01*
X197999466Y-120669090D01*
X198075657Y-120592900D01*
X198189942Y-120554804D01*
X198266133Y-120554804D01*
X198380419Y-120592900D01*
X198418514Y-120630995D01*
X198723276Y-120630995D02*
X198761371Y-120592900D01*
X198837561Y-120554804D01*
X199028038Y-120554804D01*
X199104228Y-120592900D01*
X199142323Y-120630995D01*
X199180419Y-120707185D01*
X199180419Y-120783376D01*
X199142323Y-120897661D01*
X198685180Y-121354804D01*
X199180419Y-121354804D01*
X199447085Y-120554804D02*
X199942323Y-120554804D01*
X199675657Y-120859566D01*
X199789942Y-120859566D01*
X199866133Y-120897661D01*
X199904228Y-120935757D01*
X199942323Y-121011947D01*
X199942323Y-121202423D01*
X199904228Y-121278614D01*
X199866133Y-121316709D01*
X199789942Y-121354804D01*
X199561371Y-121354804D01*
X199485180Y-121316709D01*
X199447085Y-121278614D01*
X201423234Y-121535125D02*
X201461329Y-121573220D01*
X201499424Y-121687506D01*
X201499424Y-121763697D01*
X201461329Y-121877982D01*
X201385139Y-121954173D01*
X201308948Y-121992268D01*
X201156567Y-122030363D01*
X201042281Y-122030363D01*
X200889900Y-121992268D01*
X200813710Y-121954173D01*
X200737520Y-121877982D01*
X200699424Y-121763697D01*
X200699424Y-121687506D01*
X200737520Y-121573220D01*
X200775615Y-121535125D01*
X200775615Y-121230363D02*
X200737520Y-121192268D01*
X200699424Y-121116078D01*
X200699424Y-120925601D01*
X200737520Y-120849411D01*
X200775615Y-120811316D01*
X200851805Y-120773220D01*
X200927996Y-120773220D01*
X201042281Y-120811316D01*
X201499424Y-121268459D01*
X201499424Y-120773220D01*
X200966091Y-120087506D02*
X201499424Y-120087506D01*
X200661329Y-120277982D02*
X201232758Y-120468459D01*
X201232758Y-119973220D01*
X197288214Y-118929114D02*
X197250119Y-118967209D01*
X197135833Y-119005304D01*
X197059642Y-119005304D01*
X196945357Y-118967209D01*
X196869166Y-118891019D01*
X196831071Y-118814828D01*
X196792976Y-118662447D01*
X196792976Y-118548161D01*
X196831071Y-118395780D01*
X196869166Y-118319590D01*
X196945357Y-118243400D01*
X197059642Y-118205304D01*
X197135833Y-118205304D01*
X197250119Y-118243400D01*
X197288214Y-118281495D01*
X197592976Y-118281495D02*
X197631071Y-118243400D01*
X197707261Y-118205304D01*
X197897738Y-118205304D01*
X197973928Y-118243400D01*
X198012023Y-118281495D01*
X198050119Y-118357685D01*
X198050119Y-118433876D01*
X198012023Y-118548161D01*
X197554880Y-119005304D01*
X198050119Y-119005304D01*
X198773928Y-118205304D02*
X198392976Y-118205304D01*
X198354880Y-118586257D01*
X198392976Y-118548161D01*
X198469166Y-118510066D01*
X198659642Y-118510066D01*
X198735833Y-118548161D01*
X198773928Y-118586257D01*
X198812023Y-118662447D01*
X198812023Y-118852923D01*
X198773928Y-118929114D01*
X198735833Y-118967209D01*
X198659642Y-119005304D01*
X198469166Y-119005304D01*
X198392976Y-118967209D01*
X198354880Y-118929114D01*
X198139014Y-116363685D02*
X198177109Y-116401780D01*
X198215204Y-116516066D01*
X198215204Y-116592257D01*
X198177109Y-116706542D01*
X198100919Y-116782733D01*
X198024728Y-116820828D01*
X197872347Y-116858923D01*
X197758061Y-116858923D01*
X197605680Y-116820828D01*
X197529490Y-116782733D01*
X197453300Y-116706542D01*
X197415204Y-116592257D01*
X197415204Y-116516066D01*
X197453300Y-116401780D01*
X197491395Y-116363685D01*
X197491395Y-116058923D02*
X197453300Y-116020828D01*
X197415204Y-115944638D01*
X197415204Y-115754161D01*
X197453300Y-115677971D01*
X197491395Y-115639876D01*
X197567585Y-115601780D01*
X197643776Y-115601780D01*
X197758061Y-115639876D01*
X198215204Y-116097019D01*
X198215204Y-115601780D01*
X197415204Y-114916066D02*
X197415204Y-115068447D01*
X197453300Y-115144638D01*
X197491395Y-115182733D01*
X197605680Y-115258923D01*
X197758061Y-115297019D01*
X198062823Y-115297019D01*
X198139014Y-115258923D01*
X198177109Y-115220828D01*
X198215204Y-115144638D01*
X198215204Y-114992257D01*
X198177109Y-114916066D01*
X198139014Y-114877971D01*
X198062823Y-114839876D01*
X197872347Y-114839876D01*
X197796157Y-114877971D01*
X197758061Y-114916066D01*
X197719966Y-114992257D01*
X197719966Y-115144638D01*
X197758061Y-115220828D01*
X197796157Y-115258923D01*
X197872347Y-115297019D01*
X193541714Y-112490214D02*
X193503619Y-112528309D01*
X193389333Y-112566404D01*
X193313142Y-112566404D01*
X193198857Y-112528309D01*
X193122666Y-112452119D01*
X193084571Y-112375928D01*
X193046476Y-112223547D01*
X193046476Y-112109261D01*
X193084571Y-111956880D01*
X193122666Y-111880690D01*
X193198857Y-111804500D01*
X193313142Y-111766404D01*
X193389333Y-111766404D01*
X193503619Y-111804500D01*
X193541714Y-111842595D01*
X193846476Y-111842595D02*
X193884571Y-111804500D01*
X193960761Y-111766404D01*
X194151238Y-111766404D01*
X194227428Y-111804500D01*
X194265523Y-111842595D01*
X194303619Y-111918785D01*
X194303619Y-111994976D01*
X194265523Y-112109261D01*
X193808380Y-112566404D01*
X194303619Y-112566404D01*
X194570285Y-111766404D02*
X195103619Y-111766404D01*
X194760761Y-112566404D01*
X193351214Y-115665214D02*
X193313119Y-115703309D01*
X193198833Y-115741404D01*
X193122642Y-115741404D01*
X193008357Y-115703309D01*
X192932166Y-115627119D01*
X192894071Y-115550928D01*
X192855976Y-115398547D01*
X192855976Y-115284261D01*
X192894071Y-115131880D01*
X192932166Y-115055690D01*
X193008357Y-114979500D01*
X193122642Y-114941404D01*
X193198833Y-114941404D01*
X193313119Y-114979500D01*
X193351214Y-115017595D01*
X193655976Y-115017595D02*
X193694071Y-114979500D01*
X193770261Y-114941404D01*
X193960738Y-114941404D01*
X194036928Y-114979500D01*
X194075023Y-115017595D01*
X194113119Y-115093785D01*
X194113119Y-115169976D01*
X194075023Y-115284261D01*
X193617880Y-115741404D01*
X194113119Y-115741404D01*
X194570261Y-115284261D02*
X194494071Y-115246166D01*
X194455976Y-115208071D01*
X194417880Y-115131880D01*
X194417880Y-115093785D01*
X194455976Y-115017595D01*
X194494071Y-114979500D01*
X194570261Y-114941404D01*
X194722642Y-114941404D01*
X194798833Y-114979500D01*
X194836928Y-115017595D01*
X194875023Y-115093785D01*
X194875023Y-115131880D01*
X194836928Y-115208071D01*
X194798833Y-115246166D01*
X194722642Y-115284261D01*
X194570261Y-115284261D01*
X194494071Y-115322357D01*
X194455976Y-115360452D01*
X194417880Y-115436642D01*
X194417880Y-115589023D01*
X194455976Y-115665214D01*
X194494071Y-115703309D01*
X194570261Y-115741404D01*
X194722642Y-115741404D01*
X194798833Y-115703309D01*
X194836928Y-115665214D01*
X194875023Y-115589023D01*
X194875023Y-115436642D01*
X194836928Y-115360452D01*
X194798833Y-115322357D01*
X194722642Y-115284261D01*
X202038014Y-112337814D02*
X201999919Y-112375909D01*
X201885633Y-112414004D01*
X201809442Y-112414004D01*
X201695157Y-112375909D01*
X201618966Y-112299719D01*
X201580871Y-112223528D01*
X201542776Y-112071147D01*
X201542776Y-111956861D01*
X201580871Y-111804480D01*
X201618966Y-111728290D01*
X201695157Y-111652100D01*
X201809442Y-111614004D01*
X201885633Y-111614004D01*
X201999919Y-111652100D01*
X202038014Y-111690195D01*
X202342776Y-111690195D02*
X202380871Y-111652100D01*
X202457061Y-111614004D01*
X202647538Y-111614004D01*
X202723728Y-111652100D01*
X202761823Y-111690195D01*
X202799919Y-111766385D01*
X202799919Y-111842576D01*
X202761823Y-111956861D01*
X202304680Y-112414004D01*
X202799919Y-112414004D01*
X203180871Y-112414004D02*
X203333252Y-112414004D01*
X203409442Y-112375909D01*
X203447538Y-112337814D01*
X203523728Y-112223528D01*
X203561823Y-112071147D01*
X203561823Y-111766385D01*
X203523728Y-111690195D01*
X203485633Y-111652100D01*
X203409442Y-111614004D01*
X203257061Y-111614004D01*
X203180871Y-111652100D01*
X203142776Y-111690195D01*
X203104680Y-111766385D01*
X203104680Y-111956861D01*
X203142776Y-112033052D01*
X203180871Y-112071147D01*
X203257061Y-112109242D01*
X203409442Y-112109242D01*
X203485633Y-112071147D01*
X203523728Y-112033052D01*
X203561823Y-111956861D01*
X199661542Y-108850702D02*
X199613923Y-108898321D01*
X199471066Y-108945940D01*
X199375828Y-108945940D01*
X199232971Y-108898321D01*
X199137733Y-108803083D01*
X199090114Y-108707845D01*
X199042495Y-108517369D01*
X199042495Y-108374512D01*
X199090114Y-108184036D01*
X199137733Y-108088798D01*
X199232971Y-107993560D01*
X199375828Y-107945940D01*
X199471066Y-107945940D01*
X199613923Y-107993560D01*
X199661542Y-108041179D01*
X199994876Y-107945940D02*
X200613923Y-107945940D01*
X200280590Y-108326893D01*
X200423447Y-108326893D01*
X200518685Y-108374512D01*
X200566304Y-108422131D01*
X200613923Y-108517369D01*
X200613923Y-108755464D01*
X200566304Y-108850702D01*
X200518685Y-108898321D01*
X200423447Y-108945940D01*
X200137733Y-108945940D01*
X200042495Y-108898321D01*
X199994876Y-108850702D01*
X201232971Y-107945940D02*
X201328209Y-107945940D01*
X201423447Y-107993560D01*
X201471066Y-108041179D01*
X201518685Y-108136417D01*
X201566304Y-108326893D01*
X201566304Y-108564988D01*
X201518685Y-108755464D01*
X201471066Y-108850702D01*
X201423447Y-108898321D01*
X201328209Y-108945940D01*
X201232971Y-108945940D01*
X201137733Y-108898321D01*
X201090114Y-108850702D01*
X201042495Y-108755464D01*
X200994876Y-108564988D01*
X200994876Y-108326893D01*
X201042495Y-108136417D01*
X201090114Y-108041179D01*
X201137733Y-107993560D01*
X201232971Y-107945940D01*
X205625462Y-148400822D02*
X205577843Y-148448441D01*
X205434986Y-148496060D01*
X205339748Y-148496060D01*
X205196891Y-148448441D01*
X205101653Y-148353203D01*
X205054034Y-148257965D01*
X205006415Y-148067489D01*
X205006415Y-147924632D01*
X205054034Y-147734156D01*
X205101653Y-147638918D01*
X205196891Y-147543680D01*
X205339748Y-147496060D01*
X205434986Y-147496060D01*
X205577843Y-147543680D01*
X205625462Y-147591299D01*
X205958796Y-147496060D02*
X206577843Y-147496060D01*
X206244510Y-147877013D01*
X206387367Y-147877013D01*
X206482605Y-147924632D01*
X206530224Y-147972251D01*
X206577843Y-148067489D01*
X206577843Y-148305584D01*
X206530224Y-148400822D01*
X206482605Y-148448441D01*
X206387367Y-148496060D01*
X206101653Y-148496060D01*
X206006415Y-148448441D01*
X205958796Y-148400822D01*
X207530224Y-148496060D02*
X206958796Y-148496060D01*
X207244510Y-148496060D02*
X207244510Y-147496060D01*
X207149272Y-147638918D01*
X207054034Y-147734156D01*
X206958796Y-147781775D01*
X205625462Y-149488382D02*
X205577843Y-149536001D01*
X205434986Y-149583620D01*
X205339748Y-149583620D01*
X205196891Y-149536001D01*
X205101653Y-149440763D01*
X205054034Y-149345525D01*
X205006415Y-149155049D01*
X205006415Y-149012192D01*
X205054034Y-148821716D01*
X205101653Y-148726478D01*
X205196891Y-148631240D01*
X205339748Y-148583620D01*
X205434986Y-148583620D01*
X205577843Y-148631240D01*
X205625462Y-148678859D01*
X205958796Y-148583620D02*
X206577843Y-148583620D01*
X206244510Y-148964573D01*
X206387367Y-148964573D01*
X206482605Y-149012192D01*
X206530224Y-149059811D01*
X206577843Y-149155049D01*
X206577843Y-149393144D01*
X206530224Y-149488382D01*
X206482605Y-149536001D01*
X206387367Y-149583620D01*
X206101653Y-149583620D01*
X206006415Y-149536001D01*
X205958796Y-149488382D01*
X206958796Y-148678859D02*
X207006415Y-148631240D01*
X207101653Y-148583620D01*
X207339748Y-148583620D01*
X207434986Y-148631240D01*
X207482605Y-148678859D01*
X207530224Y-148774097D01*
X207530224Y-148869335D01*
X207482605Y-149012192D01*
X206911177Y-149583620D01*
X207530224Y-149583620D01*
X189993542Y-153221077D02*
X190041161Y-153268696D01*
X190088780Y-153411553D01*
X190088780Y-153506791D01*
X190041161Y-153649648D01*
X189945923Y-153744886D01*
X189850685Y-153792505D01*
X189660209Y-153840124D01*
X189517352Y-153840124D01*
X189326876Y-153792505D01*
X189231638Y-153744886D01*
X189136400Y-153649648D01*
X189088780Y-153506791D01*
X189088780Y-153411553D01*
X189136400Y-153268696D01*
X189184019Y-153221077D01*
X189088780Y-152887743D02*
X189088780Y-152268696D01*
X189469733Y-152602029D01*
X189469733Y-152459172D01*
X189517352Y-152363934D01*
X189564971Y-152316315D01*
X189660209Y-152268696D01*
X189898304Y-152268696D01*
X189993542Y-152316315D01*
X190041161Y-152363934D01*
X190088780Y-152459172D01*
X190088780Y-152744886D01*
X190041161Y-152840124D01*
X189993542Y-152887743D01*
X189088780Y-151935362D02*
X189088780Y-151316315D01*
X189469733Y-151649648D01*
X189469733Y-151506791D01*
X189517352Y-151411553D01*
X189564971Y-151363934D01*
X189660209Y-151316315D01*
X189898304Y-151316315D01*
X189993542Y-151363934D01*
X190041161Y-151411553D01*
X190088780Y-151506791D01*
X190088780Y-151792505D01*
X190041161Y-151887743D01*
X189993542Y-151935362D01*
X196105542Y-138812542D02*
X196057923Y-138860161D01*
X195915066Y-138907780D01*
X195819828Y-138907780D01*
X195676971Y-138860161D01*
X195581733Y-138764923D01*
X195534114Y-138669685D01*
X195486495Y-138479209D01*
X195486495Y-138336352D01*
X195534114Y-138145876D01*
X195581733Y-138050638D01*
X195676971Y-137955400D01*
X195819828Y-137907780D01*
X195915066Y-137907780D01*
X196057923Y-137955400D01*
X196105542Y-138003019D01*
X196438876Y-137907780D02*
X197057923Y-137907780D01*
X196724590Y-138288733D01*
X196867447Y-138288733D01*
X196962685Y-138336352D01*
X197010304Y-138383971D01*
X197057923Y-138479209D01*
X197057923Y-138717304D01*
X197010304Y-138812542D01*
X196962685Y-138860161D01*
X196867447Y-138907780D01*
X196581733Y-138907780D01*
X196486495Y-138860161D01*
X196438876Y-138812542D01*
X197915066Y-138241114D02*
X197915066Y-138907780D01*
X197676971Y-137860161D02*
X197438876Y-138574447D01*
X198057923Y-138574447D01*
X200407542Y-139657057D02*
X200455161Y-139704676D01*
X200502780Y-139847533D01*
X200502780Y-139942771D01*
X200455161Y-140085628D01*
X200359923Y-140180866D01*
X200264685Y-140228485D01*
X200074209Y-140276104D01*
X199931352Y-140276104D01*
X199740876Y-140228485D01*
X199645638Y-140180866D01*
X199550400Y-140085628D01*
X199502780Y-139942771D01*
X199502780Y-139847533D01*
X199550400Y-139704676D01*
X199598019Y-139657057D01*
X199502780Y-139323723D02*
X199502780Y-138704676D01*
X199883733Y-139038009D01*
X199883733Y-138895152D01*
X199931352Y-138799914D01*
X199978971Y-138752295D01*
X200074209Y-138704676D01*
X200312304Y-138704676D01*
X200407542Y-138752295D01*
X200455161Y-138799914D01*
X200502780Y-138895152D01*
X200502780Y-139180866D01*
X200455161Y-139276104D01*
X200407542Y-139323723D01*
X199502780Y-137799914D02*
X199502780Y-138276104D01*
X199978971Y-138323723D01*
X199931352Y-138276104D01*
X199883733Y-138180866D01*
X199883733Y-137942771D01*
X199931352Y-137847533D01*
X199978971Y-137799914D01*
X200074209Y-137752295D01*
X200312304Y-137752295D01*
X200407542Y-137799914D01*
X200455161Y-137847533D01*
X200502780Y-137942771D01*
X200502780Y-138180866D01*
X200455161Y-138276104D01*
X200407542Y-138323723D01*
X187096495Y-110015580D02*
X187096495Y-109015580D01*
X187096495Y-109491771D02*
X187667923Y-109491771D01*
X187667923Y-110015580D02*
X187667923Y-109015580D01*
X188667923Y-110015580D02*
X188096495Y-110015580D01*
X188382209Y-110015580D02*
X188382209Y-109015580D01*
X188286971Y-109158438D01*
X188191733Y-109253676D01*
X188096495Y-109301295D01*
X201110866Y-119030704D02*
X200729914Y-119030704D01*
X200729914Y-118230704D01*
X201796580Y-119030704D02*
X201339438Y-119030704D01*
X201568009Y-119030704D02*
X201568009Y-118230704D01*
X201491819Y-118344990D01*
X201415628Y-118421180D01*
X201339438Y-118459276D01*
X207030580Y-107126066D02*
X207030580Y-107602257D01*
X206030580Y-107602257D01*
X206030580Y-106887971D02*
X206030580Y-106268923D01*
X206411533Y-106602257D01*
X206411533Y-106459400D01*
X206459152Y-106364161D01*
X206506771Y-106316542D01*
X206602009Y-106268923D01*
X206840104Y-106268923D01*
X206935342Y-106316542D01*
X206982961Y-106364161D01*
X207030580Y-106459400D01*
X207030580Y-106745114D01*
X206982961Y-106840352D01*
X206935342Y-106887971D01*
X193871804Y-119843533D02*
X193871804Y-120224485D01*
X193071804Y-120224485D01*
X193338471Y-119234009D02*
X193871804Y-119234009D01*
X193033709Y-119424485D02*
X193605138Y-119614961D01*
X193605138Y-119119723D01*
X208529180Y-122797866D02*
X208529180Y-123274057D01*
X207529180Y-123274057D01*
X207529180Y-121988342D02*
X207529180Y-122464533D01*
X208005371Y-122512152D01*
X207957752Y-122464533D01*
X207910133Y-122369295D01*
X207910133Y-122131200D01*
X207957752Y-122035961D01*
X208005371Y-121988342D01*
X208100609Y-121940723D01*
X208338704Y-121940723D01*
X208433942Y-121988342D01*
X208481561Y-122035961D01*
X208529180Y-122131200D01*
X208529180Y-122369295D01*
X208481561Y-122464533D01*
X208433942Y-122512152D01*
X198468313Y-124240624D02*
X198198939Y-123971250D01*
X198764625Y-123405564D01*
X199464997Y-124105937D02*
X199357248Y-123998187D01*
X199276435Y-123971250D01*
X199222561Y-123971250D01*
X199087874Y-123998187D01*
X198953187Y-124079000D01*
X198737687Y-124294499D01*
X198710750Y-124375311D01*
X198710750Y-124429186D01*
X198737687Y-124509998D01*
X198845437Y-124617748D01*
X198926249Y-124644685D01*
X198980124Y-124644685D01*
X199060936Y-124617748D01*
X199195623Y-124483061D01*
X199222561Y-124402248D01*
X199222561Y-124348374D01*
X199195623Y-124267561D01*
X199087874Y-124159812D01*
X199007061Y-124132874D01*
X198953187Y-124132874D01*
X198872374Y-124159812D01*
X203079304Y-121799333D02*
X203079304Y-122180285D01*
X202279304Y-122180285D01*
X202279304Y-121608857D02*
X202279304Y-121075523D01*
X203079304Y-121418380D01*
X194862466Y-120262604D02*
X194481514Y-120262604D01*
X194481514Y-119462604D01*
X195243419Y-119805461D02*
X195167228Y-119767366D01*
X195129133Y-119729271D01*
X195091038Y-119653080D01*
X195091038Y-119614985D01*
X195129133Y-119538795D01*
X195167228Y-119500700D01*
X195243419Y-119462604D01*
X195395800Y-119462604D01*
X195471990Y-119500700D01*
X195510085Y-119538795D01*
X195548180Y-119614985D01*
X195548180Y-119653080D01*
X195510085Y-119729271D01*
X195471990Y-119767366D01*
X195395800Y-119805461D01*
X195243419Y-119805461D01*
X195167228Y-119843557D01*
X195129133Y-119881652D01*
X195091038Y-119957842D01*
X195091038Y-120110223D01*
X195129133Y-120186414D01*
X195167228Y-120224509D01*
X195243419Y-120262604D01*
X195395800Y-120262604D01*
X195471990Y-120224509D01*
X195510085Y-120186414D01*
X195548180Y-120110223D01*
X195548180Y-119957842D01*
X195510085Y-119881652D01*
X195471990Y-119843557D01*
X195395800Y-119805461D01*
X203982580Y-106897466D02*
X203506390Y-107230800D01*
X203982580Y-107468895D02*
X202982580Y-107468895D01*
X202982580Y-107087942D01*
X203030200Y-106992704D01*
X203077819Y-106945085D01*
X203173057Y-106897466D01*
X203315914Y-106897466D01*
X203411152Y-106945085D01*
X203458771Y-106992704D01*
X203506390Y-107087942D01*
X203506390Y-107468895D01*
X203982580Y-105945085D02*
X203982580Y-106516514D01*
X203982580Y-106230800D02*
X202982580Y-106230800D01*
X203125438Y-106326038D01*
X203220676Y-106421276D01*
X203268295Y-106516514D01*
X195091004Y-133242033D02*
X194710052Y-133508700D01*
X195091004Y-133699176D02*
X194291004Y-133699176D01*
X194291004Y-133394414D01*
X194329100Y-133318223D01*
X194367195Y-133280128D01*
X194443385Y-133242033D01*
X194557671Y-133242033D01*
X194633861Y-133280128D01*
X194671957Y-133318223D01*
X194710052Y-133394414D01*
X194710052Y-133699176D01*
X194367195Y-132937271D02*
X194329100Y-132899176D01*
X194291004Y-132822985D01*
X194291004Y-132632509D01*
X194329100Y-132556319D01*
X194367195Y-132518223D01*
X194443385Y-132480128D01*
X194519576Y-132480128D01*
X194633861Y-132518223D01*
X195091004Y-132975366D01*
X195091004Y-132480128D01*
X207935533Y-127782580D02*
X207602200Y-127306390D01*
X207364104Y-127782580D02*
X207364104Y-126782580D01*
X207745057Y-126782580D01*
X207840295Y-126830200D01*
X207887914Y-126877819D01*
X207935533Y-126973057D01*
X207935533Y-127115914D01*
X207887914Y-127211152D01*
X207840295Y-127258771D01*
X207745057Y-127306390D01*
X207364104Y-127306390D01*
X208268866Y-126782580D02*
X208887914Y-126782580D01*
X208554580Y-127163533D01*
X208697438Y-127163533D01*
X208792676Y-127211152D01*
X208840295Y-127258771D01*
X208887914Y-127354009D01*
X208887914Y-127592104D01*
X208840295Y-127687342D01*
X208792676Y-127734961D01*
X208697438Y-127782580D01*
X208411723Y-127782580D01*
X208316485Y-127734961D01*
X208268866Y-127687342D01*
X188189573Y-145359380D02*
X187856240Y-144883190D01*
X187618144Y-145359380D02*
X187618144Y-144359380D01*
X187999097Y-144359380D01*
X188094335Y-144407000D01*
X188141954Y-144454619D01*
X188189573Y-144549857D01*
X188189573Y-144692714D01*
X188141954Y-144787952D01*
X188094335Y-144835571D01*
X187999097Y-144883190D01*
X187618144Y-144883190D01*
X189046716Y-144692714D02*
X189046716Y-145359380D01*
X188808620Y-144311761D02*
X188570525Y-145026047D01*
X189189573Y-145026047D01*
X204216095Y-107732580D02*
X204216095Y-108542104D01*
X204263714Y-108637342D01*
X204311333Y-108684961D01*
X204406571Y-108732580D01*
X204597047Y-108732580D01*
X204692285Y-108684961D01*
X204739904Y-108637342D01*
X204787523Y-108542104D01*
X204787523Y-107732580D01*
X205787523Y-108732580D02*
X205216095Y-108732580D01*
X205501809Y-108732580D02*
X205501809Y-107732580D01*
X205406571Y-107875438D01*
X205311333Y-107970676D01*
X205216095Y-108018295D01*
X201383995Y-126541280D02*
X201383995Y-127350804D01*
X201431614Y-127446042D01*
X201479233Y-127493661D01*
X201574471Y-127541280D01*
X201764947Y-127541280D01*
X201860185Y-127493661D01*
X201907804Y-127446042D01*
X201955423Y-127350804D01*
X201955423Y-126541280D01*
X202383995Y-126636519D02*
X202431614Y-126588900D01*
X202526852Y-126541280D01*
X202764947Y-126541280D01*
X202860185Y-126588900D01*
X202907804Y-126636519D01*
X202955423Y-126731757D01*
X202955423Y-126826995D01*
X202907804Y-126969852D01*
X202336376Y-127541280D01*
X202955423Y-127541280D01*
X204165276Y-120402404D02*
X204165276Y-121050023D01*
X204203371Y-121126214D01*
X204241466Y-121164309D01*
X204317657Y-121202404D01*
X204470038Y-121202404D01*
X204546228Y-121164309D01*
X204584323Y-121126214D01*
X204622419Y-121050023D01*
X204622419Y-120402404D01*
X204927180Y-120402404D02*
X205422419Y-120402404D01*
X205155752Y-120707166D01*
X205270038Y-120707166D01*
X205346228Y-120745261D01*
X205384323Y-120783357D01*
X205422419Y-120859547D01*
X205422419Y-121050023D01*
X205384323Y-121126214D01*
X205346228Y-121164309D01*
X205270038Y-121202404D01*
X205041466Y-121202404D01*
X204965276Y-121164309D01*
X204927180Y-121126214D01*
X195605476Y-113417404D02*
X195605476Y-114065023D01*
X195643571Y-114141214D01*
X195681666Y-114179309D01*
X195757857Y-114217404D01*
X195910238Y-114217404D01*
X195986428Y-114179309D01*
X196024523Y-114141214D01*
X196062619Y-114065023D01*
X196062619Y-113417404D01*
X196786428Y-113684071D02*
X196786428Y-114217404D01*
X196595952Y-113379309D02*
X196405476Y-113950738D01*
X196900714Y-113950738D01*
X187564780Y-133410223D02*
X188564780Y-132743557D01*
X187564780Y-132743557D02*
X188564780Y-133410223D01*
X188564780Y-131838795D02*
X188564780Y-132410223D01*
X188564780Y-132124509D02*
X187564780Y-132124509D01*
X187707638Y-132219747D01*
X187802876Y-132314985D01*
X187850495Y-132410223D01*
M02*
