G04 #@! TF.GenerationSoftware,KiCad,Pcbnew,(5.1.4)-1*
G04 #@! TF.CreationDate,2020-12-03T17:51:28+01:00*
G04 #@! TF.ProjectId,LoRa_Balloon,4c6f5261-5f42-4616-9c6c-6f6f6e2e6b69,2*
G04 #@! TF.SameCoordinates,Original*
G04 #@! TF.FileFunction,Legend,Bot*
G04 #@! TF.FilePolarity,Positive*
%FSLAX46Y46*%
G04 Gerber Fmt 4.6, Leading zero omitted, Abs format (unit mm)*
G04 Created by KiCad (PCBNEW (5.1.4)-1) date 2020-12-03 17:51:28*
%MOMM*%
%LPD*%
G04 APERTURE LIST*
%ADD10C,0.100000*%
G04 APERTURE END LIST*
D10*
X213651904Y-136909523D02*
X213651904Y-136528571D01*
X212851904Y-136528571D01*
X213651904Y-137290476D02*
X213613809Y-137214285D01*
X213575714Y-137176190D01*
X213499523Y-137138095D01*
X213270952Y-137138095D01*
X213194761Y-137176190D01*
X213156666Y-137214285D01*
X213118571Y-137290476D01*
X213118571Y-137404761D01*
X213156666Y-137480952D01*
X213194761Y-137519047D01*
X213270952Y-137557142D01*
X213499523Y-137557142D01*
X213575714Y-137519047D01*
X213613809Y-137480952D01*
X213651904Y-137404761D01*
X213651904Y-137290476D01*
X213651904Y-138357142D02*
X213270952Y-138090476D01*
X213651904Y-137900000D02*
X212851904Y-137900000D01*
X212851904Y-138204761D01*
X212890000Y-138280952D01*
X212928095Y-138319047D01*
X213004285Y-138357142D01*
X213118571Y-138357142D01*
X213194761Y-138319047D01*
X213232857Y-138280952D01*
X213270952Y-138204761D01*
X213270952Y-137900000D01*
X213651904Y-139042857D02*
X213232857Y-139042857D01*
X213156666Y-139004761D01*
X213118571Y-138928571D01*
X213118571Y-138776190D01*
X213156666Y-138700000D01*
X213613809Y-139042857D02*
X213651904Y-138966666D01*
X213651904Y-138776190D01*
X213613809Y-138700000D01*
X213537619Y-138661904D01*
X213461428Y-138661904D01*
X213385238Y-138700000D01*
X213347142Y-138776190D01*
X213347142Y-138966666D01*
X213309047Y-139042857D01*
X213575714Y-140490476D02*
X213613809Y-140452380D01*
X213651904Y-140338095D01*
X213651904Y-140261904D01*
X213613809Y-140147619D01*
X213537619Y-140071428D01*
X213461428Y-140033333D01*
X213309047Y-139995238D01*
X213194761Y-139995238D01*
X213042380Y-140033333D01*
X212966190Y-140071428D01*
X212890000Y-140147619D01*
X212851904Y-140261904D01*
X212851904Y-140338095D01*
X212890000Y-140452380D01*
X212928095Y-140490476D01*
X213651904Y-140947619D02*
X213613809Y-140871428D01*
X213575714Y-140833333D01*
X213499523Y-140795238D01*
X213270952Y-140795238D01*
X213194761Y-140833333D01*
X213156666Y-140871428D01*
X213118571Y-140947619D01*
X213118571Y-141061904D01*
X213156666Y-141138095D01*
X213194761Y-141176190D01*
X213270952Y-141214285D01*
X213499523Y-141214285D01*
X213575714Y-141176190D01*
X213613809Y-141138095D01*
X213651904Y-141061904D01*
X213651904Y-140947619D01*
X213651904Y-141557142D02*
X213118571Y-141557142D01*
X213194761Y-141557142D02*
X213156666Y-141595238D01*
X213118571Y-141671428D01*
X213118571Y-141785714D01*
X213156666Y-141861904D01*
X213232857Y-141900000D01*
X213651904Y-141900000D01*
X213232857Y-141900000D02*
X213156666Y-141938095D01*
X213118571Y-142014285D01*
X213118571Y-142128571D01*
X213156666Y-142204761D01*
X213232857Y-142242857D01*
X213651904Y-142242857D01*
X213651904Y-143233333D02*
X213118571Y-143233333D01*
X213194761Y-143233333D02*
X213156666Y-143271428D01*
X213118571Y-143347619D01*
X213118571Y-143461904D01*
X213156666Y-143538095D01*
X213232857Y-143576190D01*
X213651904Y-143576190D01*
X213232857Y-143576190D02*
X213156666Y-143614285D01*
X213118571Y-143690476D01*
X213118571Y-143804761D01*
X213156666Y-143880952D01*
X213232857Y-143919047D01*
X213651904Y-143919047D01*
X213651904Y-144414285D02*
X213613809Y-144338095D01*
X213575714Y-144300000D01*
X213499523Y-144261904D01*
X213270952Y-144261904D01*
X213194761Y-144300000D01*
X213156666Y-144338095D01*
X213118571Y-144414285D01*
X213118571Y-144528571D01*
X213156666Y-144604761D01*
X213194761Y-144642857D01*
X213270952Y-144680952D01*
X213499523Y-144680952D01*
X213575714Y-144642857D01*
X213613809Y-144604761D01*
X213651904Y-144528571D01*
X213651904Y-144414285D01*
X213651904Y-145366666D02*
X212851904Y-145366666D01*
X213613809Y-145366666D02*
X213651904Y-145290476D01*
X213651904Y-145138095D01*
X213613809Y-145061904D01*
X213575714Y-145023809D01*
X213499523Y-144985714D01*
X213270952Y-144985714D01*
X213194761Y-145023809D01*
X213156666Y-145061904D01*
X213118571Y-145138095D01*
X213118571Y-145290476D01*
X213156666Y-145366666D01*
X213118571Y-146090476D02*
X213651904Y-146090476D01*
X213118571Y-145747619D02*
X213537619Y-145747619D01*
X213613809Y-145785714D01*
X213651904Y-145861904D01*
X213651904Y-145976190D01*
X213613809Y-146052380D01*
X213575714Y-146090476D01*
X213651904Y-146585714D02*
X213613809Y-146509523D01*
X213537619Y-146471428D01*
X212851904Y-146471428D01*
X213613809Y-147195238D02*
X213651904Y-147119047D01*
X213651904Y-146966666D01*
X213613809Y-146890476D01*
X213537619Y-146852380D01*
X213232857Y-146852380D01*
X213156666Y-146890476D01*
X213118571Y-146966666D01*
X213118571Y-147119047D01*
X213156666Y-147195238D01*
X213232857Y-147233333D01*
X213309047Y-147233333D01*
X213385238Y-146852380D01*
X213347142Y-148185714D02*
X213347142Y-148795238D01*
X213651904Y-150242857D02*
X213270952Y-149976190D01*
X213651904Y-149785714D02*
X212851904Y-149785714D01*
X212851904Y-150090476D01*
X212890000Y-150166666D01*
X212928095Y-150204761D01*
X213004285Y-150242857D01*
X213118571Y-150242857D01*
X213194761Y-150204761D01*
X213232857Y-150166666D01*
X213270952Y-150090476D01*
X213270952Y-149785714D01*
X213613809Y-150890476D02*
X213651904Y-150814285D01*
X213651904Y-150661904D01*
X213613809Y-150585714D01*
X213537619Y-150547619D01*
X213232857Y-150547619D01*
X213156666Y-150585714D01*
X213118571Y-150661904D01*
X213118571Y-150814285D01*
X213156666Y-150890476D01*
X213232857Y-150928571D01*
X213309047Y-150928571D01*
X213385238Y-150547619D01*
X213118571Y-151195238D02*
X213651904Y-151385714D01*
X213118571Y-151576190D01*
X212928095Y-152452380D02*
X212890000Y-152490476D01*
X212851904Y-152566666D01*
X212851904Y-152757142D01*
X212890000Y-152833333D01*
X212928095Y-152871428D01*
X213004285Y-152909523D01*
X213080476Y-152909523D01*
X213194761Y-152871428D01*
X213651904Y-152414285D01*
X213651904Y-152909523D01*
X214951904Y-136585714D02*
X214151904Y-136585714D01*
X214532857Y-136585714D02*
X214532857Y-137042857D01*
X214951904Y-137042857D02*
X214151904Y-137042857D01*
X214951904Y-137766666D02*
X214532857Y-137766666D01*
X214456666Y-137728571D01*
X214418571Y-137652380D01*
X214418571Y-137500000D01*
X214456666Y-137423809D01*
X214913809Y-137766666D02*
X214951904Y-137690476D01*
X214951904Y-137500000D01*
X214913809Y-137423809D01*
X214837619Y-137385714D01*
X214761428Y-137385714D01*
X214685238Y-137423809D01*
X214647142Y-137500000D01*
X214647142Y-137690476D01*
X214609047Y-137766666D01*
X214418571Y-138147619D02*
X214951904Y-138147619D01*
X214494761Y-138147619D02*
X214456666Y-138185714D01*
X214418571Y-138261904D01*
X214418571Y-138376190D01*
X214456666Y-138452380D01*
X214532857Y-138490476D01*
X214951904Y-138490476D01*
X214913809Y-138833333D02*
X214951904Y-138909523D01*
X214951904Y-139061904D01*
X214913809Y-139138095D01*
X214837619Y-139176190D01*
X214799523Y-139176190D01*
X214723333Y-139138095D01*
X214685238Y-139061904D01*
X214685238Y-138947619D01*
X214647142Y-138871428D01*
X214570952Y-138833333D01*
X214532857Y-138833333D01*
X214456666Y-138871428D01*
X214418571Y-138947619D01*
X214418571Y-139061904D01*
X214456666Y-139138095D01*
X214951904Y-140128571D02*
X214151904Y-140128571D01*
X214951904Y-140585714D02*
X214494761Y-140242857D01*
X214151904Y-140585714D02*
X214609047Y-140128571D01*
X214951904Y-140928571D02*
X214418571Y-140928571D01*
X214570952Y-140928571D02*
X214494761Y-140966666D01*
X214456666Y-141004761D01*
X214418571Y-141080952D01*
X214418571Y-141157142D01*
X214951904Y-141423809D02*
X214418571Y-141423809D01*
X214151904Y-141423809D02*
X214190000Y-141385714D01*
X214228095Y-141423809D01*
X214190000Y-141461904D01*
X214151904Y-141423809D01*
X214228095Y-141423809D01*
X214913809Y-141766666D02*
X214951904Y-141842857D01*
X214951904Y-141995238D01*
X214913809Y-142071428D01*
X214837619Y-142109523D01*
X214799523Y-142109523D01*
X214723333Y-142071428D01*
X214685238Y-141995238D01*
X214685238Y-141880952D01*
X214647142Y-141804761D01*
X214570952Y-141766666D01*
X214532857Y-141766666D01*
X214456666Y-141804761D01*
X214418571Y-141880952D01*
X214418571Y-141995238D01*
X214456666Y-142071428D01*
X214418571Y-142338095D02*
X214418571Y-142642857D01*
X214151904Y-142452380D02*
X214837619Y-142452380D01*
X214913809Y-142490476D01*
X214951904Y-142566666D01*
X214951904Y-142642857D01*
X214951904Y-142909523D02*
X214418571Y-142909523D01*
X214151904Y-142909523D02*
X214190000Y-142871428D01*
X214228095Y-142909523D01*
X214190000Y-142947619D01*
X214151904Y-142909523D01*
X214228095Y-142909523D01*
X214951904Y-143633333D02*
X214532857Y-143633333D01*
X214456666Y-143595238D01*
X214418571Y-143519047D01*
X214418571Y-143366666D01*
X214456666Y-143290476D01*
X214913809Y-143633333D02*
X214951904Y-143557142D01*
X214951904Y-143366666D01*
X214913809Y-143290476D01*
X214837619Y-143252380D01*
X214761428Y-143252380D01*
X214685238Y-143290476D01*
X214647142Y-143366666D01*
X214647142Y-143557142D01*
X214609047Y-143633333D01*
X214418571Y-144014285D02*
X214951904Y-144014285D01*
X214494761Y-144014285D02*
X214456666Y-144052380D01*
X214418571Y-144128571D01*
X214418571Y-144242857D01*
X214456666Y-144319047D01*
X214532857Y-144357142D01*
X214951904Y-144357142D01*
X214532857Y-145614285D02*
X214570952Y-145728571D01*
X214609047Y-145766666D01*
X214685238Y-145804761D01*
X214799523Y-145804761D01*
X214875714Y-145766666D01*
X214913809Y-145728571D01*
X214951904Y-145652380D01*
X214951904Y-145347619D01*
X214151904Y-145347619D01*
X214151904Y-145614285D01*
X214190000Y-145690476D01*
X214228095Y-145728571D01*
X214304285Y-145766666D01*
X214380476Y-145766666D01*
X214456666Y-145728571D01*
X214494761Y-145690476D01*
X214532857Y-145614285D01*
X214532857Y-145347619D01*
X214913809Y-146452380D02*
X214951904Y-146376190D01*
X214951904Y-146223809D01*
X214913809Y-146147619D01*
X214837619Y-146109523D01*
X214532857Y-146109523D01*
X214456666Y-146147619D01*
X214418571Y-146223809D01*
X214418571Y-146376190D01*
X214456666Y-146452380D01*
X214532857Y-146490476D01*
X214609047Y-146490476D01*
X214685238Y-146109523D01*
X214913809Y-147176190D02*
X214951904Y-147100000D01*
X214951904Y-146947619D01*
X214913809Y-146871428D01*
X214875714Y-146833333D01*
X214799523Y-146795238D01*
X214570952Y-146795238D01*
X214494761Y-146833333D01*
X214456666Y-146871428D01*
X214418571Y-146947619D01*
X214418571Y-147100000D01*
X214456666Y-147176190D01*
X214951904Y-147519047D02*
X214151904Y-147519047D01*
X214951904Y-147861904D02*
X214532857Y-147861904D01*
X214456666Y-147823809D01*
X214418571Y-147747619D01*
X214418571Y-147633333D01*
X214456666Y-147557142D01*
X214494761Y-147519047D01*
X214951904Y-148852380D02*
X214151904Y-148852380D01*
X214532857Y-148852380D02*
X214532857Y-149309523D01*
X214951904Y-149309523D02*
X214151904Y-149309523D01*
X214951904Y-150033333D02*
X214532857Y-150033333D01*
X214456666Y-149995238D01*
X214418571Y-149919047D01*
X214418571Y-149766666D01*
X214456666Y-149690476D01*
X214913809Y-150033333D02*
X214951904Y-149957142D01*
X214951904Y-149766666D01*
X214913809Y-149690476D01*
X214837619Y-149652380D01*
X214761428Y-149652380D01*
X214685238Y-149690476D01*
X214647142Y-149766666D01*
X214647142Y-149957142D01*
X214609047Y-150033333D01*
X214418571Y-150414285D02*
X214951904Y-150414285D01*
X214494761Y-150414285D02*
X214456666Y-150452380D01*
X214418571Y-150528571D01*
X214418571Y-150642857D01*
X214456666Y-150719047D01*
X214532857Y-150757142D01*
X214951904Y-150757142D01*
X214913809Y-151100000D02*
X214951904Y-151176190D01*
X214951904Y-151328571D01*
X214913809Y-151404761D01*
X214837619Y-151442857D01*
X214799523Y-151442857D01*
X214723333Y-151404761D01*
X214685238Y-151328571D01*
X214685238Y-151214285D01*
X214647142Y-151138095D01*
X214570952Y-151100000D01*
X214532857Y-151100000D01*
X214456666Y-151138095D01*
X214418571Y-151214285D01*
X214418571Y-151328571D01*
X214456666Y-151404761D01*
X214913809Y-152090476D02*
X214951904Y-152014285D01*
X214951904Y-151861904D01*
X214913809Y-151785714D01*
X214837619Y-151747619D01*
X214532857Y-151747619D01*
X214456666Y-151785714D01*
X214418571Y-151861904D01*
X214418571Y-152014285D01*
X214456666Y-152090476D01*
X214532857Y-152128571D01*
X214609047Y-152128571D01*
X214685238Y-151747619D01*
X214418571Y-152471428D02*
X214951904Y-152471428D01*
X214494761Y-152471428D02*
X214456666Y-152509523D01*
X214418571Y-152585714D01*
X214418571Y-152700000D01*
X214456666Y-152776190D01*
X214532857Y-152814285D01*
X214951904Y-152814285D01*
M02*
