M48
; DRILL file {KiCad (5.1.4)-1} date 03-12-2020 17:51:31
; FORMAT={-:-/ absolute / inch / decimal}
; #@! TF.CreationDate,2020-12-03T17:51:31+01:00
; #@! TF.GenerationSoftware,Kicad,Pcbnew,(5.1.4)-1
; #@! TF.FileFunction,Plated,1,2,PTH
FMAT,2
INCH
T1C0.0118
%
G90
G05
T1
X7.4681Y-5.8937
X7.4737Y-5.7256
X7.5163Y-5.347
X7.5165Y-5.4298
X7.5189Y-5.9592
X7.5251Y-5.8474
X7.5544Y-5.8938
X7.6339Y-5.7843
X7.6339Y-5.8158
X7.7039Y-5.9593
X7.8647Y-5.8192
X7.9088Y-5.346
X7.9088Y-5.5068
X7.9714Y-5.8192
X8.0518Y-5.5069
X8.2158Y-4.9538
X8.235Y-5.6154
X8.235Y-5.6547
X8.2452Y-4.5991
X8.2452Y-4.6641
X8.2452Y-4.9244
X7.7824Y-4.5464
X8.1792Y-4.606
X8.3757Y-5.1248
X7.5416Y-4.3165
X7.7581Y-5.1488
X7.8612Y-4.6934
X7.5146Y-4.7959
X8.3755Y-4.7145
X7.7677Y-4.8152
X8.1801Y-4.7421
X8.2117Y-5.34
X7.4512Y-4.7354
X7.7999Y-5.1069
X7.918Y-4.663
X8.2655Y-4.5343
X8.2362Y-5.7425
X7.7895Y-4.6271
X8.3741Y-5.295
X7.4512Y-4.8225
X7.7581Y-5.0233
X8.0108Y-4.761
X7.6683Y-4.7065
X8.3755Y-5.0809
X7.7999Y-5.0233
X8.1804Y-4.646
X7.47Y-6.0247
X8.1255Y-5.34
X7.488Y-5.3385
X7.7999Y-5.1488
X7.8168Y-4.8782
X7.6115Y-5.2575
X7.6659Y-4.5131
X8.3254Y-4.3163
X7.4527Y-4.4149
X7.7162Y-5.0233
X7.6674Y-4.8169
X7.8793Y-4.7652
X8.0965Y-4.4815
X7.6316Y-4.3164
X7.9852Y-6.0797
X8.1683Y-5.0472
X7.9305Y-4.3164
X8.3755Y-4.7718
X7.6672Y-4.6305
X8.1677Y-4.8678
X8.1504Y-5.8835
X7.4514Y-4.7793
X8.3508Y-5.7311
X7.585Y-4.6305
X8.1515Y-4.3161
X8.3769Y-4.5004
X7.7681Y-4.7023
X7.8565Y-4.8724
X8.0164Y-4.6475
X7.4514Y-5.007
X8.2106Y-4.6736
X7.601Y-4.7635
X8.1947Y-4.3163
X7.7118Y-5.3401
X7.839Y-4.7646
X7.9393Y-4.5801
X8.2821Y-5.1361
X8.1678Y-5.3402
X7.5848Y-4.3167
X7.8232Y-4.6497
X8.2951Y-4.4409
X8.3755Y-4.825
X7.4515Y-5.2514
X7.6866Y-4.7428
X8.1445Y-4.5842
X8.3314Y-5.3383
X7.4519Y-4.5623
X7.7162Y-5.0651
X8.0209Y-4.5668
X7.5302Y-4.4329
X8.3755Y-4.9276
X7.6673Y-4.5905
X8.3757Y-5.0377
X7.4514Y-4.6922
X7.8417Y-5.0233
X8.0982Y-4.7613
X8.1914Y-4.4239
X8.1453Y-6.0729
X7.7891Y-4.5856
X8.3755Y-5.168
X7.8098Y-4.917
X7.9466Y-4.7951
X8.3516Y-5.6165
X8.375Y-5.2108
X7.7162Y-5.1069
X8.1033Y-4.6792
X8.0592Y-4.8078
X7.6558Y-4.6688
X7.8747Y-5.3401
X8.3686Y-4.3165
X8.3767Y-4.5436
X7.7581Y-5.0651
X8.016Y-4.7
X7.6371Y-6.1135
X8.3752Y-4.8755
X7.4511Y-5.0474
X7.7619Y-4.3166
X7.7052Y-4.5062
X8.0528Y-4.7622
X7.7Y-5.855
X7.7187Y-4.3164
X7.8645Y-5.4715
X7.6566Y-4.5515
X7.592Y-4.8147
X8.0644Y-4.3161
X7.4508Y-4.9078
X8.1807Y-4.8242
X7.763Y-5.855
X7.4519Y-4.6494
X7.703Y-5.5005
X8.3012Y-4.8837
X7.8873Y-4.3162
X8.3753Y-4.6706
X7.8966Y-4.8769
X8.0164Y-4.6129
X7.4977Y-4.3167
X7.8845Y-4.5833
X8.2866Y-5.0505
X8.3755Y-4.6274
X7.4515Y-5.3388
X7.7682Y-4.6617
X8.1804Y-4.783
X7.893Y-6.094
X8.2875Y-5.3385
X7.4545Y-4.3165
X7.7581Y-5.1069
X7.8627Y-4.6617
X8.0489Y-5.0235
X8.1076Y-4.3163
X7.4513Y-5.2946
X7.818Y-4.7986
X8.0597Y-4.8885
X8.3743Y-5.2518
X7.451Y-4.8646
X7.7999Y-5.0651
X7.902Y-4.5425
X7.545Y-4.687
X7.7417Y-4.4899
X8.2383Y-4.3163
X7.4521Y-4.6062
X7.8417Y-5.1069
X8.0651Y-4.6939
X8.3164Y-4.6206
X8.1504Y-5.8067
X7.9428Y-5.3406
X7.7162Y-5.1488
X7.9068Y-4.7945
X8.2652Y-5.2409
X7.984Y-5.3405
X8.3769Y-4.4133
X7.8417Y-5.1488
X8.2106Y-4.7148
X8.1447Y-5.153
X7.999Y-4.9335
X8.3743Y-5.3389
X8.2815Y-4.3165
X7.4525Y-4.4581
X7.8417Y-5.0651
X7.6872Y-4.7823
X7.9859Y-4.7986
X8.0592Y-4.8425
X8.2981Y-4.7906
X7.9744Y-4.3162
X7.451Y-4.9517
X7.8651Y-4.5059
X7.578Y-6.094
X7.8443Y-4.3162
X7.7838Y-4.7787
X7.506Y-4.5875
X8.3758Y-4.9951
X8.3767Y-4.4565
X8.0996Y-4.7202
X7.8339Y-6.1135
X7.6748Y-4.3166
X8.0245Y-4.465
X7.7684Y-4.7423
X8.1309Y-4.8707
X7.606Y-4.4608
X8.4154Y-4.3162
X7.746Y-5.309
X7.9379Y-4.8757
X8.1086Y-5.2623
X8.0816Y-5.3402
X7.4521Y-4.5191
X7.9672Y-4.695
X7.5702Y-4.5215
X8.0176Y-4.3164
X8.3762Y-4.5864
T0
M30
