solid Back_plate
   facet normal 0.000000e+00 -1.000000e+00 0.000000e+00
      outer loop
         vertex 2.700000e+01 1.200000e+01 2.000000e+00
         vertex 3.200000e+01 1.200000e+01 2.000000e+00
         vertex 2.700000e+01 1.200000e+01 1.400000e+01
      endloop
   endfacet
   facet normal 0.000000e+00 -1.000000e+00 0.000000e+00
      outer loop
         vertex 2.700000e+01 1.200000e+01 1.400000e+01
         vertex 3.200000e+01 1.200000e+01 2.000000e+00
         vertex 3.200000e+01 1.200000e+01 4.300000e+01
      endloop
   endfacet
   facet normal 0.000000e+00 -1.000000e+00 0.000000e+00
      outer loop
         vertex 2.700000e+01 1.200000e+01 1.400000e+01
         vertex 3.200000e+01 1.200000e+01 4.300000e+01
         vertex 2.000000e+01 1.200000e+01 1.400000e+01
      endloop
   endfacet
   facet normal 0.000000e+00 -1.000000e+00 0.000000e+00
      outer loop
         vertex 2.000000e+01 1.200000e+01 1.400000e+01
         vertex 3.200000e+01 1.200000e+01 4.300000e+01
         vertex 2.000000e+01 1.200000e+01 4.300000e+01
      endloop
   endfacet
   facet normal 1.000000e+00 0.000000e+00 -0.000000e+00
      outer loop
         vertex 2.000000e+01 1.200000e+01 1.400000e+01
         vertex 2.000000e+01 1.200000e+01 4.300000e+01
         vertex 2.000000e+01 8.600000e+00 1.400000e+01
      endloop
   endfacet
   facet normal 1.000000e+00 0.000000e+00 0.000000e+00
      outer loop
         vertex 2.000000e+01 8.600000e+00 1.400000e+01
         vertex 2.000000e+01 1.200000e+01 4.300000e+01
         vertex 2.000000e+01 8.600000e+00 4.300000e+01
      endloop
   endfacet
   facet normal 0.000000e+00 0.000000e+00 1.000000e+00
      outer loop
         vertex 2.700000e+01 1.200000e+01 1.400000e+01
         vertex 2.000000e+01 1.200000e+01 1.400000e+01
         vertex 2.700000e+01 8.600000e+00 1.400000e+01
      endloop
   endfacet
   facet normal 0.000000e+00 0.000000e+00 1.000000e+00
      outer loop
         vertex 2.700000e+01 8.600000e+00 1.400000e+01
         vertex 2.000000e+01 1.200000e+01 1.400000e+01
         vertex 2.000000e+01 8.600000e+00 1.400000e+01
      endloop
   endfacet
   facet normal 1.000000e+00 0.000000e+00 -0.000000e+00
      outer loop
         vertex 2.700000e+01 1.200000e+01 2.000000e+00
         vertex 2.700000e+01 1.200000e+01 1.400000e+01
         vertex 2.700000e+01 8.600000e+00 2.000000e+00
      endloop
   endfacet
   facet normal 1.000000e+00 0.000000e+00 0.000000e+00
      outer loop
         vertex 2.700000e+01 8.600000e+00 2.000000e+00
         vertex 2.700000e+01 1.200000e+01 1.400000e+01
         vertex 2.700000e+01 8.600000e+00 1.400000e+01
      endloop
   endfacet
   facet normal 0.000000e+00 -0.000000e+00 1.000000e+00
      outer loop
         vertex 2.000000e+00 8.600000e+00 4.300000e+01
         vertex 2.000000e+01 8.600000e+00 4.300000e+01
         vertex 0.000000e+00 1.450000e+01 4.300000e+01
      endloop
   endfacet
   facet normal 0.000000e+00 0.000000e+00 1.000000e+00
      outer loop
         vertex 0.000000e+00 1.450000e+01 4.300000e+01
         vertex 2.000000e+01 8.600000e+00 4.300000e+01
         vertex 2.000000e+01 1.200000e+01 4.300000e+01
      endloop
   endfacet
   facet normal -0.000000e+00 0.000000e+00 1.000000e+00
      outer loop
         vertex 0.000000e+00 1.450000e+01 4.300000e+01
         vertex 2.000000e+01 1.200000e+01 4.300000e+01
         vertex 3.400000e+01 1.450000e+01 4.300000e+01
      endloop
   endfacet
   facet normal 0.000000e+00 0.000000e+00 1.000000e+00
      outer loop
         vertex 3.400000e+01 1.450000e+01 4.300000e+01
         vertex 2.000000e+01 1.200000e+01 4.300000e+01
         vertex 3.200000e+01 1.200000e+01 4.300000e+01
      endloop
   endfacet
   facet normal 0.000000e+00 0.000000e+00 1.000000e+00
      outer loop
         vertex 3.400000e+01 1.450000e+01 4.300000e+01
         vertex 3.200000e+01 1.200000e+01 4.300000e+01
         vertex 3.400000e+01 0.000000e+00 4.300000e+01
      endloop
   endfacet
   facet normal 0.000000e+00 0.000000e+00 1.000000e+00
      outer loop
         vertex 3.400000e+01 0.000000e+00 4.300000e+01
         vertex 3.200000e+01 1.200000e+01 4.300000e+01
         vertex 3.200000e+01 2.000000e+00 4.300000e+01
      endloop
   endfacet
   facet normal 0.000000e+00 0.000000e+00 1.000000e+00
      outer loop
         vertex 3.400000e+01 0.000000e+00 4.300000e+01
         vertex 3.200000e+01 2.000000e+00 4.300000e+01
         vertex 0.000000e+00 0.000000e+00 4.300000e+01
      endloop
   endfacet
   facet normal 0.000000e+00 0.000000e+00 1.000000e+00
      outer loop
         vertex 0.000000e+00 0.000000e+00 4.300000e+01
         vertex 3.200000e+01 2.000000e+00 4.300000e+01
         vertex 2.000000e+00 2.000000e+00 4.300000e+01
      endloop
   endfacet
   facet normal 0.000000e+00 0.000000e+00 1.000000e+00
      outer loop
         vertex 0.000000e+00 0.000000e+00 4.300000e+01
         vertex 2.000000e+00 2.000000e+00 4.300000e+01
         vertex 0.000000e+00 1.450000e+01 4.300000e+01
      endloop
   endfacet
   facet normal 0.000000e+00 0.000000e+00 1.000000e+00
      outer loop
         vertex 0.000000e+00 1.450000e+01 4.300000e+01
         vertex 2.000000e+00 2.000000e+00 4.300000e+01
         vertex 2.000000e+00 8.600000e+00 4.300000e+01
      endloop
   endfacet
   facet normal -0.000000e+00 -1.000000e+00 -0.000000e+00
      outer loop
         vertex 2.000000e+01 8.600000e+00 4.300000e+01
         vertex 2.000000e+00 8.600000e+00 4.300000e+01
         vertex 2.000000e+01 8.600000e+00 1.400000e+01
      endloop
   endfacet
   facet normal -0.000000e+00 -1.000000e+00 0.000000e+00
      outer loop
         vertex 2.000000e+01 8.600000e+00 1.400000e+01
         vertex 2.000000e+00 8.600000e+00 4.300000e+01
         vertex 2.000000e+00 8.600000e+00 2.000000e+00
      endloop
   endfacet
   facet normal 0.000000e+00 -1.000000e+00 -0.000000e+00
      outer loop
         vertex 2.000000e+01 8.600000e+00 1.400000e+01
         vertex 2.000000e+00 8.600000e+00 2.000000e+00
         vertex 2.700000e+01 8.600000e+00 1.400000e+01
      endloop
   endfacet
   facet normal 0.000000e+00 -1.000000e+00 -0.000000e+00
      outer loop
         vertex 2.700000e+01 8.600000e+00 1.400000e+01
         vertex 2.000000e+00 8.600000e+00 2.000000e+00
         vertex 2.700000e+01 8.600000e+00 2.000000e+00
      endloop
   endfacet
   facet normal 1.000000e+00 0.000000e+00 0.000000e+00
      outer loop
         vertex 3.400000e+01 0.000000e+00 0.000000e+00
         vertex 3.400000e+01 1.450000e+01 0.000000e+00
         vertex 3.400000e+01 0.000000e+00 4.300000e+01
      endloop
   endfacet
   facet normal 1.000000e+00 -0.000000e+00 0.000000e+00
      outer loop
         vertex 3.400000e+01 0.000000e+00 4.300000e+01
         vertex 3.400000e+01 1.450000e+01 0.000000e+00
         vertex 3.400000e+01 1.450000e+01 4.300000e+01
      endloop
   endfacet
   facet normal 0.000000e+00 0.000000e+00 -1.000000e+00
      outer loop
         vertex 0.000000e+00 0.000000e+00 0.000000e+00
         vertex 0.000000e+00 1.450000e+01 0.000000e+00
         vertex 3.400000e+01 0.000000e+00 0.000000e+00
      endloop
   endfacet
   facet normal 0.000000e+00 0.000000e+00 -1.000000e+00
      outer loop
         vertex 3.400000e+01 0.000000e+00 0.000000e+00
         vertex 0.000000e+00 1.450000e+01 0.000000e+00
         vertex 3.400000e+01 1.450000e+01 0.000000e+00
      endloop
   endfacet
   facet normal -1.000000e+00 0.000000e+00 0.000000e+00
      outer loop
         vertex 0.000000e+00 0.000000e+00 4.300000e+01
         vertex 0.000000e+00 1.450000e+01 4.300000e+01
         vertex 0.000000e+00 0.000000e+00 0.000000e+00
      endloop
   endfacet
   facet normal -1.000000e+00 0.000000e+00 0.000000e+00
      outer loop
         vertex 0.000000e+00 0.000000e+00 0.000000e+00
         vertex 0.000000e+00 1.450000e+01 4.300000e+01
         vertex 0.000000e+00 1.450000e+01 0.000000e+00
      endloop
   endfacet
   facet normal 0.000000e+00 1.000000e+00 0.000000e+00
      outer loop
         vertex 0.000000e+00 1.450000e+01 0.000000e+00
         vertex 0.000000e+00 1.450000e+01 4.300000e+01
         vertex 3.400000e+01 1.450000e+01 0.000000e+00
      endloop
   endfacet
   facet normal 0.000000e+00 1.000000e+00 -0.000000e+00
      outer loop
         vertex 3.400000e+01 1.450000e+01 0.000000e+00
         vertex 0.000000e+00 1.450000e+01 4.300000e+01
         vertex 3.400000e+01 1.450000e+01 4.300000e+01
      endloop
   endfacet
   facet normal 1.000000e+00 0.000000e+00 0.000000e+00
      outer loop
         vertex 2.000000e+00 8.600000e+00 4.300000e+01
         vertex 2.000000e+00 2.000000e+00 4.300000e+01
         vertex 2.000000e+00 8.600000e+00 2.000000e+00
      endloop
   endfacet
   facet normal 1.000000e+00 0.000000e+00 0.000000e+00
      outer loop
         vertex 2.000000e+00 8.600000e+00 2.000000e+00
         vertex 2.000000e+00 2.000000e+00 4.300000e+01
         vertex 2.000000e+00 2.000000e+00 2.000000e+00
      endloop
   endfacet
   facet normal -0.000000e+00 0.000000e+00 1.000000e+00
      outer loop
         vertex 2.000000e+00 8.600000e+00 2.000000e+00
         vertex 2.000000e+00 2.000000e+00 2.000000e+00
         vertex 2.700000e+01 8.600000e+00 2.000000e+00
      endloop
   endfacet
   facet normal 0.000000e+00 0.000000e+00 1.000000e+00
      outer loop
         vertex 2.700000e+01 8.600000e+00 2.000000e+00
         vertex 2.000000e+00 2.000000e+00 2.000000e+00
         vertex 3.200000e+01 2.000000e+00 2.000000e+00
      endloop
   endfacet
   facet normal -0.000000e+00 0.000000e+00 1.000000e+00
      outer loop
         vertex 2.700000e+01 8.600000e+00 2.000000e+00
         vertex 3.200000e+01 2.000000e+00 2.000000e+00
         vertex 2.700000e+01 1.200000e+01 2.000000e+00
      endloop
   endfacet
   facet normal -0.000000e+00 0.000000e+00 1.000000e+00
      outer loop
         vertex 2.700000e+01 1.200000e+01 2.000000e+00
         vertex 3.200000e+01 2.000000e+00 2.000000e+00
         vertex 3.200000e+01 1.200000e+01 2.000000e+00
      endloop
   endfacet
   facet normal -1.000000e+00 0.000000e+00 0.000000e+00
      outer loop
         vertex 3.200000e+01 2.000000e+00 2.000000e+00
         vertex 3.200000e+01 2.000000e+00 4.300000e+01
         vertex 3.200000e+01 1.200000e+01 2.000000e+00
      endloop
   endfacet
   facet normal -1.000000e+00 0.000000e+00 0.000000e+00
      outer loop
         vertex 3.200000e+01 1.200000e+01 2.000000e+00
         vertex 3.200000e+01 2.000000e+00 4.300000e+01
         vertex 3.200000e+01 1.200000e+01 4.300000e+01
      endloop
   endfacet
   facet normal -0.000000e+00 1.000000e+00 0.000000e+00
      outer loop
         vertex 2.000000e+00 2.000000e+00 4.300000e+01
         vertex 3.200000e+01 2.000000e+00 4.300000e+01
         vertex 2.000000e+00 2.000000e+00 2.000000e+00
      endloop
   endfacet
   facet normal 0.000000e+00 1.000000e+00 0.000000e+00
      outer loop
         vertex 2.000000e+00 2.000000e+00 2.000000e+00
         vertex 3.200000e+01 2.000000e+00 4.300000e+01
         vertex 3.200000e+01 2.000000e+00 2.000000e+00
      endloop
   endfacet
   facet normal 0.000000e+00 -1.000000e+00 0.000000e+00
      outer loop
         vertex 0.000000e+00 0.000000e+00 4.300000e+01
         vertex 0.000000e+00 0.000000e+00 0.000000e+00
         vertex 3.400000e+01 0.000000e+00 4.300000e+01
      endloop
   endfacet
   facet normal 0.000000e+00 -1.000000e+00 -0.000000e+00
      outer loop
         vertex 3.400000e+01 0.000000e+00 4.300000e+01
         vertex 0.000000e+00 0.000000e+00 0.000000e+00
         vertex 3.400000e+01 0.000000e+00 0.000000e+00
      endloop
   endfacet
endsolid