solid Mk3_Lid
   facet normal 1.000000e+00 0.000000e+00 -0.000000e+00
      outer loop
         vertex 3.550000e+01 1.000000e+01 0.000000e+00
         vertex 3.550000e+01 1.000000e+01 1.250000e+01
         vertex 3.550000e+01 0.000000e+00 0.000000e+00
      endloop
   endfacet
   facet normal 1.000000e+00 0.000000e+00 0.000000e+00
      outer loop
         vertex 3.550000e+01 0.000000e+00 0.000000e+00
         vertex 3.550000e+01 1.000000e+01 1.250000e+01
         vertex 3.550000e+01 0.000000e+00 1.250000e+01
      endloop
   endfacet
   facet normal 0.000000e+00 0.000000e+00 -1.000000e+00
      outer loop
         vertex 5.000001e+00 7.500000e+00 0.000000e+00
         vertex 0.000000e+00 1.000000e+01 0.000000e+00
         vertex 3.050000e+01 7.500000e+00 0.000000e+00
      endloop
   endfacet
   facet normal 0.000000e+00 0.000000e+00 -1.000000e+00
      outer loop
         vertex 3.050000e+01 7.500000e+00 0.000000e+00
         vertex 0.000000e+00 1.000000e+01 0.000000e+00
         vertex 3.550000e+01 1.000000e+01 0.000000e+00
      endloop
   endfacet
   facet normal -0.000000e+00 0.000000e+00 -1.000000e+00
      outer loop
         vertex 3.151519e+01 2.826352e+00 0.000000e+00
         vertex 3.050000e+01 0.000000e+00 0.000000e+00
         vertex 3.150000e+01 3.000000e+00 0.000000e+00
      endloop
   endfacet
   facet normal -0.000000e+00 0.000000e+00 -1.000000e+00
      outer loop
         vertex 3.150000e+01 3.000000e+00 0.000000e+00
         vertex 3.050000e+01 0.000000e+00 0.000000e+00
         vertex 3.050000e+01 7.500000e+00 0.000000e+00
      endloop
   endfacet
   facet normal -0.000000e+00 0.000000e+00 -1.000000e+00
      outer loop
         vertex 3.173396e+01 3.642788e+00 0.000000e+00
         vertex 3.163397e+01 3.500000e+00 0.000000e+00
         vertex 3.050000e+01 7.500000e+00 0.000000e+00
      endloop
   endfacet
   facet normal -0.000000e+00 0.000000e+00 -1.000000e+00
      outer loop
         vertex 2.357213e+00 3.766045e+00 0.000000e+00
         vertex 2.233956e+00 3.642788e+00 0.000000e+00
         vertex 0.000000e+00 1.000000e+01 0.000000e+00
      endloop
   endfacet
   facet normal -0.000000e+00 0.000000e+00 -1.000000e+00
      outer loop
         vertex 2.000000e+00 3.000000e+00 0.000000e+00
         vertex 0.000000e+00 0.000000e+00 0.000000e+00
         vertex 2.015192e+00 3.173648e+00 0.000000e+00
      endloop
   endfacet
   facet normal -0.000000e+00 0.000000e+00 -1.000000e+00
      outer loop
         vertex 2.015192e+00 3.173648e+00 0.000000e+00
         vertex 0.000000e+00 0.000000e+00 0.000000e+00
         vertex 0.000000e+00 1.000000e+01 0.000000e+00
      endloop
   endfacet
   facet normal -0.000000e+00 0.000000e+00 -1.000000e+00
      outer loop
         vertex 3.163397e+01 3.500000e+00 0.000000e+00
         vertex 3.156031e+01 3.342020e+00 0.000000e+00
         vertex 3.050000e+01 7.500000e+00 0.000000e+00
      endloop
   endfacet
   facet normal 0.000000e+00 0.000000e+00 -1.000000e+00
      outer loop
         vertex 3.050000e+01 7.500000e+00 0.000000e+00
         vertex 3.156031e+01 3.342020e+00 0.000000e+00
         vertex 3.151519e+01 3.173648e+00 0.000000e+00
      endloop
   endfacet
   facet normal 0.000000e+00 0.000000e+00 -1.000000e+00
      outer loop
         vertex 3.050000e+01 7.500000e+00 0.000000e+00
         vertex 3.151519e+01 3.173648e+00 0.000000e+00
         vertex 3.150000e+01 3.000000e+00 0.000000e+00
      endloop
   endfacet
   facet normal 0.000000e+00 0.000000e+00 -1.000000e+00
      outer loop
         vertex 3.642788e+00 3.766045e+00 0.000000e+00
         vertex 3.500001e+00 3.866025e+00 0.000000e+00
         vertex 5.000001e+00 7.500000e+00 0.000000e+00
      endloop
   endfacet
   facet normal -0.000000e+00 0.000000e+00 -1.000000e+00
      outer loop
         vertex 2.233956e+00 3.642788e+00 0.000000e+00
         vertex 2.133975e+00 3.500000e+00 0.000000e+00
         vertex 0.000000e+00 1.000000e+01 0.000000e+00
      endloop
   endfacet
   facet normal 0.000000e+00 0.000000e+00 -1.000000e+00
      outer loop
         vertex 0.000000e+00 1.000000e+01 0.000000e+00
         vertex 2.133975e+00 3.500000e+00 0.000000e+00
         vertex 2.060307e+00 3.342020e+00 0.000000e+00
      endloop
   endfacet
   facet normal 0.000000e+00 0.000000e+00 -1.000000e+00
      outer loop
         vertex 0.000000e+00 1.000000e+01 0.000000e+00
         vertex 2.060307e+00 3.342020e+00 0.000000e+00
         vertex 2.015192e+00 3.173648e+00 0.000000e+00
      endloop
   endfacet
   facet normal 0.000000e+00 -0.000000e+00 -1.000000e+00
      outer loop
         vertex 2.000000e+00 3.000000e+00 0.000000e+00
         vertex 2.015192e+00 2.826352e+00 0.000000e+00
         vertex 0.000000e+00 0.000000e+00 0.000000e+00
      endloop
   endfacet
   facet normal 0.000000e+00 0.000000e+00 -1.000000e+00
      outer loop
         vertex 0.000000e+00 0.000000e+00 0.000000e+00
         vertex 2.015192e+00 2.826352e+00 0.000000e+00
         vertex 2.060307e+00 2.657980e+00 0.000000e+00
      endloop
   endfacet
   facet normal 0.000000e+00 0.000000e+00 -1.000000e+00
      outer loop
         vertex 0.000000e+00 0.000000e+00 0.000000e+00
         vertex 2.060307e+00 2.657980e+00 0.000000e+00
         vertex 2.133975e+00 2.500000e+00 0.000000e+00
      endloop
   endfacet
   facet normal 0.000000e+00 0.000000e+00 -1.000000e+00
      outer loop
         vertex 3.336603e+01 2.500000e+00 0.000000e+00
         vertex 3.343969e+01 2.657980e+00 0.000000e+00
         vertex 3.550000e+01 0.000000e+00 0.000000e+00
      endloop
   endfacet
   facet normal 0.000000e+00 0.000000e+00 -1.000000e+00
      outer loop
         vertex 3.939693e+00 3.342020e+00 0.000000e+00
         vertex 3.866026e+00 3.500000e+00 0.000000e+00
         vertex 5.000001e+00 7.500000e+00 0.000000e+00
      endloop
   endfacet
   facet normal 0.000000e+00 0.000000e+00 -1.000000e+00
      outer loop
         vertex 5.000001e+00 7.500000e+00 0.000000e+00
         vertex 3.866026e+00 3.500000e+00 0.000000e+00
         vertex 3.766045e+00 3.642788e+00 0.000000e+00
      endloop
   endfacet
   facet normal 0.000000e+00 0.000000e+00 -1.000000e+00
      outer loop
         vertex 5.000001e+00 7.500000e+00 0.000000e+00
         vertex 3.766045e+00 3.642788e+00 0.000000e+00
         vertex 3.642788e+00 3.766045e+00 0.000000e+00
      endloop
   endfacet
   facet normal 0.000000e+00 -0.000000e+00 -1.000000e+00
      outer loop
         vertex 2.133975e+00 2.500000e+00 0.000000e+00
         vertex 2.233956e+00 2.357212e+00 0.000000e+00
         vertex 0.000000e+00 0.000000e+00 0.000000e+00
      endloop
   endfacet
   facet normal 0.000000e+00 0.000000e+00 -1.000000e+00
      outer loop
         vertex 0.000000e+00 0.000000e+00 0.000000e+00
         vertex 2.233956e+00 2.357212e+00 0.000000e+00
         vertex 2.357213e+00 2.233956e+00 0.000000e+00
      endloop
   endfacet
   facet normal 0.000000e+00 0.000000e+00 -1.000000e+00
      outer loop
         vertex 0.000000e+00 0.000000e+00 0.000000e+00
         vertex 2.357213e+00 2.233956e+00 0.000000e+00
         vertex 2.500000e+00 2.133975e+00 0.000000e+00
      endloop
   endfacet
   facet normal 0.000000e+00 -0.000000e+00 -1.000000e+00
      outer loop
         vertex 3.151519e+01 2.826352e+00 0.000000e+00
         vertex 3.156031e+01 2.657980e+00 0.000000e+00
         vertex 3.050000e+01 0.000000e+00 0.000000e+00
      endloop
   endfacet
   facet normal 0.000000e+00 0.000000e+00 -1.000000e+00
      outer loop
         vertex 3.050000e+01 0.000000e+00 0.000000e+00
         vertex 3.156031e+01 2.657980e+00 0.000000e+00
         vertex 3.163397e+01 2.500000e+00 0.000000e+00
      endloop
   endfacet
   facet normal 0.000000e+00 0.000000e+00 -1.000000e+00
      outer loop
         vertex 3.050000e+01 0.000000e+00 0.000000e+00
         vertex 3.163397e+01 2.500000e+00 0.000000e+00
         vertex 3.173396e+01 2.357212e+00 0.000000e+00
      endloop
   endfacet
   facet normal 0.000000e+00 0.000000e+00 -1.000000e+00
      outer loop
         vertex 3.343969e+01 3.342020e+00 0.000000e+00
         vertex 3.336603e+01 3.500000e+00 0.000000e+00
         vertex 3.550000e+01 1.000000e+01 0.000000e+00
      endloop
   endfacet
   facet normal 0.000000e+00 0.000000e+00 -1.000000e+00
      outer loop
         vertex 3.550000e+01 1.000000e+01 0.000000e+00
         vertex 3.336603e+01 3.500000e+00 0.000000e+00
         vertex 3.326605e+01 3.642788e+00 0.000000e+00
      endloop
   endfacet
   facet normal 0.000000e+00 0.000000e+00 -1.000000e+00
      outer loop
         vertex 3.550000e+01 1.000000e+01 0.000000e+00
         vertex 3.326605e+01 3.642788e+00 0.000000e+00
         vertex 3.314279e+01 3.766045e+00 0.000000e+00
      endloop
   endfacet
   facet normal 0.000000e+00 0.000000e+00 -1.000000e+00
      outer loop
         vertex 3.267365e+01 3.984808e+00 0.000000e+00
         vertex 3.250000e+01 4.000000e+00 0.000000e+00
         vertex 3.550000e+01 1.000000e+01 0.000000e+00
      endloop
   endfacet
   facet normal 0.000000e+00 0.000000e+00 -1.000000e+00
      outer loop
         vertex 3.173648e+00 2.015192e+00 0.000000e+00
         vertex 3.342020e+00 2.060307e+00 0.000000e+00
         vertex 5.000001e+00 0.000000e+00 0.000000e+00
      endloop
   endfacet
   facet normal 0.000000e+00 0.000000e+00 -1.000000e+00
      outer loop
         vertex 5.000001e+00 0.000000e+00 0.000000e+00
         vertex 3.342020e+00 2.060307e+00 0.000000e+00
         vertex 3.500001e+00 2.133975e+00 0.000000e+00
      endloop
   endfacet
   facet normal 0.000000e+00 0.000000e+00 -1.000000e+00
      outer loop
         vertex 5.000001e+00 0.000000e+00 0.000000e+00
         vertex 3.500001e+00 2.133975e+00 0.000000e+00
         vertex 3.642788e+00 2.233956e+00 0.000000e+00
      endloop
   endfacet
   facet normal 0.000000e+00 0.000000e+00 -1.000000e+00
      outer loop
         vertex 3.642788e+00 2.233956e+00 0.000000e+00
         vertex 3.766045e+00 2.357212e+00 0.000000e+00
         vertex 5.000001e+00 0.000000e+00 0.000000e+00
      endloop
   endfacet
   facet normal 0.000000e+00 0.000000e+00 -1.000000e+00
      outer loop
         vertex 5.000001e+00 0.000000e+00 0.000000e+00
         vertex 3.766045e+00 2.357212e+00 0.000000e+00
         vertex 3.866026e+00 2.500000e+00 0.000000e+00
      endloop
   endfacet
   facet normal 0.000000e+00 0.000000e+00 -1.000000e+00
      outer loop
         vertex 5.000001e+00 0.000000e+00 0.000000e+00
         vertex 3.866026e+00 2.500000e+00 0.000000e+00
         vertex 3.939693e+00 2.657980e+00 0.000000e+00
      endloop
   endfacet
   facet normal 0.000000e+00 0.000000e+00 -1.000000e+00
      outer loop
         vertex 3.939693e+00 2.657980e+00 0.000000e+00
         vertex 3.984808e+00 2.826352e+00 0.000000e+00
         vertex 5.000001e+00 0.000000e+00 0.000000e+00
      endloop
   endfacet
   facet normal 0.000000e+00 0.000000e+00 -1.000000e+00
      outer loop
         vertex 5.000001e+00 0.000000e+00 0.000000e+00
         vertex 3.984808e+00 2.826352e+00 0.000000e+00
         vertex 4.000001e+00 3.000000e+00 0.000000e+00
      endloop
   endfacet
   facet normal 0.000000e+00 0.000000e+00 -1.000000e+00
      outer loop
         vertex 5.000001e+00 0.000000e+00 0.000000e+00
         vertex 4.000001e+00 3.000000e+00 0.000000e+00
         vertex 5.000001e+00 7.500000e+00 0.000000e+00
      endloop
   endfacet
   facet normal 0.000000e+00 0.000000e+00 -1.000000e+00
      outer loop
         vertex 5.000001e+00 7.500000e+00 0.000000e+00
         vertex 4.000001e+00 3.000000e+00 0.000000e+00
         vertex 3.984808e+00 3.173648e+00 0.000000e+00
      endloop
   endfacet
   facet normal 0.000000e+00 0.000000e+00 -1.000000e+00
      outer loop
         vertex 5.000001e+00 7.500000e+00 0.000000e+00
         vertex 3.984808e+00 3.173648e+00 0.000000e+00
         vertex 3.939693e+00 3.342020e+00 0.000000e+00
      endloop
   endfacet
   facet normal -0.000000e+00 0.000000e+00 -1.000000e+00
      outer loop
         vertex 2.826353e+00 3.984808e+00 0.000000e+00
         vertex 2.657981e+00 3.939692e+00 0.000000e+00
         vertex 0.000000e+00 1.000000e+01 0.000000e+00
      endloop
   endfacet
   facet normal 0.000000e+00 0.000000e+00 -1.000000e+00
      outer loop
         vertex 0.000000e+00 1.000000e+01 0.000000e+00
         vertex 2.657981e+00 3.939692e+00 0.000000e+00
         vertex 2.500000e+00 3.866025e+00 0.000000e+00
      endloop
   endfacet
   facet normal 0.000000e+00 0.000000e+00 -1.000000e+00
      outer loop
         vertex 0.000000e+00 1.000000e+01 0.000000e+00
         vertex 2.500000e+00 3.866025e+00 0.000000e+00
         vertex 2.357213e+00 3.766045e+00 0.000000e+00
      endloop
   endfacet
   facet normal 0.000000e+00 -0.000000e+00 -1.000000e+00
      outer loop
         vertex 3.336603e+01 2.500000e+00 0.000000e+00
         vertex 3.550000e+01 0.000000e+00 0.000000e+00
         vertex 3.326605e+01 2.357212e+00 0.000000e+00
      endloop
   endfacet
   facet normal 0.000000e+00 -0.000000e+00 -1.000000e+00
      outer loop
         vertex 2.500000e+00 2.133975e+00 0.000000e+00
         vertex 2.657981e+00 2.060307e+00 0.000000e+00
         vertex 0.000000e+00 0.000000e+00 0.000000e+00
      endloop
   endfacet
   facet normal 0.000000e+00 0.000000e+00 -1.000000e+00
      outer loop
         vertex 0.000000e+00 0.000000e+00 0.000000e+00
         vertex 2.657981e+00 2.060307e+00 0.000000e+00
         vertex 2.826353e+00 2.015192e+00 0.000000e+00
      endloop
   endfacet
   facet normal 0.000000e+00 0.000000e+00 -1.000000e+00
      outer loop
         vertex 0.000000e+00 0.000000e+00 0.000000e+00
         vertex 2.826353e+00 2.015192e+00 0.000000e+00
         vertex 5.000001e+00 0.000000e+00 0.000000e+00
      endloop
   endfacet
   facet normal 0.000000e+00 0.000000e+00 -1.000000e+00
      outer loop
         vertex 5.000001e+00 0.000000e+00 0.000000e+00
         vertex 2.826353e+00 2.015192e+00 0.000000e+00
         vertex 3.000000e+00 2.000000e+00 0.000000e+00
      endloop
   endfacet
   facet normal 0.000000e+00 0.000000e+00 -1.000000e+00
      outer loop
         vertex 5.000001e+00 0.000000e+00 0.000000e+00
         vertex 3.000000e+00 2.000000e+00 0.000000e+00
         vertex 3.173648e+00 2.015192e+00 0.000000e+00
      endloop
   endfacet
   facet normal 0.000000e+00 0.000000e+00 -1.000000e+00
      outer loop
         vertex 3.500001e+00 3.866025e+00 0.000000e+00
         vertex 3.342020e+00 3.939692e+00 0.000000e+00
         vertex 5.000001e+00 7.500000e+00 0.000000e+00
      endloop
   endfacet
   facet normal 0.000000e+00 0.000000e+00 -1.000000e+00
      outer loop
         vertex 5.000001e+00 7.500000e+00 0.000000e+00
         vertex 3.342020e+00 3.939692e+00 0.000000e+00
         vertex 3.173648e+00 3.984808e+00 0.000000e+00
      endloop
   endfacet
   facet normal -0.000000e+00 0.000000e+00 -1.000000e+00
      outer loop
         vertex 5.000001e+00 7.500000e+00 0.000000e+00
         vertex 3.173648e+00 3.984808e+00 0.000000e+00
         vertex 0.000000e+00 1.000000e+01 0.000000e+00
      endloop
   endfacet
   facet normal 0.000000e+00 0.000000e+00 -1.000000e+00
      outer loop
         vertex 0.000000e+00 1.000000e+01 0.000000e+00
         vertex 3.173648e+00 3.984808e+00 0.000000e+00
         vertex 3.000000e+00 4.000000e+00 0.000000e+00
      endloop
   endfacet
   facet normal 0.000000e+00 0.000000e+00 -1.000000e+00
      outer loop
         vertex 0.000000e+00 1.000000e+01 0.000000e+00
         vertex 3.000000e+00 4.000000e+00 0.000000e+00
         vertex 2.826353e+00 3.984808e+00 0.000000e+00
      endloop
   endfacet
   facet normal 0.000000e+00 -0.000000e+00 -1.000000e+00
      outer loop
         vertex 3.173396e+01 2.357212e+00 0.000000e+00
         vertex 3.185721e+01 2.233956e+00 0.000000e+00
         vertex 3.050000e+01 0.000000e+00 0.000000e+00
      endloop
   endfacet
   facet normal 0.000000e+00 0.000000e+00 -1.000000e+00
      outer loop
         vertex 3.050000e+01 0.000000e+00 0.000000e+00
         vertex 3.185721e+01 2.233956e+00 0.000000e+00
         vertex 3.200000e+01 2.133975e+00 0.000000e+00
      endloop
   endfacet
   facet normal 0.000000e+00 0.000000e+00 -1.000000e+00
      outer loop
         vertex 3.050000e+01 0.000000e+00 0.000000e+00
         vertex 3.200000e+01 2.133975e+00 0.000000e+00
         vertex 3.215798e+01 2.060307e+00 0.000000e+00
      endloop
   endfacet
   facet normal 0.000000e+00 0.000000e+00 -1.000000e+00
      outer loop
         vertex 3.343969e+01 2.657980e+00 0.000000e+00
         vertex 3.348481e+01 2.826352e+00 0.000000e+00
         vertex 3.550000e+01 0.000000e+00 0.000000e+00
      endloop
   endfacet
   facet normal 0.000000e+00 0.000000e+00 -1.000000e+00
      outer loop
         vertex 3.550000e+01 0.000000e+00 0.000000e+00
         vertex 3.348481e+01 2.826352e+00 0.000000e+00
         vertex 3.350000e+01 3.000000e+00 0.000000e+00
      endloop
   endfacet
   facet normal 0.000000e+00 0.000000e+00 -1.000000e+00
      outer loop
         vertex 3.550000e+01 0.000000e+00 0.000000e+00
         vertex 3.350000e+01 3.000000e+00 0.000000e+00
         vertex 3.550000e+01 1.000000e+01 0.000000e+00
      endloop
   endfacet
   facet normal 0.000000e+00 0.000000e+00 -1.000000e+00
      outer loop
         vertex 3.550000e+01 1.000000e+01 0.000000e+00
         vertex 3.350000e+01 3.000000e+00 0.000000e+00
         vertex 3.348481e+01 3.173648e+00 0.000000e+00
      endloop
   endfacet
   facet normal 0.000000e+00 0.000000e+00 -1.000000e+00
      outer loop
         vertex 3.550000e+01 1.000000e+01 0.000000e+00
         vertex 3.348481e+01 3.173648e+00 0.000000e+00
         vertex 3.343969e+01 3.342020e+00 0.000000e+00
      endloop
   endfacet
   facet normal 0.000000e+00 0.000000e+00 -1.000000e+00
      outer loop
         vertex 3.550000e+01 1.000000e+01 0.000000e+00
         vertex 3.250000e+01 4.000000e+00 0.000000e+00
         vertex 3.050000e+01 7.500000e+00 0.000000e+00
      endloop
   endfacet
   facet normal 0.000000e+00 0.000000e+00 -1.000000e+00
      outer loop
         vertex 3.050000e+01 7.500000e+00 0.000000e+00
         vertex 3.250000e+01 4.000000e+00 0.000000e+00
         vertex 3.232635e+01 3.984808e+00 0.000000e+00
      endloop
   endfacet
   facet normal 0.000000e+00 0.000000e+00 -1.000000e+00
      outer loop
         vertex 3.050000e+01 7.500000e+00 0.000000e+00
         vertex 3.232635e+01 3.984808e+00 0.000000e+00
         vertex 3.215798e+01 3.939692e+00 0.000000e+00
      endloop
   endfacet
   facet normal 0.000000e+00 0.000000e+00 -1.000000e+00
      outer loop
         vertex 3.284202e+01 2.060307e+00 0.000000e+00
         vertex 3.300000e+01 2.133975e+00 0.000000e+00
         vertex 3.550000e+01 0.000000e+00 0.000000e+00
      endloop
   endfacet
   facet normal 0.000000e+00 0.000000e+00 -1.000000e+00
      outer loop
         vertex 3.550000e+01 0.000000e+00 0.000000e+00
         vertex 3.300000e+01 2.133975e+00 0.000000e+00
         vertex 3.314279e+01 2.233956e+00 0.000000e+00
      endloop
   endfacet
   facet normal 0.000000e+00 0.000000e+00 -1.000000e+00
      outer loop
         vertex 3.550000e+01 0.000000e+00 0.000000e+00
         vertex 3.314279e+01 2.233956e+00 0.000000e+00
         vertex 3.326605e+01 2.357212e+00 0.000000e+00
      endloop
   endfacet
   facet normal 0.000000e+00 0.000000e+00 -1.000000e+00
      outer loop
         vertex 3.314279e+01 3.766045e+00 0.000000e+00
         vertex 3.300000e+01 3.866025e+00 0.000000e+00
         vertex 3.550000e+01 1.000000e+01 0.000000e+00
      endloop
   endfacet
   facet normal 0.000000e+00 0.000000e+00 -1.000000e+00
      outer loop
         vertex 3.550000e+01 1.000000e+01 0.000000e+00
         vertex 3.300000e+01 3.866025e+00 0.000000e+00
         vertex 3.284202e+01 3.939692e+00 0.000000e+00
      endloop
   endfacet
   facet normal 0.000000e+00 0.000000e+00 -1.000000e+00
      outer loop
         vertex 3.550000e+01 1.000000e+01 0.000000e+00
         vertex 3.284202e+01 3.939692e+00 0.000000e+00
         vertex 3.267365e+01 3.984808e+00 0.000000e+00
      endloop
   endfacet
   facet normal -0.000000e+00 0.000000e+00 -1.000000e+00
      outer loop
         vertex 3.215798e+01 3.939692e+00 0.000000e+00
         vertex 3.200000e+01 3.866025e+00 0.000000e+00
         vertex 3.050000e+01 7.500000e+00 0.000000e+00
      endloop
   endfacet
   facet normal 0.000000e+00 0.000000e+00 -1.000000e+00
      outer loop
         vertex 3.050000e+01 7.500000e+00 0.000000e+00
         vertex 3.200000e+01 3.866025e+00 0.000000e+00
         vertex 3.185721e+01 3.766045e+00 0.000000e+00
      endloop
   endfacet
   facet normal 0.000000e+00 0.000000e+00 -1.000000e+00
      outer loop
         vertex 3.050000e+01 7.500000e+00 0.000000e+00
         vertex 3.185721e+01 3.766045e+00 0.000000e+00
         vertex 3.173396e+01 3.642788e+00 0.000000e+00
      endloop
   endfacet
   facet normal 0.000000e+00 -0.000000e+00 -1.000000e+00
      outer loop
         vertex 3.215798e+01 2.060307e+00 0.000000e+00
         vertex 3.232635e+01 2.015192e+00 0.000000e+00
         vertex 3.050000e+01 0.000000e+00 0.000000e+00
      endloop
   endfacet
   facet normal 0.000000e+00 0.000000e+00 -1.000000e+00
      outer loop
         vertex 3.050000e+01 0.000000e+00 0.000000e+00
         vertex 3.232635e+01 2.015192e+00 0.000000e+00
         vertex 3.250000e+01 2.000000e+00 0.000000e+00
      endloop
   endfacet
   facet normal 0.000000e+00 0.000000e+00 -1.000000e+00
      outer loop
         vertex 3.050000e+01 0.000000e+00 0.000000e+00
         vertex 3.250000e+01 2.000000e+00 0.000000e+00
         vertex 3.550000e+01 0.000000e+00 0.000000e+00
      endloop
   endfacet
   facet normal 0.000000e+00 0.000000e+00 -1.000000e+00
      outer loop
         vertex 3.550000e+01 0.000000e+00 0.000000e+00
         vertex 3.250000e+01 2.000000e+00 0.000000e+00
         vertex 3.267365e+01 2.015192e+00 0.000000e+00
      endloop
   endfacet
   facet normal 0.000000e+00 0.000000e+00 -1.000000e+00
      outer loop
         vertex 3.550000e+01 0.000000e+00 0.000000e+00
         vertex 3.267365e+01 2.015192e+00 0.000000e+00
         vertex 3.284202e+01 2.060307e+00 0.000000e+00
      endloop
   endfacet
   facet normal -1.000000e+00 -0.000000e+00 -0.000000e+00
      outer loop
         vertex 0.000000e+00 1.000000e+01 1.250000e+01
         vertex 0.000000e+00 1.000000e+01 0.000000e+00
         vertex 0.000000e+00 0.000000e+00 1.250000e+01
      endloop
   endfacet
   facet normal -1.000000e+00 0.000000e+00 0.000000e+00
      outer loop
         vertex 0.000000e+00 0.000000e+00 1.250000e+01
         vertex 0.000000e+00 1.000000e+01 0.000000e+00
         vertex 0.000000e+00 0.000000e+00 0.000000e+00
      endloop
   endfacet
   facet normal 0.000000e+00 0.000000e+00 1.000000e+00
      outer loop
         vertex 3.550000e+01 1.000000e+01 1.250000e+01
         vertex 0.000000e+00 1.000000e+01 1.250000e+01
         vertex 3.550000e+01 0.000000e+00 1.250000e+01
      endloop
   endfacet
   facet normal 0.000000e+00 0.000000e+00 1.000000e+00
      outer loop
         vertex 3.550000e+01 0.000000e+00 1.250000e+01
         vertex 0.000000e+00 1.000000e+01 1.250000e+01
         vertex 0.000000e+00 0.000000e+00 1.250000e+01
      endloop
   endfacet
   facet normal 0.000000e+00 1.000000e+00 0.000000e+00
      outer loop
         vertex 0.000000e+00 1.000000e+01 0.000000e+00
         vertex 0.000000e+00 1.000000e+01 1.250000e+01
         vertex 3.550000e+01 1.000000e+01 0.000000e+00
      endloop
   endfacet
   facet normal 0.000000e+00 1.000000e+00 -0.000000e+00
      outer loop
         vertex 3.550000e+01 1.000000e+01 0.000000e+00
         vertex 0.000000e+00 1.000000e+01 1.250000e+01
         vertex 3.550000e+01 1.000000e+01 1.250000e+01
      endloop
   endfacet
   facet normal 0.000000e+00 -1.000000e+00 0.000000e+00
      outer loop
         vertex 3.050000e+01 0.000000e+00 0.000000e+00
         vertex 3.550000e+01 0.000000e+00 0.000000e+00
         vertex 3.050000e+01 0.000000e+00 7.500000e+00
      endloop
   endfacet
   facet normal 0.000000e+00 -1.000000e+00 0.000000e+00
      outer loop
         vertex 3.050000e+01 0.000000e+00 7.500000e+00
         vertex 3.550000e+01 0.000000e+00 0.000000e+00
         vertex 3.550000e+01 0.000000e+00 1.250000e+01
      endloop
   endfacet
   facet normal 0.000000e+00 -1.000000e+00 0.000000e+00
      outer loop
         vertex 3.050000e+01 0.000000e+00 7.500000e+00
         vertex 3.550000e+01 0.000000e+00 1.250000e+01
         vertex 5.000001e+00 0.000000e+00 7.500000e+00
      endloop
   endfacet
   facet normal 0.000000e+00 -1.000000e+00 0.000000e+00
      outer loop
         vertex 5.000001e+00 0.000000e+00 7.500000e+00
         vertex 3.550000e+01 0.000000e+00 1.250000e+01
         vertex 0.000000e+00 0.000000e+00 1.250000e+01
      endloop
   endfacet
   facet normal -0.000000e+00 -1.000000e+00 -0.000000e+00
      outer loop
         vertex 5.000001e+00 0.000000e+00 7.500000e+00
         vertex 0.000000e+00 0.000000e+00 1.250000e+01
         vertex 5.000001e+00 0.000000e+00 0.000000e+00
      endloop
   endfacet
   facet normal 0.000000e+00 -1.000000e+00 0.000000e+00
      outer loop
         vertex 5.000001e+00 0.000000e+00 0.000000e+00
         vertex 0.000000e+00 0.000000e+00 1.250000e+01
         vertex 0.000000e+00 0.000000e+00 0.000000e+00
      endloop
   endfacet
   facet normal 0.000000e+00 0.000000e+00 -1.000000e+00
      outer loop
         vertex 5.000001e+00 7.500000e+00 7.500000e+00
         vertex 3.050000e+01 7.500000e+00 7.500000e+00
         vertex 5.000001e+00 0.000000e+00 7.500000e+00
      endloop
   endfacet
   facet normal 0.000000e+00 0.000000e+00 -1.000000e+00
      outer loop
         vertex 5.000001e+00 0.000000e+00 7.500000e+00
         vertex 3.050000e+01 7.500000e+00 7.500000e+00
         vertex 3.050000e+01 0.000000e+00 7.500000e+00
      endloop
   endfacet
   facet normal -1.000000e+00 -0.000000e+00 -0.000000e+00
      outer loop
         vertex 3.050000e+01 7.500000e+00 7.500000e+00
         vertex 3.050000e+01 7.500000e+00 0.000000e+00
         vertex 3.050000e+01 0.000000e+00 7.500000e+00
      endloop
   endfacet
   facet normal -1.000000e+00 0.000000e+00 0.000000e+00
      outer loop
         vertex 3.050000e+01 0.000000e+00 7.500000e+00
         vertex 3.050000e+01 7.500000e+00 0.000000e+00
         vertex 3.050000e+01 0.000000e+00 0.000000e+00
      endloop
   endfacet
   facet normal 1.000000e+00 0.000000e+00 -0.000000e+00
      outer loop
         vertex 5.000001e+00 7.500000e+00 0.000000e+00
         vertex 5.000001e+00 7.500000e+00 7.500000e+00
         vertex 5.000001e+00 0.000000e+00 0.000000e+00
      endloop
   endfacet
   facet normal 1.000000e+00 0.000000e+00 0.000000e+00
      outer loop
         vertex 5.000001e+00 0.000000e+00 0.000000e+00
         vertex 5.000001e+00 7.500000e+00 7.500000e+00
         vertex 5.000001e+00 0.000000e+00 7.500000e+00
      endloop
   endfacet
   facet normal 0.000000e+00 -1.000000e+00 0.000000e+00
      outer loop
         vertex 5.000001e+00 7.500000e+00 0.000000e+00
         vertex 3.050000e+01 7.500000e+00 0.000000e+00
         vertex 5.000001e+00 7.500000e+00 7.500000e+00
      endloop
   endfacet
   facet normal 0.000000e+00 -1.000000e+00 0.000000e+00
      outer loop
         vertex 5.000001e+00 7.500000e+00 7.500000e+00
         vertex 3.050000e+01 7.500000e+00 0.000000e+00
         vertex 3.050000e+01 7.500000e+00 7.500000e+00
      endloop
   endfacet
   facet normal 9.961950e-01 -8.715285e-02 0.000000e+00
      outer loop
         vertex 2.000000e+00 3.000000e+00 4.000000e+00
         vertex 2.000000e+00 3.000000e+00 0.000000e+00
         vertex 2.015192e+00 3.173648e+00 4.000000e+00
      endloop
   endfacet
   facet normal 9.961950e-01 -8.715285e-02 0.000000e+00
      outer loop
         vertex 2.015192e+00 3.173648e+00 4.000000e+00
         vertex 2.000000e+00 3.000000e+00 0.000000e+00
         vertex 2.015192e+00 3.173648e+00 0.000000e+00
      endloop
   endfacet
   facet normal 9.659258e-01 -2.588191e-01 0.000000e+00
      outer loop
         vertex 2.015192e+00 3.173648e+00 4.000000e+00
         vertex 2.015192e+00 3.173648e+00 0.000000e+00
         vertex 2.060307e+00 3.342020e+00 4.000000e+00
      endloop
   endfacet
   facet normal 9.659258e-01 -2.588191e-01 0.000000e+00
      outer loop
         vertex 2.060307e+00 3.342020e+00 4.000000e+00
         vertex 2.015192e+00 3.173648e+00 0.000000e+00
         vertex 2.060307e+00 3.342020e+00 0.000000e+00
      endloop
   endfacet
   facet normal 9.063071e-01 -4.226198e-01 0.000000e+00
      outer loop
         vertex 2.060307e+00 3.342020e+00 4.000000e+00
         vertex 2.060307e+00 3.342020e+00 0.000000e+00
         vertex 2.133975e+00 3.500000e+00 4.000000e+00
      endloop
   endfacet
   facet normal 9.063071e-01 -4.226198e-01 0.000000e+00
      outer loop
         vertex 2.133975e+00 3.500000e+00 4.000000e+00
         vertex 2.060307e+00 3.342020e+00 0.000000e+00
         vertex 2.133975e+00 3.500000e+00 0.000000e+00
      endloop
   endfacet
   facet normal 8.191513e-01 -5.735774e-01 0.000000e+00
      outer loop
         vertex 2.133975e+00 3.500000e+00 4.000000e+00
         vertex 2.133975e+00 3.500000e+00 0.000000e+00
         vertex 2.233956e+00 3.642788e+00 4.000000e+00
      endloop
   endfacet
   facet normal 8.191513e-01 -5.735774e-01 0.000000e+00
      outer loop
         vertex 2.233956e+00 3.642788e+00 4.000000e+00
         vertex 2.133975e+00 3.500000e+00 0.000000e+00
         vertex 2.233956e+00 3.642788e+00 0.000000e+00
      endloop
   endfacet
   facet normal 7.071068e-01 -7.071068e-01 0.000000e+00
      outer loop
         vertex 2.233956e+00 3.642788e+00 4.000000e+00
         vertex 2.233956e+00 3.642788e+00 0.000000e+00
         vertex 2.357213e+00 3.766045e+00 4.000000e+00
      endloop
   endfacet
   facet normal 7.071068e-01 -7.071068e-01 0.000000e+00
      outer loop
         vertex 2.357213e+00 3.766045e+00 4.000000e+00
         vertex 2.233956e+00 3.642788e+00 0.000000e+00
         vertex 2.357213e+00 3.766045e+00 0.000000e+00
      endloop
   endfacet
   facet normal 5.735765e-01 -8.191520e-01 0.000000e+00
      outer loop
         vertex 2.357213e+00 3.766045e+00 4.000000e+00
         vertex 2.357213e+00 3.766045e+00 0.000000e+00
         vertex 2.500000e+00 3.866025e+00 4.000000e+00
      endloop
   endfacet
   facet normal 5.735765e-01 -8.191520e-01 0.000000e+00
      outer loop
         vertex 2.500000e+00 3.866025e+00 4.000000e+00
         vertex 2.357213e+00 3.766045e+00 0.000000e+00
         vertex 2.500000e+00 3.866025e+00 0.000000e+00
      endloop
   endfacet
   facet normal 4.226160e-01 -9.063088e-01 0.000000e+00
      outer loop
         vertex 2.500000e+00 3.866025e+00 4.000000e+00
         vertex 2.500000e+00 3.866025e+00 0.000000e+00
         vertex 2.657981e+00 3.939692e+00 4.000000e+00
      endloop
   endfacet
   facet normal 4.226160e-01 -9.063088e-01 0.000000e+00
      outer loop
         vertex 2.657981e+00 3.939692e+00 4.000000e+00
         vertex 2.500000e+00 3.866025e+00 0.000000e+00
         vertex 2.657981e+00 3.939692e+00 0.000000e+00
      endloop
   endfacet
   facet normal 2.588191e-01 -9.659258e-01 0.000000e+00
      outer loop
         vertex 2.657981e+00 3.939692e+00 4.000000e+00
         vertex 2.657981e+00 3.939692e+00 0.000000e+00
         vertex 2.826353e+00 3.984808e+00 4.000000e+00
      endloop
   endfacet
   facet normal 2.588191e-01 -9.659258e-01 0.000000e+00
      outer loop
         vertex 2.826353e+00 3.984808e+00 4.000000e+00
         vertex 2.657981e+00 3.939692e+00 0.000000e+00
         vertex 2.826353e+00 3.984808e+00 0.000000e+00
      endloop
   endfacet
   facet normal 8.715827e-02 -9.961945e-01 0.000000e+00
      outer loop
         vertex 2.826353e+00 3.984808e+00 4.000000e+00
         vertex 2.826353e+00 3.984808e+00 0.000000e+00
         vertex 3.000000e+00 4.000000e+00 4.000000e+00
      endloop
   endfacet
   facet normal 8.715827e-02 -9.961945e-01 0.000000e+00
      outer loop
         vertex 3.000000e+00 4.000000e+00 4.000000e+00
         vertex 2.826353e+00 3.984808e+00 0.000000e+00
         vertex 3.000000e+00 4.000000e+00 0.000000e+00
      endloop
   endfacet
   facet normal -8.715827e-02 -9.961945e-01 -0.000000e+00
      outer loop
         vertex 3.000000e+00 4.000000e+00 4.000000e+00
         vertex 3.000000e+00 4.000000e+00 0.000000e+00
         vertex 3.173648e+00 3.984808e+00 4.000000e+00
      endloop
   endfacet
   facet normal -8.715827e-02 -9.961945e-01 -0.000000e+00
      outer loop
         vertex 3.173648e+00 3.984808e+00 4.000000e+00
         vertex 3.000000e+00 4.000000e+00 0.000000e+00
         vertex 3.173648e+00 3.984808e+00 0.000000e+00
      endloop
   endfacet
   facet normal -2.588191e-01 -9.659258e-01 -0.000000e+00
      outer loop
         vertex 3.173648e+00 3.984808e+00 4.000000e+00
         vertex 3.173648e+00 3.984808e+00 0.000000e+00
         vertex 3.342020e+00 3.939692e+00 4.000000e+00
      endloop
   endfacet
   facet normal -2.588191e-01 -9.659258e-01 -0.000000e+00
      outer loop
         vertex 3.342020e+00 3.939692e+00 4.000000e+00
         vertex 3.173648e+00 3.984808e+00 0.000000e+00
         vertex 3.342020e+00 3.939692e+00 0.000000e+00
      endloop
   endfacet
   facet normal -4.226160e-01 -9.063088e-01 -0.000000e+00
      outer loop
         vertex 3.342020e+00 3.939692e+00 4.000000e+00
         vertex 3.342020e+00 3.939692e+00 0.000000e+00
         vertex 3.500001e+00 3.866025e+00 4.000000e+00
      endloop
   endfacet
   facet normal -4.226160e-01 -9.063088e-01 -0.000000e+00
      outer loop
         vertex 3.500001e+00 3.866025e+00 4.000000e+00
         vertex 3.342020e+00 3.939692e+00 0.000000e+00
         vertex 3.500001e+00 3.866025e+00 0.000000e+00
      endloop
   endfacet
   facet normal -5.735765e-01 -8.191520e-01 -0.000000e+00
      outer loop
         vertex 3.500001e+00 3.866025e+00 4.000000e+00
         vertex 3.500001e+00 3.866025e+00 0.000000e+00
         vertex 3.642788e+00 3.766045e+00 4.000000e+00
      endloop
   endfacet
   facet normal -5.735765e-01 -8.191520e-01 -0.000000e+00
      outer loop
         vertex 3.642788e+00 3.766045e+00 4.000000e+00
         vertex 3.500001e+00 3.866025e+00 0.000000e+00
         vertex 3.642788e+00 3.766045e+00 0.000000e+00
      endloop
   endfacet
   facet normal -7.071068e-01 -7.071068e-01 -0.000000e+00
      outer loop
         vertex 3.642788e+00 3.766045e+00 4.000000e+00
         vertex 3.642788e+00 3.766045e+00 0.000000e+00
         vertex 3.766045e+00 3.642788e+00 4.000000e+00
      endloop
   endfacet
   facet normal -7.071068e-01 -7.071068e-01 -0.000000e+00
      outer loop
         vertex 3.766045e+00 3.642788e+00 4.000000e+00
         vertex 3.642788e+00 3.766045e+00 0.000000e+00
         vertex 3.766045e+00 3.642788e+00 0.000000e+00
      endloop
   endfacet
   facet normal -8.191513e-01 -5.735774e-01 -0.000000e+00
      outer loop
         vertex 3.766045e+00 3.642788e+00 4.000000e+00
         vertex 3.766045e+00 3.642788e+00 0.000000e+00
         vertex 3.866026e+00 3.500000e+00 4.000000e+00
      endloop
   endfacet
   facet normal -8.191513e-01 -5.735774e-01 -0.000000e+00
      outer loop
         vertex 3.866026e+00 3.500000e+00 4.000000e+00
         vertex 3.766045e+00 3.642788e+00 0.000000e+00
         vertex 3.866026e+00 3.500000e+00 0.000000e+00
      endloop
   endfacet
   facet normal -9.063091e-01 -4.226154e-01 -0.000000e+00
      outer loop
         vertex 3.866026e+00 3.500000e+00 4.000000e+00
         vertex 3.866026e+00 3.500000e+00 0.000000e+00
         vertex 3.939693e+00 3.342020e+00 4.000000e+00
      endloop
   endfacet
   facet normal -9.063091e-01 -4.226154e-01 -0.000000e+00
      outer loop
         vertex 3.939693e+00 3.342020e+00 4.000000e+00
         vertex 3.866026e+00 3.500000e+00 0.000000e+00
         vertex 3.939693e+00 3.342020e+00 0.000000e+00
      endloop
   endfacet
   facet normal -9.659258e-01 -2.588191e-01 -0.000000e+00
      outer loop
         vertex 3.939693e+00 3.342020e+00 4.000000e+00
         vertex 3.939693e+00 3.342020e+00 0.000000e+00
         vertex 3.984808e+00 3.173648e+00 4.000000e+00
      endloop
   endfacet
   facet normal -9.659258e-01 -2.588191e-01 -0.000000e+00
      outer loop
         vertex 3.984808e+00 3.173648e+00 4.000000e+00
         vertex 3.939693e+00 3.342020e+00 0.000000e+00
         vertex 3.984808e+00 3.173648e+00 0.000000e+00
      endloop
   endfacet
   facet normal -9.961945e-01 -8.715815e-02 -0.000000e+00
      outer loop
         vertex 3.984808e+00 3.173648e+00 4.000000e+00
         vertex 3.984808e+00 3.173648e+00 0.000000e+00
         vertex 4.000001e+00 3.000000e+00 4.000000e+00
      endloop
   endfacet
   facet normal -9.961945e-01 -8.715815e-02 -0.000000e+00
      outer loop
         vertex 4.000001e+00 3.000000e+00 4.000000e+00
         vertex 3.984808e+00 3.173648e+00 0.000000e+00
         vertex 4.000001e+00 3.000000e+00 0.000000e+00
      endloop
   endfacet
   facet normal -9.961945e-01 8.715815e-02 0.000000e+00
      outer loop
         vertex 4.000001e+00 3.000000e+00 4.000000e+00
         vertex 4.000001e+00 3.000000e+00 0.000000e+00
         vertex 3.984808e+00 2.826352e+00 4.000000e+00
      endloop
   endfacet
   facet normal -9.961945e-01 8.715815e-02 0.000000e+00
      outer loop
         vertex 3.984808e+00 2.826352e+00 4.000000e+00
         vertex 4.000001e+00 3.000000e+00 0.000000e+00
         vertex 3.984808e+00 2.826352e+00 0.000000e+00
      endloop
   endfacet
   facet normal -9.659258e-01 2.588191e-01 0.000000e+00
      outer loop
         vertex 3.984808e+00 2.826352e+00 4.000000e+00
         vertex 3.984808e+00 2.826352e+00 0.000000e+00
         vertex 3.939693e+00 2.657980e+00 4.000000e+00
      endloop
   endfacet
   facet normal -9.659258e-01 2.588191e-01 0.000000e+00
      outer loop
         vertex 3.939693e+00 2.657980e+00 4.000000e+00
         vertex 3.984808e+00 2.826352e+00 0.000000e+00
         vertex 3.939693e+00 2.657980e+00 0.000000e+00
      endloop
   endfacet
   facet normal -9.063091e-01 4.226154e-01 0.000000e+00
      outer loop
         vertex 3.939693e+00 2.657980e+00 4.000000e+00
         vertex 3.939693e+00 2.657980e+00 0.000000e+00
         vertex 3.866026e+00 2.500000e+00 4.000000e+00
      endloop
   endfacet
   facet normal -9.063091e-01 4.226154e-01 0.000000e+00
      outer loop
         vertex 3.866026e+00 2.500000e+00 4.000000e+00
         vertex 3.939693e+00 2.657980e+00 0.000000e+00
         vertex 3.866026e+00 2.500000e+00 0.000000e+00
      endloop
   endfacet
   facet normal -8.191513e-01 5.735774e-01 0.000000e+00
      outer loop
         vertex 3.866026e+00 2.500000e+00 4.000000e+00
         vertex 3.866026e+00 2.500000e+00 0.000000e+00
         vertex 3.766045e+00 2.357212e+00 4.000000e+00
      endloop
   endfacet
   facet normal -8.191513e-01 5.735774e-01 0.000000e+00
      outer loop
         vertex 3.766045e+00 2.357212e+00 4.000000e+00
         vertex 3.866026e+00 2.500000e+00 0.000000e+00
         vertex 3.766045e+00 2.357212e+00 0.000000e+00
      endloop
   endfacet
   facet normal -7.071068e-01 7.071068e-01 0.000000e+00
      outer loop
         vertex 3.766045e+00 2.357212e+00 4.000000e+00
         vertex 3.766045e+00 2.357212e+00 0.000000e+00
         vertex 3.642788e+00 2.233956e+00 4.000000e+00
      endloop
   endfacet
   facet normal -7.071068e-01 7.071068e-01 0.000000e+00
      outer loop
         vertex 3.642788e+00 2.233956e+00 4.000000e+00
         vertex 3.766045e+00 2.357212e+00 0.000000e+00
         vertex 3.642788e+00 2.233956e+00 0.000000e+00
      endloop
   endfacet
   facet normal -5.735765e-01 8.191520e-01 0.000000e+00
      outer loop
         vertex 3.642788e+00 2.233956e+00 4.000000e+00
         vertex 3.642788e+00 2.233956e+00 0.000000e+00
         vertex 3.500001e+00 2.133975e+00 4.000000e+00
      endloop
   endfacet
   facet normal -5.735765e-01 8.191520e-01 0.000000e+00
      outer loop
         vertex 3.500001e+00 2.133975e+00 4.000000e+00
         vertex 3.642788e+00 2.233956e+00 0.000000e+00
         vertex 3.500001e+00 2.133975e+00 0.000000e+00
      endloop
   endfacet
   facet normal -4.226171e-01 9.063083e-01 0.000000e+00
      outer loop
         vertex 3.500001e+00 2.133975e+00 4.000000e+00
         vertex 3.500001e+00 2.133975e+00 0.000000e+00
         vertex 3.342020e+00 2.060307e+00 4.000000e+00
      endloop
   endfacet
   facet normal -4.226171e-01 9.063083e-01 0.000000e+00
      outer loop
         vertex 3.342020e+00 2.060307e+00 4.000000e+00
         vertex 3.500001e+00 2.133975e+00 0.000000e+00
         vertex 3.342020e+00 2.060307e+00 0.000000e+00
      endloop
   endfacet
   facet normal -2.588191e-01 9.659258e-01 0.000000e+00
      outer loop
         vertex 3.342020e+00 2.060307e+00 4.000000e+00
         vertex 3.342020e+00 2.060307e+00 0.000000e+00
         vertex 3.173648e+00 2.015192e+00 4.000000e+00
      endloop
   endfacet
   facet normal -2.588191e-01 9.659258e-01 0.000000e+00
      outer loop
         vertex 3.173648e+00 2.015192e+00 4.000000e+00
         vertex 3.342020e+00 2.060307e+00 0.000000e+00
         vertex 3.173648e+00 2.015192e+00 0.000000e+00
      endloop
   endfacet
   facet normal -8.715562e-02 9.961947e-01 0.000000e+00
      outer loop
         vertex 3.173648e+00 2.015192e+00 4.000000e+00
         vertex 3.173648e+00 2.015192e+00 0.000000e+00
         vertex 3.000000e+00 2.000000e+00 4.000000e+00
      endloop
   endfacet
   facet normal -8.715562e-02 9.961947e-01 0.000000e+00
      outer loop
         vertex 3.000000e+00 2.000000e+00 4.000000e+00
         vertex 3.173648e+00 2.015192e+00 0.000000e+00
         vertex 3.000000e+00 2.000000e+00 0.000000e+00
      endloop
   endfacet
   facet normal 8.715562e-02 9.961947e-01 0.000000e+00
      outer loop
         vertex 3.000000e+00 2.000000e+00 4.000000e+00
         vertex 3.000000e+00 2.000000e+00 0.000000e+00
         vertex 2.826353e+00 2.015192e+00 4.000000e+00
      endloop
   endfacet
   facet normal 8.715562e-02 9.961947e-01 0.000000e+00
      outer loop
         vertex 2.826353e+00 2.015192e+00 4.000000e+00
         vertex 3.000000e+00 2.000000e+00 0.000000e+00
         vertex 2.826353e+00 2.015192e+00 0.000000e+00
      endloop
   endfacet
   facet normal 2.588191e-01 9.659258e-01 0.000000e+00
      outer loop
         vertex 2.826353e+00 2.015192e+00 4.000000e+00
         vertex 2.826353e+00 2.015192e+00 0.000000e+00
         vertex 2.657981e+00 2.060307e+00 4.000000e+00
      endloop
   endfacet
   facet normal 2.588191e-01 9.659258e-01 0.000000e+00
      outer loop
         vertex 2.657981e+00 2.060307e+00 4.000000e+00
         vertex 2.826353e+00 2.015192e+00 0.000000e+00
         vertex 2.657981e+00 2.060307e+00 0.000000e+00
      endloop
   endfacet
   facet normal 4.226171e-01 9.063083e-01 0.000000e+00
      outer loop
         vertex 2.657981e+00 2.060307e+00 4.000000e+00
         vertex 2.657981e+00 2.060307e+00 0.000000e+00
         vertex 2.500000e+00 2.133975e+00 4.000000e+00
      endloop
   endfacet
   facet normal 4.226171e-01 9.063083e-01 0.000000e+00
      outer loop
         vertex 2.500000e+00 2.133975e+00 4.000000e+00
         vertex 2.657981e+00 2.060307e+00 0.000000e+00
         vertex 2.500000e+00 2.133975e+00 0.000000e+00
      endloop
   endfacet
   facet normal 5.735765e-01 8.191520e-01 0.000000e+00
      outer loop
         vertex 2.500000e+00 2.133975e+00 4.000000e+00
         vertex 2.500000e+00 2.133975e+00 0.000000e+00
         vertex 2.357213e+00 2.233956e+00 4.000000e+00
      endloop
   endfacet
   facet normal 5.735765e-01 8.191520e-01 0.000000e+00
      outer loop
         vertex 2.357213e+00 2.233956e+00 4.000000e+00
         vertex 2.500000e+00 2.133975e+00 0.000000e+00
         vertex 2.357213e+00 2.233956e+00 0.000000e+00
      endloop
   endfacet
   facet normal 7.071068e-01 7.071068e-01 0.000000e+00
      outer loop
         vertex 2.357213e+00 2.233956e+00 4.000000e+00
         vertex 2.357213e+00 2.233956e+00 0.000000e+00
         vertex 2.233956e+00 2.357212e+00 4.000000e+00
      endloop
   endfacet
   facet normal 7.071068e-01 7.071068e-01 0.000000e+00
      outer loop
         vertex 2.233956e+00 2.357212e+00 4.000000e+00
         vertex 2.357213e+00 2.233956e+00 0.000000e+00
         vertex 2.233956e+00 2.357212e+00 0.000000e+00
      endloop
   endfacet
   facet normal 8.191513e-01 5.735774e-01 0.000000e+00
      outer loop
         vertex 2.233956e+00 2.357212e+00 4.000000e+00
         vertex 2.233956e+00 2.357212e+00 0.000000e+00
         vertex 2.133975e+00 2.500000e+00 4.000000e+00
      endloop
   endfacet
   facet normal 8.191513e-01 5.735774e-01 0.000000e+00
      outer loop
         vertex 2.133975e+00 2.500000e+00 4.000000e+00
         vertex 2.233956e+00 2.357212e+00 0.000000e+00
         vertex 2.133975e+00 2.500000e+00 0.000000e+00
      endloop
   endfacet
   facet normal 9.063071e-01 4.226198e-01 0.000000e+00
      outer loop
         vertex 2.133975e+00 2.500000e+00 4.000000e+00
         vertex 2.133975e+00 2.500000e+00 0.000000e+00
         vertex 2.060307e+00 2.657980e+00 4.000000e+00
      endloop
   endfacet
   facet normal 9.063071e-01 4.226198e-01 0.000000e+00
      outer loop
         vertex 2.060307e+00 2.657980e+00 4.000000e+00
         vertex 2.133975e+00 2.500000e+00 0.000000e+00
         vertex 2.060307e+00 2.657980e+00 0.000000e+00
      endloop
   endfacet
   facet normal 9.659258e-01 2.588191e-01 0.000000e+00
      outer loop
         vertex 2.060307e+00 2.657980e+00 4.000000e+00
         vertex 2.060307e+00 2.657980e+00 0.000000e+00
         vertex 2.015192e+00 2.826352e+00 4.000000e+00
      endloop
   endfacet
   facet normal 9.659258e-01 2.588191e-01 0.000000e+00
      outer loop
         vertex 2.015192e+00 2.826352e+00 4.000000e+00
         vertex 2.060307e+00 2.657980e+00 0.000000e+00
         vertex 2.015192e+00 2.826352e+00 0.000000e+00
      endloop
   endfacet
   facet normal 9.961950e-01 8.715285e-02 0.000000e+00
      outer loop
         vertex 2.015192e+00 2.826352e+00 4.000000e+00
         vertex 2.015192e+00 2.826352e+00 0.000000e+00
         vertex 2.000000e+00 3.000000e+00 4.000000e+00
      endloop
   endfacet
   facet normal 9.961950e-01 8.715285e-02 0.000000e+00
      outer loop
         vertex 2.000000e+00 3.000000e+00 4.000000e+00
         vertex 2.015192e+00 2.826352e+00 0.000000e+00
         vertex 2.000000e+00 3.000000e+00 0.000000e+00
      endloop
   endfacet
   facet normal 0.000000e+00 -0.000000e+00 -1.000000e+00
      outer loop
         vertex 3.939693e+00 3.342020e+00 4.000000e+00
         vertex 3.984808e+00 3.173648e+00 4.000000e+00
         vertex 3.000000e+00 3.000000e+00 4.000000e+00
      endloop
   endfacet
   facet normal 0.000000e+00 0.000000e+00 -1.000000e+00
      outer loop
         vertex 3.000000e+00 3.000000e+00 4.000000e+00
         vertex 3.984808e+00 3.173648e+00 4.000000e+00
         vertex 4.000001e+00 3.000000e+00 4.000000e+00
      endloop
   endfacet
   facet normal 0.000000e+00 0.000000e+00 -1.000000e+00
      outer loop
         vertex 3.000000e+00 3.000000e+00 4.000000e+00
         vertex 4.000001e+00 3.000000e+00 4.000000e+00
         vertex 3.984808e+00 2.826352e+00 4.000000e+00
      endloop
   endfacet
   facet normal 0.000000e+00 -0.000000e+00 -1.000000e+00
      outer loop
         vertex 3.642788e+00 3.766045e+00 4.000000e+00
         vertex 3.766045e+00 3.642788e+00 4.000000e+00
         vertex 3.000000e+00 3.000000e+00 4.000000e+00
      endloop
   endfacet
   facet normal 0.000000e+00 0.000000e+00 -1.000000e+00
      outer loop
         vertex 3.000000e+00 3.000000e+00 4.000000e+00
         vertex 3.766045e+00 3.642788e+00 4.000000e+00
         vertex 3.866026e+00 3.500000e+00 4.000000e+00
      endloop
   endfacet
   facet normal 0.000000e+00 0.000000e+00 -1.000000e+00
      outer loop
         vertex 3.000000e+00 3.000000e+00 4.000000e+00
         vertex 3.866026e+00 3.500000e+00 4.000000e+00
         vertex 3.939693e+00 3.342020e+00 4.000000e+00
      endloop
   endfacet
   facet normal 0.000000e+00 -0.000000e+00 -1.000000e+00
      outer loop
         vertex 3.173648e+00 3.984808e+00 4.000000e+00
         vertex 3.342020e+00 3.939692e+00 4.000000e+00
         vertex 3.000000e+00 3.000000e+00 4.000000e+00
      endloop
   endfacet
   facet normal 0.000000e+00 0.000000e+00 -1.000000e+00
      outer loop
         vertex 3.000000e+00 3.000000e+00 4.000000e+00
         vertex 3.342020e+00 3.939692e+00 4.000000e+00
         vertex 3.500001e+00 3.866025e+00 4.000000e+00
      endloop
   endfacet
   facet normal 0.000000e+00 0.000000e+00 -1.000000e+00
      outer loop
         vertex 3.000000e+00 3.000000e+00 4.000000e+00
         vertex 3.500001e+00 3.866025e+00 4.000000e+00
         vertex 3.642788e+00 3.766045e+00 4.000000e+00
      endloop
   endfacet
   facet normal 0.000000e+00 0.000000e+00 -1.000000e+00
      outer loop
         vertex 2.657981e+00 3.939692e+00 4.000000e+00
         vertex 2.826353e+00 3.984808e+00 4.000000e+00
         vertex 3.000000e+00 3.000000e+00 4.000000e+00
      endloop
   endfacet
   facet normal 0.000000e+00 0.000000e+00 -1.000000e+00
      outer loop
         vertex 3.000000e+00 3.000000e+00 4.000000e+00
         vertex 2.826353e+00 3.984808e+00 4.000000e+00
         vertex 3.000000e+00 4.000000e+00 4.000000e+00
      endloop
   endfacet
   facet normal 0.000000e+00 0.000000e+00 -1.000000e+00
      outer loop
         vertex 3.000000e+00 3.000000e+00 4.000000e+00
         vertex 3.000000e+00 4.000000e+00 4.000000e+00
         vertex 3.173648e+00 3.984808e+00 4.000000e+00
      endloop
   endfacet
   facet normal 0.000000e+00 0.000000e+00 -1.000000e+00
      outer loop
         vertex 2.233956e+00 3.642788e+00 4.000000e+00
         vertex 2.357213e+00 3.766045e+00 4.000000e+00
         vertex 3.000000e+00 3.000000e+00 4.000000e+00
      endloop
   endfacet
   facet normal 0.000000e+00 0.000000e+00 -1.000000e+00
      outer loop
         vertex 3.000000e+00 3.000000e+00 4.000000e+00
         vertex 2.357213e+00 3.766045e+00 4.000000e+00
         vertex 2.500000e+00 3.866025e+00 4.000000e+00
      endloop
   endfacet
   facet normal 0.000000e+00 0.000000e+00 -1.000000e+00
      outer loop
         vertex 3.000000e+00 3.000000e+00 4.000000e+00
         vertex 2.500000e+00 3.866025e+00 4.000000e+00
         vertex 2.657981e+00 3.939692e+00 4.000000e+00
      endloop
   endfacet
   facet normal 0.000000e+00 0.000000e+00 -1.000000e+00
      outer loop
         vertex 2.015192e+00 3.173648e+00 4.000000e+00
         vertex 2.060307e+00 3.342020e+00 4.000000e+00
         vertex 3.000000e+00 3.000000e+00 4.000000e+00
      endloop
   endfacet
   facet normal 0.000000e+00 0.000000e+00 -1.000000e+00
      outer loop
         vertex 3.000000e+00 3.000000e+00 4.000000e+00
         vertex 2.060307e+00 3.342020e+00 4.000000e+00
         vertex 2.133975e+00 3.500000e+00 4.000000e+00
      endloop
   endfacet
   facet normal 0.000000e+00 0.000000e+00 -1.000000e+00
      outer loop
         vertex 3.000000e+00 3.000000e+00 4.000000e+00
         vertex 2.133975e+00 3.500000e+00 4.000000e+00
         vertex 2.233956e+00 3.642788e+00 4.000000e+00
      endloop
   endfacet
   facet normal 0.000000e+00 0.000000e+00 -1.000000e+00
      outer loop
         vertex 2.060307e+00 2.657980e+00 4.000000e+00
         vertex 2.015192e+00 2.826352e+00 4.000000e+00
         vertex 3.000000e+00 3.000000e+00 4.000000e+00
      endloop
   endfacet
   facet normal -0.000000e+00 0.000000e+00 -1.000000e+00
      outer loop
         vertex 3.000000e+00 3.000000e+00 4.000000e+00
         vertex 2.015192e+00 2.826352e+00 4.000000e+00
         vertex 2.000000e+00 3.000000e+00 4.000000e+00
      endloop
   endfacet
   facet normal 0.000000e+00 0.000000e+00 -1.000000e+00
      outer loop
         vertex 3.000000e+00 3.000000e+00 4.000000e+00
         vertex 2.000000e+00 3.000000e+00 4.000000e+00
         vertex 2.015192e+00 3.173648e+00 4.000000e+00
      endloop
   endfacet
   facet normal 0.000000e+00 0.000000e+00 -1.000000e+00
      outer loop
         vertex 2.357213e+00 2.233956e+00 4.000000e+00
         vertex 2.233956e+00 2.357212e+00 4.000000e+00
         vertex 3.000000e+00 3.000000e+00 4.000000e+00
      endloop
   endfacet
   facet normal 0.000000e+00 0.000000e+00 -1.000000e+00
      outer loop
         vertex 3.000000e+00 3.000000e+00 4.000000e+00
         vertex 2.233956e+00 2.357212e+00 4.000000e+00
         vertex 2.133975e+00 2.500000e+00 4.000000e+00
      endloop
   endfacet
   facet normal 0.000000e+00 0.000000e+00 -1.000000e+00
      outer loop
         vertex 3.000000e+00 3.000000e+00 4.000000e+00
         vertex 2.133975e+00 2.500000e+00 4.000000e+00
         vertex 2.060307e+00 2.657980e+00 4.000000e+00
      endloop
   endfacet
   facet normal 0.000000e+00 0.000000e+00 -1.000000e+00
      outer loop
         vertex 2.826353e+00 2.015192e+00 4.000000e+00
         vertex 2.657981e+00 2.060307e+00 4.000000e+00
         vertex 3.000000e+00 3.000000e+00 4.000000e+00
      endloop
   endfacet
   facet normal 0.000000e+00 0.000000e+00 -1.000000e+00
      outer loop
         vertex 3.000000e+00 3.000000e+00 4.000000e+00
         vertex 2.657981e+00 2.060307e+00 4.000000e+00
         vertex 2.500000e+00 2.133975e+00 4.000000e+00
      endloop
   endfacet
   facet normal 0.000000e+00 0.000000e+00 -1.000000e+00
      outer loop
         vertex 3.000000e+00 3.000000e+00 4.000000e+00
         vertex 2.500000e+00 2.133975e+00 4.000000e+00
         vertex 2.357213e+00 2.233956e+00 4.000000e+00
      endloop
   endfacet
   facet normal -0.000000e+00 0.000000e+00 -1.000000e+00
      outer loop
         vertex 3.342020e+00 2.060307e+00 4.000000e+00
         vertex 3.173648e+00 2.015192e+00 4.000000e+00
         vertex 3.000000e+00 3.000000e+00 4.000000e+00
      endloop
   endfacet
   facet normal 0.000000e+00 0.000000e+00 -1.000000e+00
      outer loop
         vertex 3.000000e+00 3.000000e+00 4.000000e+00
         vertex 3.173648e+00 2.015192e+00 4.000000e+00
         vertex 3.000000e+00 2.000000e+00 4.000000e+00
      endloop
   endfacet
   facet normal 0.000000e+00 -0.000000e+00 -1.000000e+00
      outer loop
         vertex 3.000000e+00 3.000000e+00 4.000000e+00
         vertex 3.000000e+00 2.000000e+00 4.000000e+00
         vertex 2.826353e+00 2.015192e+00 4.000000e+00
      endloop
   endfacet
   facet normal -0.000000e+00 0.000000e+00 -1.000000e+00
      outer loop
         vertex 3.766045e+00 2.357212e+00 4.000000e+00
         vertex 3.642788e+00 2.233956e+00 4.000000e+00
         vertex 3.000000e+00 3.000000e+00 4.000000e+00
      endloop
   endfacet
   facet normal 0.000000e+00 0.000000e+00 -1.000000e+00
      outer loop
         vertex 3.000000e+00 3.000000e+00 4.000000e+00
         vertex 3.642788e+00 2.233956e+00 4.000000e+00
         vertex 3.500001e+00 2.133975e+00 4.000000e+00
      endloop
   endfacet
   facet normal 0.000000e+00 0.000000e+00 -1.000000e+00
      outer loop
         vertex 3.000000e+00 3.000000e+00 4.000000e+00
         vertex 3.500001e+00 2.133975e+00 4.000000e+00
         vertex 3.342020e+00 2.060307e+00 4.000000e+00
      endloop
   endfacet
   facet normal -0.000000e+00 0.000000e+00 -1.000000e+00
      outer loop
         vertex 3.984808e+00 2.826352e+00 4.000000e+00
         vertex 3.939693e+00 2.657980e+00 4.000000e+00
         vertex 3.000000e+00 3.000000e+00 4.000000e+00
      endloop
   endfacet
   facet normal 0.000000e+00 0.000000e+00 -1.000000e+00
      outer loop
         vertex 3.000000e+00 3.000000e+00 4.000000e+00
         vertex 3.939693e+00 2.657980e+00 4.000000e+00
         vertex 3.866026e+00 2.500000e+00 4.000000e+00
      endloop
   endfacet
   facet normal 0.000000e+00 0.000000e+00 -1.000000e+00
      outer loop
         vertex 3.000000e+00 3.000000e+00 4.000000e+00
         vertex 3.866026e+00 2.500000e+00 4.000000e+00
         vertex 3.766045e+00 2.357212e+00 4.000000e+00
      endloop
   endfacet
   facet normal 9.961945e-01 -8.715815e-02 0.000000e+00
      outer loop
         vertex 3.150000e+01 3.000000e+00 4.000000e+00
         vertex 3.150000e+01 3.000000e+00 0.000000e+00
         vertex 3.151519e+01 3.173648e+00 4.000000e+00
      endloop
   endfacet
   facet normal 9.961945e-01 -8.715815e-02 0.000000e+00
      outer loop
         vertex 3.151519e+01 3.173648e+00 4.000000e+00
         vertex 3.150000e+01 3.000000e+00 0.000000e+00
         vertex 3.151519e+01 3.173648e+00 0.000000e+00
      endloop
   endfacet
   facet normal 9.659258e-01 -2.588191e-01 0.000000e+00
      outer loop
         vertex 3.151519e+01 3.173648e+00 4.000000e+00
         vertex 3.151519e+01 3.173648e+00 0.000000e+00
         vertex 3.156031e+01 3.342020e+00 4.000000e+00
      endloop
   endfacet
   facet normal 9.659258e-01 -2.588191e-01 0.000000e+00
      outer loop
         vertex 3.156031e+01 3.342020e+00 4.000000e+00
         vertex 3.151519e+01 3.173648e+00 0.000000e+00
         vertex 3.156031e+01 3.342020e+00 0.000000e+00
      endloop
   endfacet
   facet normal 9.063091e-01 -4.226154e-01 0.000000e+00
      outer loop
         vertex 3.156031e+01 3.342020e+00 4.000000e+00
         vertex 3.156031e+01 3.342020e+00 0.000000e+00
         vertex 3.163397e+01 3.500000e+00 4.000000e+00
      endloop
   endfacet
   facet normal 9.063091e-01 -4.226154e-01 0.000000e+00
      outer loop
         vertex 3.163397e+01 3.500000e+00 4.000000e+00
         vertex 3.156031e+01 3.342020e+00 0.000000e+00
         vertex 3.163397e+01 3.500000e+00 0.000000e+00
      endloop
   endfacet
   facet normal 8.191513e-01 -5.735774e-01 0.000000e+00
      outer loop
         vertex 3.163397e+01 3.500000e+00 4.000000e+00
         vertex 3.163397e+01 3.500000e+00 0.000000e+00
         vertex 3.173396e+01 3.642788e+00 4.000000e+00
      endloop
   endfacet
   facet normal 8.191513e-01 -5.735774e-01 0.000000e+00
      outer loop
         vertex 3.173396e+01 3.642788e+00 4.000000e+00
         vertex 3.163397e+01 3.500000e+00 0.000000e+00
         vertex 3.173396e+01 3.642788e+00 0.000000e+00
      endloop
   endfacet
   facet normal 7.071068e-01 -7.071068e-01 0.000000e+00
      outer loop
         vertex 3.173396e+01 3.642788e+00 4.000000e+00
         vertex 3.173396e+01 3.642788e+00 0.000000e+00
         vertex 3.185721e+01 3.766045e+00 4.000000e+00
      endloop
   endfacet
   facet normal 7.071068e-01 -7.071068e-01 0.000000e+00
      outer loop
         vertex 3.185721e+01 3.766045e+00 4.000000e+00
         vertex 3.173396e+01 3.642788e+00 0.000000e+00
         vertex 3.185721e+01 3.766045e+00 0.000000e+00
      endloop
   endfacet
   facet normal 5.735765e-01 -8.191520e-01 0.000000e+00
      outer loop
         vertex 3.185721e+01 3.766045e+00 4.000000e+00
         vertex 3.185721e+01 3.766045e+00 0.000000e+00
         vertex 3.200000e+01 3.866025e+00 4.000000e+00
      endloop
   endfacet
   facet normal 5.735765e-01 -8.191520e-01 0.000000e+00
      outer loop
         vertex 3.200000e+01 3.866025e+00 4.000000e+00
         vertex 3.185721e+01 3.766045e+00 0.000000e+00
         vertex 3.200000e+01 3.866025e+00 0.000000e+00
      endloop
   endfacet
   facet normal 4.226160e-01 -9.063088e-01 0.000000e+00
      outer loop
         vertex 3.200000e+01 3.866025e+00 4.000000e+00
         vertex 3.200000e+01 3.866025e+00 0.000000e+00
         vertex 3.215798e+01 3.939692e+00 4.000000e+00
      endloop
   endfacet
   facet normal 4.226160e-01 -9.063088e-01 0.000000e+00
      outer loop
         vertex 3.215798e+01 3.939692e+00 4.000000e+00
         vertex 3.200000e+01 3.866025e+00 0.000000e+00
         vertex 3.215798e+01 3.939692e+00 0.000000e+00
      endloop
   endfacet
   facet normal 2.588191e-01 -9.659258e-01 0.000000e+00
      outer loop
         vertex 3.215798e+01 3.939692e+00 4.000000e+00
         vertex 3.215798e+01 3.939692e+00 0.000000e+00
         vertex 3.232635e+01 3.984808e+00 4.000000e+00
      endloop
   endfacet
   facet normal 2.588191e-01 -9.659258e-01 0.000000e+00
      outer loop
         vertex 3.232635e+01 3.984808e+00 4.000000e+00
         vertex 3.215798e+01 3.939692e+00 0.000000e+00
         vertex 3.232635e+01 3.984808e+00 0.000000e+00
      endloop
   endfacet
   facet normal 8.715827e-02 -9.961945e-01 0.000000e+00
      outer loop
         vertex 3.232635e+01 3.984808e+00 4.000000e+00
         vertex 3.232635e+01 3.984808e+00 0.000000e+00
         vertex 3.250000e+01 4.000000e+00 4.000000e+00
      endloop
   endfacet
   facet normal 8.715827e-02 -9.961945e-01 0.000000e+00
      outer loop
         vertex 3.250000e+01 4.000000e+00 4.000000e+00
         vertex 3.232635e+01 3.984808e+00 0.000000e+00
         vertex 3.250000e+01 4.000000e+00 0.000000e+00
      endloop
   endfacet
   facet normal -8.715827e-02 -9.961945e-01 -0.000000e+00
      outer loop
         vertex 3.250000e+01 4.000000e+00 4.000000e+00
         vertex 3.250000e+01 4.000000e+00 0.000000e+00
         vertex 3.267365e+01 3.984808e+00 4.000000e+00
      endloop
   endfacet
   facet normal -8.715827e-02 -9.961945e-01 -0.000000e+00
      outer loop
         vertex 3.267365e+01 3.984808e+00 4.000000e+00
         vertex 3.250000e+01 4.000000e+00 0.000000e+00
         vertex 3.267365e+01 3.984808e+00 0.000000e+00
      endloop
   endfacet
   facet normal -2.588191e-01 -9.659258e-01 -0.000000e+00
      outer loop
         vertex 3.267365e+01 3.984808e+00 4.000000e+00
         vertex 3.267365e+01 3.984808e+00 0.000000e+00
         vertex 3.284202e+01 3.939692e+00 4.000000e+00
      endloop
   endfacet
   facet normal -2.588191e-01 -9.659258e-01 -0.000000e+00
      outer loop
         vertex 3.284202e+01 3.939692e+00 4.000000e+00
         vertex 3.267365e+01 3.984808e+00 0.000000e+00
         vertex 3.284202e+01 3.939692e+00 0.000000e+00
      endloop
   endfacet
   facet normal -4.226160e-01 -9.063088e-01 -0.000000e+00
      outer loop
         vertex 3.284202e+01 3.939692e+00 4.000000e+00
         vertex 3.284202e+01 3.939692e+00 0.000000e+00
         vertex 3.300000e+01 3.866025e+00 4.000000e+00
      endloop
   endfacet
   facet normal -4.226160e-01 -9.063088e-01 -0.000000e+00
      outer loop
         vertex 3.300000e+01 3.866025e+00 4.000000e+00
         vertex 3.284202e+01 3.939692e+00 0.000000e+00
         vertex 3.300000e+01 3.866025e+00 0.000000e+00
      endloop
   endfacet
   facet normal -5.735765e-01 -8.191520e-01 -0.000000e+00
      outer loop
         vertex 3.300000e+01 3.866025e+00 4.000000e+00
         vertex 3.300000e+01 3.866025e+00 0.000000e+00
         vertex 3.314279e+01 3.766045e+00 4.000000e+00
      endloop
   endfacet
   facet normal -5.735765e-01 -8.191520e-01 -0.000000e+00
      outer loop
         vertex 3.314279e+01 3.766045e+00 4.000000e+00
         vertex 3.300000e+01 3.866025e+00 0.000000e+00
         vertex 3.314279e+01 3.766045e+00 0.000000e+00
      endloop
   endfacet
   facet normal -7.071068e-01 -7.071068e-01 -0.000000e+00
      outer loop
         vertex 3.314279e+01 3.766045e+00 4.000000e+00
         vertex 3.314279e+01 3.766045e+00 0.000000e+00
         vertex 3.326605e+01 3.642788e+00 4.000000e+00
      endloop
   endfacet
   facet normal -7.071068e-01 -7.071068e-01 -0.000000e+00
      outer loop
         vertex 3.326605e+01 3.642788e+00 4.000000e+00
         vertex 3.314279e+01 3.766045e+00 0.000000e+00
         vertex 3.326605e+01 3.642788e+00 0.000000e+00
      endloop
   endfacet
   facet normal -8.191513e-01 -5.735774e-01 -0.000000e+00
      outer loop
         vertex 3.326605e+01 3.642788e+00 4.000000e+00
         vertex 3.326605e+01 3.642788e+00 0.000000e+00
         vertex 3.336603e+01 3.500000e+00 4.000000e+00
      endloop
   endfacet
   facet normal -8.191513e-01 -5.735774e-01 -0.000000e+00
      outer loop
         vertex 3.336603e+01 3.500000e+00 4.000000e+00
         vertex 3.326605e+01 3.642788e+00 0.000000e+00
         vertex 3.336603e+01 3.500000e+00 0.000000e+00
      endloop
   endfacet
   facet normal -9.063071e-01 -4.226198e-01 -0.000000e+00
      outer loop
         vertex 3.336603e+01 3.500000e+00 4.000000e+00
         vertex 3.336603e+01 3.500000e+00 0.000000e+00
         vertex 3.343969e+01 3.342020e+00 4.000000e+00
      endloop
   endfacet
   facet normal -9.063071e-01 -4.226198e-01 -0.000000e+00
      outer loop
         vertex 3.343969e+01 3.342020e+00 4.000000e+00
         vertex 3.336603e+01 3.500000e+00 0.000000e+00
         vertex 3.343969e+01 3.342020e+00 0.000000e+00
      endloop
   endfacet
   facet normal -9.659258e-01 -2.588191e-01 -0.000000e+00
      outer loop
         vertex 3.343969e+01 3.342020e+00 4.000000e+00
         vertex 3.343969e+01 3.342020e+00 0.000000e+00
         vertex 3.348481e+01 3.173648e+00 4.000000e+00
      endloop
   endfacet
   facet normal -9.659258e-01 -2.588191e-01 -0.000000e+00
      outer loop
         vertex 3.348481e+01 3.173648e+00 4.000000e+00
         vertex 3.343969e+01 3.342020e+00 0.000000e+00
         vertex 3.348481e+01 3.173648e+00 0.000000e+00
      endloop
   endfacet
   facet normal -9.961950e-01 -8.715285e-02 -0.000000e+00
      outer loop
         vertex 3.348481e+01 3.173648e+00 4.000000e+00
         vertex 3.348481e+01 3.173648e+00 0.000000e+00
         vertex 3.350000e+01 3.000000e+00 4.000000e+00
      endloop
   endfacet
   facet normal -9.961950e-01 -8.715285e-02 -0.000000e+00
      outer loop
         vertex 3.350000e+01 3.000000e+00 4.000000e+00
         vertex 3.348481e+01 3.173648e+00 0.000000e+00
         vertex 3.350000e+01 3.000000e+00 0.000000e+00
      endloop
   endfacet
   facet normal -9.961950e-01 8.715285e-02 0.000000e+00
      outer loop
         vertex 3.350000e+01 3.000000e+00 4.000000e+00
         vertex 3.350000e+01 3.000000e+00 0.000000e+00
         vertex 3.348481e+01 2.826352e+00 4.000000e+00
      endloop
   endfacet
   facet normal -9.961950e-01 8.715285e-02 0.000000e+00
      outer loop
         vertex 3.348481e+01 2.826352e+00 4.000000e+00
         vertex 3.350000e+01 3.000000e+00 0.000000e+00
         vertex 3.348481e+01 2.826352e+00 0.000000e+00
      endloop
   endfacet
   facet normal -9.659258e-01 2.588191e-01 0.000000e+00
      outer loop
         vertex 3.348481e+01 2.826352e+00 4.000000e+00
         vertex 3.348481e+01 2.826352e+00 0.000000e+00
         vertex 3.343969e+01 2.657980e+00 4.000000e+00
      endloop
   endfacet
   facet normal -9.659258e-01 2.588191e-01 0.000000e+00
      outer loop
         vertex 3.343969e+01 2.657980e+00 4.000000e+00
         vertex 3.348481e+01 2.826352e+00 0.000000e+00
         vertex 3.343969e+01 2.657980e+00 0.000000e+00
      endloop
   endfacet
   facet normal -9.063071e-01 4.226198e-01 0.000000e+00
      outer loop
         vertex 3.343969e+01 2.657980e+00 4.000000e+00
         vertex 3.343969e+01 2.657980e+00 0.000000e+00
         vertex 3.336603e+01 2.500000e+00 4.000000e+00
      endloop
   endfacet
   facet normal -9.063071e-01 4.226198e-01 0.000000e+00
      outer loop
         vertex 3.336603e+01 2.500000e+00 4.000000e+00
         vertex 3.343969e+01 2.657980e+00 0.000000e+00
         vertex 3.336603e+01 2.500000e+00 0.000000e+00
      endloop
   endfacet
   facet normal -8.191513e-01 5.735774e-01 0.000000e+00
      outer loop
         vertex 3.336603e+01 2.500000e+00 4.000000e+00
         vertex 3.336603e+01 2.500000e+00 0.000000e+00
         vertex 3.326605e+01 2.357212e+00 4.000000e+00
      endloop
   endfacet
   facet normal -8.191513e-01 5.735774e-01 0.000000e+00
      outer loop
         vertex 3.326605e+01 2.357212e+00 4.000000e+00
         vertex 3.336603e+01 2.500000e+00 0.000000e+00
         vertex 3.326605e+01 2.357212e+00 0.000000e+00
      endloop
   endfacet
   facet normal -7.071068e-01 7.071068e-01 0.000000e+00
      outer loop
         vertex 3.326605e+01 2.357212e+00 4.000000e+00
         vertex 3.326605e+01 2.357212e+00 0.000000e+00
         vertex 3.314279e+01 2.233956e+00 4.000000e+00
      endloop
   endfacet
   facet normal -7.071068e-01 7.071068e-01 0.000000e+00
      outer loop
         vertex 3.314279e+01 2.233956e+00 4.000000e+00
         vertex 3.326605e+01 2.357212e+00 0.000000e+00
         vertex 3.314279e+01 2.233956e+00 0.000000e+00
      endloop
   endfacet
   facet normal -5.735765e-01 8.191520e-01 0.000000e+00
      outer loop
         vertex 3.314279e+01 2.233956e+00 4.000000e+00
         vertex 3.314279e+01 2.233956e+00 0.000000e+00
         vertex 3.300000e+01 2.133975e+00 4.000000e+00
      endloop
   endfacet
   facet normal -5.735765e-01 8.191520e-01 0.000000e+00
      outer loop
         vertex 3.300000e+01 2.133975e+00 4.000000e+00
         vertex 3.314279e+01 2.233956e+00 0.000000e+00
         vertex 3.300000e+01 2.133975e+00 0.000000e+00
      endloop
   endfacet
   facet normal -4.226171e-01 9.063083e-01 0.000000e+00
      outer loop
         vertex 3.300000e+01 2.133975e+00 4.000000e+00
         vertex 3.300000e+01 2.133975e+00 0.000000e+00
         vertex 3.284202e+01 2.060307e+00 4.000000e+00
      endloop
   endfacet
   facet normal -4.226171e-01 9.063083e-01 0.000000e+00
      outer loop
         vertex 3.284202e+01 2.060307e+00 4.000000e+00
         vertex 3.300000e+01 2.133975e+00 0.000000e+00
         vertex 3.284202e+01 2.060307e+00 0.000000e+00
      endloop
   endfacet
   facet normal -2.588191e-01 9.659258e-01 0.000000e+00
      outer loop
         vertex 3.284202e+01 2.060307e+00 4.000000e+00
         vertex 3.284202e+01 2.060307e+00 0.000000e+00
         vertex 3.267365e+01 2.015192e+00 4.000000e+00
      endloop
   endfacet
   facet normal -2.588191e-01 9.659258e-01 0.000000e+00
      outer loop
         vertex 3.267365e+01 2.015192e+00 4.000000e+00
         vertex 3.284202e+01 2.060307e+00 0.000000e+00
         vertex 3.267365e+01 2.015192e+00 0.000000e+00
      endloop
   endfacet
   facet normal -8.715562e-02 9.961947e-01 0.000000e+00
      outer loop
         vertex 3.267365e+01 2.015192e+00 4.000000e+00
         vertex 3.267365e+01 2.015192e+00 0.000000e+00
         vertex 3.250000e+01 2.000000e+00 4.000000e+00
      endloop
   endfacet
   facet normal -8.715562e-02 9.961947e-01 0.000000e+00
      outer loop
         vertex 3.250000e+01 2.000000e+00 4.000000e+00
         vertex 3.267365e+01 2.015192e+00 0.000000e+00
         vertex 3.250000e+01 2.000000e+00 0.000000e+00
      endloop
   endfacet
   facet normal 8.715562e-02 9.961947e-01 0.000000e+00
      outer loop
         vertex 3.250000e+01 2.000000e+00 4.000000e+00
         vertex 3.250000e+01 2.000000e+00 0.000000e+00
         vertex 3.232635e+01 2.015192e+00 4.000000e+00
      endloop
   endfacet
   facet normal 8.715562e-02 9.961947e-01 0.000000e+00
      outer loop
         vertex 3.232635e+01 2.015192e+00 4.000000e+00
         vertex 3.250000e+01 2.000000e+00 0.000000e+00
         vertex 3.232635e+01 2.015192e+00 0.000000e+00
      endloop
   endfacet
   facet normal 2.588191e-01 9.659258e-01 0.000000e+00
      outer loop
         vertex 3.232635e+01 2.015192e+00 4.000000e+00
         vertex 3.232635e+01 2.015192e+00 0.000000e+00
         vertex 3.215798e+01 2.060307e+00 4.000000e+00
      endloop
   endfacet
   facet normal 2.588191e-01 9.659258e-01 0.000000e+00
      outer loop
         vertex 3.215798e+01 2.060307e+00 4.000000e+00
         vertex 3.232635e+01 2.015192e+00 0.000000e+00
         vertex 3.215798e+01 2.060307e+00 0.000000e+00
      endloop
   endfacet
   facet normal 4.226171e-01 9.063083e-01 0.000000e+00
      outer loop
         vertex 3.215798e+01 2.060307e+00 4.000000e+00
         vertex 3.215798e+01 2.060307e+00 0.000000e+00
         vertex 3.200000e+01 2.133975e+00 4.000000e+00
      endloop
   endfacet
   facet normal 4.226171e-01 9.063083e-01 0.000000e+00
      outer loop
         vertex 3.200000e+01 2.133975e+00 4.000000e+00
         vertex 3.215798e+01 2.060307e+00 0.000000e+00
         vertex 3.200000e+01 2.133975e+00 0.000000e+00
      endloop
   endfacet
   facet normal 5.735765e-01 8.191520e-01 0.000000e+00
      outer loop
         vertex 3.200000e+01 2.133975e+00 4.000000e+00
         vertex 3.200000e+01 2.133975e+00 0.000000e+00
         vertex 3.185721e+01 2.233956e+00 4.000000e+00
      endloop
   endfacet
   facet normal 5.735765e-01 8.191520e-01 0.000000e+00
      outer loop
         vertex 3.185721e+01 2.233956e+00 4.000000e+00
         vertex 3.200000e+01 2.133975e+00 0.000000e+00
         vertex 3.185721e+01 2.233956e+00 0.000000e+00
      endloop
   endfacet
   facet normal 7.071068e-01 7.071068e-01 0.000000e+00
      outer loop
         vertex 3.185721e+01 2.233956e+00 4.000000e+00
         vertex 3.185721e+01 2.233956e+00 0.000000e+00
         vertex 3.173396e+01 2.357212e+00 4.000000e+00
      endloop
   endfacet
   facet normal 7.071068e-01 7.071068e-01 0.000000e+00
      outer loop
         vertex 3.173396e+01 2.357212e+00 4.000000e+00
         vertex 3.185721e+01 2.233956e+00 0.000000e+00
         vertex 3.173396e+01 2.357212e+00 0.000000e+00
      endloop
   endfacet
   facet normal 8.191513e-01 5.735774e-01 0.000000e+00
      outer loop
         vertex 3.173396e+01 2.357212e+00 4.000000e+00
         vertex 3.173396e+01 2.357212e+00 0.000000e+00
         vertex 3.163397e+01 2.500000e+00 4.000000e+00
      endloop
   endfacet
   facet normal 8.191513e-01 5.735774e-01 0.000000e+00
      outer loop
         vertex 3.163397e+01 2.500000e+00 4.000000e+00
         vertex 3.173396e+01 2.357212e+00 0.000000e+00
         vertex 3.163397e+01 2.500000e+00 0.000000e+00
      endloop
   endfacet
   facet normal 9.063091e-01 4.226154e-01 0.000000e+00
      outer loop
         vertex 3.163397e+01 2.500000e+00 4.000000e+00
         vertex 3.163397e+01 2.500000e+00 0.000000e+00
         vertex 3.156031e+01 2.657980e+00 4.000000e+00
      endloop
   endfacet
   facet normal 9.063091e-01 4.226154e-01 0.000000e+00
      outer loop
         vertex 3.156031e+01 2.657980e+00 4.000000e+00
         vertex 3.163397e+01 2.500000e+00 0.000000e+00
         vertex 3.156031e+01 2.657980e+00 0.000000e+00
      endloop
   endfacet
   facet normal 9.659258e-01 2.588191e-01 0.000000e+00
      outer loop
         vertex 3.156031e+01 2.657980e+00 4.000000e+00
         vertex 3.156031e+01 2.657980e+00 0.000000e+00
         vertex 3.151519e+01 2.826352e+00 4.000000e+00
      endloop
   endfacet
   facet normal 9.659258e-01 2.588191e-01 0.000000e+00
      outer loop
         vertex 3.151519e+01 2.826352e+00 4.000000e+00
         vertex 3.156031e+01 2.657980e+00 0.000000e+00
         vertex 3.151519e+01 2.826352e+00 0.000000e+00
      endloop
   endfacet
   facet normal 9.961945e-01 8.715815e-02 0.000000e+00
      outer loop
         vertex 3.151519e+01 2.826352e+00 4.000000e+00
         vertex 3.151519e+01 2.826352e+00 0.000000e+00
         vertex 3.150000e+01 3.000000e+00 4.000000e+00
      endloop
   endfacet
   facet normal 9.961945e-01 8.715815e-02 0.000000e+00
      outer loop
         vertex 3.150000e+01 3.000000e+00 4.000000e+00
         vertex 3.151519e+01 2.826352e+00 0.000000e+00
         vertex 3.150000e+01 3.000000e+00 0.000000e+00
      endloop
   endfacet
   facet normal 0.000000e+00 0.000000e+00 -1.000000e+00
      outer loop
         vertex 3.156031e+01 2.657980e+00 4.000000e+00
         vertex 3.151519e+01 2.826352e+00 4.000000e+00
         vertex 3.250000e+01 3.000000e+00 4.000000e+00
      endloop
   endfacet
   facet normal -0.000000e+00 0.000000e+00 -1.000000e+00
      outer loop
         vertex 3.250000e+01 3.000000e+00 4.000000e+00
         vertex 3.151519e+01 2.826352e+00 4.000000e+00
         vertex 3.150000e+01 3.000000e+00 4.000000e+00
      endloop
   endfacet
   facet normal 0.000000e+00 0.000000e+00 -1.000000e+00
      outer loop
         vertex 3.250000e+01 3.000000e+00 4.000000e+00
         vertex 3.150000e+01 3.000000e+00 4.000000e+00
         vertex 3.151519e+01 3.173648e+00 4.000000e+00
      endloop
   endfacet
   facet normal 0.000000e+00 0.000000e+00 -1.000000e+00
      outer loop
         vertex 3.185721e+01 2.233956e+00 4.000000e+00
         vertex 3.173396e+01 2.357212e+00 4.000000e+00
         vertex 3.250000e+01 3.000000e+00 4.000000e+00
      endloop
   endfacet
   facet normal 0.000000e+00 0.000000e+00 -1.000000e+00
      outer loop
         vertex 3.250000e+01 3.000000e+00 4.000000e+00
         vertex 3.173396e+01 2.357212e+00 4.000000e+00
         vertex 3.163397e+01 2.500000e+00 4.000000e+00
      endloop
   endfacet
   facet normal 0.000000e+00 0.000000e+00 -1.000000e+00
      outer loop
         vertex 3.250000e+01 3.000000e+00 4.000000e+00
         vertex 3.163397e+01 2.500000e+00 4.000000e+00
         vertex 3.156031e+01 2.657980e+00 4.000000e+00
      endloop
   endfacet
   facet normal 0.000000e+00 0.000000e+00 -1.000000e+00
      outer loop
         vertex 3.232635e+01 2.015192e+00 4.000000e+00
         vertex 3.215798e+01 2.060307e+00 4.000000e+00
         vertex 3.250000e+01 3.000000e+00 4.000000e+00
      endloop
   endfacet
   facet normal 0.000000e+00 0.000000e+00 -1.000000e+00
      outer loop
         vertex 3.250000e+01 3.000000e+00 4.000000e+00
         vertex 3.215798e+01 2.060307e+00 4.000000e+00
         vertex 3.200000e+01 2.133975e+00 4.000000e+00
      endloop
   endfacet
   facet normal 0.000000e+00 0.000000e+00 -1.000000e+00
      outer loop
         vertex 3.250000e+01 3.000000e+00 4.000000e+00
         vertex 3.200000e+01 2.133975e+00 4.000000e+00
         vertex 3.185721e+01 2.233956e+00 4.000000e+00
      endloop
   endfacet
   facet normal -0.000000e+00 0.000000e+00 -1.000000e+00
      outer loop
         vertex 3.284202e+01 2.060307e+00 4.000000e+00
         vertex 3.267365e+01 2.015192e+00 4.000000e+00
         vertex 3.250000e+01 3.000000e+00 4.000000e+00
      endloop
   endfacet
   facet normal 0.000000e+00 0.000000e+00 -1.000000e+00
      outer loop
         vertex 3.250000e+01 3.000000e+00 4.000000e+00
         vertex 3.267365e+01 2.015192e+00 4.000000e+00
         vertex 3.250000e+01 2.000000e+00 4.000000e+00
      endloop
   endfacet
   facet normal 0.000000e+00 -0.000000e+00 -1.000000e+00
      outer loop
         vertex 3.250000e+01 3.000000e+00 4.000000e+00
         vertex 3.250000e+01 2.000000e+00 4.000000e+00
         vertex 3.232635e+01 2.015192e+00 4.000000e+00
      endloop
   endfacet
   facet normal -0.000000e+00 0.000000e+00 -1.000000e+00
      outer loop
         vertex 3.326605e+01 2.357212e+00 4.000000e+00
         vertex 3.314279e+01 2.233956e+00 4.000000e+00
         vertex 3.250000e+01 3.000000e+00 4.000000e+00
      endloop
   endfacet
   facet normal 0.000000e+00 0.000000e+00 -1.000000e+00
      outer loop
         vertex 3.250000e+01 3.000000e+00 4.000000e+00
         vertex 3.314279e+01 2.233956e+00 4.000000e+00
         vertex 3.300000e+01 2.133975e+00 4.000000e+00
      endloop
   endfacet
   facet normal 0.000000e+00 0.000000e+00 -1.000000e+00
      outer loop
         vertex 3.250000e+01 3.000000e+00 4.000000e+00
         vertex 3.300000e+01 2.133975e+00 4.000000e+00
         vertex 3.284202e+01 2.060307e+00 4.000000e+00
      endloop
   endfacet
   facet normal -0.000000e+00 0.000000e+00 -1.000000e+00
      outer loop
         vertex 3.348481e+01 2.826352e+00 4.000000e+00
         vertex 3.343969e+01 2.657980e+00 4.000000e+00
         vertex 3.250000e+01 3.000000e+00 4.000000e+00
      endloop
   endfacet
   facet normal 0.000000e+00 0.000000e+00 -1.000000e+00
      outer loop
         vertex 3.250000e+01 3.000000e+00 4.000000e+00
         vertex 3.343969e+01 2.657980e+00 4.000000e+00
         vertex 3.336603e+01 2.500000e+00 4.000000e+00
      endloop
   endfacet
   facet normal 0.000000e+00 0.000000e+00 -1.000000e+00
      outer loop
         vertex 3.250000e+01 3.000000e+00 4.000000e+00
         vertex 3.336603e+01 2.500000e+00 4.000000e+00
         vertex 3.326605e+01 2.357212e+00 4.000000e+00
      endloop
   endfacet
   facet normal 0.000000e+00 -0.000000e+00 -1.000000e+00
      outer loop
         vertex 3.343969e+01 3.342020e+00 4.000000e+00
         vertex 3.348481e+01 3.173648e+00 4.000000e+00
         vertex 3.250000e+01 3.000000e+00 4.000000e+00
      endloop
   endfacet
   facet normal 0.000000e+00 0.000000e+00 -1.000000e+00
      outer loop
         vertex 3.250000e+01 3.000000e+00 4.000000e+00
         vertex 3.348481e+01 3.173648e+00 4.000000e+00
         vertex 3.350000e+01 3.000000e+00 4.000000e+00
      endloop
   endfacet
   facet normal 0.000000e+00 0.000000e+00 -1.000000e+00
      outer loop
         vertex 3.250000e+01 3.000000e+00 4.000000e+00
         vertex 3.350000e+01 3.000000e+00 4.000000e+00
         vertex 3.348481e+01 2.826352e+00 4.000000e+00
      endloop
   endfacet
   facet normal 0.000000e+00 -0.000000e+00 -1.000000e+00
      outer loop
         vertex 3.314279e+01 3.766045e+00 4.000000e+00
         vertex 3.326605e+01 3.642788e+00 4.000000e+00
         vertex 3.250000e+01 3.000000e+00 4.000000e+00
      endloop
   endfacet
   facet normal 0.000000e+00 0.000000e+00 -1.000000e+00
      outer loop
         vertex 3.250000e+01 3.000000e+00 4.000000e+00
         vertex 3.326605e+01 3.642788e+00 4.000000e+00
         vertex 3.336603e+01 3.500000e+00 4.000000e+00
      endloop
   endfacet
   facet normal 0.000000e+00 0.000000e+00 -1.000000e+00
      outer loop
         vertex 3.250000e+01 3.000000e+00 4.000000e+00
         vertex 3.336603e+01 3.500000e+00 4.000000e+00
         vertex 3.343969e+01 3.342020e+00 4.000000e+00
      endloop
   endfacet
   facet normal 0.000000e+00 -0.000000e+00 -1.000000e+00
      outer loop
         vertex 3.267365e+01 3.984808e+00 4.000000e+00
         vertex 3.284202e+01 3.939692e+00 4.000000e+00
         vertex 3.250000e+01 3.000000e+00 4.000000e+00
      endloop
   endfacet
   facet normal 0.000000e+00 0.000000e+00 -1.000000e+00
      outer loop
         vertex 3.250000e+01 3.000000e+00 4.000000e+00
         vertex 3.284202e+01 3.939692e+00 4.000000e+00
         vertex 3.300000e+01 3.866025e+00 4.000000e+00
      endloop
   endfacet
   facet normal 0.000000e+00 0.000000e+00 -1.000000e+00
      outer loop
         vertex 3.250000e+01 3.000000e+00 4.000000e+00
         vertex 3.300000e+01 3.866025e+00 4.000000e+00
         vertex 3.314279e+01 3.766045e+00 4.000000e+00
      endloop
   endfacet
   facet normal 0.000000e+00 0.000000e+00 -1.000000e+00
      outer loop
         vertex 3.215798e+01 3.939692e+00 4.000000e+00
         vertex 3.232635e+01 3.984808e+00 4.000000e+00
         vertex 3.250000e+01 3.000000e+00 4.000000e+00
      endloop
   endfacet
   facet normal 0.000000e+00 0.000000e+00 -1.000000e+00
      outer loop
         vertex 3.250000e+01 3.000000e+00 4.000000e+00
         vertex 3.232635e+01 3.984808e+00 4.000000e+00
         vertex 3.250000e+01 4.000000e+00 4.000000e+00
      endloop
   endfacet
   facet normal 0.000000e+00 0.000000e+00 -1.000000e+00
      outer loop
         vertex 3.250000e+01 3.000000e+00 4.000000e+00
         vertex 3.250000e+01 4.000000e+00 4.000000e+00
         vertex 3.267365e+01 3.984808e+00 4.000000e+00
      endloop
   endfacet
   facet normal 0.000000e+00 0.000000e+00 -1.000000e+00
      outer loop
         vertex 3.173396e+01 3.642788e+00 4.000000e+00
         vertex 3.185721e+01 3.766045e+00 4.000000e+00
         vertex 3.250000e+01 3.000000e+00 4.000000e+00
      endloop
   endfacet
   facet normal 0.000000e+00 0.000000e+00 -1.000000e+00
      outer loop
         vertex 3.250000e+01 3.000000e+00 4.000000e+00
         vertex 3.185721e+01 3.766045e+00 4.000000e+00
         vertex 3.200000e+01 3.866025e+00 4.000000e+00
      endloop
   endfacet
   facet normal 0.000000e+00 0.000000e+00 -1.000000e+00
      outer loop
         vertex 3.250000e+01 3.000000e+00 4.000000e+00
         vertex 3.200000e+01 3.866025e+00 4.000000e+00
         vertex 3.215798e+01 3.939692e+00 4.000000e+00
      endloop
   endfacet
   facet normal 0.000000e+00 0.000000e+00 -1.000000e+00
      outer loop
         vertex 3.151519e+01 3.173648e+00 4.000000e+00
         vertex 3.156031e+01 3.342020e+00 4.000000e+00
         vertex 3.250000e+01 3.000000e+00 4.000000e+00
      endloop
   endfacet
   facet normal 0.000000e+00 0.000000e+00 -1.000000e+00
      outer loop
         vertex 3.250000e+01 3.000000e+00 4.000000e+00
         vertex 3.156031e+01 3.342020e+00 4.000000e+00
         vertex 3.163397e+01 3.500000e+00 4.000000e+00
      endloop
   endfacet
   facet normal 0.000000e+00 0.000000e+00 -1.000000e+00
      outer loop
         vertex 3.250000e+01 3.000000e+00 4.000000e+00
         vertex 3.163397e+01 3.500000e+00 4.000000e+00
         vertex 3.173396e+01 3.642788e+00 4.000000e+00
      endloop
   endfacet
endsolid