G04 #@! TF.GenerationSoftware,KiCad,Pcbnew,(5.1.4)-1*
G04 #@! TF.CreationDate,2020-12-03T17:42:17+01:00*
G04 #@! TF.ProjectId,LoRa_Balloon,4c6f5261-5f42-4616-9c6c-6f6f6e2e6b69,2*
G04 #@! TF.SameCoordinates,Original*
G04 #@! TF.FileFunction,Paste,Top*
G04 #@! TF.FilePolarity,Positive*
%FSLAX46Y46*%
G04 Gerber Fmt 4.6, Leading zero omitted, Abs format (unit mm)*
G04 Created by KiCad (PCBNEW (5.1.4)-1) date 2020-12-03 17:42:17*
%MOMM*%
%LPD*%
G04 APERTURE LIST*
%ADD10R,0.600000X0.750000*%
%ADD11R,0.600000X1.500000*%
%ADD12R,1.500000X1.100000*%
%ADD13R,0.350000X0.375000*%
%ADD14R,0.350000X2.100000*%
%ADD15R,4.000000X1.000000*%
%ADD16R,1.000000X0.500000*%
%ADD17R,0.600000X0.400000*%
%ADD18R,1.600000X1.000000*%
%ADD19R,0.500000X1.000000*%
%ADD20R,1.000000X4.000000*%
%ADD21R,0.400000X0.600000*%
%ADD22R,2.400000X1.700000*%
%ADD23R,0.450000X1.600000*%
%ADD24R,1.600000X0.450000*%
%ADD25C,0.400000*%
%ADD26C,0.100000*%
%ADD27R,1.250000X1.000000*%
%ADD28R,0.800000X0.750000*%
%ADD29R,3.240000X1.000000*%
%ADD30R,3.800000X1.000000*%
%ADD31R,3.570000X1.000000*%
%ADD32R,1.000000X3.570000*%
%ADD33R,1.000000X3.800000*%
%ADD34R,1.000000X3.240000*%
%ADD35R,0.500000X0.300000*%
%ADD36R,0.636000X0.528000*%
%ADD37R,1.000000X0.370000*%
%ADD38R,0.370000X1.000000*%
%ADD39R,0.637500X0.637500*%
%ADD40R,0.400000X0.650000*%
%ADD41R,1.400000X1.150000*%
G04 APERTURE END LIST*
D10*
X101376000Y-108989000D03*
X102576000Y-111239000D03*
X103776000Y-111239000D03*
X103776000Y-108989000D03*
X102576000Y-108989000D03*
D11*
X101376000Y-110864000D03*
D12*
X117033680Y-157553580D03*
D13*
X116483680Y-158416080D03*
X117033680Y-158416080D03*
X117583680Y-158416080D03*
X117583680Y-156691080D03*
X117033680Y-156691080D03*
X116483680Y-156691080D03*
D14*
X118308680Y-157553580D03*
X115758680Y-157553580D03*
D15*
X127330000Y-144120000D03*
X127330000Y-150120000D03*
D16*
X124830000Y-145620000D03*
X124830000Y-146620000D03*
X124830000Y-147620000D03*
X124830000Y-148620000D03*
D17*
X109977560Y-119745680D03*
X109977560Y-120645680D03*
D18*
X122258460Y-155880860D03*
X122258460Y-158880860D03*
X119959760Y-158880860D03*
X119959760Y-155880860D03*
D19*
X108191300Y-156911780D03*
X109191300Y-156911780D03*
X110191300Y-156911780D03*
X111191300Y-156911780D03*
X112191300Y-156911780D03*
X113191300Y-156911780D03*
D20*
X106691300Y-159411780D03*
X114691300Y-159411780D03*
D21*
X112192860Y-154858640D03*
X111292860Y-154858640D03*
D22*
X117780440Y-153632040D03*
X117780440Y-149532040D03*
D23*
X108191020Y-153151540D03*
X108991020Y-153151540D03*
X109791020Y-153151540D03*
X110591020Y-153151540D03*
X111391020Y-153151540D03*
X112191020Y-153151540D03*
X112991020Y-153151540D03*
X113791020Y-153151540D03*
D24*
X115291020Y-151651540D03*
X115291020Y-150851540D03*
X115291020Y-150051540D03*
X115291020Y-149251540D03*
X115291020Y-148451540D03*
X115291020Y-147651540D03*
X115291020Y-146851540D03*
X115291020Y-146051540D03*
D23*
X113791020Y-144551540D03*
X112991020Y-144551540D03*
X112191020Y-144551540D03*
X111391020Y-144551540D03*
X110591020Y-144551540D03*
X109791020Y-144551540D03*
X108991020Y-144551540D03*
X108191020Y-144551540D03*
D24*
X106691020Y-146032140D03*
X106691020Y-146851540D03*
X106691020Y-147651540D03*
X106691020Y-148451540D03*
X106691020Y-149251540D03*
X106691020Y-150051540D03*
X106691020Y-150851540D03*
X106691020Y-151651540D03*
D17*
X109444160Y-128211920D03*
X109444160Y-127311920D03*
D21*
X113061120Y-118597600D03*
X113961120Y-118597600D03*
D17*
X107569640Y-128716960D03*
X107569640Y-129616960D03*
D25*
X113061120Y-119852360D03*
D26*
G36*
X113414673Y-119781649D02*
G01*
X112990409Y-120205913D01*
X112707567Y-119923071D01*
X113131831Y-119498807D01*
X113414673Y-119781649D01*
X113414673Y-119781649D01*
G37*
D25*
X113697516Y-120488756D03*
D26*
G36*
X114051069Y-120418045D02*
G01*
X113626805Y-120842309D01*
X113343963Y-120559467D01*
X113768227Y-120135203D01*
X114051069Y-120418045D01*
X114051069Y-120418045D01*
G37*
D27*
X105923720Y-129316400D03*
X105923720Y-127316400D03*
D21*
X106786900Y-130764200D03*
X107686900Y-130764200D03*
D17*
X116921920Y-117241240D03*
X116921920Y-116341240D03*
D21*
X107573880Y-126690040D03*
X108473880Y-126690040D03*
X107691560Y-131820840D03*
X106791560Y-131820840D03*
X108473880Y-127767000D03*
X107573880Y-127767000D03*
X115997780Y-136484280D03*
X115097780Y-136484280D03*
D17*
X119228240Y-117807240D03*
X119228240Y-118707240D03*
X120523640Y-118707240D03*
X120523640Y-117807240D03*
X120960520Y-120491600D03*
X120960520Y-121391600D03*
D21*
X120960520Y-122336480D03*
X121860520Y-122336480D03*
D17*
X120960520Y-123296600D03*
X120960520Y-124196600D03*
X121626000Y-127874100D03*
X121626000Y-126974100D03*
D21*
X103504800Y-132349160D03*
X104404800Y-132349160D03*
X105961820Y-136433480D03*
X105061820Y-136433480D03*
D17*
X116863500Y-127540520D03*
X116863500Y-128440520D03*
D21*
X109595720Y-126364920D03*
X110495720Y-126364920D03*
D17*
X117874420Y-128440520D03*
X117874420Y-127540520D03*
X110495720Y-124509880D03*
X110495720Y-125409880D03*
X113797720Y-125940740D03*
X113797720Y-125040740D03*
D21*
X114810340Y-125938200D03*
X115710340Y-125938200D03*
X110488100Y-121790380D03*
X109588100Y-121790380D03*
D17*
X111024040Y-119745680D03*
X111024040Y-120645680D03*
D21*
X109771400Y-115397200D03*
X110671400Y-115397200D03*
X109606720Y-118592520D03*
X110506720Y-118592520D03*
X115014800Y-115397200D03*
X114114800Y-115397200D03*
D17*
X112405800Y-112987160D03*
X112405800Y-112087160D03*
D28*
X119727920Y-149532040D03*
X121227920Y-149532040D03*
X121227920Y-153632040D03*
X119727920Y-153632040D03*
D17*
X105194740Y-155257420D03*
X105194740Y-156157420D03*
D21*
X111392340Y-142846980D03*
X110492340Y-142846980D03*
D17*
X112990000Y-143002340D03*
X112990000Y-142102340D03*
D29*
X127034200Y-113982400D03*
D30*
X121314200Y-113982400D03*
X115314200Y-113982400D03*
X109314200Y-113982400D03*
D31*
X103429200Y-113982400D03*
D32*
X128154200Y-138707400D03*
D33*
X128154200Y-132822400D03*
X128154200Y-126822400D03*
X128154200Y-120822400D03*
D34*
X128154200Y-115102400D03*
D29*
X127034200Y-139992400D03*
D30*
X121314200Y-139992400D03*
X115314200Y-139992400D03*
X109314200Y-139992400D03*
D31*
X103429200Y-139992400D03*
D34*
X102144200Y-115102400D03*
D33*
X102144200Y-120822400D03*
X102144200Y-126822400D03*
X102144200Y-132822400D03*
D32*
X102144200Y-138707400D03*
D21*
X115024120Y-120487360D03*
X115924120Y-120487360D03*
D17*
X119878480Y-119587360D03*
X119878480Y-120487360D03*
X110495720Y-127314880D03*
X110495720Y-128214880D03*
X120960520Y-125039040D03*
X120960520Y-125939040D03*
D25*
X111793660Y-126576438D03*
D26*
G36*
X111722949Y-126222885D02*
G01*
X112147213Y-126647149D01*
X111864371Y-126929991D01*
X111440107Y-126505727D01*
X111722949Y-126222885D01*
X111722949Y-126222885D01*
G37*
D25*
X112430056Y-125940042D03*
D26*
G36*
X112359345Y-125586489D02*
G01*
X112783609Y-126010753D01*
X112500767Y-126293595D01*
X112076503Y-125869331D01*
X112359345Y-125586489D01*
X112359345Y-125586489D01*
G37*
D17*
X116863500Y-125937780D03*
X116863500Y-126837780D03*
X110495720Y-122750080D03*
X110495720Y-123650080D03*
X116921920Y-118993840D03*
X116921920Y-118093840D03*
X107541700Y-136167200D03*
X107541700Y-135267200D03*
D21*
X120714560Y-127873680D03*
X119814560Y-127873680D03*
X102115840Y-149251540D03*
X103015840Y-149251540D03*
D35*
X116926160Y-119986280D03*
X116926160Y-120486280D03*
X116926160Y-120986280D03*
X116926160Y-121486280D03*
X118726160Y-121486280D03*
X118726160Y-120986280D03*
X118726160Y-120486280D03*
X118726160Y-119986280D03*
D36*
X117826160Y-121176280D03*
X117826160Y-120296280D03*
D37*
X108844120Y-130363720D03*
X108844120Y-131013720D03*
X108844120Y-131663720D03*
X108844120Y-132313720D03*
X108844120Y-132963720D03*
X108844120Y-133613720D03*
X108844120Y-134263720D03*
D38*
X109744120Y-135163720D03*
X110394120Y-135163720D03*
X111044120Y-135163720D03*
X111694120Y-135163720D03*
X112344120Y-135163720D03*
X112994120Y-135163720D03*
X113644120Y-135163720D03*
D37*
X114544120Y-134263720D03*
X114544120Y-133613720D03*
X114544120Y-132963720D03*
X114544120Y-132313720D03*
X114544120Y-131663720D03*
X114544120Y-131013720D03*
X114544120Y-130363720D03*
D38*
X113644120Y-129463720D03*
X112994120Y-129463720D03*
X112344120Y-129463720D03*
X111694120Y-129463720D03*
X111044120Y-129463720D03*
X110394120Y-129463720D03*
X109744120Y-129463720D03*
D39*
X113287870Y-133907470D03*
X113287870Y-132844970D03*
X113287870Y-131782470D03*
X113287870Y-130719970D03*
X112225370Y-133907470D03*
X112225370Y-132844970D03*
X112225370Y-131782470D03*
X112225370Y-130719970D03*
X111162870Y-133907470D03*
X111162870Y-132844970D03*
X111162870Y-131782470D03*
X111162870Y-130719970D03*
X110100370Y-133907470D03*
X110100370Y-132844970D03*
X110100370Y-131782470D03*
X110100370Y-130719970D03*
D36*
X118912440Y-126128200D03*
X118912440Y-125248200D03*
D35*
X118012440Y-126438200D03*
X118012440Y-125938200D03*
X118012440Y-125438200D03*
X118012440Y-124938200D03*
X119812440Y-124938200D03*
X119812440Y-125438200D03*
X119812440Y-125938200D03*
X119812440Y-126438200D03*
D40*
X111755800Y-117297200D03*
X113055800Y-117297200D03*
X112405800Y-115397200D03*
X112405800Y-117297200D03*
X113055800Y-115397200D03*
X111755800Y-115397200D03*
D41*
X103759460Y-133596400D03*
X105959460Y-133596400D03*
X105959460Y-135196400D03*
X103759460Y-135196400D03*
M02*
