G04 #@! TF.GenerationSoftware,KiCad,Pcbnew,(5.1.4)-1*
G04 #@! TF.CreationDate,2020-12-03T17:42:17+01:00*
G04 #@! TF.ProjectId,LoRa_Balloon,4c6f5261-5f42-4616-9c6c-6f6f6e2e6b69,2*
G04 #@! TF.SameCoordinates,Original*
G04 #@! TF.FileFunction,Other,Fab,Bot*
%FSLAX46Y46*%
G04 Gerber Fmt 4.6, Leading zero omitted, Abs format (unit mm)*
G04 Created by KiCad (PCBNEW (5.1.4)-1) date 2020-12-03 17:42:17*
%MOMM*%
%LPD*%
G04 APERTURE LIST*
%ADD10C,0.150000*%
G04 APERTURE END LIST*
D10*
X133510476Y-104685781D02*
X133586666Y-104647686D01*
X133624761Y-104609591D01*
X133662857Y-104533400D01*
X133662857Y-104495305D01*
X133624761Y-104419115D01*
X133586666Y-104381020D01*
X133510476Y-104342924D01*
X133358095Y-104342924D01*
X133281904Y-104381020D01*
X133243809Y-104419115D01*
X133205714Y-104495305D01*
X133205714Y-104533400D01*
X133243809Y-104609591D01*
X133281904Y-104647686D01*
X133358095Y-104685781D01*
X133510476Y-104685781D01*
X133586666Y-104723877D01*
X133624761Y-104761972D01*
X133662857Y-104838162D01*
X133662857Y-104990543D01*
X133624761Y-105066734D01*
X133586666Y-105104829D01*
X133510476Y-105142924D01*
X133358095Y-105142924D01*
X133281904Y-105104829D01*
X133243809Y-105066734D01*
X133205714Y-104990543D01*
X133205714Y-104838162D01*
X133243809Y-104761972D01*
X133281904Y-104723877D01*
X133358095Y-104685781D01*
X132520000Y-104342924D02*
X132672380Y-104342924D01*
X132748571Y-104381020D01*
X132786666Y-104419115D01*
X132862857Y-104533400D01*
X132900952Y-104685781D01*
X132900952Y-104990543D01*
X132862857Y-105066734D01*
X132824761Y-105104829D01*
X132748571Y-105142924D01*
X132596190Y-105142924D01*
X132520000Y-105104829D01*
X132481904Y-105066734D01*
X132443809Y-104990543D01*
X132443809Y-104800067D01*
X132481904Y-104723877D01*
X132520000Y-104685781D01*
X132596190Y-104647686D01*
X132748571Y-104647686D01*
X132824761Y-104685781D01*
X132862857Y-104723877D01*
X132900952Y-104800067D01*
X131986666Y-104685781D02*
X132062857Y-104647686D01*
X132100952Y-104609591D01*
X132139047Y-104533400D01*
X132139047Y-104495305D01*
X132100952Y-104419115D01*
X132062857Y-104381020D01*
X131986666Y-104342924D01*
X131834285Y-104342924D01*
X131758095Y-104381020D01*
X131720000Y-104419115D01*
X131681904Y-104495305D01*
X131681904Y-104533400D01*
X131720000Y-104609591D01*
X131758095Y-104647686D01*
X131834285Y-104685781D01*
X131986666Y-104685781D01*
X132062857Y-104723877D01*
X132100952Y-104761972D01*
X132139047Y-104838162D01*
X132139047Y-104990543D01*
X132100952Y-105066734D01*
X132062857Y-105104829D01*
X131986666Y-105142924D01*
X131834285Y-105142924D01*
X131758095Y-105104829D01*
X131720000Y-105066734D01*
X131681904Y-104990543D01*
X131681904Y-104838162D01*
X131720000Y-104761972D01*
X131758095Y-104723877D01*
X131834285Y-104685781D01*
X131339047Y-105142924D02*
X131339047Y-104342924D01*
X131072380Y-104914353D01*
X130805714Y-104342924D01*
X130805714Y-105142924D01*
X130424761Y-105142924D02*
X130424761Y-104342924D01*
X130424761Y-104723877D02*
X129967619Y-104723877D01*
X129967619Y-105142924D02*
X129967619Y-104342924D01*
X129662857Y-104609591D02*
X129243809Y-104609591D01*
X129662857Y-105142924D01*
X129243809Y-105142924D01*
X129129523Y-105219115D02*
X128520000Y-105219115D01*
X127986666Y-105104829D02*
X128062857Y-105142924D01*
X128215238Y-105142924D01*
X128291428Y-105104829D01*
X128329523Y-105066734D01*
X128367619Y-104990543D01*
X128367619Y-104761972D01*
X128329523Y-104685781D01*
X128291428Y-104647686D01*
X128215238Y-104609591D01*
X128062857Y-104609591D01*
X127986666Y-104647686D01*
X127339047Y-105104829D02*
X127415238Y-105142924D01*
X127567619Y-105142924D01*
X127643809Y-105104829D01*
X127681904Y-105028639D01*
X127681904Y-104723877D01*
X127643809Y-104647686D01*
X127567619Y-104609591D01*
X127415238Y-104609591D01*
X127339047Y-104647686D01*
X127300952Y-104723877D01*
X127300952Y-104800067D01*
X127681904Y-104876258D01*
X126958095Y-105142924D02*
X126958095Y-104609591D01*
X126958095Y-104761972D02*
X126920000Y-104685781D01*
X126881904Y-104647686D01*
X126805714Y-104609591D01*
X126729523Y-104609591D01*
X126120000Y-105142924D02*
X126120000Y-104723877D01*
X126158095Y-104647686D01*
X126234285Y-104609591D01*
X126386666Y-104609591D01*
X126462857Y-104647686D01*
X126120000Y-105104829D02*
X126196190Y-105142924D01*
X126386666Y-105142924D01*
X126462857Y-105104829D01*
X126500952Y-105028639D01*
X126500952Y-104952448D01*
X126462857Y-104876258D01*
X126386666Y-104838162D01*
X126196190Y-104838162D01*
X126120000Y-104800067D01*
X125739047Y-105142924D02*
X125739047Y-104609591D01*
X125739047Y-104685781D02*
X125700952Y-104647686D01*
X125624761Y-104609591D01*
X125510476Y-104609591D01*
X125434285Y-104647686D01*
X125396190Y-104723877D01*
X125396190Y-105142924D01*
X125396190Y-104723877D02*
X125358095Y-104647686D01*
X125281904Y-104609591D01*
X125167619Y-104609591D01*
X125091428Y-104647686D01*
X125053333Y-104723877D01*
X125053333Y-105142924D01*
X124672380Y-105142924D02*
X124672380Y-104609591D01*
X124672380Y-104342924D02*
X124710476Y-104381020D01*
X124672380Y-104419115D01*
X124634285Y-104381020D01*
X124672380Y-104342924D01*
X124672380Y-104419115D01*
X123948571Y-105104829D02*
X124024761Y-105142924D01*
X124177142Y-105142924D01*
X124253333Y-105104829D01*
X124291428Y-105066734D01*
X124329523Y-104990543D01*
X124329523Y-104761972D01*
X124291428Y-104685781D01*
X124253333Y-104647686D01*
X124177142Y-104609591D01*
X124024761Y-104609591D01*
X123948571Y-104647686D01*
X123796190Y-105219115D02*
X123186666Y-105219115D01*
X122653333Y-105142924D02*
X122653333Y-104723877D01*
X122691428Y-104647686D01*
X122767619Y-104609591D01*
X122920000Y-104609591D01*
X122996190Y-104647686D01*
X122653333Y-105104829D02*
X122729523Y-105142924D01*
X122920000Y-105142924D01*
X122996190Y-105104829D01*
X123034285Y-105028639D01*
X123034285Y-104952448D01*
X122996190Y-104876258D01*
X122920000Y-104838162D01*
X122729523Y-104838162D01*
X122653333Y-104800067D01*
X122272380Y-104609591D02*
X122272380Y-105142924D01*
X122272380Y-104685781D02*
X122234285Y-104647686D01*
X122158095Y-104609591D01*
X122043809Y-104609591D01*
X121967619Y-104647686D01*
X121929523Y-104723877D01*
X121929523Y-105142924D01*
X121662857Y-104609591D02*
X121358095Y-104609591D01*
X121548571Y-104342924D02*
X121548571Y-105028639D01*
X121510476Y-105104829D01*
X121434285Y-105142924D01*
X121358095Y-105142924D01*
X120786666Y-105104829D02*
X120862857Y-105142924D01*
X121015238Y-105142924D01*
X121091428Y-105104829D01*
X121129523Y-105028639D01*
X121129523Y-104723877D01*
X121091428Y-104647686D01*
X121015238Y-104609591D01*
X120862857Y-104609591D01*
X120786666Y-104647686D01*
X120748571Y-104723877D01*
X120748571Y-104800067D01*
X121129523Y-104876258D01*
X120405714Y-104609591D02*
X120405714Y-105142924D01*
X120405714Y-104685781D02*
X120367619Y-104647686D01*
X120291428Y-104609591D01*
X120177142Y-104609591D01*
X120100952Y-104647686D01*
X120062857Y-104723877D01*
X120062857Y-105142924D01*
X119681904Y-104609591D02*
X119681904Y-105142924D01*
X119681904Y-104685781D02*
X119643809Y-104647686D01*
X119567619Y-104609591D01*
X119453333Y-104609591D01*
X119377142Y-104647686D01*
X119339047Y-104723877D01*
X119339047Y-105142924D01*
X118615238Y-105142924D02*
X118615238Y-104723877D01*
X118653333Y-104647686D01*
X118729523Y-104609591D01*
X118881904Y-104609591D01*
X118958095Y-104647686D01*
X118615238Y-105104829D02*
X118691428Y-105142924D01*
X118881904Y-105142924D01*
X118958095Y-105104829D01*
X118996190Y-105028639D01*
X118996190Y-104952448D01*
X118958095Y-104876258D01*
X118881904Y-104838162D01*
X118691428Y-104838162D01*
X118615238Y-104800067D01*
M02*
