M48
; DRILL file {KiCad (5.1.4)-1} date 03-12-2020 17:41:51
; FORMAT={-:-/ absolute / inch / decimal}
; #@! TF.CreationDate,2020-12-03T17:41:51+01:00
; #@! TF.GenerationSoftware,Kicad,Pcbnew,(5.1.4)-1
; #@! TF.FileFunction,Plated,1,2,PTH
FMAT,2
INCH
T1C0.0118
%
G90
G05
T1
X4.0384Y-4.2621
X4.0905Y-6.0169
X4.0961Y-5.8488
X4.1387Y-5.4702
X4.1389Y-5.553
X4.1413Y-6.0824
X4.1475Y-5.9706
X4.1768Y-6.017
X4.2598Y-5.9075
X4.2598Y-5.939
X4.3263Y-6.0825
X4.4871Y-5.9424
X4.5312Y-5.4692
X4.5312Y-5.63
X4.5938Y-5.9424
X4.6742Y-5.6301
X4.8382Y-5.077
X4.8425Y-5.7331
X4.8425Y-5.7724
X4.8676Y-4.7223
X4.8676Y-4.7873
X4.8676Y-5.0476
X4.3096Y-4.9055
X4.3805Y-5.2301
X4.6816Y-4.931
X4.8171Y-4.4395
X4.3342Y-5.4633
X4.3411Y-4.4396
X4.2437Y-4.1228
X4.309Y-4.866
X4.4223Y-5.1465
X4.9979Y-4.9482
X4.0739Y-5.462
X4.0745Y-4.7294
X4.569Y-4.9183
X4.6752Y-4.8854
X4.4392Y-5.0014
X4.9979Y-4.895
X4.9993Y-4.5365
X4.4851Y-4.7849
X4.4642Y-5.2301
X4.9967Y-5.4621
X4.3276Y-4.6294
X4.5244Y-4.6657
X4.5529Y-4.4396
X4.0734Y-5.0749
X4.6469Y-4.5882
X4.5292Y-4.9177
X4.8031Y-4.9474
X4.731Y-5.3855
X4.1674Y-4.8102
X4.991Y-4.4397
X4.4119Y-4.7503
X4.4789Y-4.9956
X4.5968Y-4.4394
X4.311Y-4.0933
X4.2896Y-4.7537
X4.8028Y-4.9062
X4.7671Y-5.2762
X4.1526Y-4.5561
X4.9478Y-4.4395
X4.2717Y-4.0949
X4.7257Y-4.8024
X4.8028Y-4.7692
X4.6388Y-4.7707
X4.2074Y-4.7537
X4.7902Y-5.4634
X4.0743Y-4.7726
X4.4685Y-4.0933
X4.6214Y-5.0567
X4.722Y-4.8434
X4.4223Y-5.2301
X4.3224Y-5.9782
X4.1926Y-4.6447
X4.9981Y-5.248
X4.2972Y-4.4398
X4.5472Y-4.0933
X4.4869Y-5.5947
X4.6083Y-4.9218
X4.519Y-5.0001
X4.4564Y-6.2367
X4.5652Y-5.4638
X4.9974Y-5.334
X4.5097Y-4.4394
X4.0735Y-5.1706
X4.3843Y-4.4398
X4.7047Y-4.0933
X4.1878Y-4.1787
X4.4048Y-4.6696
X4.6433Y-4.69
X4.0924Y-6.1479
X4.9236Y-5.0069
X4.6868Y-4.4393
X4.3684Y-5.4322
X4.0743Y-4.6855
X4.8626Y-6.0433
X4.5017Y-4.8884
X4.4642Y-5.1465
X4.9979Y-4.8377
X4.0739Y-5.3746
X4.0745Y-4.6423
X4.2782Y-4.792
X4.3805Y-5.1465
X4.9039Y-4.4397
X4.0749Y-4.5813
X4.0769Y-4.4397
X4.4115Y-4.7088
X4.4836Y-4.8166
X4.8025Y-4.8653
X4.9977Y-4.7938
X4.0737Y-5.4178
X4.2595Y-6.2367
X4.3908Y-4.8655
X4.5603Y-4.9989
X4.909Y-5.1737
X4.8607Y-4.4395
X4.4062Y-4.9019
X4.4875Y-4.6291
X5.0378Y-4.4394
X4.0732Y-5.031
X4.3254Y-5.6237
X4.4404Y-4.9218
X4.7901Y-4.991
X4.8876Y-5.3641
X4.8879Y-4.6575
X4.6064Y-5.4637
X4.3641Y-4.6131
X4.5069Y-4.7065
X4.8646Y-5.9004
X4.1598Y-4.2067
X4.2883Y-4.6363
X4.3387Y-5.1465
X4.7907Y-5.1704
X4.8138Y-4.5471
X4.9979Y-5.2912
X4.2157Y-4.1508
X4.1319Y-4.2346
X4.7669Y-4.7074
X4.6821Y-5.0117
X4.9045Y-5.2593
X4.9388Y-4.7438
X4.9099Y-5.4617
X4.0736Y-4.8586
X4.3898Y-4.0933
X4.7189Y-4.6047
X4.7206Y-4.8845
X4.3387Y-5.1883
X4.2004Y-6.2172
X4.1284Y-4.7107
X4.704Y-5.4634
X4.9986Y-4.7096
X4.0738Y-4.8154
X4.5079Y-4.0933
X4.7677Y-6.1961
X4.4614Y-4.8878
X4.833Y-4.7968
X4.6388Y-4.7361
X4.2234Y-4.8867
X4.9979Y-5.2041
X4.9982Y-5.1183
X4.0734Y-4.9878
X4.3805Y-5.2719
X4.5866Y-4.0933
X4.3906Y-4.7849
X4.5617Y-4.7033
X4.7728Y-5.9303
X4.9979Y-4.7506
X4.1104Y-5.4617
X4.1201Y-4.4399
X4.3504Y-4.0933
X4.5404Y-4.7862
X4.3387Y-5.2719
X4.64Y-4.4396
X4.9991Y-4.5797
X4.0736Y-4.9457
X4.2897Y-4.7137
X4.4322Y-5.0402
X4.9979Y-5.0508
X4.9993Y-4.6236
X4.164Y-4.4397
X4.6875Y-4.8171
X4.4223Y-5.1883
X4.8341Y-5.4632
X4.279Y-4.6747
X4.8016Y-4.7292
X4.7739Y-4.4393
X4.0751Y-4.5381
X4.2898Y-4.9401
X4.4223Y-5.2719
X4.9175Y-4.5641
X4.9967Y-5.375
X4.3901Y-4.9384
X4.4642Y-5.1883
X4.9976Y-4.9987
X4.2907Y-4.8297
X4.4642Y-5.2719
X4.5154Y-6.2172
X4.137Y-4.9191
X4.7479Y-5.4632
X4.4456Y-4.7729
X4.6076Y-6.2029
X4.5896Y-4.8182
X4.833Y-4.838
X4.6816Y-4.9657
X4.2144Y-4.9379
X4.9965Y-5.4182
X4.254Y-4.4396
X4.6654Y-4.0933
X4.6384Y-4.8232
X4.3387Y-5.2301
X4.6713Y-5.1467
X4.2284Y-4.584
X4.9981Y-5.1609
X4.2072Y-4.4399
X4.626Y-4.0933
X4.6332Y-4.8842
X4.3805Y-5.1883
X4.7728Y-6.0051
X4.4971Y-5.4633
X4.9538Y-5.4615
X4.0738Y-5.1302
X4.4667Y-4.4394
X4.2339Y-5.3807
X4.3905Y-4.8255
X4.7533Y-4.9939
X4.3854Y-5.9782
X4.9205Y-4.9138
X4.73Y-4.4395
X4.9991Y-4.6668
X4.0738Y-4.9025
X4.4291Y-4.0933
T0
M30
