G04 #@! TF.GenerationSoftware,KiCad,Pcbnew,(5.1.4)-1*
G04 #@! TF.CreationDate,2020-12-03T17:16:16+01:00*
G04 #@! TF.ProjectId,LoRa_Balloon,4c6f5261-5f42-4616-9c6c-6f6f6e2e6b69,2*
G04 #@! TF.SameCoordinates,Original*
G04 #@! TF.FileFunction,Legend,Top*
G04 #@! TF.FilePolarity,Positive*
%FSLAX46Y46*%
G04 Gerber Fmt 4.6, Leading zero omitted, Abs format (unit mm)*
G04 Created by KiCad (PCBNEW (5.1.4)-1) date 2020-12-03 17:16:16*
%MOMM*%
%LPD*%
G04 APERTURE LIST*
%ADD10C,0.150000*%
%ADD11C,0.120000*%
%ADD12C,0.080000*%
%ADD13C,0.125000*%
G04 APERTURE END LIST*
D10*
X118054761Y-160561904D02*
X118054761Y-161133333D01*
X118016666Y-161247619D01*
X117940476Y-161323809D01*
X117826190Y-161361904D01*
X117750000Y-161361904D01*
X118816666Y-161361904D02*
X118435714Y-161361904D01*
X118435714Y-160561904D01*
X119540476Y-161285714D02*
X119502380Y-161323809D01*
X119388095Y-161361904D01*
X119311904Y-161361904D01*
X119197619Y-161323809D01*
X119121428Y-161247619D01*
X119083333Y-161171428D01*
X119045238Y-161019047D01*
X119045238Y-160904761D01*
X119083333Y-160752380D01*
X119121428Y-160676190D01*
X119197619Y-160600000D01*
X119311904Y-160561904D01*
X119388095Y-160561904D01*
X119502380Y-160600000D01*
X119540476Y-160638095D01*
X120111904Y-160561904D02*
X120111904Y-161133333D01*
X120073809Y-161247619D01*
X119997619Y-161323809D01*
X119883333Y-161361904D01*
X119807142Y-161361904D01*
X120873809Y-161361904D02*
X120492857Y-161361904D01*
X120492857Y-160561904D01*
X121597619Y-161285714D02*
X121559523Y-161323809D01*
X121445238Y-161361904D01*
X121369047Y-161361904D01*
X121254761Y-161323809D01*
X121178571Y-161247619D01*
X121140476Y-161171428D01*
X121102380Y-161019047D01*
X121102380Y-160904761D01*
X121140476Y-160752380D01*
X121178571Y-160676190D01*
X121254761Y-160600000D01*
X121369047Y-160561904D01*
X121445238Y-160561904D01*
X121559523Y-160600000D01*
X121597619Y-160638095D01*
X122169047Y-160561904D02*
X122169047Y-161133333D01*
X122130952Y-161247619D01*
X122054761Y-161323809D01*
X121940476Y-161361904D01*
X121864285Y-161361904D01*
X122930952Y-161361904D02*
X122550000Y-161361904D01*
X122550000Y-160561904D01*
X123654761Y-161285714D02*
X123616666Y-161323809D01*
X123502380Y-161361904D01*
X123426190Y-161361904D01*
X123311904Y-161323809D01*
X123235714Y-161247619D01*
X123197619Y-161171428D01*
X123159523Y-161019047D01*
X123159523Y-160904761D01*
X123197619Y-160752380D01*
X123235714Y-160676190D01*
X123311904Y-160600000D01*
X123426190Y-160561904D01*
X123502380Y-160561904D01*
X123616666Y-160600000D01*
X123654761Y-160638095D01*
X124226190Y-160561904D02*
X124226190Y-161133333D01*
X124188095Y-161247619D01*
X124111904Y-161323809D01*
X123997619Y-161361904D01*
X123921428Y-161361904D01*
X124988095Y-161361904D02*
X124607142Y-161361904D01*
X124607142Y-160561904D01*
X125711904Y-161285714D02*
X125673809Y-161323809D01*
X125559523Y-161361904D01*
X125483333Y-161361904D01*
X125369047Y-161323809D01*
X125292857Y-161247619D01*
X125254761Y-161171428D01*
X125216666Y-161019047D01*
X125216666Y-160904761D01*
X125254761Y-160752380D01*
X125292857Y-160676190D01*
X125369047Y-160600000D01*
X125483333Y-160561904D01*
X125559523Y-160561904D01*
X125673809Y-160600000D01*
X125711904Y-160638095D01*
D11*
X105751000Y-125836600D02*
X105751000Y-125112700D01*
X104887400Y-130103800D02*
X104887400Y-129824400D01*
X111186600Y-128706800D02*
X111186600Y-125912800D01*
X108913300Y-128706800D02*
X111186600Y-128706800D01*
X108278300Y-129926000D02*
X108278300Y-128706800D01*
X104887400Y-130103800D02*
X107770300Y-130103800D01*
X104887400Y-125836600D02*
X104887400Y-129418000D01*
X109789600Y-125836600D02*
X104887400Y-125836600D01*
X103071300Y-120909000D02*
X108278300Y-120909000D01*
X103071300Y-125100000D02*
X103071300Y-120909000D01*
X108278300Y-125100000D02*
X103071300Y-125100000D01*
X108278300Y-120909000D02*
X108278300Y-125100000D01*
X116723800Y-129075100D02*
X120965600Y-129075100D01*
X122451500Y-128097200D02*
X122451500Y-129075100D01*
X122451500Y-127043100D02*
X122451500Y-127665400D01*
X117447700Y-127043100D02*
X122451500Y-127043100D01*
X116152300Y-127043100D02*
X116304700Y-127043100D01*
X116152300Y-128402000D02*
X116152300Y-127043100D01*
X124572400Y-129672000D02*
X118324000Y-129672000D01*
X124572400Y-132593000D02*
X124572400Y-129672000D01*
X118324000Y-132593000D02*
X124572400Y-132593000D01*
X118324000Y-129672000D02*
X118324000Y-132593000D01*
X119594000Y-112138380D02*
X119594000Y-115803600D01*
X121702200Y-115829000D02*
X121702200Y-121620200D01*
X116292000Y-115829000D02*
X121702200Y-115829000D01*
X116292000Y-122077400D02*
X120406800Y-122077400D01*
X116292000Y-115829000D02*
X116292000Y-122077400D01*
X121029620Y-112090120D02*
X115029620Y-112090120D01*
X121029480Y-106131320D02*
X121029620Y-112090120D01*
X115029620Y-106128740D02*
X121029620Y-106128740D01*
X115029620Y-112087580D02*
X115029620Y-106128780D01*
X125310000Y-150340000D02*
X129810000Y-150340000D01*
X129810000Y-150340000D02*
X129810000Y-144340000D01*
X125310000Y-144340000D02*
X129810000Y-144340000D01*
X125310000Y-150340000D02*
X125310000Y-144340000D01*
D10*
X110502560Y-120445680D02*
X110502560Y-119945680D01*
X109452560Y-119945680D02*
X109452560Y-120445680D01*
X123283460Y-158380860D02*
X123283460Y-156380860D01*
X121233460Y-156380860D02*
X121233460Y-158380860D01*
X118934760Y-156380860D02*
X118934760Y-158380860D01*
X120984760Y-158380860D02*
X120984760Y-156380860D01*
D11*
X106691300Y-157411780D02*
X106691300Y-161911780D01*
X106691300Y-161911780D02*
X114691300Y-161911780D01*
X114691300Y-157411780D02*
X114691300Y-161911780D01*
X106691300Y-157411780D02*
X114691300Y-157411780D01*
D10*
X111492860Y-155383640D02*
X111992860Y-155383640D01*
X111992860Y-154333640D02*
X111492860Y-154333640D01*
D12*
X116180440Y-154282040D02*
X119380440Y-154282040D01*
X119380440Y-154282040D02*
X119380440Y-148882040D01*
X119380440Y-148882040D02*
X116180440Y-148882040D01*
X116180440Y-154282040D02*
X116180440Y-148882040D01*
D11*
X107491020Y-152351540D02*
X107491020Y-145351540D01*
X107491020Y-145351540D02*
X114491020Y-145351540D01*
X114491020Y-152351540D02*
X114491020Y-145351540D01*
X107491020Y-152351540D02*
X114491020Y-152351540D01*
X108491020Y-151651540D02*
G75*
G03X108491020Y-151651540I-300000J0D01*
G01*
D10*
X108919160Y-127511920D02*
X108919160Y-128011920D01*
X109969160Y-128011920D02*
X109969160Y-127511920D01*
X113761120Y-118072600D02*
X113261120Y-118072600D01*
X113261120Y-119122600D02*
X113761120Y-119122600D01*
X108094640Y-129416960D02*
X108094640Y-128916960D01*
X107044640Y-128916960D02*
X107044640Y-129416960D01*
X113927326Y-119976104D02*
X113573772Y-119622550D01*
X112831310Y-120365012D02*
X113184864Y-120718566D01*
X105073720Y-127816400D02*
X105073720Y-128816400D01*
X106773720Y-128816400D02*
X106773720Y-127816400D01*
X107486900Y-130239200D02*
X106986900Y-130239200D01*
X106986900Y-131289200D02*
X107486900Y-131289200D01*
X116396920Y-116541240D02*
X116396920Y-117041240D01*
X117446920Y-117041240D02*
X117446920Y-116541240D01*
X108273880Y-126165040D02*
X107773880Y-126165040D01*
X107773880Y-127215040D02*
X108273880Y-127215040D01*
X106991560Y-132345840D02*
X107491560Y-132345840D01*
X107491560Y-131295840D02*
X106991560Y-131295840D01*
X107773880Y-128292000D02*
X108273880Y-128292000D01*
X108273880Y-127242000D02*
X107773880Y-127242000D01*
X115297780Y-137009280D02*
X115797780Y-137009280D01*
X115797780Y-135959280D02*
X115297780Y-135959280D01*
X119753240Y-118507240D02*
X119753240Y-118007240D01*
X118703240Y-118007240D02*
X118703240Y-118507240D01*
X119998640Y-118007240D02*
X119998640Y-118507240D01*
X121048640Y-118507240D02*
X121048640Y-118007240D01*
X121485520Y-121191600D02*
X121485520Y-120691600D01*
X120435520Y-120691600D02*
X120435520Y-121191600D01*
X121660520Y-121811480D02*
X121160520Y-121811480D01*
X121160520Y-122861480D02*
X121660520Y-122861480D01*
X121485520Y-123996600D02*
X121485520Y-123496600D01*
X120435520Y-123496600D02*
X120435520Y-123996600D01*
X121101000Y-127174100D02*
X121101000Y-127674100D01*
X122151000Y-127674100D02*
X122151000Y-127174100D01*
X104204800Y-131824160D02*
X103704800Y-131824160D01*
X103704800Y-132874160D02*
X104204800Y-132874160D01*
X105261820Y-136958480D02*
X105761820Y-136958480D01*
X105761820Y-135908480D02*
X105261820Y-135908480D01*
X117388500Y-128240520D02*
X117388500Y-127740520D01*
X116338500Y-127740520D02*
X116338500Y-128240520D01*
X110295720Y-125839920D02*
X109795720Y-125839920D01*
X109795720Y-126889920D02*
X110295720Y-126889920D01*
X117349420Y-127740520D02*
X117349420Y-128240520D01*
X118399420Y-128240520D02*
X118399420Y-127740520D01*
X111020720Y-125209880D02*
X111020720Y-124709880D01*
X109970720Y-124709880D02*
X109970720Y-125209880D01*
X113272720Y-125240740D02*
X113272720Y-125740740D01*
X114322720Y-125740740D02*
X114322720Y-125240740D01*
X115510340Y-125413200D02*
X115010340Y-125413200D01*
X115010340Y-126463200D02*
X115510340Y-126463200D01*
X109788100Y-122315380D02*
X110288100Y-122315380D01*
X110288100Y-121265380D02*
X109788100Y-121265380D01*
X111549040Y-120445680D02*
X111549040Y-119945680D01*
X110499040Y-119945680D02*
X110499040Y-120445680D01*
X110471400Y-114872200D02*
X109971400Y-114872200D01*
X109971400Y-115922200D02*
X110471400Y-115922200D01*
X110306720Y-118067520D02*
X109806720Y-118067520D01*
X109806720Y-119117520D02*
X110306720Y-119117520D01*
X114314800Y-115922200D02*
X114814800Y-115922200D01*
X114814800Y-114872200D02*
X114314800Y-114872200D01*
X111880800Y-112287160D02*
X111880800Y-112787160D01*
X112930800Y-112787160D02*
X112930800Y-112287160D01*
X120127920Y-148932040D02*
X120827920Y-148932040D01*
X120827920Y-150132040D02*
X120127920Y-150132040D01*
X120827920Y-154232040D02*
X120127920Y-154232040D01*
X120127920Y-153032040D02*
X120827920Y-153032040D01*
X105719740Y-155957420D02*
X105719740Y-155457420D01*
X104669740Y-155457420D02*
X104669740Y-155957420D01*
X110692340Y-143371980D02*
X111192340Y-143371980D01*
X111192340Y-142321980D02*
X110692340Y-142321980D01*
X112465000Y-142302340D02*
X112465000Y-142802340D01*
X113515000Y-142802340D02*
X113515000Y-142302340D01*
X115724120Y-119962360D02*
X115224120Y-119962360D01*
X115224120Y-121012360D02*
X115724120Y-121012360D01*
X120403480Y-120287360D02*
X120403480Y-119787360D01*
X119353480Y-119787360D02*
X119353480Y-120287360D01*
X111020720Y-128014880D02*
X111020720Y-127514880D01*
X109970720Y-127514880D02*
X109970720Y-128014880D01*
X121485520Y-125739040D02*
X121485520Y-125239040D01*
X120435520Y-125239040D02*
X120435520Y-125739040D01*
X111917404Y-125710232D02*
X111563850Y-126063786D01*
X112306312Y-126806248D02*
X112659866Y-126452694D01*
X117388500Y-126637780D02*
X117388500Y-126137780D01*
X116338500Y-126137780D02*
X116338500Y-126637780D01*
X111020720Y-123450080D02*
X111020720Y-122950080D01*
X109970720Y-122950080D02*
X109970720Y-123450080D01*
X116396920Y-118293840D02*
X116396920Y-118793840D01*
X117446920Y-118793840D02*
X117446920Y-118293840D01*
X107016700Y-135467200D02*
X107016700Y-135967200D01*
X108066700Y-135967200D02*
X108066700Y-135467200D01*
X120014560Y-128398680D02*
X120514560Y-128398680D01*
X120514560Y-127348680D02*
X120014560Y-127348680D01*
X102815840Y-148726540D02*
X102315840Y-148726540D01*
X102315840Y-149776540D02*
X102815840Y-149776540D01*
X117176160Y-121886280D02*
X118476160Y-121886280D01*
X116601160Y-119586280D02*
X118476160Y-119586280D01*
X114844120Y-129163720D02*
X114844120Y-129953720D01*
X108544120Y-135463720D02*
X108544120Y-134673720D01*
X114844120Y-135463720D02*
X114844120Y-134673720D01*
X108544120Y-129163720D02*
X109334120Y-129163720D01*
X108544120Y-135463720D02*
X109334120Y-135463720D01*
X114844120Y-135463720D02*
X114054120Y-135463720D01*
X114844120Y-129163720D02*
X114054120Y-129163720D01*
X120137440Y-126838200D02*
X118262440Y-126838200D01*
X119562440Y-124538200D02*
X118262440Y-124538200D01*
D11*
X111245800Y-115647200D02*
X111245800Y-117547200D01*
X113565800Y-117047200D02*
X113565800Y-115647200D01*
D10*
X103198333Y-110031457D02*
X102931666Y-110031457D01*
X102931666Y-110450504D02*
X102931666Y-109650504D01*
X103312619Y-109650504D01*
X104036428Y-110450504D02*
X103579285Y-110450504D01*
X103807857Y-110450504D02*
X103807857Y-109650504D01*
X103731666Y-109764790D01*
X103655476Y-109840980D01*
X103579285Y-109879076D01*
X116271775Y-155202560D02*
X116271775Y-156012084D01*
X116319394Y-156107322D01*
X116367013Y-156154941D01*
X116462251Y-156202560D01*
X116652727Y-156202560D01*
X116747965Y-156154941D01*
X116795584Y-156107322D01*
X116843203Y-156012084D01*
X116843203Y-155202560D01*
X117747965Y-155202560D02*
X117557489Y-155202560D01*
X117462251Y-155250180D01*
X117414632Y-155297799D01*
X117319394Y-155440656D01*
X117271775Y-155631132D01*
X117271775Y-156012084D01*
X117319394Y-156107322D01*
X117367013Y-156154941D01*
X117462251Y-156202560D01*
X117652727Y-156202560D01*
X117747965Y-156154941D01*
X117795584Y-156107322D01*
X117843203Y-156012084D01*
X117843203Y-155773989D01*
X117795584Y-155678751D01*
X117747965Y-155631132D01*
X117652727Y-155583513D01*
X117462251Y-155583513D01*
X117367013Y-155631132D01*
X117319394Y-155678751D01*
X117271775Y-155773989D01*
X127012380Y-147673333D02*
X127726666Y-147673333D01*
X127869523Y-147720952D01*
X127964761Y-147816190D01*
X128012380Y-147959047D01*
X128012380Y-148054285D01*
X128012380Y-146673333D02*
X128012380Y-147244761D01*
X128012380Y-146959047D02*
X127012380Y-146959047D01*
X127155238Y-147054285D01*
X127250476Y-147149523D01*
X127298095Y-147244761D01*
X125611331Y-102914353D02*
X125992283Y-102914353D01*
X125535140Y-103142924D02*
X125801807Y-102342924D01*
X126068474Y-103142924D01*
X126754188Y-103142924D02*
X126297045Y-103142924D01*
X126525617Y-103142924D02*
X126525617Y-102342924D01*
X126449426Y-102457210D01*
X126373236Y-102533400D01*
X126297045Y-102571496D01*
X108978024Y-120336213D02*
X108978024Y-120717165D01*
X108178024Y-120717165D01*
X108978024Y-120031451D02*
X108978024Y-119879070D01*
X108939929Y-119802880D01*
X108901834Y-119764784D01*
X108787548Y-119688594D01*
X108635167Y-119650499D01*
X108330405Y-119650499D01*
X108254215Y-119688594D01*
X108216120Y-119726689D01*
X108178024Y-119802880D01*
X108178024Y-119955260D01*
X108216120Y-120031451D01*
X108254215Y-120069546D01*
X108330405Y-120107641D01*
X108520881Y-120107641D01*
X108597072Y-120069546D01*
X108635167Y-120031451D01*
X108673262Y-119955260D01*
X108673262Y-119802880D01*
X108635167Y-119726689D01*
X108597072Y-119688594D01*
X108520881Y-119650499D01*
X121734982Y-157882782D02*
X121687363Y-157930401D01*
X121544506Y-157978020D01*
X121449268Y-157978020D01*
X121306411Y-157930401D01*
X121211173Y-157835163D01*
X121163554Y-157739925D01*
X121115935Y-157549449D01*
X121115935Y-157406592D01*
X121163554Y-157216116D01*
X121211173Y-157120878D01*
X121306411Y-157025640D01*
X121449268Y-156978020D01*
X121544506Y-156978020D01*
X121687363Y-157025640D01*
X121734982Y-157073259D01*
X122068316Y-156978020D02*
X122687363Y-156978020D01*
X122354030Y-157358973D01*
X122496887Y-157358973D01*
X122592125Y-157406592D01*
X122639744Y-157454211D01*
X122687363Y-157549449D01*
X122687363Y-157787544D01*
X122639744Y-157882782D01*
X122592125Y-157930401D01*
X122496887Y-157978020D01*
X122211173Y-157978020D01*
X122115935Y-157930401D01*
X122068316Y-157882782D01*
X123258792Y-157406592D02*
X123163554Y-157358973D01*
X123115935Y-157311354D01*
X123068316Y-157216116D01*
X123068316Y-157168497D01*
X123115935Y-157073259D01*
X123163554Y-157025640D01*
X123258792Y-156978020D01*
X123449268Y-156978020D01*
X123544506Y-157025640D01*
X123592125Y-157073259D01*
X123639744Y-157168497D01*
X123639744Y-157216116D01*
X123592125Y-157311354D01*
X123544506Y-157358973D01*
X123449268Y-157406592D01*
X123258792Y-157406592D01*
X123163554Y-157454211D01*
X123115935Y-157501830D01*
X123068316Y-157597068D01*
X123068316Y-157787544D01*
X123115935Y-157882782D01*
X123163554Y-157930401D01*
X123258792Y-157978020D01*
X123449268Y-157978020D01*
X123544506Y-157930401D01*
X123592125Y-157882782D01*
X123639744Y-157787544D01*
X123639744Y-157597068D01*
X123592125Y-157501830D01*
X123544506Y-157454211D01*
X123449268Y-157406592D01*
X119436282Y-157738002D02*
X119388663Y-157785621D01*
X119245806Y-157833240D01*
X119150568Y-157833240D01*
X119007711Y-157785621D01*
X118912473Y-157690383D01*
X118864854Y-157595145D01*
X118817235Y-157404669D01*
X118817235Y-157261812D01*
X118864854Y-157071336D01*
X118912473Y-156976098D01*
X119007711Y-156880860D01*
X119150568Y-156833240D01*
X119245806Y-156833240D01*
X119388663Y-156880860D01*
X119436282Y-156928479D01*
X119769616Y-156833240D02*
X120388663Y-156833240D01*
X120055330Y-157214193D01*
X120198187Y-157214193D01*
X120293425Y-157261812D01*
X120341044Y-157309431D01*
X120388663Y-157404669D01*
X120388663Y-157642764D01*
X120341044Y-157738002D01*
X120293425Y-157785621D01*
X120198187Y-157833240D01*
X119912473Y-157833240D01*
X119817235Y-157785621D01*
X119769616Y-157738002D01*
X120721997Y-156833240D02*
X121388663Y-156833240D01*
X120960092Y-157833240D01*
X110357966Y-159114160D02*
X110357966Y-159828446D01*
X110310347Y-159971303D01*
X110215109Y-160066541D01*
X110072252Y-160114160D01*
X109977014Y-160114160D01*
X110786538Y-159209399D02*
X110834157Y-159161780D01*
X110929395Y-159114160D01*
X111167490Y-159114160D01*
X111262728Y-159161780D01*
X111310347Y-159209399D01*
X111357966Y-159304637D01*
X111357966Y-159399875D01*
X111310347Y-159542732D01*
X110738919Y-160114160D01*
X111357966Y-160114160D01*
X113109142Y-156191142D02*
X113061523Y-156238761D01*
X112918666Y-156286380D01*
X112823428Y-156286380D01*
X112680571Y-156238761D01*
X112585333Y-156143523D01*
X112537714Y-156048285D01*
X112490095Y-155857809D01*
X112490095Y-155714952D01*
X112537714Y-155524476D01*
X112585333Y-155429238D01*
X112680571Y-155334000D01*
X112823428Y-155286380D01*
X112918666Y-155286380D01*
X113061523Y-155334000D01*
X113109142Y-155381619D01*
X113442476Y-155286380D02*
X114061523Y-155286380D01*
X113728190Y-155667333D01*
X113871047Y-155667333D01*
X113966285Y-155714952D01*
X114013904Y-155762571D01*
X114061523Y-155857809D01*
X114061523Y-156095904D01*
X114013904Y-156191142D01*
X113966285Y-156238761D01*
X113871047Y-156286380D01*
X113585333Y-156286380D01*
X113490095Y-156238761D01*
X113442476Y-156191142D01*
X114918666Y-155286380D02*
X114728190Y-155286380D01*
X114632952Y-155334000D01*
X114585333Y-155381619D01*
X114490095Y-155524476D01*
X114442476Y-155714952D01*
X114442476Y-156095904D01*
X114490095Y-156191142D01*
X114537714Y-156238761D01*
X114632952Y-156286380D01*
X114823428Y-156286380D01*
X114918666Y-156238761D01*
X114966285Y-156191142D01*
X115013904Y-156095904D01*
X115013904Y-155857809D01*
X114966285Y-155762571D01*
X114918666Y-155714952D01*
X114823428Y-155667333D01*
X114632952Y-155667333D01*
X114537714Y-155714952D01*
X114490095Y-155762571D01*
X114442476Y-155857809D01*
D13*
X117719990Y-151585481D02*
X118219990Y-151252148D01*
X117719990Y-151252148D02*
X118219990Y-151585481D01*
X117767609Y-151085481D02*
X117743800Y-151061672D01*
X117719990Y-151014053D01*
X117719990Y-150895005D01*
X117743800Y-150847386D01*
X117767609Y-150823577D01*
X117815228Y-150799767D01*
X117862847Y-150799767D01*
X117934276Y-150823577D01*
X118219990Y-151109291D01*
X118219990Y-150799767D01*
D10*
X110552924Y-149461063D02*
X111200543Y-149461063D01*
X111276734Y-149422968D01*
X111314829Y-149384873D01*
X111352924Y-149308682D01*
X111352924Y-149156301D01*
X111314829Y-149080111D01*
X111276734Y-149042016D01*
X111200543Y-149003920D01*
X110552924Y-149003920D01*
X110552924Y-148242016D02*
X110552924Y-148622968D01*
X110933877Y-148661063D01*
X110895781Y-148622968D01*
X110857686Y-148546778D01*
X110857686Y-148356301D01*
X110895781Y-148280111D01*
X110933877Y-148242016D01*
X111010067Y-148203920D01*
X111200543Y-148203920D01*
X111276734Y-148242016D01*
X111314829Y-148280111D01*
X111352924Y-148356301D01*
X111352924Y-148546778D01*
X111314829Y-148622968D01*
X111276734Y-148661063D01*
X107014604Y-122972733D02*
X107014604Y-123353685D01*
X106214604Y-123353685D01*
X106290795Y-122744161D02*
X106252700Y-122706066D01*
X106214604Y-122629876D01*
X106214604Y-122439400D01*
X106252700Y-122363209D01*
X106290795Y-122325114D01*
X106366985Y-122287019D01*
X106443176Y-122287019D01*
X106557461Y-122325114D01*
X107014604Y-122782257D01*
X107014604Y-122287019D01*
X114825166Y-118095914D02*
X114787071Y-118134009D01*
X114672785Y-118172104D01*
X114596595Y-118172104D01*
X114482309Y-118134009D01*
X114406119Y-118057819D01*
X114368023Y-117981628D01*
X114329928Y-117829247D01*
X114329928Y-117714961D01*
X114368023Y-117562580D01*
X114406119Y-117486390D01*
X114482309Y-117410200D01*
X114596595Y-117372104D01*
X114672785Y-117372104D01*
X114787071Y-117410200D01*
X114825166Y-117448295D01*
X115587071Y-118172104D02*
X115129928Y-118172104D01*
X115358500Y-118172104D02*
X115358500Y-117372104D01*
X115282309Y-117486390D01*
X115206119Y-117562580D01*
X115129928Y-117600676D01*
X105300114Y-124293533D02*
X105338209Y-124331628D01*
X105376304Y-124445914D01*
X105376304Y-124522104D01*
X105338209Y-124636390D01*
X105262019Y-124712580D01*
X105185828Y-124750676D01*
X105033447Y-124788771D01*
X104919161Y-124788771D01*
X104766780Y-124750676D01*
X104690590Y-124712580D01*
X104614400Y-124636390D01*
X104576304Y-124522104D01*
X104576304Y-124445914D01*
X104614400Y-124331628D01*
X104652495Y-124293533D01*
X104652495Y-123988771D02*
X104614400Y-123950676D01*
X104576304Y-123874485D01*
X104576304Y-123684009D01*
X104614400Y-123607819D01*
X104652495Y-123569723D01*
X104728685Y-123531628D01*
X104804876Y-123531628D01*
X104919161Y-123569723D01*
X105376304Y-124026866D01*
X105376304Y-123531628D01*
X114710649Y-119732112D02*
X114710649Y-119785987D01*
X114656774Y-119893736D01*
X114602899Y-119947611D01*
X114495150Y-120001486D01*
X114387400Y-120001486D01*
X114306588Y-119974549D01*
X114171901Y-119893736D01*
X114091089Y-119812924D01*
X114010277Y-119678237D01*
X113983339Y-119597425D01*
X113983339Y-119489675D01*
X114037214Y-119381926D01*
X114091089Y-119328051D01*
X114198838Y-119274176D01*
X114252713Y-119274176D01*
X114387400Y-119031739D02*
X114737587Y-118681553D01*
X114764524Y-119085614D01*
X114845336Y-119004802D01*
X114926148Y-118977865D01*
X114980023Y-118977865D01*
X115060835Y-119004802D01*
X115195522Y-119139489D01*
X115222460Y-119220301D01*
X115222460Y-119274176D01*
X115195522Y-119354988D01*
X115033898Y-119516613D01*
X114953086Y-119543550D01*
X114899211Y-119543550D01*
X104055514Y-123455333D02*
X104093609Y-123493428D01*
X104131704Y-123607714D01*
X104131704Y-123683904D01*
X104093609Y-123798190D01*
X104017419Y-123874380D01*
X103941228Y-123912476D01*
X103788847Y-123950571D01*
X103674561Y-123950571D01*
X103522180Y-123912476D01*
X103445990Y-123874380D01*
X103369800Y-123798190D01*
X103331704Y-123683904D01*
X103331704Y-123607714D01*
X103369800Y-123493428D01*
X103407895Y-123455333D01*
X103598371Y-122769619D02*
X104131704Y-122769619D01*
X103293609Y-122960095D02*
X103865038Y-123150571D01*
X103865038Y-122655333D01*
X105503366Y-131011814D02*
X105465271Y-131049909D01*
X105350985Y-131088004D01*
X105274795Y-131088004D01*
X105160509Y-131049909D01*
X105084319Y-130973719D01*
X105046223Y-130897528D01*
X105008128Y-130745147D01*
X105008128Y-130630861D01*
X105046223Y-130478480D01*
X105084319Y-130402290D01*
X105160509Y-130326100D01*
X105274795Y-130288004D01*
X105350985Y-130288004D01*
X105465271Y-130326100D01*
X105503366Y-130364195D01*
X106227176Y-130288004D02*
X105846223Y-130288004D01*
X105808128Y-130668957D01*
X105846223Y-130630861D01*
X105922414Y-130592766D01*
X106112890Y-130592766D01*
X106189080Y-130630861D01*
X106227176Y-130668957D01*
X106265271Y-130745147D01*
X106265271Y-130935623D01*
X106227176Y-131011814D01*
X106189080Y-131049909D01*
X106112890Y-131088004D01*
X105922414Y-131088004D01*
X105846223Y-131049909D01*
X105808128Y-131011814D01*
X116186862Y-107893066D02*
X116234481Y-107940685D01*
X116282100Y-108083542D01*
X116282100Y-108178780D01*
X116234481Y-108321638D01*
X116139243Y-108416876D01*
X116044005Y-108464495D01*
X115853529Y-108512114D01*
X115710672Y-108512114D01*
X115520196Y-108464495D01*
X115424958Y-108416876D01*
X115329720Y-108321638D01*
X115282100Y-108178780D01*
X115282100Y-108083542D01*
X115329720Y-107940685D01*
X115377339Y-107893066D01*
X115282100Y-107035923D02*
X115282100Y-107226400D01*
X115329720Y-107321638D01*
X115377339Y-107369257D01*
X115520196Y-107464495D01*
X115710672Y-107512114D01*
X116091624Y-107512114D01*
X116186862Y-107464495D01*
X116234481Y-107416876D01*
X116282100Y-107321638D01*
X116282100Y-107131161D01*
X116234481Y-107035923D01*
X116186862Y-106988304D01*
X116091624Y-106940685D01*
X115853529Y-106940685D01*
X115758291Y-106988304D01*
X115710672Y-107035923D01*
X115663053Y-107131161D01*
X115663053Y-107321638D01*
X115710672Y-107416876D01*
X115758291Y-107464495D01*
X115853529Y-107512114D01*
X104830266Y-122045614D02*
X104792171Y-122083709D01*
X104677885Y-122121804D01*
X104601695Y-122121804D01*
X104487409Y-122083709D01*
X104411219Y-122007519D01*
X104373123Y-121931328D01*
X104335028Y-121778947D01*
X104335028Y-121664661D01*
X104373123Y-121512280D01*
X104411219Y-121436090D01*
X104487409Y-121359900D01*
X104601695Y-121321804D01*
X104677885Y-121321804D01*
X104792171Y-121359900D01*
X104830266Y-121397995D01*
X105096933Y-121321804D02*
X105630266Y-121321804D01*
X105287409Y-122121804D01*
X105528766Y-132065914D02*
X105490671Y-132104009D01*
X105376385Y-132142104D01*
X105300195Y-132142104D01*
X105185909Y-132104009D01*
X105109719Y-132027819D01*
X105071623Y-131951628D01*
X105033528Y-131799247D01*
X105033528Y-131684961D01*
X105071623Y-131532580D01*
X105109719Y-131456390D01*
X105185909Y-131380200D01*
X105300195Y-131342104D01*
X105376385Y-131342104D01*
X105490671Y-131380200D01*
X105528766Y-131418295D01*
X105985909Y-131684961D02*
X105909719Y-131646866D01*
X105871623Y-131608771D01*
X105833528Y-131532580D01*
X105833528Y-131494485D01*
X105871623Y-131418295D01*
X105909719Y-131380200D01*
X105985909Y-131342104D01*
X106138290Y-131342104D01*
X106214480Y-131380200D01*
X106252576Y-131418295D01*
X106290671Y-131494485D01*
X106290671Y-131532580D01*
X106252576Y-131608771D01*
X106214480Y-131646866D01*
X106138290Y-131684961D01*
X105985909Y-131684961D01*
X105909719Y-131723057D01*
X105871623Y-131761152D01*
X105833528Y-131837342D01*
X105833528Y-131989723D01*
X105871623Y-132065914D01*
X105909719Y-132104009D01*
X105985909Y-132142104D01*
X106138290Y-132142104D01*
X106214480Y-132104009D01*
X106252576Y-132065914D01*
X106290671Y-131989723D01*
X106290671Y-131837342D01*
X106252576Y-131761152D01*
X106214480Y-131723057D01*
X106138290Y-131684961D01*
X104792166Y-123125114D02*
X104754071Y-123163209D01*
X104639785Y-123201304D01*
X104563595Y-123201304D01*
X104449309Y-123163209D01*
X104373119Y-123087019D01*
X104335023Y-123010828D01*
X104296928Y-122858447D01*
X104296928Y-122744161D01*
X104335023Y-122591780D01*
X104373119Y-122515590D01*
X104449309Y-122439400D01*
X104563595Y-122401304D01*
X104639785Y-122401304D01*
X104754071Y-122439400D01*
X104792166Y-122477495D01*
X105173119Y-123201304D02*
X105325500Y-123201304D01*
X105401690Y-123163209D01*
X105439785Y-123125114D01*
X105515976Y-123010828D01*
X105554071Y-122858447D01*
X105554071Y-122553685D01*
X105515976Y-122477495D01*
X105477880Y-122439400D01*
X105401690Y-122401304D01*
X105249309Y-122401304D01*
X105173119Y-122439400D01*
X105135023Y-122477495D01*
X105096928Y-122553685D01*
X105096928Y-122744161D01*
X105135023Y-122820352D01*
X105173119Y-122858447D01*
X105249309Y-122896542D01*
X105401690Y-122896542D01*
X105477880Y-122858447D01*
X105515976Y-122820352D01*
X105554071Y-122744161D01*
X117284142Y-137122057D02*
X117331761Y-137169676D01*
X117379380Y-137312533D01*
X117379380Y-137407771D01*
X117331761Y-137550628D01*
X117236523Y-137645866D01*
X117141285Y-137693485D01*
X116950809Y-137741104D01*
X116807952Y-137741104D01*
X116617476Y-137693485D01*
X116522238Y-137645866D01*
X116427000Y-137550628D01*
X116379380Y-137407771D01*
X116379380Y-137312533D01*
X116427000Y-137169676D01*
X116474619Y-137122057D01*
X117379380Y-136169676D02*
X117379380Y-136741104D01*
X117379380Y-136455390D02*
X116379380Y-136455390D01*
X116522238Y-136550628D01*
X116617476Y-136645866D01*
X116665095Y-136741104D01*
X116379380Y-135550628D02*
X116379380Y-135455390D01*
X116427000Y-135360152D01*
X116474619Y-135312533D01*
X116569857Y-135264914D01*
X116760333Y-135217295D01*
X116998428Y-135217295D01*
X117188904Y-135264914D01*
X117284142Y-135312533D01*
X117331761Y-135360152D01*
X117379380Y-135455390D01*
X117379380Y-135550628D01*
X117331761Y-135645866D01*
X117284142Y-135693485D01*
X117188904Y-135741104D01*
X116998428Y-135788723D01*
X116760333Y-135788723D01*
X116569857Y-135741104D01*
X116474619Y-135693485D01*
X116427000Y-135645866D01*
X116379380Y-135550628D01*
X118658282Y-108176217D02*
X118705901Y-108223836D01*
X118753520Y-108366693D01*
X118753520Y-108461931D01*
X118705901Y-108604788D01*
X118610663Y-108700026D01*
X118515425Y-108747645D01*
X118324949Y-108795264D01*
X118182092Y-108795264D01*
X117991616Y-108747645D01*
X117896378Y-108700026D01*
X117801140Y-108604788D01*
X117753520Y-108461931D01*
X117753520Y-108366693D01*
X117801140Y-108223836D01*
X117848759Y-108176217D01*
X118753520Y-107223836D02*
X118753520Y-107795264D01*
X118753520Y-107509550D02*
X117753520Y-107509550D01*
X117896378Y-107604788D01*
X117991616Y-107700026D01*
X118039235Y-107795264D01*
X118753520Y-106271455D02*
X118753520Y-106842883D01*
X118753520Y-106557169D02*
X117753520Y-106557169D01*
X117896378Y-106652407D01*
X117991616Y-106747645D01*
X118039235Y-106842883D01*
X119999402Y-108199077D02*
X120047021Y-108246696D01*
X120094640Y-108389553D01*
X120094640Y-108484791D01*
X120047021Y-108627648D01*
X119951783Y-108722886D01*
X119856545Y-108770505D01*
X119666069Y-108818124D01*
X119523212Y-108818124D01*
X119332736Y-108770505D01*
X119237498Y-108722886D01*
X119142260Y-108627648D01*
X119094640Y-108484791D01*
X119094640Y-108389553D01*
X119142260Y-108246696D01*
X119189879Y-108199077D01*
X120094640Y-107246696D02*
X120094640Y-107818124D01*
X120094640Y-107532410D02*
X119094640Y-107532410D01*
X119237498Y-107627648D01*
X119332736Y-107722886D01*
X119380355Y-107818124D01*
X119189879Y-106865743D02*
X119142260Y-106818124D01*
X119094640Y-106722886D01*
X119094640Y-106484791D01*
X119142260Y-106389553D01*
X119189879Y-106341934D01*
X119285117Y-106294315D01*
X119380355Y-106294315D01*
X119523212Y-106341934D01*
X120094640Y-106913362D01*
X120094640Y-106294315D01*
X120636942Y-111297877D02*
X120684561Y-111345496D01*
X120732180Y-111488353D01*
X120732180Y-111583591D01*
X120684561Y-111726448D01*
X120589323Y-111821686D01*
X120494085Y-111869305D01*
X120303609Y-111916924D01*
X120160752Y-111916924D01*
X119970276Y-111869305D01*
X119875038Y-111821686D01*
X119779800Y-111726448D01*
X119732180Y-111583591D01*
X119732180Y-111488353D01*
X119779800Y-111345496D01*
X119827419Y-111297877D01*
X120732180Y-110345496D02*
X120732180Y-110916924D01*
X120732180Y-110631210D02*
X119732180Y-110631210D01*
X119875038Y-110726448D01*
X119970276Y-110821686D01*
X120017895Y-110916924D01*
X119732180Y-110012162D02*
X119732180Y-109393115D01*
X120113133Y-109726448D01*
X120113133Y-109583591D01*
X120160752Y-109488353D01*
X120208371Y-109440734D01*
X120303609Y-109393115D01*
X120541704Y-109393115D01*
X120636942Y-109440734D01*
X120684561Y-109488353D01*
X120732180Y-109583591D01*
X120732180Y-109869305D01*
X120684561Y-109964543D01*
X120636942Y-110012162D01*
X123092814Y-122807585D02*
X123130909Y-122845680D01*
X123169004Y-122959966D01*
X123169004Y-123036157D01*
X123130909Y-123150442D01*
X123054719Y-123226633D01*
X122978528Y-123264728D01*
X122826147Y-123302823D01*
X122711861Y-123302823D01*
X122559480Y-123264728D01*
X122483290Y-123226633D01*
X122407100Y-123150442D01*
X122369004Y-123036157D01*
X122369004Y-122959966D01*
X122407100Y-122845680D01*
X122445195Y-122807585D01*
X123169004Y-122045680D02*
X123169004Y-122502823D01*
X123169004Y-122274252D02*
X122369004Y-122274252D01*
X122483290Y-122350442D01*
X122559480Y-122426633D01*
X122597576Y-122502823D01*
X122635671Y-121359966D02*
X123169004Y-121359966D01*
X122330909Y-121550442D02*
X122902338Y-121740919D01*
X122902338Y-121245680D01*
X122102314Y-124547514D02*
X122064219Y-124585609D01*
X121949933Y-124623704D01*
X121873742Y-124623704D01*
X121759457Y-124585609D01*
X121683266Y-124509419D01*
X121645171Y-124433228D01*
X121607076Y-124280847D01*
X121607076Y-124166561D01*
X121645171Y-124014180D01*
X121683266Y-123937990D01*
X121759457Y-123861800D01*
X121873742Y-123823704D01*
X121949933Y-123823704D01*
X122064219Y-123861800D01*
X122102314Y-123899895D01*
X122864219Y-124623704D02*
X122407076Y-124623704D01*
X122635647Y-124623704D02*
X122635647Y-123823704D01*
X122559457Y-123937990D01*
X122483266Y-124014180D01*
X122407076Y-124052276D01*
X123588028Y-123823704D02*
X123207076Y-123823704D01*
X123168980Y-124204657D01*
X123207076Y-124166561D01*
X123283266Y-124128466D01*
X123473742Y-124128466D01*
X123549933Y-124166561D01*
X123588028Y-124204657D01*
X123626123Y-124280847D01*
X123626123Y-124471323D01*
X123588028Y-124547514D01*
X123549933Y-124585609D01*
X123473742Y-124623704D01*
X123283266Y-124623704D01*
X123207076Y-124585609D01*
X123168980Y-124547514D01*
X119758102Y-125273377D02*
X119805721Y-125320996D01*
X119853340Y-125463853D01*
X119853340Y-125559091D01*
X119805721Y-125701948D01*
X119710483Y-125797186D01*
X119615245Y-125844805D01*
X119424769Y-125892424D01*
X119281912Y-125892424D01*
X119091436Y-125844805D01*
X118996198Y-125797186D01*
X118900960Y-125701948D01*
X118853340Y-125559091D01*
X118853340Y-125463853D01*
X118900960Y-125320996D01*
X118948579Y-125273377D01*
X119853340Y-124320996D02*
X119853340Y-124892424D01*
X119853340Y-124606710D02*
X118853340Y-124606710D01*
X118996198Y-124701948D01*
X119091436Y-124797186D01*
X119139055Y-124892424D01*
X118853340Y-123463853D02*
X118853340Y-123654329D01*
X118900960Y-123749567D01*
X118948579Y-123797186D01*
X119091436Y-123892424D01*
X119281912Y-123940043D01*
X119662864Y-123940043D01*
X119758102Y-123892424D01*
X119805721Y-123844805D01*
X119853340Y-123749567D01*
X119853340Y-123559091D01*
X119805721Y-123463853D01*
X119758102Y-123416234D01*
X119662864Y-123368615D01*
X119424769Y-123368615D01*
X119329531Y-123416234D01*
X119281912Y-123463853D01*
X119234293Y-123559091D01*
X119234293Y-123749567D01*
X119281912Y-123844805D01*
X119329531Y-123892424D01*
X119424769Y-123940043D01*
X104563514Y-131138785D02*
X104601609Y-131176880D01*
X104639704Y-131291166D01*
X104639704Y-131367357D01*
X104601609Y-131481642D01*
X104525419Y-131557833D01*
X104449228Y-131595928D01*
X104296847Y-131634023D01*
X104182561Y-131634023D01*
X104030180Y-131595928D01*
X103953990Y-131557833D01*
X103877800Y-131481642D01*
X103839704Y-131367357D01*
X103839704Y-131291166D01*
X103877800Y-131176880D01*
X103915895Y-131138785D01*
X104639704Y-130376880D02*
X104639704Y-130834023D01*
X104639704Y-130605452D02*
X103839704Y-130605452D01*
X103953990Y-130681642D01*
X104030180Y-130757833D01*
X104068276Y-130834023D01*
X103839704Y-130110214D02*
X103839704Y-129576880D01*
X104639704Y-129919738D01*
X104385814Y-137831714D02*
X104347719Y-137869809D01*
X104233433Y-137907904D01*
X104157242Y-137907904D01*
X104042957Y-137869809D01*
X103966766Y-137793619D01*
X103928671Y-137717428D01*
X103890576Y-137565047D01*
X103890576Y-137450761D01*
X103928671Y-137298380D01*
X103966766Y-137222190D01*
X104042957Y-137146000D01*
X104157242Y-137107904D01*
X104233433Y-137107904D01*
X104347719Y-137146000D01*
X104385814Y-137184095D01*
X105147719Y-137907904D02*
X104690576Y-137907904D01*
X104919147Y-137907904D02*
X104919147Y-137107904D01*
X104842957Y-137222190D01*
X104766766Y-137298380D01*
X104690576Y-137336476D01*
X105604861Y-137450761D02*
X105528671Y-137412666D01*
X105490576Y-137374571D01*
X105452480Y-137298380D01*
X105452480Y-137260285D01*
X105490576Y-137184095D01*
X105528671Y-137146000D01*
X105604861Y-137107904D01*
X105757242Y-137107904D01*
X105833433Y-137146000D01*
X105871528Y-137184095D01*
X105909623Y-137260285D01*
X105909623Y-137298380D01*
X105871528Y-137374571D01*
X105833433Y-137412666D01*
X105757242Y-137450761D01*
X105604861Y-137450761D01*
X105528671Y-137488857D01*
X105490576Y-137526952D01*
X105452480Y-137603142D01*
X105452480Y-137755523D01*
X105490576Y-137831714D01*
X105528671Y-137869809D01*
X105604861Y-137907904D01*
X105757242Y-137907904D01*
X105833433Y-137869809D01*
X105871528Y-137831714D01*
X105909623Y-137755523D01*
X105909623Y-137603142D01*
X105871528Y-137526952D01*
X105833433Y-137488857D01*
X105757242Y-137450761D01*
X119493942Y-131762657D02*
X119541561Y-131810276D01*
X119589180Y-131953133D01*
X119589180Y-132048371D01*
X119541561Y-132191228D01*
X119446323Y-132286466D01*
X119351085Y-132334085D01*
X119160609Y-132381704D01*
X119017752Y-132381704D01*
X118827276Y-132334085D01*
X118732038Y-132286466D01*
X118636800Y-132191228D01*
X118589180Y-132048371D01*
X118589180Y-131953133D01*
X118636800Y-131810276D01*
X118684419Y-131762657D01*
X119589180Y-130810276D02*
X119589180Y-131381704D01*
X119589180Y-131095990D02*
X118589180Y-131095990D01*
X118732038Y-131191228D01*
X118827276Y-131286466D01*
X118874895Y-131381704D01*
X119589180Y-130334085D02*
X119589180Y-130143609D01*
X119541561Y-130048371D01*
X119493942Y-130000752D01*
X119351085Y-129905514D01*
X119160609Y-129857895D01*
X118779657Y-129857895D01*
X118684419Y-129905514D01*
X118636800Y-129953133D01*
X118589180Y-130048371D01*
X118589180Y-130238847D01*
X118636800Y-130334085D01*
X118684419Y-130381704D01*
X118779657Y-130429323D01*
X119017752Y-130429323D01*
X119112990Y-130381704D01*
X119160609Y-130334085D01*
X119208228Y-130238847D01*
X119208228Y-130048371D01*
X119160609Y-129953133D01*
X119112990Y-129905514D01*
X119017752Y-129857895D01*
X106582914Y-121842414D02*
X106544819Y-121880509D01*
X106430533Y-121918604D01*
X106354342Y-121918604D01*
X106240057Y-121880509D01*
X106163866Y-121804319D01*
X106125771Y-121728128D01*
X106087676Y-121575747D01*
X106087676Y-121461461D01*
X106125771Y-121309080D01*
X106163866Y-121232890D01*
X106240057Y-121156700D01*
X106354342Y-121118604D01*
X106430533Y-121118604D01*
X106544819Y-121156700D01*
X106582914Y-121194795D01*
X106887676Y-121194795D02*
X106925771Y-121156700D01*
X107001961Y-121118604D01*
X107192438Y-121118604D01*
X107268628Y-121156700D01*
X107306723Y-121194795D01*
X107344819Y-121270985D01*
X107344819Y-121347176D01*
X107306723Y-121461461D01*
X106849580Y-121918604D01*
X107344819Y-121918604D01*
X107840057Y-121118604D02*
X107916247Y-121118604D01*
X107992438Y-121156700D01*
X108030533Y-121194795D01*
X108068628Y-121270985D01*
X108106723Y-121423366D01*
X108106723Y-121613842D01*
X108068628Y-121766223D01*
X108030533Y-121842414D01*
X107992438Y-121880509D01*
X107916247Y-121918604D01*
X107840057Y-121918604D01*
X107763866Y-121880509D01*
X107725771Y-121842414D01*
X107687676Y-121766223D01*
X107649580Y-121613842D01*
X107649580Y-121423366D01*
X107687676Y-121270985D01*
X107725771Y-121194795D01*
X107763866Y-121156700D01*
X107840057Y-121118604D01*
X120700442Y-131762657D02*
X120748061Y-131810276D01*
X120795680Y-131953133D01*
X120795680Y-132048371D01*
X120748061Y-132191228D01*
X120652823Y-132286466D01*
X120557585Y-132334085D01*
X120367109Y-132381704D01*
X120224252Y-132381704D01*
X120033776Y-132334085D01*
X119938538Y-132286466D01*
X119843300Y-132191228D01*
X119795680Y-132048371D01*
X119795680Y-131953133D01*
X119843300Y-131810276D01*
X119890919Y-131762657D01*
X119890919Y-131381704D02*
X119843300Y-131334085D01*
X119795680Y-131238847D01*
X119795680Y-131000752D01*
X119843300Y-130905514D01*
X119890919Y-130857895D01*
X119986157Y-130810276D01*
X120081395Y-130810276D01*
X120224252Y-130857895D01*
X120795680Y-131429323D01*
X120795680Y-130810276D01*
X120795680Y-129857895D02*
X120795680Y-130429323D01*
X120795680Y-130143609D02*
X119795680Y-130143609D01*
X119938538Y-130238847D01*
X120033776Y-130334085D01*
X120081395Y-130429323D01*
X109630814Y-125309485D02*
X109668909Y-125347580D01*
X109707004Y-125461866D01*
X109707004Y-125538057D01*
X109668909Y-125652342D01*
X109592719Y-125728533D01*
X109516528Y-125766628D01*
X109364147Y-125804723D01*
X109249861Y-125804723D01*
X109097480Y-125766628D01*
X109021290Y-125728533D01*
X108945100Y-125652342D01*
X108907004Y-125538057D01*
X108907004Y-125461866D01*
X108945100Y-125347580D01*
X108983195Y-125309485D01*
X108983195Y-125004723D02*
X108945100Y-124966628D01*
X108907004Y-124890438D01*
X108907004Y-124699961D01*
X108945100Y-124623771D01*
X108983195Y-124585676D01*
X109059385Y-124547580D01*
X109135576Y-124547580D01*
X109249861Y-124585676D01*
X109707004Y-125042819D01*
X109707004Y-124547580D01*
X108983195Y-124242819D02*
X108945100Y-124204723D01*
X108907004Y-124128533D01*
X108907004Y-123938057D01*
X108945100Y-123861866D01*
X108983195Y-123823771D01*
X109059385Y-123785676D01*
X109135576Y-123785676D01*
X109249861Y-123823771D01*
X109707004Y-124280914D01*
X109707004Y-123785676D01*
X112628114Y-124407814D02*
X112590019Y-124445909D01*
X112475733Y-124484004D01*
X112399542Y-124484004D01*
X112285257Y-124445909D01*
X112209066Y-124369719D01*
X112170971Y-124293528D01*
X112132876Y-124141147D01*
X112132876Y-124026861D01*
X112170971Y-123874480D01*
X112209066Y-123798290D01*
X112285257Y-123722100D01*
X112399542Y-123684004D01*
X112475733Y-123684004D01*
X112590019Y-123722100D01*
X112628114Y-123760195D01*
X112932876Y-123760195D02*
X112970971Y-123722100D01*
X113047161Y-123684004D01*
X113237638Y-123684004D01*
X113313828Y-123722100D01*
X113351923Y-123760195D01*
X113390019Y-123836385D01*
X113390019Y-123912576D01*
X113351923Y-124026861D01*
X112894780Y-124484004D01*
X113390019Y-124484004D01*
X113656685Y-123684004D02*
X114151923Y-123684004D01*
X113885257Y-123988766D01*
X113999542Y-123988766D01*
X114075733Y-124026861D01*
X114113828Y-124064957D01*
X114151923Y-124141147D01*
X114151923Y-124331623D01*
X114113828Y-124407814D01*
X114075733Y-124445909D01*
X113999542Y-124484004D01*
X113770971Y-124484004D01*
X113694780Y-124445909D01*
X113656685Y-124407814D01*
X115632834Y-124664325D02*
X115670929Y-124702420D01*
X115709024Y-124816706D01*
X115709024Y-124892897D01*
X115670929Y-125007182D01*
X115594739Y-125083373D01*
X115518548Y-125121468D01*
X115366167Y-125159563D01*
X115251881Y-125159563D01*
X115099500Y-125121468D01*
X115023310Y-125083373D01*
X114947120Y-125007182D01*
X114909024Y-124892897D01*
X114909024Y-124816706D01*
X114947120Y-124702420D01*
X114985215Y-124664325D01*
X114985215Y-124359563D02*
X114947120Y-124321468D01*
X114909024Y-124245278D01*
X114909024Y-124054801D01*
X114947120Y-123978611D01*
X114985215Y-123940516D01*
X115061405Y-123902420D01*
X115137596Y-123902420D01*
X115251881Y-123940516D01*
X115709024Y-124397659D01*
X115709024Y-123902420D01*
X115175691Y-123216706D02*
X115709024Y-123216706D01*
X114870929Y-123407182D02*
X115442358Y-123597659D01*
X115442358Y-123102420D01*
X111497814Y-122058314D02*
X111459719Y-122096409D01*
X111345433Y-122134504D01*
X111269242Y-122134504D01*
X111154957Y-122096409D01*
X111078766Y-122020219D01*
X111040671Y-121944028D01*
X111002576Y-121791647D01*
X111002576Y-121677361D01*
X111040671Y-121524980D01*
X111078766Y-121448790D01*
X111154957Y-121372600D01*
X111269242Y-121334504D01*
X111345433Y-121334504D01*
X111459719Y-121372600D01*
X111497814Y-121410695D01*
X111802576Y-121410695D02*
X111840671Y-121372600D01*
X111916861Y-121334504D01*
X112107338Y-121334504D01*
X112183528Y-121372600D01*
X112221623Y-121410695D01*
X112259719Y-121486885D01*
X112259719Y-121563076D01*
X112221623Y-121677361D01*
X111764480Y-122134504D01*
X112259719Y-122134504D01*
X112983528Y-121334504D02*
X112602576Y-121334504D01*
X112564480Y-121715457D01*
X112602576Y-121677361D01*
X112678766Y-121639266D01*
X112869242Y-121639266D01*
X112945433Y-121677361D01*
X112983528Y-121715457D01*
X113021623Y-121791647D01*
X113021623Y-121982123D01*
X112983528Y-122058314D01*
X112945433Y-122096409D01*
X112869242Y-122134504D01*
X112678766Y-122134504D01*
X112602576Y-122096409D01*
X112564480Y-122058314D01*
X112348614Y-119492885D02*
X112386709Y-119530980D01*
X112424804Y-119645266D01*
X112424804Y-119721457D01*
X112386709Y-119835742D01*
X112310519Y-119911933D01*
X112234328Y-119950028D01*
X112081947Y-119988123D01*
X111967661Y-119988123D01*
X111815280Y-119950028D01*
X111739090Y-119911933D01*
X111662900Y-119835742D01*
X111624804Y-119721457D01*
X111624804Y-119645266D01*
X111662900Y-119530980D01*
X111700995Y-119492885D01*
X111700995Y-119188123D02*
X111662900Y-119150028D01*
X111624804Y-119073838D01*
X111624804Y-118883361D01*
X111662900Y-118807171D01*
X111700995Y-118769076D01*
X111777185Y-118730980D01*
X111853376Y-118730980D01*
X111967661Y-118769076D01*
X112424804Y-119226219D01*
X112424804Y-118730980D01*
X111624804Y-118045266D02*
X111624804Y-118197647D01*
X111662900Y-118273838D01*
X111700995Y-118311933D01*
X111815280Y-118388123D01*
X111967661Y-118426219D01*
X112272423Y-118426219D01*
X112348614Y-118388123D01*
X112386709Y-118350028D01*
X112424804Y-118273838D01*
X112424804Y-118121457D01*
X112386709Y-118045266D01*
X112348614Y-118007171D01*
X112272423Y-117969076D01*
X112081947Y-117969076D01*
X112005757Y-118007171D01*
X111967661Y-118045266D01*
X111929566Y-118121457D01*
X111929566Y-118273838D01*
X111967661Y-118350028D01*
X112005757Y-118388123D01*
X112081947Y-118426219D01*
X107751314Y-115619414D02*
X107713219Y-115657509D01*
X107598933Y-115695604D01*
X107522742Y-115695604D01*
X107408457Y-115657509D01*
X107332266Y-115581319D01*
X107294171Y-115505128D01*
X107256076Y-115352747D01*
X107256076Y-115238461D01*
X107294171Y-115086080D01*
X107332266Y-115009890D01*
X107408457Y-114933700D01*
X107522742Y-114895604D01*
X107598933Y-114895604D01*
X107713219Y-114933700D01*
X107751314Y-114971795D01*
X108056076Y-114971795D02*
X108094171Y-114933700D01*
X108170361Y-114895604D01*
X108360838Y-114895604D01*
X108437028Y-114933700D01*
X108475123Y-114971795D01*
X108513219Y-115047985D01*
X108513219Y-115124176D01*
X108475123Y-115238461D01*
X108017980Y-115695604D01*
X108513219Y-115695604D01*
X108779885Y-114895604D02*
X109313219Y-114895604D01*
X108970361Y-115695604D01*
X107560814Y-118794414D02*
X107522719Y-118832509D01*
X107408433Y-118870604D01*
X107332242Y-118870604D01*
X107217957Y-118832509D01*
X107141766Y-118756319D01*
X107103671Y-118680128D01*
X107065576Y-118527747D01*
X107065576Y-118413461D01*
X107103671Y-118261080D01*
X107141766Y-118184890D01*
X107217957Y-118108700D01*
X107332242Y-118070604D01*
X107408433Y-118070604D01*
X107522719Y-118108700D01*
X107560814Y-118146795D01*
X107865576Y-118146795D02*
X107903671Y-118108700D01*
X107979861Y-118070604D01*
X108170338Y-118070604D01*
X108246528Y-118108700D01*
X108284623Y-118146795D01*
X108322719Y-118222985D01*
X108322719Y-118299176D01*
X108284623Y-118413461D01*
X107827480Y-118870604D01*
X108322719Y-118870604D01*
X108779861Y-118413461D02*
X108703671Y-118375366D01*
X108665576Y-118337271D01*
X108627480Y-118261080D01*
X108627480Y-118222985D01*
X108665576Y-118146795D01*
X108703671Y-118108700D01*
X108779861Y-118070604D01*
X108932242Y-118070604D01*
X109008433Y-118108700D01*
X109046528Y-118146795D01*
X109084623Y-118222985D01*
X109084623Y-118261080D01*
X109046528Y-118337271D01*
X109008433Y-118375366D01*
X108932242Y-118413461D01*
X108779861Y-118413461D01*
X108703671Y-118451557D01*
X108665576Y-118489652D01*
X108627480Y-118565842D01*
X108627480Y-118718223D01*
X108665576Y-118794414D01*
X108703671Y-118832509D01*
X108779861Y-118870604D01*
X108932242Y-118870604D01*
X109008433Y-118832509D01*
X109046528Y-118794414D01*
X109084623Y-118718223D01*
X109084623Y-118565842D01*
X109046528Y-118489652D01*
X109008433Y-118451557D01*
X108932242Y-118413461D01*
X116247614Y-115467014D02*
X116209519Y-115505109D01*
X116095233Y-115543204D01*
X116019042Y-115543204D01*
X115904757Y-115505109D01*
X115828566Y-115428919D01*
X115790471Y-115352728D01*
X115752376Y-115200347D01*
X115752376Y-115086061D01*
X115790471Y-114933680D01*
X115828566Y-114857490D01*
X115904757Y-114781300D01*
X116019042Y-114743204D01*
X116095233Y-114743204D01*
X116209519Y-114781300D01*
X116247614Y-114819395D01*
X116552376Y-114819395D02*
X116590471Y-114781300D01*
X116666661Y-114743204D01*
X116857138Y-114743204D01*
X116933328Y-114781300D01*
X116971423Y-114819395D01*
X117009519Y-114895585D01*
X117009519Y-114971776D01*
X116971423Y-115086061D01*
X116514280Y-115543204D01*
X117009519Y-115543204D01*
X117390471Y-115543204D02*
X117542852Y-115543204D01*
X117619042Y-115505109D01*
X117657138Y-115467014D01*
X117733328Y-115352728D01*
X117771423Y-115200347D01*
X117771423Y-114895585D01*
X117733328Y-114819395D01*
X117695233Y-114781300D01*
X117619042Y-114743204D01*
X117466661Y-114743204D01*
X117390471Y-114781300D01*
X117352376Y-114819395D01*
X117314280Y-114895585D01*
X117314280Y-115086061D01*
X117352376Y-115162252D01*
X117390471Y-115200347D01*
X117466661Y-115238442D01*
X117619042Y-115238442D01*
X117695233Y-115200347D01*
X117733328Y-115162252D01*
X117771423Y-115086061D01*
X111808662Y-111276322D02*
X111761043Y-111323941D01*
X111618186Y-111371560D01*
X111522948Y-111371560D01*
X111380091Y-111323941D01*
X111284853Y-111228703D01*
X111237234Y-111133465D01*
X111189615Y-110942989D01*
X111189615Y-110800132D01*
X111237234Y-110609656D01*
X111284853Y-110514418D01*
X111380091Y-110419180D01*
X111522948Y-110371560D01*
X111618186Y-110371560D01*
X111761043Y-110419180D01*
X111808662Y-110466799D01*
X112141996Y-110371560D02*
X112761043Y-110371560D01*
X112427710Y-110752513D01*
X112570567Y-110752513D01*
X112665805Y-110800132D01*
X112713424Y-110847751D01*
X112761043Y-110942989D01*
X112761043Y-111181084D01*
X112713424Y-111276322D01*
X112665805Y-111323941D01*
X112570567Y-111371560D01*
X112284853Y-111371560D01*
X112189615Y-111323941D01*
X112141996Y-111276322D01*
X113380091Y-110371560D02*
X113475329Y-110371560D01*
X113570567Y-110419180D01*
X113618186Y-110466799D01*
X113665805Y-110562037D01*
X113713424Y-110752513D01*
X113713424Y-110990608D01*
X113665805Y-111181084D01*
X113618186Y-111276322D01*
X113570567Y-111323941D01*
X113475329Y-111371560D01*
X113380091Y-111371560D01*
X113284853Y-111323941D01*
X113237234Y-111276322D01*
X113189615Y-111181084D01*
X113141996Y-110990608D01*
X113141996Y-110752513D01*
X113189615Y-110562037D01*
X113237234Y-110466799D01*
X113284853Y-110419180D01*
X113380091Y-110371560D01*
X119835062Y-151530022D02*
X119787443Y-151577641D01*
X119644586Y-151625260D01*
X119549348Y-151625260D01*
X119406491Y-151577641D01*
X119311253Y-151482403D01*
X119263634Y-151387165D01*
X119216015Y-151196689D01*
X119216015Y-151053832D01*
X119263634Y-150863356D01*
X119311253Y-150768118D01*
X119406491Y-150672880D01*
X119549348Y-150625260D01*
X119644586Y-150625260D01*
X119787443Y-150672880D01*
X119835062Y-150720499D01*
X120168396Y-150625260D02*
X120787443Y-150625260D01*
X120454110Y-151006213D01*
X120596967Y-151006213D01*
X120692205Y-151053832D01*
X120739824Y-151101451D01*
X120787443Y-151196689D01*
X120787443Y-151434784D01*
X120739824Y-151530022D01*
X120692205Y-151577641D01*
X120596967Y-151625260D01*
X120311253Y-151625260D01*
X120216015Y-151577641D01*
X120168396Y-151530022D01*
X121739824Y-151625260D02*
X121168396Y-151625260D01*
X121454110Y-151625260D02*
X121454110Y-150625260D01*
X121358872Y-150768118D01*
X121263634Y-150863356D01*
X121168396Y-150910975D01*
X119835062Y-152617582D02*
X119787443Y-152665201D01*
X119644586Y-152712820D01*
X119549348Y-152712820D01*
X119406491Y-152665201D01*
X119311253Y-152569963D01*
X119263634Y-152474725D01*
X119216015Y-152284249D01*
X119216015Y-152141392D01*
X119263634Y-151950916D01*
X119311253Y-151855678D01*
X119406491Y-151760440D01*
X119549348Y-151712820D01*
X119644586Y-151712820D01*
X119787443Y-151760440D01*
X119835062Y-151808059D01*
X120168396Y-151712820D02*
X120787443Y-151712820D01*
X120454110Y-152093773D01*
X120596967Y-152093773D01*
X120692205Y-152141392D01*
X120739824Y-152189011D01*
X120787443Y-152284249D01*
X120787443Y-152522344D01*
X120739824Y-152617582D01*
X120692205Y-152665201D01*
X120596967Y-152712820D01*
X120311253Y-152712820D01*
X120216015Y-152665201D01*
X120168396Y-152617582D01*
X121168396Y-151808059D02*
X121216015Y-151760440D01*
X121311253Y-151712820D01*
X121549348Y-151712820D01*
X121644586Y-151760440D01*
X121692205Y-151808059D01*
X121739824Y-151903297D01*
X121739824Y-151998535D01*
X121692205Y-152141392D01*
X121120777Y-152712820D01*
X121739824Y-152712820D01*
X104203142Y-156350277D02*
X104250761Y-156397896D01*
X104298380Y-156540753D01*
X104298380Y-156635991D01*
X104250761Y-156778848D01*
X104155523Y-156874086D01*
X104060285Y-156921705D01*
X103869809Y-156969324D01*
X103726952Y-156969324D01*
X103536476Y-156921705D01*
X103441238Y-156874086D01*
X103346000Y-156778848D01*
X103298380Y-156635991D01*
X103298380Y-156540753D01*
X103346000Y-156397896D01*
X103393619Y-156350277D01*
X103298380Y-156016943D02*
X103298380Y-155397896D01*
X103679333Y-155731229D01*
X103679333Y-155588372D01*
X103726952Y-155493134D01*
X103774571Y-155445515D01*
X103869809Y-155397896D01*
X104107904Y-155397896D01*
X104203142Y-155445515D01*
X104250761Y-155493134D01*
X104298380Y-155588372D01*
X104298380Y-155874086D01*
X104250761Y-155969324D01*
X104203142Y-156016943D01*
X103298380Y-155064562D02*
X103298380Y-154445515D01*
X103679333Y-154778848D01*
X103679333Y-154635991D01*
X103726952Y-154540753D01*
X103774571Y-154493134D01*
X103869809Y-154445515D01*
X104107904Y-154445515D01*
X104203142Y-154493134D01*
X104250761Y-154540753D01*
X104298380Y-154635991D01*
X104298380Y-154921705D01*
X104250761Y-155016943D01*
X104203142Y-155064562D01*
X110315142Y-141941742D02*
X110267523Y-141989361D01*
X110124666Y-142036980D01*
X110029428Y-142036980D01*
X109886571Y-141989361D01*
X109791333Y-141894123D01*
X109743714Y-141798885D01*
X109696095Y-141608409D01*
X109696095Y-141465552D01*
X109743714Y-141275076D01*
X109791333Y-141179838D01*
X109886571Y-141084600D01*
X110029428Y-141036980D01*
X110124666Y-141036980D01*
X110267523Y-141084600D01*
X110315142Y-141132219D01*
X110648476Y-141036980D02*
X111267523Y-141036980D01*
X110934190Y-141417933D01*
X111077047Y-141417933D01*
X111172285Y-141465552D01*
X111219904Y-141513171D01*
X111267523Y-141608409D01*
X111267523Y-141846504D01*
X111219904Y-141941742D01*
X111172285Y-141989361D01*
X111077047Y-142036980D01*
X110791333Y-142036980D01*
X110696095Y-141989361D01*
X110648476Y-141941742D01*
X112124666Y-141370314D02*
X112124666Y-142036980D01*
X111886571Y-140989361D02*
X111648476Y-141703647D01*
X112267523Y-141703647D01*
X114617142Y-142786257D02*
X114664761Y-142833876D01*
X114712380Y-142976733D01*
X114712380Y-143071971D01*
X114664761Y-143214828D01*
X114569523Y-143310066D01*
X114474285Y-143357685D01*
X114283809Y-143405304D01*
X114140952Y-143405304D01*
X113950476Y-143357685D01*
X113855238Y-143310066D01*
X113760000Y-143214828D01*
X113712380Y-143071971D01*
X113712380Y-142976733D01*
X113760000Y-142833876D01*
X113807619Y-142786257D01*
X113712380Y-142452923D02*
X113712380Y-141833876D01*
X114093333Y-142167209D01*
X114093333Y-142024352D01*
X114140952Y-141929114D01*
X114188571Y-141881495D01*
X114283809Y-141833876D01*
X114521904Y-141833876D01*
X114617142Y-141881495D01*
X114664761Y-141929114D01*
X114712380Y-142024352D01*
X114712380Y-142310066D01*
X114664761Y-142405304D01*
X114617142Y-142452923D01*
X113712380Y-140929114D02*
X113712380Y-141405304D01*
X114188571Y-141452923D01*
X114140952Y-141405304D01*
X114093333Y-141310066D01*
X114093333Y-141071971D01*
X114140952Y-140976733D01*
X114188571Y-140929114D01*
X114283809Y-140881495D01*
X114521904Y-140881495D01*
X114617142Y-140929114D01*
X114664761Y-140976733D01*
X114712380Y-141071971D01*
X114712380Y-141310066D01*
X114664761Y-141405304D01*
X114617142Y-141452923D01*
X101204495Y-113144780D02*
X101204495Y-112144780D01*
X101204495Y-112620971D02*
X101775923Y-112620971D01*
X101775923Y-113144780D02*
X101775923Y-112144780D01*
X102775923Y-113144780D02*
X102204495Y-113144780D01*
X102490209Y-113144780D02*
X102490209Y-112144780D01*
X102394971Y-112287638D01*
X102299733Y-112382876D01*
X102204495Y-112430495D01*
X115320466Y-122159904D02*
X114939514Y-122159904D01*
X114939514Y-121359904D01*
X116006180Y-122159904D02*
X115549038Y-122159904D01*
X115777609Y-122159904D02*
X115777609Y-121359904D01*
X115701419Y-121474190D01*
X115625228Y-121550380D01*
X115549038Y-121588476D01*
X119474880Y-110166366D02*
X119474880Y-110642557D01*
X118474880Y-110642557D01*
X118474880Y-109928271D02*
X118474880Y-109309223D01*
X118855833Y-109642557D01*
X118855833Y-109499700D01*
X118903452Y-109404461D01*
X118951071Y-109356842D01*
X119046309Y-109309223D01*
X119284404Y-109309223D01*
X119379642Y-109356842D01*
X119427261Y-109404461D01*
X119474880Y-109499700D01*
X119474880Y-109785414D01*
X119427261Y-109880652D01*
X119379642Y-109928271D01*
X108081404Y-122972733D02*
X108081404Y-123353685D01*
X107281404Y-123353685D01*
X107548071Y-122363209D02*
X108081404Y-122363209D01*
X107243309Y-122553685D02*
X107814738Y-122744161D01*
X107814738Y-122248923D01*
X122738780Y-125927066D02*
X122738780Y-126403257D01*
X121738780Y-126403257D01*
X121738780Y-125117542D02*
X121738780Y-125593733D01*
X122214971Y-125641352D01*
X122167352Y-125593733D01*
X122119733Y-125498495D01*
X122119733Y-125260400D01*
X122167352Y-125165161D01*
X122214971Y-125117542D01*
X122310209Y-125069923D01*
X122548304Y-125069923D01*
X122643542Y-125117542D01*
X122691161Y-125165161D01*
X122738780Y-125260400D01*
X122738780Y-125498495D01*
X122691161Y-125593733D01*
X122643542Y-125641352D01*
X112677913Y-127369824D02*
X112408539Y-127100450D01*
X112974225Y-126534764D01*
X113674597Y-127235137D02*
X113566848Y-127127387D01*
X113486035Y-127100450D01*
X113432161Y-127100450D01*
X113297474Y-127127387D01*
X113162787Y-127208200D01*
X112947287Y-127423699D01*
X112920350Y-127504511D01*
X112920350Y-127558386D01*
X112947287Y-127639198D01*
X113055037Y-127746948D01*
X113135849Y-127773885D01*
X113189724Y-127773885D01*
X113270536Y-127746948D01*
X113405223Y-127612261D01*
X113432161Y-127531448D01*
X113432161Y-127477574D01*
X113405223Y-127396761D01*
X113297474Y-127289012D01*
X113216661Y-127262074D01*
X113162787Y-127262074D01*
X113081974Y-127289012D01*
X117288904Y-124928533D02*
X117288904Y-125309485D01*
X116488904Y-125309485D01*
X116488904Y-124738057D02*
X116488904Y-124204723D01*
X117288904Y-124547580D01*
X109072066Y-123391804D02*
X108691114Y-123391804D01*
X108691114Y-122591804D01*
X109453019Y-122934661D02*
X109376828Y-122896566D01*
X109338733Y-122858471D01*
X109300638Y-122782280D01*
X109300638Y-122744185D01*
X109338733Y-122667995D01*
X109376828Y-122629900D01*
X109453019Y-122591804D01*
X109605400Y-122591804D01*
X109681590Y-122629900D01*
X109719685Y-122667995D01*
X109757780Y-122744185D01*
X109757780Y-122782280D01*
X109719685Y-122858471D01*
X109681590Y-122896566D01*
X109605400Y-122934661D01*
X109453019Y-122934661D01*
X109376828Y-122972757D01*
X109338733Y-123010852D01*
X109300638Y-123087042D01*
X109300638Y-123239423D01*
X109338733Y-123315614D01*
X109376828Y-123353709D01*
X109453019Y-123391804D01*
X109605400Y-123391804D01*
X109681590Y-123353709D01*
X109719685Y-123315614D01*
X109757780Y-123239423D01*
X109757780Y-123087042D01*
X109719685Y-123010852D01*
X109681590Y-122972757D01*
X109605400Y-122934661D01*
X116251620Y-110026666D02*
X115775430Y-110360000D01*
X116251620Y-110598095D02*
X115251620Y-110598095D01*
X115251620Y-110217142D01*
X115299240Y-110121904D01*
X115346859Y-110074285D01*
X115442097Y-110026666D01*
X115584954Y-110026666D01*
X115680192Y-110074285D01*
X115727811Y-110121904D01*
X115775430Y-110217142D01*
X115775430Y-110598095D01*
X116251620Y-109074285D02*
X116251620Y-109645714D01*
X116251620Y-109360000D02*
X115251620Y-109360000D01*
X115394478Y-109455238D01*
X115489716Y-109550476D01*
X115537335Y-109645714D01*
X109300604Y-136371233D02*
X108919652Y-136637900D01*
X109300604Y-136828376D02*
X108500604Y-136828376D01*
X108500604Y-136523614D01*
X108538700Y-136447423D01*
X108576795Y-136409328D01*
X108652985Y-136371233D01*
X108767271Y-136371233D01*
X108843461Y-136409328D01*
X108881557Y-136447423D01*
X108919652Y-136523614D01*
X108919652Y-136828376D01*
X108576795Y-136066471D02*
X108538700Y-136028376D01*
X108500604Y-135952185D01*
X108500604Y-135761709D01*
X108538700Y-135685519D01*
X108576795Y-135647423D01*
X108652985Y-135609328D01*
X108729176Y-135609328D01*
X108843461Y-135647423D01*
X109300604Y-136104566D01*
X109300604Y-135609328D01*
X122145133Y-130911780D02*
X121811800Y-130435590D01*
X121573704Y-130911780D02*
X121573704Y-129911780D01*
X121954657Y-129911780D01*
X122049895Y-129959400D01*
X122097514Y-130007019D01*
X122145133Y-130102257D01*
X122145133Y-130245114D01*
X122097514Y-130340352D01*
X122049895Y-130387971D01*
X121954657Y-130435590D01*
X121573704Y-130435590D01*
X122478466Y-129911780D02*
X123097514Y-129911780D01*
X122764180Y-130292733D01*
X122907038Y-130292733D01*
X123002276Y-130340352D01*
X123049895Y-130387971D01*
X123097514Y-130483209D01*
X123097514Y-130721304D01*
X123049895Y-130816542D01*
X123002276Y-130864161D01*
X122907038Y-130911780D01*
X122621323Y-130911780D01*
X122526085Y-130864161D01*
X122478466Y-130816542D01*
X102399173Y-148488580D02*
X102065840Y-148012390D01*
X101827744Y-148488580D02*
X101827744Y-147488580D01*
X102208697Y-147488580D01*
X102303935Y-147536200D01*
X102351554Y-147583819D01*
X102399173Y-147679057D01*
X102399173Y-147821914D01*
X102351554Y-147917152D01*
X102303935Y-147964771D01*
X102208697Y-148012390D01*
X101827744Y-148012390D01*
X103256316Y-147821914D02*
X103256316Y-148488580D01*
X103018220Y-147440961D02*
X102780125Y-148155247D01*
X103399173Y-148155247D01*
X117125215Y-110836380D02*
X117125215Y-111645904D01*
X117172834Y-111741142D01*
X117220453Y-111788761D01*
X117315691Y-111836380D01*
X117506167Y-111836380D01*
X117601405Y-111788761D01*
X117649024Y-111741142D01*
X117696643Y-111645904D01*
X117696643Y-110836380D01*
X118696643Y-111836380D02*
X118125215Y-111836380D01*
X118410929Y-111836380D02*
X118410929Y-110836380D01*
X118315691Y-110979238D01*
X118220453Y-111074476D01*
X118125215Y-111122095D01*
X115491995Y-129670480D02*
X115491995Y-130480004D01*
X115539614Y-130575242D01*
X115587233Y-130622861D01*
X115682471Y-130670480D01*
X115872947Y-130670480D01*
X115968185Y-130622861D01*
X116015804Y-130575242D01*
X116063423Y-130480004D01*
X116063423Y-129670480D01*
X116491995Y-129765719D02*
X116539614Y-129718100D01*
X116634852Y-129670480D01*
X116872947Y-129670480D01*
X116968185Y-129718100D01*
X117015804Y-129765719D01*
X117063423Y-129860957D01*
X117063423Y-129956195D01*
X117015804Y-130099052D01*
X116444376Y-130670480D01*
X117063423Y-130670480D01*
X118374876Y-123531604D02*
X118374876Y-124179223D01*
X118412971Y-124255414D01*
X118451066Y-124293509D01*
X118527257Y-124331604D01*
X118679638Y-124331604D01*
X118755828Y-124293509D01*
X118793923Y-124255414D01*
X118832019Y-124179223D01*
X118832019Y-123531604D01*
X119136780Y-123531604D02*
X119632019Y-123531604D01*
X119365352Y-123836366D01*
X119479638Y-123836366D01*
X119555828Y-123874461D01*
X119593923Y-123912557D01*
X119632019Y-123988747D01*
X119632019Y-124179223D01*
X119593923Y-124255414D01*
X119555828Y-124293509D01*
X119479638Y-124331604D01*
X119251066Y-124331604D01*
X119174876Y-124293509D01*
X119136780Y-124255414D01*
X109815076Y-116546604D02*
X109815076Y-117194223D01*
X109853171Y-117270414D01*
X109891266Y-117308509D01*
X109967457Y-117346604D01*
X110119838Y-117346604D01*
X110196028Y-117308509D01*
X110234123Y-117270414D01*
X110272219Y-117194223D01*
X110272219Y-116546604D01*
X110996028Y-116813271D02*
X110996028Y-117346604D01*
X110805552Y-116508509D02*
X110615076Y-117079938D01*
X111110314Y-117079938D01*
X101774380Y-136539423D02*
X102774380Y-135872757D01*
X101774380Y-135872757D02*
X102774380Y-136539423D01*
X102774380Y-134967995D02*
X102774380Y-135539423D01*
X102774380Y-135253709D02*
X101774380Y-135253709D01*
X101917238Y-135348947D01*
X102012476Y-135444185D01*
X102060095Y-135539423D01*
M02*
