G04 #@! TF.GenerationSoftware,KiCad,Pcbnew,(5.1.4)-1*
G04 #@! TF.CreationDate,2020-12-03T17:16:16+01:00*
G04 #@! TF.ProjectId,LoRa_Balloon,4c6f5261-5f42-4616-9c6c-6f6f6e2e6b69,2*
G04 #@! TF.SameCoordinates,Original*
G04 #@! TF.FileFunction,Copper,L1,Top*
G04 #@! TF.FilePolarity,Positive*
%FSLAX46Y46*%
G04 Gerber Fmt 4.6, Leading zero omitted, Abs format (unit mm)*
G04 Created by KiCad (PCBNEW (5.1.4)-1) date 2020-12-03 17:16:16*
%MOMM*%
%LPD*%
G04 APERTURE LIST*
%ADD10R,0.600000X0.750000*%
%ADD11R,0.600000X1.500000*%
%ADD12C,0.600000*%
%ADD13R,1.500000X1.100000*%
%ADD14R,0.350000X0.375000*%
%ADD15R,0.350000X2.100000*%
%ADD16R,4.000000X1.000000*%
%ADD17R,1.000000X0.500000*%
%ADD18R,0.500000X2.000000*%
%ADD19R,0.600000X0.400000*%
%ADD20R,1.600000X1.000000*%
%ADD21R,0.500000X1.000000*%
%ADD22R,1.000000X4.000000*%
%ADD23R,0.400000X0.600000*%
%ADD24R,2.400000X1.700000*%
%ADD25R,0.450000X1.600000*%
%ADD26R,1.600000X0.450000*%
%ADD27C,0.400000*%
%ADD28C,0.100000*%
%ADD29R,1.250000X1.000000*%
%ADD30R,0.800000X0.750000*%
%ADD31R,3.240000X1.000000*%
%ADD32R,3.800000X1.000000*%
%ADD33R,3.570000X1.000000*%
%ADD34R,1.000000X3.570000*%
%ADD35R,1.000000X3.800000*%
%ADD36R,1.000000X3.240000*%
%ADD37R,0.500000X0.300000*%
%ADD38R,1.060000X0.880000*%
%ADD39R,1.000000X0.370000*%
%ADD40R,0.370000X1.000000*%
%ADD41R,1.062500X1.062500*%
%ADD42R,0.400000X0.650000*%
%ADD43R,1.400000X1.150000*%
%ADD44C,0.700000*%
%ADD45C,0.500000*%
%ADD46C,0.355547*%
%ADD47C,0.250000*%
%ADD48C,0.300000*%
%ADD49C,0.400000*%
%ADD50C,0.254000*%
G04 APERTURE END LIST*
D10*
X101376000Y-108989000D03*
X102576000Y-111239000D03*
X103776000Y-111239000D03*
X103776000Y-108989000D03*
X102576000Y-108989000D03*
D11*
X101376000Y-110864000D03*
D12*
X117033680Y-157553580D03*
D13*
X117033680Y-157553580D03*
D14*
X116483680Y-158416080D03*
X117033680Y-158416080D03*
X117583680Y-158416080D03*
X117583680Y-156691080D03*
X117033680Y-156691080D03*
X116483680Y-156691080D03*
D15*
X118308680Y-157553580D03*
X115758680Y-157553580D03*
D12*
X124000000Y-151310000D03*
X127310000Y-147370000D03*
D16*
X127310000Y-144340000D03*
X127310000Y-150340000D03*
D17*
X124810000Y-145840000D03*
X124810000Y-146840000D03*
X124810000Y-147840000D03*
X124810000Y-148840000D03*
D12*
X119500000Y-103970000D03*
X118500000Y-103970000D03*
X117500000Y-103970000D03*
X116500000Y-103970000D03*
X115500000Y-103970000D03*
X114500000Y-103970000D03*
X113500000Y-103970000D03*
X112500000Y-103970000D03*
X111500000Y-103970000D03*
X110500000Y-103970000D03*
X109500000Y-103970000D03*
X108500000Y-104010000D03*
X107790000Y-104720000D03*
X107080000Y-105430000D03*
X106370000Y-106140000D03*
X105660000Y-106850000D03*
X104950000Y-107560000D03*
D18*
X122932760Y-102781020D03*
X129432760Y-102781020D03*
D19*
X109977560Y-119745680D03*
X109977560Y-120645680D03*
D12*
X121100220Y-157380860D03*
D20*
X122258460Y-155880860D03*
X122258460Y-158880860D03*
X119959760Y-158880860D03*
X119959760Y-155880860D03*
D12*
X117384200Y-128440520D03*
X113967900Y-142105300D03*
X109865800Y-142841900D03*
X118031900Y-116540200D03*
X119860700Y-116959300D03*
X107541700Y-136669700D03*
X108191300Y-158412100D03*
X113191300Y-158412100D03*
X114691800Y-157916800D03*
X106690800Y-157916800D03*
X103947600Y-156157420D03*
X121230000Y-150620000D03*
X121230000Y-152550000D03*
X109789600Y-151846200D03*
X111389800Y-151846200D03*
X118912440Y-126128200D03*
X118912440Y-125248200D03*
X117826160Y-121176280D03*
X117826160Y-120296280D03*
X120168040Y-136791620D03*
X124145680Y-136248060D03*
X124574940Y-133586140D03*
X121084980Y-134015400D03*
X121684420Y-131328080D03*
X118651660Y-130726100D03*
X124689240Y-131411900D03*
X122271160Y-115496260D03*
X124905140Y-115928060D03*
X124153300Y-118300420D03*
X125446160Y-120492440D03*
X124981340Y-124810440D03*
X125060080Y-127175180D03*
X107046400Y-125422580D03*
X105080440Y-124945060D03*
X104862000Y-119651700D03*
X106868600Y-120743900D03*
X107402000Y-116433520D03*
X107275000Y-124122100D03*
X106492680Y-117975300D03*
X105852600Y-122179000D03*
X105476680Y-115724860D03*
X114226980Y-138767740D03*
X115956720Y-138780440D03*
X117003200Y-138777900D03*
X120597300Y-138765200D03*
X119482240Y-138770280D03*
X121671720Y-138770280D03*
X122786780Y-138765200D03*
X124712100Y-138727100D03*
X125827160Y-138722020D03*
X126916820Y-138737260D03*
X126911740Y-137622200D03*
X126952380Y-131086780D03*
X126947300Y-134396400D03*
X126952380Y-133299120D03*
X126934600Y-135483520D03*
X126916820Y-136524920D03*
X126947300Y-132184060D03*
X123462420Y-112763220D03*
X126772040Y-112768300D03*
X125674760Y-112763220D03*
X126954920Y-130004740D03*
X124559700Y-112768300D03*
X127960760Y-112760680D03*
X126947300Y-128290240D03*
X126939680Y-126966900D03*
X117856640Y-112765760D03*
X116759360Y-112760680D03*
X114547020Y-112760680D03*
X115644300Y-112765760D03*
X119045360Y-112758140D03*
X120142640Y-112763220D03*
X121257700Y-112758140D03*
X122354980Y-112763220D03*
X126947300Y-120665160D03*
X126947300Y-125684200D03*
X126947300Y-122877500D03*
X126947300Y-124332920D03*
X126942220Y-121762440D03*
X126977780Y-116324300D03*
X126982860Y-115227020D03*
X126977780Y-118536640D03*
X126982860Y-117439360D03*
X126965080Y-119623760D03*
X110958000Y-137977800D03*
X110089320Y-138767740D03*
X104404800Y-138727100D03*
X103477700Y-138734720D03*
X103477700Y-136514760D03*
X103472620Y-137612040D03*
X103503100Y-116364940D03*
X103508180Y-115267660D03*
X103467540Y-131333160D03*
X103465000Y-128902380D03*
X103459920Y-127787320D03*
X103475160Y-130307000D03*
X103465000Y-126690040D03*
X103470080Y-123408360D03*
X103475160Y-122311080D03*
X103470080Y-125620700D03*
X103475160Y-124523420D03*
X103492940Y-117914340D03*
X103487860Y-119011620D03*
X103487860Y-121223960D03*
X103492940Y-120126680D03*
X103553900Y-112768300D03*
X104651180Y-112773380D03*
X105766240Y-112768300D03*
X106863520Y-112773380D03*
X108052240Y-112765760D03*
X109149520Y-112770840D03*
X110264580Y-112765760D03*
X113454820Y-112760680D03*
X111361860Y-112770840D03*
X111264470Y-133907470D03*
X110201970Y-133907470D03*
X111264470Y-131782470D03*
X110201970Y-132844970D03*
X110201970Y-131782470D03*
X111264470Y-132844970D03*
X112326970Y-131782470D03*
X112326970Y-132844970D03*
X112326970Y-133907470D03*
X113389470Y-133907470D03*
X113389470Y-132844970D03*
X113389470Y-131782470D03*
X113389470Y-130719970D03*
X112326970Y-130719970D03*
X111264470Y-130719970D03*
X110201970Y-130719970D03*
X112578520Y-128021000D03*
X112756320Y-127035480D03*
X113764700Y-126888160D03*
X114783240Y-127002460D03*
X115832260Y-126971980D03*
X118925980Y-127297100D03*
X120734460Y-126844980D03*
X121669180Y-126771320D03*
X121999380Y-125663880D03*
X121991760Y-124617400D03*
X121984140Y-123578540D03*
X122758840Y-122885120D03*
X122758840Y-121838640D03*
X121991760Y-121137600D03*
X121961280Y-120121600D03*
X117940460Y-119125920D03*
X114920400Y-118508700D03*
X113983140Y-117579060D03*
X115867820Y-119463740D03*
X114475900Y-119545020D03*
X112918880Y-121231580D03*
X113922180Y-121536380D03*
X113884080Y-122341560D03*
X115326800Y-121569400D03*
X116576480Y-122382200D03*
X117816000Y-122509200D03*
X119063140Y-122354260D03*
X121079900Y-119567880D03*
X120033420Y-121980880D03*
X119939440Y-123022280D03*
X119903880Y-124066220D03*
X118750720Y-124089080D03*
X117683920Y-124058600D03*
X117051460Y-125013640D03*
X116053240Y-124924740D03*
X115042320Y-124909500D03*
X114343820Y-124165280D03*
X113320200Y-124150040D03*
X111918120Y-124508180D03*
X112786800Y-125013640D03*
X111509180Y-125435280D03*
X111526960Y-123583620D03*
X111519340Y-122567620D03*
X111521880Y-121536380D03*
X112062900Y-120657540D03*
X112052740Y-119603440D03*
X111882560Y-118607760D03*
X108961560Y-125478460D03*
X109464480Y-124599620D03*
X109449240Y-123596320D03*
X108984420Y-122674300D03*
X108666920Y-121716720D03*
X108956480Y-120743900D03*
X108959020Y-119727900D03*
X108687240Y-118737300D03*
X108923460Y-117761940D03*
X109921680Y-117586680D03*
X110848780Y-117172660D03*
D21*
X108191300Y-156911780D03*
X109191300Y-156911780D03*
X110191300Y-156911780D03*
X111191300Y-156911780D03*
X112191300Y-156911780D03*
X113191300Y-156911780D03*
D22*
X106691300Y-159411780D03*
X114691300Y-159411780D03*
D23*
X112192860Y-154858640D03*
X111292860Y-154858640D03*
D24*
X117780440Y-153632040D03*
X117780440Y-149532040D03*
D25*
X108191020Y-153151540D03*
X108991020Y-153151540D03*
X109791020Y-153151540D03*
X110591020Y-153151540D03*
X111391020Y-153151540D03*
X112191020Y-153151540D03*
X112991020Y-153151540D03*
X113791020Y-153151540D03*
D26*
X115291020Y-151651540D03*
X115291020Y-150851540D03*
X115291020Y-150051540D03*
X115291020Y-149251540D03*
X115291020Y-148451540D03*
X115291020Y-147651540D03*
X115291020Y-146851540D03*
X115291020Y-146051540D03*
D25*
X113791020Y-144551540D03*
X112991020Y-144551540D03*
X112191020Y-144551540D03*
X111391020Y-144551540D03*
X110591020Y-144551540D03*
X109791020Y-144551540D03*
X108991020Y-144551540D03*
X108191020Y-144551540D03*
D26*
X106691020Y-146032140D03*
X106691020Y-146851540D03*
X106691020Y-147651540D03*
X106691020Y-148451540D03*
X106691020Y-149251540D03*
X106691020Y-150051540D03*
X106691020Y-150851540D03*
X106691020Y-151651540D03*
D19*
X109444160Y-128211920D03*
X109444160Y-127311920D03*
D23*
X113061120Y-118597600D03*
X113961120Y-118597600D03*
D19*
X107569640Y-128716960D03*
X107569640Y-129616960D03*
D27*
X113061120Y-119852360D03*
D28*
G36*
X113414673Y-119781649D02*
G01*
X112990409Y-120205913D01*
X112707567Y-119923071D01*
X113131831Y-119498807D01*
X113414673Y-119781649D01*
X113414673Y-119781649D01*
G37*
D27*
X113697516Y-120488756D03*
D28*
G36*
X114051069Y-120418045D02*
G01*
X113626805Y-120842309D01*
X113343963Y-120559467D01*
X113768227Y-120135203D01*
X114051069Y-120418045D01*
X114051069Y-120418045D01*
G37*
D29*
X105923720Y-129316400D03*
X105923720Y-127316400D03*
D23*
X106786900Y-130764200D03*
X107686900Y-130764200D03*
D19*
X116921920Y-117241240D03*
X116921920Y-116341240D03*
D23*
X107573880Y-126690040D03*
X108473880Y-126690040D03*
X107691560Y-131820840D03*
X106791560Y-131820840D03*
X108473880Y-127767000D03*
X107573880Y-127767000D03*
X115997780Y-136484280D03*
X115097780Y-136484280D03*
D19*
X119228240Y-117807240D03*
X119228240Y-118707240D03*
X120523640Y-118707240D03*
X120523640Y-117807240D03*
X120960520Y-120491600D03*
X120960520Y-121391600D03*
D23*
X120960520Y-122336480D03*
X121860520Y-122336480D03*
D19*
X120960520Y-123296600D03*
X120960520Y-124196600D03*
X121626000Y-127874100D03*
X121626000Y-126974100D03*
D23*
X103504800Y-132349160D03*
X104404800Y-132349160D03*
X105961820Y-136433480D03*
X105061820Y-136433480D03*
D19*
X116863500Y-127540520D03*
X116863500Y-128440520D03*
D23*
X109595720Y-126364920D03*
X110495720Y-126364920D03*
D19*
X117874420Y-128440520D03*
X117874420Y-127540520D03*
X110495720Y-124509880D03*
X110495720Y-125409880D03*
X113797720Y-125940740D03*
X113797720Y-125040740D03*
D23*
X114810340Y-125938200D03*
X115710340Y-125938200D03*
X110488100Y-121790380D03*
X109588100Y-121790380D03*
D19*
X111024040Y-119745680D03*
X111024040Y-120645680D03*
D23*
X109771400Y-115397200D03*
X110671400Y-115397200D03*
X109606720Y-118592520D03*
X110506720Y-118592520D03*
X115014800Y-115397200D03*
X114114800Y-115397200D03*
D19*
X112405800Y-112987160D03*
X112405800Y-112087160D03*
D30*
X119727920Y-149532040D03*
X121227920Y-149532040D03*
X121227920Y-153632040D03*
X119727920Y-153632040D03*
D19*
X105194740Y-155257420D03*
X105194740Y-156157420D03*
D23*
X111392340Y-142846980D03*
X110492340Y-142846980D03*
D19*
X112990000Y-143002340D03*
X112990000Y-142102340D03*
D31*
X127034200Y-113982400D03*
D32*
X121314200Y-113982400D03*
X115314200Y-113982400D03*
X109314200Y-113982400D03*
D33*
X103429200Y-113982400D03*
D34*
X128154200Y-138707400D03*
D35*
X128154200Y-132822400D03*
X128154200Y-126822400D03*
X128154200Y-120822400D03*
D36*
X128154200Y-115102400D03*
D31*
X127034200Y-139992400D03*
D32*
X121314200Y-139992400D03*
X115314200Y-139992400D03*
X109314200Y-139992400D03*
D33*
X103429200Y-139992400D03*
D36*
X102144200Y-115102400D03*
D35*
X102144200Y-120822400D03*
X102144200Y-126822400D03*
X102144200Y-132822400D03*
D34*
X102144200Y-138707400D03*
D23*
X115024120Y-120487360D03*
X115924120Y-120487360D03*
D19*
X119878480Y-119587360D03*
X119878480Y-120487360D03*
X110495720Y-127314880D03*
X110495720Y-128214880D03*
X120960520Y-125039040D03*
X120960520Y-125939040D03*
D27*
X111793660Y-126576438D03*
D28*
G36*
X111722949Y-126222885D02*
G01*
X112147213Y-126647149D01*
X111864371Y-126929991D01*
X111440107Y-126505727D01*
X111722949Y-126222885D01*
X111722949Y-126222885D01*
G37*
D27*
X112430056Y-125940042D03*
D28*
G36*
X112359345Y-125586489D02*
G01*
X112783609Y-126010753D01*
X112500767Y-126293595D01*
X112076503Y-125869331D01*
X112359345Y-125586489D01*
X112359345Y-125586489D01*
G37*
D19*
X116863500Y-125937780D03*
X116863500Y-126837780D03*
X110495720Y-122750080D03*
X110495720Y-123650080D03*
X116921920Y-118993840D03*
X116921920Y-118093840D03*
X107541700Y-136167200D03*
X107541700Y-135267200D03*
D23*
X120714560Y-127873680D03*
X119814560Y-127873680D03*
X102115840Y-149251540D03*
X103015840Y-149251540D03*
D37*
X116926160Y-119986280D03*
X116926160Y-120486280D03*
X116926160Y-120986280D03*
X116926160Y-121486280D03*
X118726160Y-121486280D03*
X118726160Y-120986280D03*
X118726160Y-120486280D03*
X118726160Y-119986280D03*
D38*
X117826160Y-121176280D03*
X117826160Y-120296280D03*
D39*
X108844120Y-130363720D03*
X108844120Y-131013720D03*
X108844120Y-131663720D03*
X108844120Y-132313720D03*
X108844120Y-132963720D03*
X108844120Y-133613720D03*
X108844120Y-134263720D03*
D40*
X109744120Y-135163720D03*
X110394120Y-135163720D03*
X111044120Y-135163720D03*
X111694120Y-135163720D03*
X112344120Y-135163720D03*
X112994120Y-135163720D03*
X113644120Y-135163720D03*
D39*
X114544120Y-134263720D03*
X114544120Y-133613720D03*
X114544120Y-132963720D03*
X114544120Y-132313720D03*
X114544120Y-131663720D03*
X114544120Y-131013720D03*
X114544120Y-130363720D03*
D40*
X113644120Y-129463720D03*
X112994120Y-129463720D03*
X112344120Y-129463720D03*
X111694120Y-129463720D03*
X111044120Y-129463720D03*
X110394120Y-129463720D03*
X109744120Y-129463720D03*
D41*
X113287870Y-133907470D03*
X113287870Y-132844970D03*
X113287870Y-131782470D03*
X113287870Y-130719970D03*
X112225370Y-133907470D03*
X112225370Y-132844970D03*
X112225370Y-131782470D03*
X112225370Y-130719970D03*
X111162870Y-133907470D03*
X111162870Y-132844970D03*
X111162870Y-131782470D03*
X111162870Y-130719970D03*
X110100370Y-133907470D03*
X110100370Y-132844970D03*
X110100370Y-131782470D03*
X110100370Y-130719970D03*
D38*
X118912440Y-126128200D03*
X118912440Y-125248200D03*
D37*
X118012440Y-126438200D03*
X118012440Y-125938200D03*
X118012440Y-125438200D03*
X118012440Y-124938200D03*
X119812440Y-124938200D03*
X119812440Y-125438200D03*
X119812440Y-125938200D03*
X119812440Y-126438200D03*
D42*
X111755800Y-117297200D03*
X113055800Y-117297200D03*
X112405800Y-115397200D03*
X112405800Y-117297200D03*
X113055800Y-115397200D03*
X111755800Y-115397200D03*
D43*
X103759460Y-133596400D03*
X105959460Y-133596400D03*
X105959460Y-135196400D03*
X103759460Y-135196400D03*
D44*
X115093120Y-143002340D03*
X109888660Y-154496640D03*
X105189660Y-154492880D03*
X118725320Y-143004460D03*
X115093120Y-138917600D03*
X122890920Y-128955720D03*
X104040989Y-148559440D03*
X105347140Y-151653160D03*
X105123620Y-138943000D03*
X105128700Y-141046120D03*
X123637680Y-128208960D03*
X123637680Y-121597340D03*
X123637680Y-119946340D03*
X116683160Y-150936880D03*
X113972980Y-150936880D03*
X123000000Y-145840000D03*
X108200000Y-150051540D03*
X123000000Y-146840000D03*
X108200000Y-150851540D03*
X103899340Y-152829180D03*
X106091360Y-152831720D03*
D45*
X122328580Y-108926260D02*
X129428580Y-108926260D01*
X122328580Y-105926260D02*
X127428580Y-105926260D01*
X122328580Y-108926260D02*
X122328580Y-105926260D01*
X129428580Y-103826260D02*
X129428580Y-108926260D01*
D46*
X112954200Y-117297200D02*
X112954200Y-118592280D01*
X112959520Y-118597600D02*
X112959520Y-119852360D01*
D47*
X111289420Y-154760480D02*
X111191260Y-154858640D01*
X111289420Y-153151540D02*
X111289420Y-154760480D01*
X111289420Y-151847420D02*
X111288200Y-151846200D01*
X111289420Y-153151540D02*
X111289420Y-151847420D01*
X109689420Y-151847620D02*
X109688000Y-151846200D01*
X109689420Y-153151540D02*
X109689420Y-151847620D01*
X107440100Y-136167200D02*
X107440100Y-136669700D01*
X109314200Y-139441260D02*
X109987720Y-138767740D01*
X109314200Y-139992400D02*
X109314200Y-139441260D01*
X115855120Y-139451480D02*
X115855120Y-138780440D01*
X115314200Y-139992400D02*
X115855120Y-139451480D01*
D48*
X114913200Y-114383400D02*
X115314200Y-113982400D01*
X114913200Y-115397200D02*
X114913200Y-114383400D01*
X109669800Y-114338000D02*
X109314200Y-113982400D01*
X109669800Y-115397200D02*
X109669800Y-114338000D01*
X112304200Y-118084520D02*
X112304200Y-117297200D01*
X111780960Y-118607760D02*
X112304200Y-118084520D01*
X117731340Y-116341240D02*
X117930300Y-116540200D01*
X116820320Y-116341240D02*
X117731340Y-116341240D01*
X109494120Y-126112620D02*
X108859960Y-125478460D01*
X109494120Y-126364920D02*
X109494120Y-126112620D01*
X110489420Y-142945660D02*
X110390740Y-142846980D01*
X110489420Y-144551540D02*
X110489420Y-142945660D01*
X110385660Y-142841900D02*
X110390740Y-142846980D01*
X109764200Y-142841900D02*
X110385660Y-142841900D01*
X111044120Y-130601220D02*
X111162870Y-130719970D01*
X111044120Y-129463720D02*
X111044120Y-130601220D01*
X113644120Y-130363720D02*
X113287870Y-130719970D01*
X113644120Y-129463720D02*
X113644120Y-130363720D01*
X113287870Y-133269234D02*
X113287870Y-132844970D01*
X113632356Y-133613720D02*
X113287870Y-133269234D01*
X114544120Y-133613720D02*
X113632356Y-133613720D01*
X109744120Y-134263720D02*
X110100370Y-133907470D01*
X108844120Y-134263720D02*
X109744120Y-134263720D01*
X116761900Y-128440520D02*
X117282600Y-128440520D01*
X117772820Y-128440520D02*
X117282600Y-128440520D01*
D49*
X121227920Y-152552080D02*
X121230000Y-152550000D01*
X121227920Y-153632040D02*
X121227920Y-152552080D01*
X121230000Y-149534120D02*
X121227920Y-149532040D01*
X121230000Y-150620000D02*
X121230000Y-149534120D01*
D47*
X117033680Y-158416080D02*
X117033680Y-156691080D01*
D46*
X113595916Y-120488756D02*
X114921124Y-120488756D01*
D48*
X108214800Y-130363720D02*
X107468040Y-129616960D01*
X108844120Y-130363720D02*
X108214800Y-130363720D01*
X111654200Y-115397200D02*
X110569800Y-115397200D01*
X116761900Y-126837780D02*
X116761900Y-127540520D01*
X116761900Y-127540520D02*
X117772820Y-127540520D01*
X116820320Y-118093840D02*
X117520320Y-118093840D01*
X116820320Y-117241240D02*
X116820320Y-118093840D01*
X120422040Y-118942200D02*
X119776880Y-119587360D01*
X120422040Y-118707240D02*
X120422040Y-118942200D01*
D49*
X123717920Y-129169080D02*
X129352680Y-129169080D01*
D48*
X112888400Y-144550520D02*
X112889420Y-144551540D01*
X112888400Y-143002340D02*
X112888400Y-144550520D01*
X112089700Y-154860200D02*
X112091260Y-154858640D01*
D49*
X112089420Y-154856800D02*
X112091260Y-154858640D01*
X112089420Y-153151540D02*
X112089420Y-154856800D01*
X112091260Y-154858640D02*
X112091260Y-155556720D01*
X110569800Y-116097200D02*
X110569800Y-115397200D01*
X129352680Y-129169080D02*
X129352680Y-141241700D01*
X110489420Y-153151540D02*
X110489420Y-154496640D01*
X102572919Y-117183679D02*
X101067781Y-118688817D01*
X110282034Y-154496640D02*
X110489420Y-154496640D01*
X109787060Y-154496640D02*
X110282034Y-154496640D01*
X110489420Y-154496640D02*
X110489420Y-155376802D01*
D48*
X101513461Y-149252319D02*
X101067781Y-149252319D01*
X101514240Y-149251540D02*
X101513461Y-149252319D01*
X102014240Y-149251540D02*
X101514240Y-149251540D01*
D49*
X101067781Y-118688817D02*
X101067781Y-149252319D01*
X101067781Y-149252319D02*
X101067781Y-150067065D01*
D48*
X105093140Y-154497960D02*
X105088060Y-154492880D01*
X105093140Y-155257420D02*
X105093140Y-154497960D01*
X104593086Y-154492880D02*
X105088060Y-154492880D01*
X104425438Y-154492880D02*
X104593086Y-154492880D01*
X101067781Y-151135223D02*
X104425438Y-154492880D01*
X101067781Y-150067065D02*
X101067781Y-151135223D01*
D49*
X127592040Y-143002340D02*
X129352680Y-141241700D01*
D48*
X117913240Y-118093840D02*
X117520320Y-118093840D01*
X118526640Y-118707240D02*
X117913240Y-118093840D01*
X119126640Y-118707240D02*
X118526640Y-118707240D01*
X119126640Y-118937120D02*
X119776880Y-119587360D01*
X119126640Y-118707240D02*
X119126640Y-118937120D01*
X120612960Y-127973680D02*
X120612960Y-127873680D01*
X120062959Y-128523681D02*
X120612960Y-127973680D01*
X118855981Y-128523681D02*
X120062959Y-128523681D01*
X117872820Y-127540520D02*
X118855981Y-128523681D01*
X117772820Y-127540520D02*
X117872820Y-127540520D01*
X106122680Y-129616960D02*
X105822120Y-129316400D01*
X106612900Y-129616960D02*
X106122680Y-129616960D01*
X106612900Y-129616960D02*
X107468040Y-129616960D01*
X101067781Y-129616960D02*
X106612900Y-129616960D01*
D49*
X129352680Y-124828220D02*
X129352680Y-129169080D01*
X128136020Y-123611560D02*
X129352680Y-124828220D01*
X126026360Y-123611560D02*
X128136020Y-123611560D01*
X126026360Y-123252278D02*
X126026360Y-123611560D01*
X121481322Y-118707240D02*
X126026360Y-123252278D01*
X120422040Y-118707240D02*
X121481322Y-118707240D01*
X109450598Y-116097200D02*
X110569800Y-116097200D01*
X108364119Y-117183679D02*
X109450598Y-116097200D01*
X102572919Y-117183679D02*
X108364119Y-117183679D01*
D48*
X112888400Y-143002340D02*
X114991520Y-143002340D01*
X114991520Y-136488940D02*
X114996180Y-136484280D01*
X114991520Y-138917600D02*
X114991520Y-136488940D01*
X114996180Y-134715780D02*
X114544120Y-134263720D01*
X114996180Y-136484280D02*
X114996180Y-134715780D01*
X122422940Y-127874100D02*
X121524400Y-127874100D01*
X123717920Y-129169080D02*
X122422940Y-127874100D01*
X120613380Y-127874100D02*
X120612960Y-127873680D01*
X121524400Y-127874100D02*
X120613380Y-127874100D01*
X122611520Y-143002340D02*
X122608560Y-142999380D01*
D49*
X112845220Y-154858640D02*
X112091260Y-154858640D01*
X110671259Y-155558641D02*
X110489420Y-155376802D01*
X111711261Y-155558641D02*
X110671259Y-155558641D01*
X111713182Y-155556720D02*
X111711261Y-155558641D01*
X112091260Y-155556720D02*
X111713182Y-155556720D01*
X122198640Y-143048640D02*
X122153626Y-143003626D01*
X122153626Y-143003626D02*
X118623720Y-143004460D01*
X127592040Y-143002340D02*
X122153626Y-143003626D01*
X122198640Y-154858640D02*
X112845220Y-154858640D01*
X123908640Y-147838640D02*
X122198640Y-147838640D01*
X123910000Y-147840000D02*
X123908640Y-147838640D01*
X124810000Y-147840000D02*
X123910000Y-147840000D01*
X122198640Y-154858640D02*
X122198640Y-147838640D01*
X122198640Y-147838640D02*
X122198640Y-143048640D01*
X117608681Y-158549783D02*
X117608681Y-158503581D01*
X118839759Y-159780861D02*
X117608681Y-158549783D01*
X122198640Y-154858640D02*
X123447180Y-154858640D01*
X123447180Y-154858640D02*
X123447180Y-158790540D01*
X123447180Y-158790540D02*
X123356860Y-158880860D01*
X123356860Y-158880860D02*
X121856860Y-158880860D01*
X121856860Y-158880860D02*
X120956860Y-159780860D01*
X120956860Y-159780860D02*
X118839759Y-159780861D01*
D48*
X118308680Y-158453581D02*
X117583680Y-158453581D01*
X107834820Y-131013720D02*
X107585300Y-130764200D01*
X108844120Y-131013720D02*
X107834820Y-131013720D01*
X108372280Y-126690040D02*
X108372280Y-127767000D01*
X109259120Y-129463720D02*
X109744120Y-129463720D01*
X108372280Y-128576880D02*
X109259120Y-129463720D01*
X108372280Y-127767000D02*
X108372280Y-128576880D01*
X107747080Y-131663720D02*
X107589960Y-131820840D01*
X108844120Y-131663720D02*
X107747080Y-131663720D01*
D46*
X120858920Y-121391600D02*
X120858920Y-122336480D01*
X120858920Y-122336480D02*
X120858920Y-123296600D01*
D48*
X119775800Y-120486280D02*
X119776880Y-120487360D01*
X118624560Y-120486280D02*
X119775800Y-120486280D01*
D46*
X119205636Y-120487360D02*
X119204556Y-120486280D01*
X119776880Y-120487360D02*
X119205636Y-120487360D01*
X120854680Y-120487360D02*
X120858920Y-120491600D01*
X119776880Y-120487360D02*
X120854680Y-120487360D01*
X120858920Y-124196600D02*
X120858920Y-125039040D01*
D48*
X104804040Y-132349160D02*
X104304040Y-132349160D01*
X104925721Y-132470841D02*
X104804040Y-132349160D01*
X108069961Y-132470841D02*
X104925721Y-132470841D01*
X108227082Y-132313720D02*
X108069961Y-132470841D01*
X108844120Y-132313720D02*
X108227082Y-132313720D01*
D47*
X104304040Y-132899160D02*
X103662400Y-133593000D01*
X104304040Y-132349160D02*
X104304040Y-132899160D01*
D48*
X106907861Y-134451401D02*
X105860220Y-135323760D01*
X106907861Y-134234977D02*
X106907861Y-134451401D01*
X108179118Y-132963720D02*
X106907861Y-134234977D01*
X108844120Y-132963720D02*
X108179118Y-132963720D01*
X105860220Y-136433480D02*
X105860220Y-135323760D01*
D46*
X110391160Y-127311920D02*
X110394120Y-127314880D01*
X109342560Y-127311920D02*
X110391160Y-127311920D01*
X110394120Y-127314880D02*
X110394120Y-126364920D01*
X110394120Y-126364920D02*
X110394120Y-125409880D01*
X110394120Y-124509880D02*
X110394120Y-123650080D01*
X113698660Y-125938200D02*
X113696120Y-125940740D01*
X114708740Y-125938200D02*
X113698660Y-125938200D01*
X112329154Y-125940740D02*
X112328456Y-125940042D01*
X113696120Y-125940740D02*
X112329154Y-125940740D01*
D48*
X116762320Y-125938200D02*
X116761900Y-125937780D01*
X117910840Y-125938200D02*
X116762320Y-125938200D01*
D46*
X117330424Y-125937780D02*
X117330844Y-125938200D01*
X116761900Y-125937780D02*
X117330424Y-125937780D01*
X115609160Y-125937780D02*
X115608740Y-125938200D01*
X116761900Y-125937780D02*
X115609160Y-125937780D01*
X110394120Y-121798000D02*
X110386500Y-121790380D01*
X110394120Y-122750080D02*
X110394120Y-121798000D01*
X110386500Y-121156220D02*
X109875960Y-120645680D01*
X110386500Y-121790380D02*
X110386500Y-121156220D01*
X110386500Y-121181620D02*
X110922440Y-120645680D01*
X110386500Y-121790380D02*
X110386500Y-121181620D01*
X111654200Y-117343440D02*
X110405120Y-118592520D01*
D47*
X111654200Y-117297200D02*
X111654200Y-117343440D01*
D46*
X110405120Y-119216520D02*
X110405120Y-118592520D01*
X109875960Y-119745680D02*
X110405120Y-119216520D01*
X110922440Y-119733840D02*
X110405120Y-119216520D01*
X110922440Y-119745680D02*
X110922440Y-119733840D01*
D48*
X112954200Y-115397200D02*
X114013200Y-115397200D01*
X108253260Y-133613720D02*
X108844120Y-133613720D01*
X107440100Y-134426880D02*
X108253260Y-133613720D01*
X107440100Y-135267200D02*
X107440100Y-134426880D01*
D47*
X107540100Y-135267200D02*
X107440100Y-135267200D01*
X105022020Y-138943000D02*
X105247593Y-138943000D01*
X106587800Y-151653160D02*
X106589420Y-151651540D01*
D48*
X105245540Y-151653160D02*
X106587800Y-151653160D01*
X105372019Y-138593001D02*
X105022020Y-138943000D01*
X107440100Y-135267200D02*
X108040100Y-135267200D01*
X108040100Y-135267200D02*
X108090101Y-135317201D01*
X108090101Y-135317201D02*
X108090101Y-137007759D01*
X108090101Y-137007759D02*
X107732200Y-137365660D01*
X107732200Y-137365660D02*
X106599360Y-137365660D01*
X106599360Y-137365660D02*
X105372019Y-138593001D01*
X105027100Y-143130378D02*
X105027100Y-141046120D01*
X104589380Y-143568098D02*
X105027100Y-143130378D01*
X104589380Y-144255818D02*
X104589380Y-143568098D01*
X103939389Y-148559440D02*
X103939389Y-144905809D01*
X103939389Y-144905809D02*
X104589380Y-144255818D01*
X116517599Y-129326221D02*
X122451839Y-129326221D01*
X115805097Y-128613719D02*
X116517599Y-129326221D01*
X113044121Y-128613719D02*
X115805097Y-128613719D01*
X112994120Y-129463720D02*
X112994120Y-128663720D01*
X112994120Y-128663720D02*
X113044121Y-128613719D01*
X122439321Y-129305719D02*
X122789320Y-128955720D01*
X123536080Y-128208960D02*
X123536080Y-121597340D01*
X114013200Y-115497200D02*
X114013200Y-115397200D01*
X114563201Y-116047201D02*
X114013200Y-115497200D01*
X115393201Y-116047201D02*
X114563201Y-116047201D01*
X115649163Y-115791239D02*
X115393201Y-116047201D01*
X119875953Y-115791239D02*
X115649163Y-115791239D01*
X123536080Y-119451366D02*
X119875953Y-115791239D01*
X123536080Y-119946340D02*
X123536080Y-119451366D01*
D46*
X112304200Y-112987160D02*
X112304200Y-115397200D01*
D48*
X116581560Y-150629320D02*
X117678840Y-149532040D01*
X116581560Y-150936880D02*
X116581560Y-150629320D01*
X112889420Y-151918840D02*
X112889420Y-153151540D01*
X113871380Y-150936880D02*
X112889420Y-151918840D01*
X117678840Y-149532040D02*
X119626320Y-149532040D01*
X113689640Y-153151760D02*
X113689420Y-153151540D01*
X117724780Y-153141600D02*
X117724560Y-153141380D01*
X113699580Y-153141380D02*
X113689420Y-153151540D01*
X117198340Y-153151540D02*
X117678840Y-153632040D01*
X113689420Y-153151540D02*
X117198340Y-153151540D01*
X119626320Y-153632040D02*
X117678840Y-153632040D01*
X111290740Y-144550220D02*
X111289420Y-144551540D01*
X111290740Y-142846980D02*
X111290740Y-144550220D01*
X108089700Y-156385820D02*
X108089700Y-156911780D01*
X108098160Y-156377360D02*
X108089700Y-156385820D01*
X104045529Y-152324729D02*
X108098160Y-156377360D01*
X104045529Y-151110049D02*
X104045529Y-152324729D01*
X106589420Y-150051540D02*
X105104038Y-150051540D01*
X105104038Y-150051540D02*
X104045529Y-151110049D01*
X106691020Y-150051540D02*
X108200000Y-150051540D01*
X105011158Y-150851540D02*
X104545539Y-151317159D01*
X106589420Y-150851540D02*
X105011158Y-150851540D01*
X109089700Y-156661780D02*
X109089700Y-156911780D01*
X104545539Y-152117619D02*
X109089700Y-156661780D01*
X104545539Y-151317159D02*
X104545539Y-152117619D01*
X108200000Y-150851540D02*
X106691020Y-150851540D01*
D46*
X115822520Y-120487360D02*
X116243484Y-120487360D01*
D48*
X116244564Y-120486280D02*
X116243484Y-120487360D01*
X116824560Y-120486280D02*
X116244564Y-120486280D01*
D46*
X110394120Y-128316480D02*
X110394120Y-129463720D01*
X110495720Y-128214880D02*
X110394120Y-128316480D01*
D48*
X120858080Y-125938200D02*
X120858920Y-125939040D01*
X119710840Y-125938200D02*
X120858080Y-125938200D01*
D46*
X120291676Y-125939040D02*
X120290836Y-125938200D01*
X120858920Y-125939040D02*
X120291676Y-125939040D01*
X111692060Y-129461660D02*
X111694120Y-129463720D01*
X111692060Y-126576438D02*
X111692060Y-129461660D01*
D48*
X116824560Y-118998080D02*
X116820320Y-118993840D01*
X116824560Y-119986280D02*
X116824560Y-118998080D01*
X119712960Y-126440320D02*
X119710840Y-126438200D01*
X119712960Y-127873680D02*
X119712960Y-126440320D01*
X110089700Y-156661780D02*
X110089700Y-156911780D01*
X110089700Y-156531778D02*
X109619701Y-156061779D01*
X110089700Y-156911780D02*
X110089700Y-156531778D01*
X109219819Y-156061779D02*
X109429741Y-156061779D01*
X105989760Y-152831720D02*
X109219819Y-156061779D01*
X109619701Y-156061779D02*
X109429741Y-156061779D01*
X103414240Y-149251540D02*
X102914240Y-149251540D01*
X103422141Y-149259441D02*
X103414240Y-149251540D01*
X105481519Y-149259441D02*
X103422141Y-149259441D01*
X105489420Y-149251540D02*
X105481519Y-149259441D01*
X106589420Y-149251540D02*
X105489420Y-149251540D01*
X102914240Y-149851540D02*
X102914240Y-149251540D01*
X102914240Y-151900560D02*
X102914240Y-149851540D01*
X103797740Y-152784060D02*
X102914240Y-151900560D01*
X103797740Y-152829180D02*
X103797740Y-152784060D01*
X105564201Y-143300397D02*
X105089390Y-143775208D01*
X104439399Y-147401519D02*
X105489420Y-148451540D01*
X105489420Y-148451540D02*
X106589420Y-148451540D01*
X105089390Y-144462928D02*
X104439399Y-145112919D01*
X110394120Y-135163720D02*
X110394120Y-135963720D01*
X105089390Y-143775208D02*
X105089390Y-144462928D01*
X104439399Y-145112919D02*
X104439399Y-147401519D01*
X110394120Y-135963720D02*
X108492170Y-137865670D01*
X106996688Y-137865670D02*
X108492170Y-137865670D01*
X105564201Y-139298157D02*
X106996688Y-137865670D01*
X105564201Y-143300397D02*
X105564201Y-139298157D01*
X106064211Y-143507507D02*
X105589400Y-143982318D01*
X104939409Y-145320029D02*
X104939409Y-147101529D01*
X105589400Y-144957129D02*
X105302309Y-144957129D01*
X111044120Y-136020840D02*
X108699280Y-138365680D01*
X105489420Y-147651540D02*
X106589420Y-147651540D01*
X105302309Y-144957129D02*
X104939409Y-145320029D01*
X111044120Y-135163720D02*
X111044120Y-136020840D01*
X104939409Y-147101529D02*
X105489420Y-147651540D01*
X105589400Y-143982318D02*
X105589400Y-144957129D01*
X107203798Y-138365680D02*
X108699280Y-138365680D01*
X106064211Y-139505267D02*
X107203798Y-138365680D01*
X106064211Y-143507507D02*
X106064211Y-139505267D01*
X105439419Y-146801539D02*
X105489420Y-146851540D01*
X105439419Y-145527139D02*
X105439419Y-146801539D01*
X105509419Y-145457139D02*
X105439419Y-145527139D01*
X106089410Y-145457139D02*
X105509419Y-145457139D01*
X111694120Y-135163720D02*
X111694120Y-136077960D01*
X111694120Y-136077960D02*
X108906390Y-138865690D01*
X106564221Y-143714617D02*
X106089410Y-144189428D01*
X105489420Y-146851540D02*
X106589420Y-146851540D01*
X106089410Y-144189428D02*
X106089410Y-145457139D01*
X107410908Y-138865690D02*
X108906390Y-138865690D01*
X106564221Y-139712377D02*
X107410908Y-138865690D01*
X106564221Y-143714617D02*
X106564221Y-139712377D01*
X112344120Y-135163720D02*
X112344120Y-136135080D01*
X112344120Y-136135080D02*
X111564201Y-136914999D01*
X111564201Y-136914999D02*
X111564201Y-140772401D01*
X106589420Y-146032140D02*
X106589420Y-144401529D01*
X106589420Y-144396538D02*
X107584419Y-143401539D01*
X106589420Y-144401529D02*
X106589420Y-144396538D01*
X107584419Y-141577441D02*
X107589410Y-141572450D01*
X107584419Y-143401539D02*
X107584419Y-141577441D01*
X111564201Y-140772401D02*
X111494201Y-140842401D01*
X107584419Y-141138672D02*
X107584419Y-141577441D01*
X107880690Y-140842401D02*
X107584419Y-141138672D01*
X111494201Y-140842401D02*
X107880690Y-140842401D01*
X112994120Y-136192200D02*
X112064211Y-137122109D01*
X112994120Y-135163720D02*
X112994120Y-136192200D01*
X112064211Y-137122109D02*
X112064211Y-140979511D01*
X112064211Y-140979511D02*
X111701311Y-141342411D01*
X108680790Y-141342411D02*
X108970831Y-141342411D01*
X108089420Y-141933781D02*
X108680790Y-141342411D01*
X108089420Y-144551540D02*
X108089420Y-141933781D01*
X111701311Y-141342411D02*
X108970831Y-141342411D01*
X113644120Y-136249320D02*
X112564221Y-137329219D01*
X113644120Y-135163720D02*
X113644120Y-136249320D01*
X112564221Y-137329219D02*
X112564221Y-141186621D01*
X112564221Y-141186621D02*
X111908421Y-141842421D01*
X108889420Y-142375582D02*
X109422581Y-141842421D01*
X108889420Y-144551540D02*
X108889420Y-142375582D01*
X111908421Y-141842421D02*
X109422581Y-141842421D01*
X114214420Y-144551540D02*
X113689420Y-144551540D01*
X117564201Y-141201759D02*
X114214420Y-144551540D01*
X117564201Y-134754499D02*
X117564201Y-141201759D01*
X115773422Y-132963720D02*
X117564201Y-134754499D01*
X114544120Y-132963720D02*
X115773422Y-132963720D01*
X115189420Y-144283660D02*
X115189420Y-146051540D01*
X118064211Y-141408869D02*
X115189420Y-144283660D01*
X118064211Y-134547389D02*
X118064211Y-141408869D01*
X114544120Y-132313720D02*
X115830542Y-132313720D01*
X115830542Y-132313720D02*
X118064211Y-134547389D01*
X116289420Y-146851540D02*
X115189420Y-146851540D01*
X115887662Y-131663720D02*
X118564221Y-134340279D01*
X118564221Y-134340279D02*
X118564221Y-141615979D01*
X118564221Y-141615979D02*
X116339421Y-143840779D01*
X114544120Y-131663720D02*
X115887662Y-131663720D01*
X116339421Y-143840779D02*
X116339421Y-146801539D01*
X116339421Y-146801539D02*
X116289420Y-146851540D01*
X119064231Y-141823089D02*
X116839431Y-144047889D01*
X115944782Y-131013720D02*
X123564201Y-138633139D01*
X114544120Y-131013720D02*
X115944782Y-131013720D01*
X123564201Y-138633139D02*
X123564201Y-140772401D01*
X123564201Y-140772401D02*
X123491142Y-140845460D01*
X123491142Y-140845460D02*
X119064231Y-140845460D01*
X119064231Y-140845460D02*
X119064231Y-141823089D01*
X116289420Y-148451540D02*
X115189420Y-148451540D01*
X116839431Y-147901529D02*
X116289420Y-148451540D01*
X116839431Y-144047889D02*
X116839431Y-147901529D01*
D46*
X108053433Y-102781020D02*
X102576000Y-108258453D01*
X122932760Y-102781020D02*
X108053433Y-102781020D01*
X102576000Y-108258453D02*
X102576000Y-108989000D01*
X112304200Y-112087580D02*
X103349580Y-112087580D01*
X102576000Y-111314000D02*
X102576000Y-111239000D01*
X103349580Y-112087580D02*
X102576000Y-111314000D01*
D49*
X119858160Y-155880860D02*
X117934798Y-155880860D01*
X112191300Y-156441778D02*
X112752218Y-155880860D01*
X112191300Y-156911780D02*
X112191300Y-156441778D01*
D46*
X117586455Y-155880860D02*
X117586455Y-156625805D01*
X116480905Y-155880860D02*
X116480905Y-156625805D01*
D49*
X116500860Y-155880860D02*
X117934798Y-155880860D01*
X112752218Y-155880860D02*
X116500860Y-155880860D01*
D48*
X115758680Y-158481355D02*
X116480905Y-158481355D01*
D46*
X115758680Y-157553580D02*
X115758680Y-158258576D01*
D50*
G36*
X113314300Y-156784780D02*
G01*
X113338300Y-156784780D01*
X113338300Y-157038780D01*
X113314300Y-157038780D01*
X113314300Y-157888030D01*
X113473050Y-158046780D01*
X113553228Y-158037816D01*
X113553228Y-161340000D01*
X107829372Y-161340000D01*
X107829372Y-158038828D01*
X107941300Y-158049852D01*
X108441300Y-158049852D01*
X108565782Y-158037592D01*
X108685480Y-158001282D01*
X108691300Y-157998171D01*
X108697120Y-158001282D01*
X108816818Y-158037592D01*
X108941300Y-158049852D01*
X109441300Y-158049852D01*
X109565782Y-158037592D01*
X109685480Y-158001282D01*
X109691300Y-157998171D01*
X109697120Y-158001282D01*
X109816818Y-158037592D01*
X109941300Y-158049852D01*
X110441300Y-158049852D01*
X110565782Y-158037592D01*
X110685480Y-158001282D01*
X110691300Y-157998171D01*
X110697120Y-158001282D01*
X110816818Y-158037592D01*
X110941300Y-158049852D01*
X111441300Y-158049852D01*
X111565782Y-158037592D01*
X111685480Y-158001282D01*
X111691300Y-157998171D01*
X111697120Y-158001282D01*
X111816818Y-158037592D01*
X111941300Y-158049852D01*
X112441300Y-158049852D01*
X112565782Y-158037592D01*
X112685480Y-158001282D01*
X112691218Y-157998215D01*
X112804691Y-158035057D01*
X112909550Y-158046780D01*
X113068300Y-157888030D01*
X113068300Y-157524200D01*
X113079372Y-157411780D01*
X113079372Y-156764780D01*
X113314300Y-156764780D01*
X113314300Y-156784780D01*
X113314300Y-156784780D01*
G37*
X113314300Y-156784780D02*
X113338300Y-156784780D01*
X113338300Y-157038780D01*
X113314300Y-157038780D01*
X113314300Y-157888030D01*
X113473050Y-158046780D01*
X113553228Y-158037816D01*
X113553228Y-161340000D01*
X107829372Y-161340000D01*
X107829372Y-158038828D01*
X107941300Y-158049852D01*
X108441300Y-158049852D01*
X108565782Y-158037592D01*
X108685480Y-158001282D01*
X108691300Y-157998171D01*
X108697120Y-158001282D01*
X108816818Y-158037592D01*
X108941300Y-158049852D01*
X109441300Y-158049852D01*
X109565782Y-158037592D01*
X109685480Y-158001282D01*
X109691300Y-157998171D01*
X109697120Y-158001282D01*
X109816818Y-158037592D01*
X109941300Y-158049852D01*
X110441300Y-158049852D01*
X110565782Y-158037592D01*
X110685480Y-158001282D01*
X110691300Y-157998171D01*
X110697120Y-158001282D01*
X110816818Y-158037592D01*
X110941300Y-158049852D01*
X111441300Y-158049852D01*
X111565782Y-158037592D01*
X111685480Y-158001282D01*
X111691300Y-157998171D01*
X111697120Y-158001282D01*
X111816818Y-158037592D01*
X111941300Y-158049852D01*
X112441300Y-158049852D01*
X112565782Y-158037592D01*
X112685480Y-158001282D01*
X112691218Y-157998215D01*
X112804691Y-158035057D01*
X112909550Y-158046780D01*
X113068300Y-157888030D01*
X113068300Y-157524200D01*
X113079372Y-157411780D01*
X113079372Y-156764780D01*
X113314300Y-156764780D01*
X113314300Y-156784780D01*
G36*
X129340001Y-149204883D02*
G01*
X129310000Y-149201928D01*
X125936036Y-149201928D01*
X125945000Y-149121750D01*
X125786250Y-148963000D01*
X124937000Y-148963000D01*
X124937000Y-148987000D01*
X124683000Y-148987000D01*
X124683000Y-148963000D01*
X123833750Y-148963000D01*
X123675000Y-149121750D01*
X123686723Y-149226609D01*
X123725350Y-149345579D01*
X123786445Y-149454728D01*
X123867660Y-149549860D01*
X123965874Y-149627320D01*
X124077312Y-149684131D01*
X124197692Y-149718111D01*
X124322388Y-149727952D01*
X124524250Y-149725000D01*
X124682998Y-149566252D01*
X124682998Y-149725000D01*
X124683254Y-149725000D01*
X124671928Y-149840000D01*
X124671928Y-150840000D01*
X124684188Y-150964482D01*
X124720498Y-151084180D01*
X124779463Y-151194494D01*
X124858815Y-151291185D01*
X124955506Y-151370537D01*
X125065820Y-151429502D01*
X125185518Y-151465812D01*
X125310000Y-151478072D01*
X129310000Y-151478072D01*
X129340001Y-151475117D01*
X129340001Y-161340000D01*
X115829372Y-161340000D01*
X115829372Y-159266355D01*
X116519466Y-159266355D01*
X116634792Y-159254996D01*
X116688445Y-159238720D01*
X116764969Y-159231184D01*
X116826930Y-159238580D01*
X116859177Y-159206333D01*
X116902860Y-159193082D01*
X117009605Y-159136025D01*
X117015390Y-159143074D01*
X117047260Y-159169229D01*
X118220323Y-160342293D01*
X118246469Y-160374152D01*
X118278328Y-160400298D01*
X118278329Y-160400299D01*
X118373613Y-160478497D01*
X118518672Y-160556033D01*
X118566418Y-160570516D01*
X118676071Y-160603779D01*
X118798741Y-160615861D01*
X118798742Y-160615861D01*
X118839758Y-160619901D01*
X118880775Y-160615861D01*
X120915832Y-160615859D01*
X120956860Y-160619900D01*
X121120548Y-160603778D01*
X121277946Y-160556032D01*
X121423005Y-160478496D01*
X121518288Y-160400299D01*
X121550151Y-160374150D01*
X121576301Y-160342286D01*
X121899655Y-160018932D01*
X123058460Y-160018932D01*
X123182942Y-160006672D01*
X123302640Y-159970362D01*
X123412954Y-159911397D01*
X123509645Y-159832045D01*
X123588997Y-159735354D01*
X123622388Y-159672886D01*
X123677947Y-159656032D01*
X123823006Y-159578496D01*
X123950151Y-159474151D01*
X123976304Y-159442283D01*
X124008604Y-159409983D01*
X124040471Y-159383831D01*
X124144816Y-159256686D01*
X124222352Y-159111627D01*
X124270098Y-158954229D01*
X124282180Y-158831559D01*
X124282180Y-158831558D01*
X124286220Y-158790540D01*
X124285805Y-158786323D01*
X124830497Y-158786323D01*
X124830497Y-159213677D01*
X124913870Y-159632821D01*
X125077412Y-160027645D01*
X125314837Y-160382977D01*
X125617023Y-160685163D01*
X125972355Y-160922588D01*
X126367179Y-161086130D01*
X126786323Y-161169503D01*
X127213677Y-161169503D01*
X127632821Y-161086130D01*
X128027645Y-160922588D01*
X128382977Y-160685163D01*
X128685163Y-160382977D01*
X128922588Y-160027645D01*
X129086130Y-159632821D01*
X129169503Y-159213677D01*
X129169503Y-158786323D01*
X129086130Y-158367179D01*
X128922588Y-157972355D01*
X128685163Y-157617023D01*
X128382977Y-157314837D01*
X128027645Y-157077412D01*
X127632821Y-156913870D01*
X127213677Y-156830497D01*
X126786323Y-156830497D01*
X126367179Y-156913870D01*
X125972355Y-157077412D01*
X125617023Y-157314837D01*
X125314837Y-157617023D01*
X125077412Y-157972355D01*
X124913870Y-158367179D01*
X124830497Y-158786323D01*
X124285805Y-158786323D01*
X124282180Y-158749522D01*
X124282180Y-154899658D01*
X124286220Y-154858640D01*
X124281749Y-154813240D01*
X124270098Y-154694951D01*
X124222352Y-154537553D01*
X124144816Y-154392494D01*
X124040471Y-154265349D01*
X124023255Y-154251220D01*
X123913326Y-154161004D01*
X123768267Y-154083468D01*
X123610869Y-154035722D01*
X123488199Y-154023640D01*
X123488198Y-154023640D01*
X123447180Y-154019600D01*
X123406161Y-154023640D01*
X123033640Y-154023640D01*
X123033640Y-148673640D01*
X123790390Y-148673640D01*
X123833750Y-148717000D01*
X124197580Y-148717000D01*
X124310000Y-148728072D01*
X125310000Y-148728072D01*
X125422420Y-148717000D01*
X125786250Y-148717000D01*
X125945000Y-148558250D01*
X125933277Y-148453391D01*
X125896435Y-148339918D01*
X125899502Y-148334180D01*
X125935812Y-148214482D01*
X125948072Y-148090000D01*
X125948072Y-147590000D01*
X125935812Y-147465518D01*
X125899502Y-147345820D01*
X125896391Y-147340000D01*
X125899502Y-147334180D01*
X125935812Y-147214482D01*
X125948072Y-147090000D01*
X125948072Y-146590000D01*
X125935812Y-146465518D01*
X125899502Y-146345820D01*
X125896391Y-146340000D01*
X125899502Y-146334180D01*
X125935812Y-146214482D01*
X125948072Y-146090000D01*
X125948072Y-145590000D01*
X125937048Y-145478072D01*
X129310000Y-145478072D01*
X129340001Y-145475117D01*
X129340001Y-149204883D01*
X129340001Y-149204883D01*
G37*
X129340001Y-149204883D02*
X129310000Y-149201928D01*
X125936036Y-149201928D01*
X125945000Y-149121750D01*
X125786250Y-148963000D01*
X124937000Y-148963000D01*
X124937000Y-148987000D01*
X124683000Y-148987000D01*
X124683000Y-148963000D01*
X123833750Y-148963000D01*
X123675000Y-149121750D01*
X123686723Y-149226609D01*
X123725350Y-149345579D01*
X123786445Y-149454728D01*
X123867660Y-149549860D01*
X123965874Y-149627320D01*
X124077312Y-149684131D01*
X124197692Y-149718111D01*
X124322388Y-149727952D01*
X124524250Y-149725000D01*
X124682998Y-149566252D01*
X124682998Y-149725000D01*
X124683254Y-149725000D01*
X124671928Y-149840000D01*
X124671928Y-150840000D01*
X124684188Y-150964482D01*
X124720498Y-151084180D01*
X124779463Y-151194494D01*
X124858815Y-151291185D01*
X124955506Y-151370537D01*
X125065820Y-151429502D01*
X125185518Y-151465812D01*
X125310000Y-151478072D01*
X129310000Y-151478072D01*
X129340001Y-151475117D01*
X129340001Y-161340000D01*
X115829372Y-161340000D01*
X115829372Y-159266355D01*
X116519466Y-159266355D01*
X116634792Y-159254996D01*
X116688445Y-159238720D01*
X116764969Y-159231184D01*
X116826930Y-159238580D01*
X116859177Y-159206333D01*
X116902860Y-159193082D01*
X117009605Y-159136025D01*
X117015390Y-159143074D01*
X117047260Y-159169229D01*
X118220323Y-160342293D01*
X118246469Y-160374152D01*
X118278328Y-160400298D01*
X118278329Y-160400299D01*
X118373613Y-160478497D01*
X118518672Y-160556033D01*
X118566418Y-160570516D01*
X118676071Y-160603779D01*
X118798741Y-160615861D01*
X118798742Y-160615861D01*
X118839758Y-160619901D01*
X118880775Y-160615861D01*
X120915832Y-160615859D01*
X120956860Y-160619900D01*
X121120548Y-160603778D01*
X121277946Y-160556032D01*
X121423005Y-160478496D01*
X121518288Y-160400299D01*
X121550151Y-160374150D01*
X121576301Y-160342286D01*
X121899655Y-160018932D01*
X123058460Y-160018932D01*
X123182942Y-160006672D01*
X123302640Y-159970362D01*
X123412954Y-159911397D01*
X123509645Y-159832045D01*
X123588997Y-159735354D01*
X123622388Y-159672886D01*
X123677947Y-159656032D01*
X123823006Y-159578496D01*
X123950151Y-159474151D01*
X123976304Y-159442283D01*
X124008604Y-159409983D01*
X124040471Y-159383831D01*
X124144816Y-159256686D01*
X124222352Y-159111627D01*
X124270098Y-158954229D01*
X124282180Y-158831559D01*
X124282180Y-158831558D01*
X124286220Y-158790540D01*
X124285805Y-158786323D01*
X124830497Y-158786323D01*
X124830497Y-159213677D01*
X124913870Y-159632821D01*
X125077412Y-160027645D01*
X125314837Y-160382977D01*
X125617023Y-160685163D01*
X125972355Y-160922588D01*
X126367179Y-161086130D01*
X126786323Y-161169503D01*
X127213677Y-161169503D01*
X127632821Y-161086130D01*
X128027645Y-160922588D01*
X128382977Y-160685163D01*
X128685163Y-160382977D01*
X128922588Y-160027645D01*
X129086130Y-159632821D01*
X129169503Y-159213677D01*
X129169503Y-158786323D01*
X129086130Y-158367179D01*
X128922588Y-157972355D01*
X128685163Y-157617023D01*
X128382977Y-157314837D01*
X128027645Y-157077412D01*
X127632821Y-156913870D01*
X127213677Y-156830497D01*
X126786323Y-156830497D01*
X126367179Y-156913870D01*
X125972355Y-157077412D01*
X125617023Y-157314837D01*
X125314837Y-157617023D01*
X125077412Y-157972355D01*
X124913870Y-158367179D01*
X124830497Y-158786323D01*
X124285805Y-158786323D01*
X124282180Y-158749522D01*
X124282180Y-154899658D01*
X124286220Y-154858640D01*
X124281749Y-154813240D01*
X124270098Y-154694951D01*
X124222352Y-154537553D01*
X124144816Y-154392494D01*
X124040471Y-154265349D01*
X124023255Y-154251220D01*
X123913326Y-154161004D01*
X123768267Y-154083468D01*
X123610869Y-154035722D01*
X123488199Y-154023640D01*
X123488198Y-154023640D01*
X123447180Y-154019600D01*
X123406161Y-154023640D01*
X123033640Y-154023640D01*
X123033640Y-148673640D01*
X123790390Y-148673640D01*
X123833750Y-148717000D01*
X124197580Y-148717000D01*
X124310000Y-148728072D01*
X125310000Y-148728072D01*
X125422420Y-148717000D01*
X125786250Y-148717000D01*
X125945000Y-148558250D01*
X125933277Y-148453391D01*
X125896435Y-148339918D01*
X125899502Y-148334180D01*
X125935812Y-148214482D01*
X125948072Y-148090000D01*
X125948072Y-147590000D01*
X125935812Y-147465518D01*
X125899502Y-147345820D01*
X125896391Y-147340000D01*
X125899502Y-147334180D01*
X125935812Y-147214482D01*
X125948072Y-147090000D01*
X125948072Y-146590000D01*
X125935812Y-146465518D01*
X125899502Y-146345820D01*
X125896391Y-146340000D01*
X125899502Y-146334180D01*
X125935812Y-146214482D01*
X125948072Y-146090000D01*
X125948072Y-145590000D01*
X125937048Y-145478072D01*
X129310000Y-145478072D01*
X129340001Y-145475117D01*
X129340001Y-149204883D01*
G36*
X103843096Y-155020696D02*
G01*
X103867674Y-155050644D01*
X103897622Y-155075222D01*
X103897625Y-155075225D01*
X103916328Y-155090574D01*
X103987205Y-155148742D01*
X104123578Y-155221634D01*
X104256668Y-155262006D01*
X104256668Y-155457420D01*
X104268928Y-155581902D01*
X104305238Y-155701600D01*
X104308529Y-155707757D01*
X104272334Y-155816896D01*
X104259740Y-155925670D01*
X104418490Y-156084420D01*
X104782320Y-156084420D01*
X104894740Y-156095492D01*
X105494740Y-156095492D01*
X105607160Y-156084420D01*
X105970990Y-156084420D01*
X106129740Y-155925670D01*
X106117146Y-155816896D01*
X106080951Y-155707757D01*
X106084242Y-155701600D01*
X106120552Y-155581902D01*
X106127007Y-155516364D01*
X107303228Y-156692585D01*
X107303228Y-156784732D01*
X107191300Y-156773708D01*
X106191300Y-156773708D01*
X106066818Y-156785968D01*
X105947120Y-156822278D01*
X105896714Y-156849221D01*
X105934181Y-156820051D01*
X106015992Y-156725432D01*
X106077772Y-156616669D01*
X106117146Y-156497944D01*
X106129740Y-156389170D01*
X105970990Y-156230420D01*
X105321740Y-156230420D01*
X105321740Y-156833670D01*
X105480490Y-156992420D01*
X105603097Y-156986224D01*
X105723689Y-156953002D01*
X105789796Y-156919823D01*
X105740115Y-156960595D01*
X105660763Y-157057286D01*
X105601798Y-157167600D01*
X105565488Y-157287298D01*
X105553228Y-157411780D01*
X105553228Y-161340000D01*
X100660000Y-161340000D01*
X100660000Y-158786323D01*
X100830497Y-158786323D01*
X100830497Y-159213677D01*
X100913870Y-159632821D01*
X101077412Y-160027645D01*
X101314837Y-160382977D01*
X101617023Y-160685163D01*
X101972355Y-160922588D01*
X102367179Y-161086130D01*
X102786323Y-161169503D01*
X103213677Y-161169503D01*
X103632821Y-161086130D01*
X104027645Y-160922588D01*
X104382977Y-160685163D01*
X104685163Y-160382977D01*
X104922588Y-160027645D01*
X105086130Y-159632821D01*
X105169503Y-159213677D01*
X105169503Y-158786323D01*
X105086130Y-158367179D01*
X104922588Y-157972355D01*
X104685163Y-157617023D01*
X104382977Y-157314837D01*
X104027645Y-157077412D01*
X103632821Y-156913870D01*
X103213677Y-156830497D01*
X102786323Y-156830497D01*
X102367179Y-156913870D01*
X101972355Y-157077412D01*
X101617023Y-157314837D01*
X101314837Y-157617023D01*
X101077412Y-157972355D01*
X100913870Y-158367179D01*
X100830497Y-158786323D01*
X100660000Y-158786323D01*
X100660000Y-156389170D01*
X104259740Y-156389170D01*
X104272334Y-156497944D01*
X104311708Y-156616669D01*
X104373488Y-156725432D01*
X104455299Y-156820051D01*
X104553998Y-156896893D01*
X104665791Y-156953002D01*
X104786383Y-156986224D01*
X104908990Y-156992420D01*
X105067740Y-156833670D01*
X105067740Y-156230420D01*
X104418490Y-156230420D01*
X104259740Y-156389170D01*
X100660000Y-156389170D01*
X100660000Y-151837599D01*
X103843096Y-155020696D01*
X103843096Y-155020696D01*
G37*
X103843096Y-155020696D02*
X103867674Y-155050644D01*
X103897622Y-155075222D01*
X103897625Y-155075225D01*
X103916328Y-155090574D01*
X103987205Y-155148742D01*
X104123578Y-155221634D01*
X104256668Y-155262006D01*
X104256668Y-155457420D01*
X104268928Y-155581902D01*
X104305238Y-155701600D01*
X104308529Y-155707757D01*
X104272334Y-155816896D01*
X104259740Y-155925670D01*
X104418490Y-156084420D01*
X104782320Y-156084420D01*
X104894740Y-156095492D01*
X105494740Y-156095492D01*
X105607160Y-156084420D01*
X105970990Y-156084420D01*
X106129740Y-155925670D01*
X106117146Y-155816896D01*
X106080951Y-155707757D01*
X106084242Y-155701600D01*
X106120552Y-155581902D01*
X106127007Y-155516364D01*
X107303228Y-156692585D01*
X107303228Y-156784732D01*
X107191300Y-156773708D01*
X106191300Y-156773708D01*
X106066818Y-156785968D01*
X105947120Y-156822278D01*
X105896714Y-156849221D01*
X105934181Y-156820051D01*
X106015992Y-156725432D01*
X106077772Y-156616669D01*
X106117146Y-156497944D01*
X106129740Y-156389170D01*
X105970990Y-156230420D01*
X105321740Y-156230420D01*
X105321740Y-156833670D01*
X105480490Y-156992420D01*
X105603097Y-156986224D01*
X105723689Y-156953002D01*
X105789796Y-156919823D01*
X105740115Y-156960595D01*
X105660763Y-157057286D01*
X105601798Y-157167600D01*
X105565488Y-157287298D01*
X105553228Y-157411780D01*
X105553228Y-161340000D01*
X100660000Y-161340000D01*
X100660000Y-158786323D01*
X100830497Y-158786323D01*
X100830497Y-159213677D01*
X100913870Y-159632821D01*
X101077412Y-160027645D01*
X101314837Y-160382977D01*
X101617023Y-160685163D01*
X101972355Y-160922588D01*
X102367179Y-161086130D01*
X102786323Y-161169503D01*
X103213677Y-161169503D01*
X103632821Y-161086130D01*
X104027645Y-160922588D01*
X104382977Y-160685163D01*
X104685163Y-160382977D01*
X104922588Y-160027645D01*
X105086130Y-159632821D01*
X105169503Y-159213677D01*
X105169503Y-158786323D01*
X105086130Y-158367179D01*
X104922588Y-157972355D01*
X104685163Y-157617023D01*
X104382977Y-157314837D01*
X104027645Y-157077412D01*
X103632821Y-156913870D01*
X103213677Y-156830497D01*
X102786323Y-156830497D01*
X102367179Y-156913870D01*
X101972355Y-157077412D01*
X101617023Y-157314837D01*
X101314837Y-157617023D01*
X101077412Y-157972355D01*
X100913870Y-158367179D01*
X100830497Y-158786323D01*
X100660000Y-158786323D01*
X100660000Y-156389170D01*
X104259740Y-156389170D01*
X104272334Y-156497944D01*
X104311708Y-156616669D01*
X104373488Y-156725432D01*
X104455299Y-156820051D01*
X104553998Y-156896893D01*
X104665791Y-156953002D01*
X104786383Y-156986224D01*
X104908990Y-156992420D01*
X105067740Y-156833670D01*
X105067740Y-156230420D01*
X104418490Y-156230420D01*
X104259740Y-156389170D01*
X100660000Y-156389170D01*
X100660000Y-151837599D01*
X103843096Y-155020696D01*
G36*
X122385460Y-155753860D02*
G01*
X122405460Y-155753860D01*
X122405460Y-156007860D01*
X122385460Y-156007860D01*
X122385460Y-156857110D01*
X122544210Y-157015860D01*
X122612181Y-157016266D01*
X122612181Y-157742788D01*
X121458460Y-157742788D01*
X121333978Y-157755048D01*
X121214280Y-157791358D01*
X121109110Y-157847573D01*
X121003940Y-157791358D01*
X120884242Y-157755048D01*
X120759760Y-157742788D01*
X120245510Y-157745860D01*
X120086760Y-157904610D01*
X120086760Y-158753860D01*
X120106760Y-158753860D01*
X120106760Y-158945861D01*
X119812760Y-158945861D01*
X119812760Y-158753860D01*
X119832760Y-158753860D01*
X119832760Y-157904610D01*
X119674010Y-157745860D01*
X119159760Y-157742788D01*
X119121752Y-157746531D01*
X119121752Y-157015189D01*
X119159760Y-157018932D01*
X120759760Y-157018932D01*
X120884242Y-157006672D01*
X121003940Y-156970362D01*
X121109110Y-156914147D01*
X121214280Y-156970362D01*
X121333978Y-157006672D01*
X121458460Y-157018932D01*
X121972710Y-157015860D01*
X122131460Y-156857110D01*
X122131460Y-156007860D01*
X122111460Y-156007860D01*
X122111460Y-155753860D01*
X122131460Y-155753860D01*
X122131460Y-155733860D01*
X122385460Y-155733860D01*
X122385460Y-155753860D01*
X122385460Y-155753860D01*
G37*
X122385460Y-155753860D02*
X122405460Y-155753860D01*
X122405460Y-156007860D01*
X122385460Y-156007860D01*
X122385460Y-156857110D01*
X122544210Y-157015860D01*
X122612181Y-157016266D01*
X122612181Y-157742788D01*
X121458460Y-157742788D01*
X121333978Y-157755048D01*
X121214280Y-157791358D01*
X121109110Y-157847573D01*
X121003940Y-157791358D01*
X120884242Y-157755048D01*
X120759760Y-157742788D01*
X120245510Y-157745860D01*
X120086760Y-157904610D01*
X120086760Y-158753860D01*
X120106760Y-158753860D01*
X120106760Y-158945861D01*
X119812760Y-158945861D01*
X119812760Y-158753860D01*
X119832760Y-158753860D01*
X119832760Y-157904610D01*
X119674010Y-157745860D01*
X119159760Y-157742788D01*
X119121752Y-157746531D01*
X119121752Y-157015189D01*
X119159760Y-157018932D01*
X120759760Y-157018932D01*
X120884242Y-157006672D01*
X121003940Y-156970362D01*
X121109110Y-156914147D01*
X121214280Y-156970362D01*
X121333978Y-157006672D01*
X121458460Y-157018932D01*
X121972710Y-157015860D01*
X122131460Y-156857110D01*
X122131460Y-156007860D01*
X122111460Y-156007860D01*
X122111460Y-155753860D01*
X122131460Y-155753860D01*
X122131460Y-155733860D01*
X122385460Y-155733860D01*
X122385460Y-155753860D01*
G36*
X117054186Y-157409117D02*
G01*
X117164500Y-157468082D01*
X117180680Y-157472990D01*
X117180680Y-157634170D01*
X117164500Y-157639078D01*
X117054186Y-157698043D01*
X117051095Y-157700580D01*
X117016265Y-157700580D01*
X117013174Y-157698043D01*
X116902860Y-157639078D01*
X116886680Y-157634170D01*
X116886680Y-157472990D01*
X116902860Y-157468082D01*
X117013174Y-157409117D01*
X117016265Y-157406580D01*
X117051095Y-157406580D01*
X117054186Y-157409117D01*
X117054186Y-157409117D01*
G37*
X117054186Y-157409117D02*
X117164500Y-157468082D01*
X117180680Y-157472990D01*
X117180680Y-157634170D01*
X117164500Y-157639078D01*
X117054186Y-157698043D01*
X117051095Y-157700580D01*
X117016265Y-157700580D01*
X117013174Y-157698043D01*
X116902860Y-157639078D01*
X116886680Y-157634170D01*
X116886680Y-157472990D01*
X116902860Y-157468082D01*
X117013174Y-157409117D01*
X117016265Y-157406580D01*
X117051095Y-157406580D01*
X117054186Y-157409117D01*
G36*
X118258748Y-143877356D02*
G01*
X118438006Y-143951607D01*
X118628306Y-143989460D01*
X118822334Y-143989460D01*
X119012634Y-143951607D01*
X119191892Y-143877356D01*
X119248829Y-143839312D01*
X121363641Y-143838812D01*
X121363640Y-147797621D01*
X121359600Y-147838640D01*
X121363641Y-147879669D01*
X121363641Y-148672069D01*
X121354920Y-148680790D01*
X121354920Y-149405040D01*
X121363641Y-149405040D01*
X121363641Y-149659040D01*
X121354920Y-149659040D01*
X121354920Y-150383290D01*
X121363641Y-150392011D01*
X121363640Y-152772070D01*
X121354920Y-152780790D01*
X121354920Y-153505040D01*
X121363640Y-153505040D01*
X121363640Y-153759040D01*
X121354920Y-153759040D01*
X121354920Y-153779040D01*
X121100920Y-153779040D01*
X121100920Y-153759040D01*
X121080920Y-153759040D01*
X121080920Y-153505040D01*
X121100920Y-153505040D01*
X121100920Y-152780790D01*
X120942170Y-152622040D01*
X120827920Y-152618968D01*
X120703438Y-152631228D01*
X120583740Y-152667538D01*
X120477920Y-152724101D01*
X120372100Y-152667538D01*
X120252402Y-152631228D01*
X120127920Y-152618968D01*
X119594546Y-152618968D01*
X119569942Y-152537860D01*
X119510977Y-152427546D01*
X119431625Y-152330855D01*
X119334934Y-152251503D01*
X119224620Y-152192538D01*
X119104922Y-152156228D01*
X118980440Y-152143968D01*
X116668095Y-152143968D01*
X116680522Y-152120720D01*
X116716832Y-152001022D01*
X116724627Y-151921880D01*
X116780174Y-151921880D01*
X116970474Y-151884027D01*
X117149732Y-151809776D01*
X117311061Y-151701979D01*
X117448259Y-151564781D01*
X117556056Y-151403452D01*
X117630307Y-151224194D01*
X117668160Y-151033894D01*
X117668160Y-151020112D01*
X118980440Y-151020112D01*
X119104922Y-151007852D01*
X119224620Y-150971542D01*
X119334934Y-150912577D01*
X119431625Y-150833225D01*
X119510977Y-150736534D01*
X119569942Y-150626220D01*
X119594546Y-150545112D01*
X120127920Y-150545112D01*
X120252402Y-150532852D01*
X120372100Y-150496542D01*
X120477920Y-150439979D01*
X120583740Y-150496542D01*
X120703438Y-150532852D01*
X120827920Y-150545112D01*
X120942170Y-150542040D01*
X121100920Y-150383290D01*
X121100920Y-149659040D01*
X121080920Y-149659040D01*
X121080920Y-149405040D01*
X121100920Y-149405040D01*
X121100920Y-148680790D01*
X120942170Y-148522040D01*
X120827920Y-148518968D01*
X120703438Y-148531228D01*
X120583740Y-148567538D01*
X120477920Y-148624101D01*
X120372100Y-148567538D01*
X120252402Y-148531228D01*
X120127920Y-148518968D01*
X119594546Y-148518968D01*
X119569942Y-148437860D01*
X119510977Y-148327546D01*
X119431625Y-148230855D01*
X119334934Y-148151503D01*
X119224620Y-148092538D01*
X119104922Y-148056228D01*
X118980440Y-148043968D01*
X117614200Y-148043968D01*
X117624431Y-147940090D01*
X117624431Y-147940083D01*
X117628228Y-147901530D01*
X117624431Y-147862977D01*
X117624431Y-144373046D01*
X118175648Y-143821830D01*
X118258748Y-143877356D01*
X118258748Y-143877356D01*
G37*
X118258748Y-143877356D02*
X118438006Y-143951607D01*
X118628306Y-143989460D01*
X118822334Y-143989460D01*
X119012634Y-143951607D01*
X119191892Y-143877356D01*
X119248829Y-143839312D01*
X121363641Y-143838812D01*
X121363640Y-147797621D01*
X121359600Y-147838640D01*
X121363641Y-147879669D01*
X121363641Y-148672069D01*
X121354920Y-148680790D01*
X121354920Y-149405040D01*
X121363641Y-149405040D01*
X121363641Y-149659040D01*
X121354920Y-149659040D01*
X121354920Y-150383290D01*
X121363641Y-150392011D01*
X121363640Y-152772070D01*
X121354920Y-152780790D01*
X121354920Y-153505040D01*
X121363640Y-153505040D01*
X121363640Y-153759040D01*
X121354920Y-153759040D01*
X121354920Y-153779040D01*
X121100920Y-153779040D01*
X121100920Y-153759040D01*
X121080920Y-153759040D01*
X121080920Y-153505040D01*
X121100920Y-153505040D01*
X121100920Y-152780790D01*
X120942170Y-152622040D01*
X120827920Y-152618968D01*
X120703438Y-152631228D01*
X120583740Y-152667538D01*
X120477920Y-152724101D01*
X120372100Y-152667538D01*
X120252402Y-152631228D01*
X120127920Y-152618968D01*
X119594546Y-152618968D01*
X119569942Y-152537860D01*
X119510977Y-152427546D01*
X119431625Y-152330855D01*
X119334934Y-152251503D01*
X119224620Y-152192538D01*
X119104922Y-152156228D01*
X118980440Y-152143968D01*
X116668095Y-152143968D01*
X116680522Y-152120720D01*
X116716832Y-152001022D01*
X116724627Y-151921880D01*
X116780174Y-151921880D01*
X116970474Y-151884027D01*
X117149732Y-151809776D01*
X117311061Y-151701979D01*
X117448259Y-151564781D01*
X117556056Y-151403452D01*
X117630307Y-151224194D01*
X117668160Y-151033894D01*
X117668160Y-151020112D01*
X118980440Y-151020112D01*
X119104922Y-151007852D01*
X119224620Y-150971542D01*
X119334934Y-150912577D01*
X119431625Y-150833225D01*
X119510977Y-150736534D01*
X119569942Y-150626220D01*
X119594546Y-150545112D01*
X120127920Y-150545112D01*
X120252402Y-150532852D01*
X120372100Y-150496542D01*
X120477920Y-150439979D01*
X120583740Y-150496542D01*
X120703438Y-150532852D01*
X120827920Y-150545112D01*
X120942170Y-150542040D01*
X121100920Y-150383290D01*
X121100920Y-149659040D01*
X121080920Y-149659040D01*
X121080920Y-149405040D01*
X121100920Y-149405040D01*
X121100920Y-148680790D01*
X120942170Y-148522040D01*
X120827920Y-148518968D01*
X120703438Y-148531228D01*
X120583740Y-148567538D01*
X120477920Y-148624101D01*
X120372100Y-148567538D01*
X120252402Y-148531228D01*
X120127920Y-148518968D01*
X119594546Y-148518968D01*
X119569942Y-148437860D01*
X119510977Y-148327546D01*
X119431625Y-148230855D01*
X119334934Y-148151503D01*
X119224620Y-148092538D01*
X119104922Y-148056228D01*
X118980440Y-148043968D01*
X117614200Y-148043968D01*
X117624431Y-147940090D01*
X117624431Y-147940083D01*
X117628228Y-147901530D01*
X117624431Y-147862977D01*
X117624431Y-144373046D01*
X118175648Y-143821830D01*
X118258748Y-143877356D01*
G36*
X110635483Y-145706034D02*
G01*
X110689020Y-145771269D01*
X110689020Y-145827790D01*
X110847770Y-145986540D01*
X110949378Y-145975520D01*
X110991361Y-145962131D01*
X111041538Y-145977352D01*
X111166020Y-145989612D01*
X111616020Y-145989612D01*
X111740502Y-145977352D01*
X111791020Y-145962028D01*
X111841538Y-145977352D01*
X111966020Y-145989612D01*
X112416020Y-145989612D01*
X112540502Y-145977352D01*
X112591020Y-145962028D01*
X112641538Y-145977352D01*
X112766020Y-145989612D01*
X113216020Y-145989612D01*
X113340502Y-145977352D01*
X113391020Y-145962028D01*
X113441538Y-145977352D01*
X113566020Y-145989612D01*
X113852948Y-145989612D01*
X113852948Y-146276540D01*
X113865208Y-146401022D01*
X113880532Y-146451540D01*
X113865208Y-146502058D01*
X113852948Y-146626540D01*
X113852948Y-147076540D01*
X113865208Y-147201022D01*
X113880532Y-147251540D01*
X113865208Y-147302058D01*
X113852948Y-147426540D01*
X113852948Y-147876540D01*
X113865208Y-148001022D01*
X113880532Y-148051540D01*
X113865208Y-148102058D01*
X113852948Y-148226540D01*
X113852948Y-148676540D01*
X113865208Y-148801022D01*
X113880532Y-148851540D01*
X113865208Y-148902058D01*
X113852948Y-149026540D01*
X113852948Y-149476540D01*
X113865208Y-149601022D01*
X113880532Y-149651540D01*
X113865208Y-149702058D01*
X113852948Y-149826540D01*
X113852948Y-149956459D01*
X113685666Y-149989733D01*
X113506408Y-150063984D01*
X113345079Y-150171781D01*
X113207881Y-150308979D01*
X113100084Y-150470308D01*
X113025833Y-150649566D01*
X113020196Y-150677907D01*
X112361610Y-151336493D01*
X112331656Y-151361076D01*
X112233558Y-151480608D01*
X112160666Y-151616981D01*
X112131397Y-151713468D01*
X111966020Y-151713468D01*
X111841538Y-151725728D01*
X111791361Y-151740949D01*
X111749378Y-151727560D01*
X111647770Y-151716540D01*
X111489020Y-151875290D01*
X111489020Y-151931811D01*
X111435483Y-151997046D01*
X111391020Y-152080229D01*
X111346557Y-151997046D01*
X111293020Y-151931811D01*
X111293020Y-151875290D01*
X111134270Y-151716540D01*
X111032662Y-151727560D01*
X110990679Y-151740949D01*
X110940502Y-151725728D01*
X110816020Y-151713468D01*
X110366020Y-151713468D01*
X110241538Y-151725728D01*
X110191361Y-151740949D01*
X110149378Y-151727560D01*
X110047770Y-151716540D01*
X109889020Y-151875290D01*
X109889020Y-151931811D01*
X109835483Y-151997046D01*
X109791020Y-152080229D01*
X109746557Y-151997046D01*
X109693020Y-151931811D01*
X109693020Y-151875290D01*
X109534270Y-151716540D01*
X109432662Y-151727560D01*
X109390679Y-151740949D01*
X109340502Y-151725728D01*
X109216020Y-151713468D01*
X108766020Y-151713468D01*
X108668632Y-151723060D01*
X108827901Y-151616639D01*
X108965099Y-151479441D01*
X109072896Y-151318112D01*
X109147147Y-151138854D01*
X109185000Y-150948554D01*
X109185000Y-150754526D01*
X109147147Y-150564226D01*
X109100471Y-150451540D01*
X109147147Y-150338854D01*
X109185000Y-150148554D01*
X109185000Y-149954526D01*
X109147147Y-149764226D01*
X109072896Y-149584968D01*
X108965099Y-149423639D01*
X108827901Y-149286441D01*
X108666572Y-149178644D01*
X108487314Y-149104393D01*
X108297014Y-149066540D01*
X108129092Y-149066540D01*
X108129092Y-149026540D01*
X108116832Y-148902058D01*
X108101508Y-148851540D01*
X108116832Y-148801022D01*
X108129092Y-148676540D01*
X108129092Y-148226540D01*
X108116832Y-148102058D01*
X108101508Y-148051540D01*
X108116832Y-148001022D01*
X108129092Y-147876540D01*
X108129092Y-147426540D01*
X108116832Y-147302058D01*
X108101508Y-147251540D01*
X108116832Y-147201022D01*
X108129092Y-147076540D01*
X108129092Y-146626540D01*
X108116832Y-146502058D01*
X108098565Y-146441840D01*
X108116832Y-146381622D01*
X108129092Y-146257140D01*
X108129092Y-145989612D01*
X108416020Y-145989612D01*
X108540502Y-145977352D01*
X108591020Y-145962028D01*
X108641538Y-145977352D01*
X108766020Y-145989612D01*
X109216020Y-145989612D01*
X109340502Y-145977352D01*
X109391020Y-145962028D01*
X109441538Y-145977352D01*
X109566020Y-145989612D01*
X110016020Y-145989612D01*
X110140502Y-145977352D01*
X110190679Y-145962131D01*
X110232662Y-145975520D01*
X110334270Y-145986540D01*
X110493020Y-145827790D01*
X110493020Y-145771269D01*
X110546557Y-145706034D01*
X110591020Y-145622851D01*
X110635483Y-145706034D01*
X110635483Y-145706034D01*
G37*
X110635483Y-145706034D02*
X110689020Y-145771269D01*
X110689020Y-145827790D01*
X110847770Y-145986540D01*
X110949378Y-145975520D01*
X110991361Y-145962131D01*
X111041538Y-145977352D01*
X111166020Y-145989612D01*
X111616020Y-145989612D01*
X111740502Y-145977352D01*
X111791020Y-145962028D01*
X111841538Y-145977352D01*
X111966020Y-145989612D01*
X112416020Y-145989612D01*
X112540502Y-145977352D01*
X112591020Y-145962028D01*
X112641538Y-145977352D01*
X112766020Y-145989612D01*
X113216020Y-145989612D01*
X113340502Y-145977352D01*
X113391020Y-145962028D01*
X113441538Y-145977352D01*
X113566020Y-145989612D01*
X113852948Y-145989612D01*
X113852948Y-146276540D01*
X113865208Y-146401022D01*
X113880532Y-146451540D01*
X113865208Y-146502058D01*
X113852948Y-146626540D01*
X113852948Y-147076540D01*
X113865208Y-147201022D01*
X113880532Y-147251540D01*
X113865208Y-147302058D01*
X113852948Y-147426540D01*
X113852948Y-147876540D01*
X113865208Y-148001022D01*
X113880532Y-148051540D01*
X113865208Y-148102058D01*
X113852948Y-148226540D01*
X113852948Y-148676540D01*
X113865208Y-148801022D01*
X113880532Y-148851540D01*
X113865208Y-148902058D01*
X113852948Y-149026540D01*
X113852948Y-149476540D01*
X113865208Y-149601022D01*
X113880532Y-149651540D01*
X113865208Y-149702058D01*
X113852948Y-149826540D01*
X113852948Y-149956459D01*
X113685666Y-149989733D01*
X113506408Y-150063984D01*
X113345079Y-150171781D01*
X113207881Y-150308979D01*
X113100084Y-150470308D01*
X113025833Y-150649566D01*
X113020196Y-150677907D01*
X112361610Y-151336493D01*
X112331656Y-151361076D01*
X112233558Y-151480608D01*
X112160666Y-151616981D01*
X112131397Y-151713468D01*
X111966020Y-151713468D01*
X111841538Y-151725728D01*
X111791361Y-151740949D01*
X111749378Y-151727560D01*
X111647770Y-151716540D01*
X111489020Y-151875290D01*
X111489020Y-151931811D01*
X111435483Y-151997046D01*
X111391020Y-152080229D01*
X111346557Y-151997046D01*
X111293020Y-151931811D01*
X111293020Y-151875290D01*
X111134270Y-151716540D01*
X111032662Y-151727560D01*
X110990679Y-151740949D01*
X110940502Y-151725728D01*
X110816020Y-151713468D01*
X110366020Y-151713468D01*
X110241538Y-151725728D01*
X110191361Y-151740949D01*
X110149378Y-151727560D01*
X110047770Y-151716540D01*
X109889020Y-151875290D01*
X109889020Y-151931811D01*
X109835483Y-151997046D01*
X109791020Y-152080229D01*
X109746557Y-151997046D01*
X109693020Y-151931811D01*
X109693020Y-151875290D01*
X109534270Y-151716540D01*
X109432662Y-151727560D01*
X109390679Y-151740949D01*
X109340502Y-151725728D01*
X109216020Y-151713468D01*
X108766020Y-151713468D01*
X108668632Y-151723060D01*
X108827901Y-151616639D01*
X108965099Y-151479441D01*
X109072896Y-151318112D01*
X109147147Y-151138854D01*
X109185000Y-150948554D01*
X109185000Y-150754526D01*
X109147147Y-150564226D01*
X109100471Y-150451540D01*
X109147147Y-150338854D01*
X109185000Y-150148554D01*
X109185000Y-149954526D01*
X109147147Y-149764226D01*
X109072896Y-149584968D01*
X108965099Y-149423639D01*
X108827901Y-149286441D01*
X108666572Y-149178644D01*
X108487314Y-149104393D01*
X108297014Y-149066540D01*
X108129092Y-149066540D01*
X108129092Y-149026540D01*
X108116832Y-148902058D01*
X108101508Y-148851540D01*
X108116832Y-148801022D01*
X108129092Y-148676540D01*
X108129092Y-148226540D01*
X108116832Y-148102058D01*
X108101508Y-148051540D01*
X108116832Y-148001022D01*
X108129092Y-147876540D01*
X108129092Y-147426540D01*
X108116832Y-147302058D01*
X108101508Y-147251540D01*
X108116832Y-147201022D01*
X108129092Y-147076540D01*
X108129092Y-146626540D01*
X108116832Y-146502058D01*
X108098565Y-146441840D01*
X108116832Y-146381622D01*
X108129092Y-146257140D01*
X108129092Y-145989612D01*
X108416020Y-145989612D01*
X108540502Y-145977352D01*
X108591020Y-145962028D01*
X108641538Y-145977352D01*
X108766020Y-145989612D01*
X109216020Y-145989612D01*
X109340502Y-145977352D01*
X109391020Y-145962028D01*
X109441538Y-145977352D01*
X109566020Y-145989612D01*
X110016020Y-145989612D01*
X110140502Y-145977352D01*
X110190679Y-145962131D01*
X110232662Y-145975520D01*
X110334270Y-145986540D01*
X110493020Y-145827790D01*
X110493020Y-145771269D01*
X110546557Y-145706034D01*
X110591020Y-145622851D01*
X110635483Y-145706034D01*
G36*
X102271200Y-132695400D02*
G01*
X102291200Y-132695400D01*
X102291200Y-132949400D01*
X102271200Y-132949400D01*
X102271200Y-135198650D01*
X102421388Y-135348838D01*
X102421388Y-135771400D01*
X102433648Y-135895882D01*
X102469958Y-136015580D01*
X102528923Y-136125894D01*
X102608275Y-136222585D01*
X102688870Y-136288727D01*
X102644200Y-136284328D01*
X102429950Y-136287400D01*
X102271200Y-136446150D01*
X102271200Y-138580400D01*
X103120450Y-138580400D01*
X103279200Y-138421650D01*
X103282272Y-136922400D01*
X103270012Y-136797918D01*
X103246143Y-136719230D01*
X104226820Y-136719230D01*
X104233016Y-136841837D01*
X104266238Y-136962429D01*
X104322347Y-137074222D01*
X104399189Y-137172921D01*
X104493808Y-137254732D01*
X104602571Y-137316512D01*
X104721296Y-137355886D01*
X104830070Y-137368480D01*
X104988820Y-137209730D01*
X104988820Y-136560480D01*
X104385570Y-136560480D01*
X104226820Y-136719230D01*
X103246143Y-136719230D01*
X103233702Y-136678220D01*
X103174737Y-136567906D01*
X103095385Y-136471215D01*
X103014790Y-136405073D01*
X103059460Y-136409472D01*
X104459460Y-136409472D01*
X104583942Y-136397212D01*
X104703640Y-136360902D01*
X104805455Y-136306480D01*
X104913465Y-136306480D01*
X105015280Y-136360902D01*
X105075220Y-136379085D01*
X105075220Y-136472040D01*
X105086579Y-136587366D01*
X105123748Y-136709896D01*
X105123748Y-136733480D01*
X105134820Y-136845900D01*
X105134820Y-137209730D01*
X105293570Y-137368480D01*
X105402344Y-137355886D01*
X105511483Y-137319691D01*
X105517640Y-137322982D01*
X105528566Y-137326296D01*
X104864647Y-137990216D01*
X104836306Y-137995853D01*
X104657048Y-138070104D01*
X104495719Y-138177901D01*
X104358521Y-138315099D01*
X104250724Y-138476428D01*
X104176473Y-138655686D01*
X104138620Y-138845986D01*
X104138620Y-138856532D01*
X103714950Y-138857400D01*
X103556200Y-139016150D01*
X103556200Y-139865400D01*
X103576200Y-139865400D01*
X103576200Y-140119400D01*
X103556200Y-140119400D01*
X103556200Y-140968650D01*
X103714950Y-141127400D01*
X104143700Y-141128279D01*
X104143700Y-141143134D01*
X104181553Y-141333434D01*
X104242101Y-141479609D01*
X104242100Y-142805221D01*
X104061566Y-142985755D01*
X104031617Y-143010334D01*
X104007039Y-143040282D01*
X104007035Y-143040286D01*
X103974070Y-143080454D01*
X103933519Y-143129865D01*
X103899495Y-143193520D01*
X103860626Y-143266239D01*
X103839169Y-143336975D01*
X103815739Y-143414211D01*
X103804380Y-143529537D01*
X103804380Y-143529545D01*
X103800583Y-143568098D01*
X103804380Y-143606651D01*
X103804380Y-143930660D01*
X103411574Y-144323467D01*
X103381626Y-144348045D01*
X103357048Y-144377993D01*
X103357044Y-144377997D01*
X103339508Y-144399365D01*
X103283528Y-144467576D01*
X103264372Y-144503415D01*
X103210635Y-144603950D01*
X103165748Y-144751923D01*
X103150592Y-144905809D01*
X103154390Y-144944372D01*
X103154389Y-148125952D01*
X103093842Y-148272126D01*
X103085619Y-148313468D01*
X102815840Y-148313468D01*
X102691358Y-148325728D01*
X102571660Y-148362038D01*
X102565840Y-148365149D01*
X102560020Y-148362038D01*
X102440322Y-148325728D01*
X102315840Y-148313468D01*
X101915840Y-148313468D01*
X101902781Y-148314754D01*
X101902781Y-141129942D01*
X102519164Y-141128679D01*
X102644200Y-141130472D01*
X102665447Y-141128379D01*
X103143450Y-141127400D01*
X103302200Y-140968650D01*
X103302200Y-140119400D01*
X103282200Y-140119400D01*
X103282200Y-139865400D01*
X103302200Y-139865400D01*
X103302200Y-139016150D01*
X103120450Y-138834400D01*
X102271200Y-138834400D01*
X102271200Y-138854400D01*
X102017200Y-138854400D01*
X102017200Y-138834400D01*
X101997200Y-138834400D01*
X101997200Y-138580400D01*
X102017200Y-138580400D01*
X102017200Y-136446150D01*
X101902781Y-136331731D01*
X101902781Y-135313069D01*
X102017200Y-135198650D01*
X102017200Y-132949400D01*
X101997200Y-132949400D01*
X101997200Y-132695400D01*
X102017200Y-132695400D01*
X102017200Y-132675400D01*
X102271200Y-132675400D01*
X102271200Y-132695400D01*
X102271200Y-132695400D01*
G37*
X102271200Y-132695400D02*
X102291200Y-132695400D01*
X102291200Y-132949400D01*
X102271200Y-132949400D01*
X102271200Y-135198650D01*
X102421388Y-135348838D01*
X102421388Y-135771400D01*
X102433648Y-135895882D01*
X102469958Y-136015580D01*
X102528923Y-136125894D01*
X102608275Y-136222585D01*
X102688870Y-136288727D01*
X102644200Y-136284328D01*
X102429950Y-136287400D01*
X102271200Y-136446150D01*
X102271200Y-138580400D01*
X103120450Y-138580400D01*
X103279200Y-138421650D01*
X103282272Y-136922400D01*
X103270012Y-136797918D01*
X103246143Y-136719230D01*
X104226820Y-136719230D01*
X104233016Y-136841837D01*
X104266238Y-136962429D01*
X104322347Y-137074222D01*
X104399189Y-137172921D01*
X104493808Y-137254732D01*
X104602571Y-137316512D01*
X104721296Y-137355886D01*
X104830070Y-137368480D01*
X104988820Y-137209730D01*
X104988820Y-136560480D01*
X104385570Y-136560480D01*
X104226820Y-136719230D01*
X103246143Y-136719230D01*
X103233702Y-136678220D01*
X103174737Y-136567906D01*
X103095385Y-136471215D01*
X103014790Y-136405073D01*
X103059460Y-136409472D01*
X104459460Y-136409472D01*
X104583942Y-136397212D01*
X104703640Y-136360902D01*
X104805455Y-136306480D01*
X104913465Y-136306480D01*
X105015280Y-136360902D01*
X105075220Y-136379085D01*
X105075220Y-136472040D01*
X105086579Y-136587366D01*
X105123748Y-136709896D01*
X105123748Y-136733480D01*
X105134820Y-136845900D01*
X105134820Y-137209730D01*
X105293570Y-137368480D01*
X105402344Y-137355886D01*
X105511483Y-137319691D01*
X105517640Y-137322982D01*
X105528566Y-137326296D01*
X104864647Y-137990216D01*
X104836306Y-137995853D01*
X104657048Y-138070104D01*
X104495719Y-138177901D01*
X104358521Y-138315099D01*
X104250724Y-138476428D01*
X104176473Y-138655686D01*
X104138620Y-138845986D01*
X104138620Y-138856532D01*
X103714950Y-138857400D01*
X103556200Y-139016150D01*
X103556200Y-139865400D01*
X103576200Y-139865400D01*
X103576200Y-140119400D01*
X103556200Y-140119400D01*
X103556200Y-140968650D01*
X103714950Y-141127400D01*
X104143700Y-141128279D01*
X104143700Y-141143134D01*
X104181553Y-141333434D01*
X104242101Y-141479609D01*
X104242100Y-142805221D01*
X104061566Y-142985755D01*
X104031617Y-143010334D01*
X104007039Y-143040282D01*
X104007035Y-143040286D01*
X103974070Y-143080454D01*
X103933519Y-143129865D01*
X103899495Y-143193520D01*
X103860626Y-143266239D01*
X103839169Y-143336975D01*
X103815739Y-143414211D01*
X103804380Y-143529537D01*
X103804380Y-143529545D01*
X103800583Y-143568098D01*
X103804380Y-143606651D01*
X103804380Y-143930660D01*
X103411574Y-144323467D01*
X103381626Y-144348045D01*
X103357048Y-144377993D01*
X103357044Y-144377997D01*
X103339508Y-144399365D01*
X103283528Y-144467576D01*
X103264372Y-144503415D01*
X103210635Y-144603950D01*
X103165748Y-144751923D01*
X103150592Y-144905809D01*
X103154390Y-144944372D01*
X103154389Y-148125952D01*
X103093842Y-148272126D01*
X103085619Y-148313468D01*
X102815840Y-148313468D01*
X102691358Y-148325728D01*
X102571660Y-148362038D01*
X102565840Y-148365149D01*
X102560020Y-148362038D01*
X102440322Y-148325728D01*
X102315840Y-148313468D01*
X101915840Y-148313468D01*
X101902781Y-148314754D01*
X101902781Y-141129942D01*
X102519164Y-141128679D01*
X102644200Y-141130472D01*
X102665447Y-141128379D01*
X103143450Y-141127400D01*
X103302200Y-140968650D01*
X103302200Y-140119400D01*
X103282200Y-140119400D01*
X103282200Y-139865400D01*
X103302200Y-139865400D01*
X103302200Y-139016150D01*
X103120450Y-138834400D01*
X102271200Y-138834400D01*
X102271200Y-138854400D01*
X102017200Y-138854400D01*
X102017200Y-138834400D01*
X101997200Y-138834400D01*
X101997200Y-138580400D01*
X102017200Y-138580400D01*
X102017200Y-136446150D01*
X101902781Y-136331731D01*
X101902781Y-135313069D01*
X102017200Y-135198650D01*
X102017200Y-132949400D01*
X101997200Y-132949400D01*
X101997200Y-132695400D01*
X102017200Y-132695400D01*
X102017200Y-132675400D01*
X102271200Y-132675400D01*
X102271200Y-132695400D01*
G36*
X109676602Y-143113468D02*
G01*
X109674420Y-143113468D01*
X109674420Y-142973982D01*
X109816088Y-142973982D01*
X109676602Y-143113468D01*
X109676602Y-143113468D01*
G37*
X109676602Y-143113468D02*
X109674420Y-143113468D01*
X109674420Y-142973982D01*
X109816088Y-142973982D01*
X109676602Y-143113468D01*
G36*
X110505740Y-142808420D02*
G01*
X110505740Y-142993980D01*
X110419340Y-142993980D01*
X110419340Y-142973980D01*
X110345340Y-142973980D01*
X110345340Y-142719980D01*
X110419340Y-142719980D01*
X110419340Y-142699980D01*
X110516421Y-142699980D01*
X110505740Y-142808420D01*
X110505740Y-142808420D01*
G37*
X110505740Y-142808420D02*
X110505740Y-142993980D01*
X110419340Y-142993980D01*
X110419340Y-142973980D01*
X110345340Y-142973980D01*
X110345340Y-142719980D01*
X110419340Y-142719980D01*
X110419340Y-142699980D01*
X110516421Y-142699980D01*
X110505740Y-142808420D01*
G36*
X109816088Y-142719978D02*
G01*
X109674420Y-142719978D01*
X109674420Y-142700739D01*
X109735635Y-142639525D01*
X109816088Y-142719978D01*
X109816088Y-142719978D01*
G37*
X109816088Y-142719978D02*
X109674420Y-142719978D01*
X109674420Y-142700739D01*
X109735635Y-142639525D01*
X109816088Y-142719978D01*
G36*
X115441200Y-139865400D02*
G01*
X115461200Y-139865400D01*
X115461200Y-140119400D01*
X115441200Y-140119400D01*
X115441200Y-140968650D01*
X115599950Y-141127400D01*
X116526639Y-141129164D01*
X115536122Y-142119681D01*
X115380434Y-142055193D01*
X115190134Y-142017340D01*
X114996106Y-142017340D01*
X114805806Y-142055193D01*
X114626548Y-142129444D01*
X114495003Y-142217340D01*
X113808250Y-142217340D01*
X113766250Y-142175340D01*
X113402420Y-142175340D01*
X113290000Y-142164268D01*
X112843000Y-142164268D01*
X112843000Y-142029340D01*
X112863000Y-142029340D01*
X112863000Y-141998000D01*
X112905660Y-141955340D01*
X113117000Y-141955340D01*
X113117000Y-142029340D01*
X113766250Y-142029340D01*
X113925000Y-141870590D01*
X113912406Y-141761816D01*
X113873032Y-141643091D01*
X113811252Y-141534328D01*
X113729441Y-141439709D01*
X113630742Y-141362867D01*
X113518949Y-141306758D01*
X113398357Y-141273536D01*
X113344725Y-141270826D01*
X113349221Y-141225182D01*
X113349221Y-141225175D01*
X113353018Y-141186622D01*
X113349221Y-141148069D01*
X113349221Y-141124072D01*
X113414200Y-141130472D01*
X115028450Y-141127400D01*
X115187200Y-140968650D01*
X115187200Y-140119400D01*
X115167200Y-140119400D01*
X115167200Y-139902600D01*
X115190134Y-139902600D01*
X115380434Y-139864747D01*
X115427142Y-139845400D01*
X115441200Y-139845400D01*
X115441200Y-139865400D01*
X115441200Y-139865400D01*
G37*
X115441200Y-139865400D02*
X115461200Y-139865400D01*
X115461200Y-140119400D01*
X115441200Y-140119400D01*
X115441200Y-140968650D01*
X115599950Y-141127400D01*
X116526639Y-141129164D01*
X115536122Y-142119681D01*
X115380434Y-142055193D01*
X115190134Y-142017340D01*
X114996106Y-142017340D01*
X114805806Y-142055193D01*
X114626548Y-142129444D01*
X114495003Y-142217340D01*
X113808250Y-142217340D01*
X113766250Y-142175340D01*
X113402420Y-142175340D01*
X113290000Y-142164268D01*
X112843000Y-142164268D01*
X112843000Y-142029340D01*
X112863000Y-142029340D01*
X112863000Y-141998000D01*
X112905660Y-141955340D01*
X113117000Y-141955340D01*
X113117000Y-142029340D01*
X113766250Y-142029340D01*
X113925000Y-141870590D01*
X113912406Y-141761816D01*
X113873032Y-141643091D01*
X113811252Y-141534328D01*
X113729441Y-141439709D01*
X113630742Y-141362867D01*
X113518949Y-141306758D01*
X113398357Y-141273536D01*
X113344725Y-141270826D01*
X113349221Y-141225182D01*
X113349221Y-141225175D01*
X113353018Y-141186622D01*
X113349221Y-141148069D01*
X113349221Y-141124072D01*
X113414200Y-141130472D01*
X115028450Y-141127400D01*
X115187200Y-140968650D01*
X115187200Y-140119400D01*
X115167200Y-140119400D01*
X115167200Y-139902600D01*
X115190134Y-139902600D01*
X115380434Y-139864747D01*
X115427142Y-139845400D01*
X115441200Y-139845400D01*
X115441200Y-139865400D01*
G36*
X115935256Y-129854036D02*
G01*
X115959835Y-129883985D01*
X115989783Y-129908563D01*
X115989786Y-129908566D01*
X116019158Y-129932671D01*
X116079366Y-129982083D01*
X116215739Y-130054975D01*
X116363712Y-130099862D01*
X116479038Y-130111221D01*
X116479046Y-130111221D01*
X116517599Y-130115018D01*
X116556152Y-130111221D01*
X122490400Y-130111221D01*
X122605726Y-130099862D01*
X122753699Y-130054975D01*
X122890072Y-129982083D01*
X122940472Y-129940720D01*
X122987934Y-129940720D01*
X123178234Y-129902867D01*
X123257771Y-129869922D01*
X123396833Y-129944252D01*
X123554231Y-129991998D01*
X123676901Y-130004080D01*
X128517680Y-130004080D01*
X128517680Y-130286285D01*
X128439950Y-130287400D01*
X128281200Y-130446150D01*
X128281200Y-132695400D01*
X128301200Y-132695400D01*
X128301200Y-132949400D01*
X128281200Y-132949400D01*
X128281200Y-135198650D01*
X128439950Y-135357400D01*
X128517681Y-135358515D01*
X128517681Y-136286285D01*
X128439950Y-136287400D01*
X128281200Y-136446150D01*
X128281200Y-138580400D01*
X128301200Y-138580400D01*
X128301200Y-138834400D01*
X128281200Y-138834400D01*
X128281200Y-138854400D01*
X128027200Y-138854400D01*
X128027200Y-138834400D01*
X127177950Y-138834400D01*
X127019200Y-138993150D01*
X127016128Y-140492400D01*
X127028388Y-140616882D01*
X127064698Y-140736580D01*
X127123663Y-140846894D01*
X127161200Y-140892633D01*
X127161200Y-140968650D01*
X127319950Y-141127400D01*
X127630263Y-141128114D01*
X127654200Y-141130472D01*
X127792560Y-141128488D01*
X128283893Y-141129619D01*
X127246090Y-142167422D01*
X122194549Y-142168617D01*
X122153626Y-142164586D01*
X122112506Y-142168636D01*
X122112406Y-142168636D01*
X119769338Y-142169190D01*
X119792985Y-142124949D01*
X119837872Y-141976976D01*
X119849231Y-141861650D01*
X119849231Y-141861643D01*
X119853028Y-141823090D01*
X119849231Y-141784537D01*
X119849231Y-141630460D01*
X123452589Y-141630460D01*
X123491142Y-141634257D01*
X123529695Y-141630460D01*
X123529703Y-141630460D01*
X123645029Y-141619101D01*
X123793002Y-141574214D01*
X123929375Y-141501322D01*
X124048906Y-141403224D01*
X124073489Y-141373270D01*
X124092011Y-141354748D01*
X124121965Y-141330165D01*
X124220063Y-141210634D01*
X124292955Y-141074261D01*
X124337842Y-140926288D01*
X124349201Y-140810962D01*
X124349201Y-140810954D01*
X124352998Y-140772402D01*
X124349201Y-140733849D01*
X124349201Y-140492400D01*
X124776128Y-140492400D01*
X124788388Y-140616882D01*
X124824698Y-140736580D01*
X124883663Y-140846894D01*
X124963015Y-140943585D01*
X125059706Y-141022937D01*
X125170020Y-141081902D01*
X125289718Y-141118212D01*
X125414200Y-141130472D01*
X126748450Y-141127400D01*
X126907200Y-140968650D01*
X126907200Y-140119400D01*
X124937950Y-140119400D01*
X124779200Y-140278150D01*
X124776128Y-140492400D01*
X124349201Y-140492400D01*
X124349201Y-139492400D01*
X124776128Y-139492400D01*
X124779200Y-139706650D01*
X124937950Y-139865400D01*
X126907200Y-139865400D01*
X126907200Y-139016150D01*
X126748450Y-138857400D01*
X125414200Y-138854328D01*
X125289718Y-138866588D01*
X125170020Y-138902898D01*
X125059706Y-138961863D01*
X124963015Y-139041215D01*
X124883663Y-139137906D01*
X124824698Y-139248220D01*
X124788388Y-139367918D01*
X124776128Y-139492400D01*
X124349201Y-139492400D01*
X124349201Y-138671695D01*
X124352998Y-138633139D01*
X124349201Y-138594579D01*
X124349201Y-138594578D01*
X124345221Y-138554165D01*
X124337843Y-138479252D01*
X124292955Y-138331279D01*
X124278322Y-138303902D01*
X124220063Y-138194906D01*
X124121965Y-138075375D01*
X124092012Y-138050793D01*
X122963619Y-136922400D01*
X127016128Y-136922400D01*
X127019200Y-138421650D01*
X127177950Y-138580400D01*
X128027200Y-138580400D01*
X128027200Y-136446150D01*
X127868450Y-136287400D01*
X127654200Y-136284328D01*
X127529718Y-136296588D01*
X127410020Y-136332898D01*
X127299706Y-136391863D01*
X127203015Y-136471215D01*
X127123663Y-136567906D01*
X127064698Y-136678220D01*
X127028388Y-136797918D01*
X127016128Y-136922400D01*
X122963619Y-136922400D01*
X120763619Y-134722400D01*
X127016128Y-134722400D01*
X127028388Y-134846882D01*
X127064698Y-134966580D01*
X127123663Y-135076894D01*
X127203015Y-135173585D01*
X127299706Y-135252937D01*
X127410020Y-135311902D01*
X127529718Y-135348212D01*
X127654200Y-135360472D01*
X127868450Y-135357400D01*
X128027200Y-135198650D01*
X128027200Y-132949400D01*
X127177950Y-132949400D01*
X127019200Y-133108150D01*
X127016128Y-134722400D01*
X120763619Y-134722400D01*
X116963619Y-130922400D01*
X127016128Y-130922400D01*
X127019200Y-132536650D01*
X127177950Y-132695400D01*
X128027200Y-132695400D01*
X128027200Y-130446150D01*
X127868450Y-130287400D01*
X127654200Y-130284328D01*
X127529718Y-130296588D01*
X127410020Y-130332898D01*
X127299706Y-130391863D01*
X127203015Y-130471215D01*
X127123663Y-130567906D01*
X127064698Y-130678220D01*
X127028388Y-130797918D01*
X127016128Y-130922400D01*
X116963619Y-130922400D01*
X116527128Y-130485909D01*
X116502546Y-130455956D01*
X116383015Y-130357858D01*
X116246642Y-130284966D01*
X116098669Y-130240079D01*
X115983343Y-130228720D01*
X115983335Y-130228720D01*
X115944782Y-130224923D01*
X115906229Y-130228720D01*
X115682192Y-130228720D01*
X115682192Y-130178720D01*
X115669932Y-130054238D01*
X115633622Y-129934540D01*
X115574657Y-129824226D01*
X115495305Y-129727535D01*
X115398614Y-129648183D01*
X115288300Y-129589218D01*
X115168602Y-129552908D01*
X115044120Y-129540648D01*
X114044120Y-129540648D01*
X113919638Y-129552908D01*
X113900626Y-129558675D01*
X113819120Y-129550648D01*
X113817192Y-129550672D01*
X113817192Y-129398719D01*
X115479940Y-129398719D01*
X115935256Y-129854036D01*
X115935256Y-129854036D01*
G37*
X115935256Y-129854036D02*
X115959835Y-129883985D01*
X115989783Y-129908563D01*
X115989786Y-129908566D01*
X116019158Y-129932671D01*
X116079366Y-129982083D01*
X116215739Y-130054975D01*
X116363712Y-130099862D01*
X116479038Y-130111221D01*
X116479046Y-130111221D01*
X116517599Y-130115018D01*
X116556152Y-130111221D01*
X122490400Y-130111221D01*
X122605726Y-130099862D01*
X122753699Y-130054975D01*
X122890072Y-129982083D01*
X122940472Y-129940720D01*
X122987934Y-129940720D01*
X123178234Y-129902867D01*
X123257771Y-129869922D01*
X123396833Y-129944252D01*
X123554231Y-129991998D01*
X123676901Y-130004080D01*
X128517680Y-130004080D01*
X128517680Y-130286285D01*
X128439950Y-130287400D01*
X128281200Y-130446150D01*
X128281200Y-132695400D01*
X128301200Y-132695400D01*
X128301200Y-132949400D01*
X128281200Y-132949400D01*
X128281200Y-135198650D01*
X128439950Y-135357400D01*
X128517681Y-135358515D01*
X128517681Y-136286285D01*
X128439950Y-136287400D01*
X128281200Y-136446150D01*
X128281200Y-138580400D01*
X128301200Y-138580400D01*
X128301200Y-138834400D01*
X128281200Y-138834400D01*
X128281200Y-138854400D01*
X128027200Y-138854400D01*
X128027200Y-138834400D01*
X127177950Y-138834400D01*
X127019200Y-138993150D01*
X127016128Y-140492400D01*
X127028388Y-140616882D01*
X127064698Y-140736580D01*
X127123663Y-140846894D01*
X127161200Y-140892633D01*
X127161200Y-140968650D01*
X127319950Y-141127400D01*
X127630263Y-141128114D01*
X127654200Y-141130472D01*
X127792560Y-141128488D01*
X128283893Y-141129619D01*
X127246090Y-142167422D01*
X122194549Y-142168617D01*
X122153626Y-142164586D01*
X122112506Y-142168636D01*
X122112406Y-142168636D01*
X119769338Y-142169190D01*
X119792985Y-142124949D01*
X119837872Y-141976976D01*
X119849231Y-141861650D01*
X119849231Y-141861643D01*
X119853028Y-141823090D01*
X119849231Y-141784537D01*
X119849231Y-141630460D01*
X123452589Y-141630460D01*
X123491142Y-141634257D01*
X123529695Y-141630460D01*
X123529703Y-141630460D01*
X123645029Y-141619101D01*
X123793002Y-141574214D01*
X123929375Y-141501322D01*
X124048906Y-141403224D01*
X124073489Y-141373270D01*
X124092011Y-141354748D01*
X124121965Y-141330165D01*
X124220063Y-141210634D01*
X124292955Y-141074261D01*
X124337842Y-140926288D01*
X124349201Y-140810962D01*
X124349201Y-140810954D01*
X124352998Y-140772402D01*
X124349201Y-140733849D01*
X124349201Y-140492400D01*
X124776128Y-140492400D01*
X124788388Y-140616882D01*
X124824698Y-140736580D01*
X124883663Y-140846894D01*
X124963015Y-140943585D01*
X125059706Y-141022937D01*
X125170020Y-141081902D01*
X125289718Y-141118212D01*
X125414200Y-141130472D01*
X126748450Y-141127400D01*
X126907200Y-140968650D01*
X126907200Y-140119400D01*
X124937950Y-140119400D01*
X124779200Y-140278150D01*
X124776128Y-140492400D01*
X124349201Y-140492400D01*
X124349201Y-139492400D01*
X124776128Y-139492400D01*
X124779200Y-139706650D01*
X124937950Y-139865400D01*
X126907200Y-139865400D01*
X126907200Y-139016150D01*
X126748450Y-138857400D01*
X125414200Y-138854328D01*
X125289718Y-138866588D01*
X125170020Y-138902898D01*
X125059706Y-138961863D01*
X124963015Y-139041215D01*
X124883663Y-139137906D01*
X124824698Y-139248220D01*
X124788388Y-139367918D01*
X124776128Y-139492400D01*
X124349201Y-139492400D01*
X124349201Y-138671695D01*
X124352998Y-138633139D01*
X124349201Y-138594579D01*
X124349201Y-138594578D01*
X124345221Y-138554165D01*
X124337843Y-138479252D01*
X124292955Y-138331279D01*
X124278322Y-138303902D01*
X124220063Y-138194906D01*
X124121965Y-138075375D01*
X124092012Y-138050793D01*
X122963619Y-136922400D01*
X127016128Y-136922400D01*
X127019200Y-138421650D01*
X127177950Y-138580400D01*
X128027200Y-138580400D01*
X128027200Y-136446150D01*
X127868450Y-136287400D01*
X127654200Y-136284328D01*
X127529718Y-136296588D01*
X127410020Y-136332898D01*
X127299706Y-136391863D01*
X127203015Y-136471215D01*
X127123663Y-136567906D01*
X127064698Y-136678220D01*
X127028388Y-136797918D01*
X127016128Y-136922400D01*
X122963619Y-136922400D01*
X120763619Y-134722400D01*
X127016128Y-134722400D01*
X127028388Y-134846882D01*
X127064698Y-134966580D01*
X127123663Y-135076894D01*
X127203015Y-135173585D01*
X127299706Y-135252937D01*
X127410020Y-135311902D01*
X127529718Y-135348212D01*
X127654200Y-135360472D01*
X127868450Y-135357400D01*
X128027200Y-135198650D01*
X128027200Y-132949400D01*
X127177950Y-132949400D01*
X127019200Y-133108150D01*
X127016128Y-134722400D01*
X120763619Y-134722400D01*
X116963619Y-130922400D01*
X127016128Y-130922400D01*
X127019200Y-132536650D01*
X127177950Y-132695400D01*
X128027200Y-132695400D01*
X128027200Y-130446150D01*
X127868450Y-130287400D01*
X127654200Y-130284328D01*
X127529718Y-130296588D01*
X127410020Y-130332898D01*
X127299706Y-130391863D01*
X127203015Y-130471215D01*
X127123663Y-130567906D01*
X127064698Y-130678220D01*
X127028388Y-130797918D01*
X127016128Y-130922400D01*
X116963619Y-130922400D01*
X116527128Y-130485909D01*
X116502546Y-130455956D01*
X116383015Y-130357858D01*
X116246642Y-130284966D01*
X116098669Y-130240079D01*
X115983343Y-130228720D01*
X115983335Y-130228720D01*
X115944782Y-130224923D01*
X115906229Y-130228720D01*
X115682192Y-130228720D01*
X115682192Y-130178720D01*
X115669932Y-130054238D01*
X115633622Y-129934540D01*
X115574657Y-129824226D01*
X115495305Y-129727535D01*
X115398614Y-129648183D01*
X115288300Y-129589218D01*
X115168602Y-129552908D01*
X115044120Y-129540648D01*
X114044120Y-129540648D01*
X113919638Y-129552908D01*
X113900626Y-129558675D01*
X113819120Y-129550648D01*
X113817192Y-129550672D01*
X113817192Y-129398719D01*
X115479940Y-129398719D01*
X115935256Y-129854036D01*
G36*
X122676257Y-138855352D02*
G01*
X121599950Y-138857400D01*
X121441200Y-139016150D01*
X121441200Y-139865400D01*
X121461200Y-139865400D01*
X121461200Y-140060460D01*
X121167200Y-140060460D01*
X121167200Y-139865400D01*
X121187200Y-139865400D01*
X121187200Y-139016150D01*
X121028450Y-138857400D01*
X119414200Y-138854328D01*
X119349221Y-138860728D01*
X119349221Y-135528316D01*
X122676257Y-138855352D01*
X122676257Y-138855352D01*
G37*
X122676257Y-138855352D02*
X121599950Y-138857400D01*
X121441200Y-139016150D01*
X121441200Y-139865400D01*
X121461200Y-139865400D01*
X121461200Y-140060460D01*
X121167200Y-140060460D01*
X121167200Y-139865400D01*
X121187200Y-139865400D01*
X121187200Y-139016150D01*
X121028450Y-138857400D01*
X119414200Y-138854328D01*
X119349221Y-138860728D01*
X119349221Y-135528316D01*
X122676257Y-138855352D01*
G36*
X109441200Y-139865400D02*
G01*
X109461200Y-139865400D01*
X109461200Y-140057401D01*
X109167200Y-140057401D01*
X109167200Y-139865400D01*
X109187200Y-139865400D01*
X109187200Y-139845400D01*
X109441200Y-139845400D01*
X109441200Y-139865400D01*
X109441200Y-139865400D01*
G37*
X109441200Y-139865400D02*
X109461200Y-139865400D01*
X109461200Y-140057401D01*
X109167200Y-140057401D01*
X109167200Y-139865400D01*
X109187200Y-139865400D01*
X109187200Y-139845400D01*
X109441200Y-139845400D01*
X109441200Y-139865400D01*
G36*
X114206520Y-138484112D02*
G01*
X114145973Y-138630286D01*
X114108120Y-138820586D01*
X114108120Y-138855649D01*
X113414200Y-138854328D01*
X113349221Y-138860728D01*
X113349221Y-137654376D01*
X114171930Y-136831667D01*
X114201884Y-136807084D01*
X114206521Y-136801434D01*
X114206520Y-138484112D01*
X114206520Y-138484112D01*
G37*
X114206520Y-138484112D02*
X114145973Y-138630286D01*
X114108120Y-138820586D01*
X114108120Y-138855649D01*
X113414200Y-138854328D01*
X113349221Y-138860728D01*
X113349221Y-137654376D01*
X114171930Y-136831667D01*
X114201884Y-136807084D01*
X114206521Y-136801434D01*
X114206520Y-138484112D01*
G36*
X110779202Y-138855156D02*
G01*
X110025647Y-138856590D01*
X110779201Y-138103036D01*
X110779202Y-138855156D01*
X110779202Y-138855156D01*
G37*
X110779202Y-138855156D02*
X110025647Y-138856590D01*
X110779201Y-138103036D01*
X110779202Y-138855156D01*
G36*
X116779201Y-135079657D02*
G01*
X116779201Y-135927117D01*
X116737253Y-135843538D01*
X116660411Y-135744839D01*
X116565792Y-135663028D01*
X116457029Y-135601248D01*
X116338304Y-135561874D01*
X116229530Y-135549280D01*
X116070780Y-135708030D01*
X116070780Y-136357280D01*
X116144780Y-136357280D01*
X116144780Y-136611280D01*
X116070780Y-136611280D01*
X116070780Y-137260530D01*
X116229530Y-137419280D01*
X116338304Y-137406686D01*
X116457029Y-137367312D01*
X116565792Y-137305532D01*
X116660411Y-137223721D01*
X116737253Y-137125022D01*
X116779201Y-137041443D01*
X116779202Y-138855156D01*
X116078120Y-138856490D01*
X116078120Y-138820586D01*
X116040267Y-138630286D01*
X115966016Y-138451028D01*
X115858219Y-138289699D01*
X115776520Y-138208000D01*
X115776520Y-137408790D01*
X115924780Y-137260530D01*
X115924780Y-136896700D01*
X115935852Y-136784280D01*
X115935852Y-136184280D01*
X115924780Y-136071860D01*
X115924780Y-135708030D01*
X115781180Y-135564430D01*
X115781180Y-134754332D01*
X115784977Y-134715779D01*
X115781180Y-134677226D01*
X115781180Y-134677219D01*
X115769821Y-134561893D01*
X115766250Y-134550119D01*
X115748001Y-134489962D01*
X115724934Y-134413920D01*
X115682192Y-134333954D01*
X115682192Y-134078720D01*
X115671696Y-133972152D01*
X116779201Y-135079657D01*
X116779201Y-135079657D01*
G37*
X116779201Y-135079657D02*
X116779201Y-135927117D01*
X116737253Y-135843538D01*
X116660411Y-135744839D01*
X116565792Y-135663028D01*
X116457029Y-135601248D01*
X116338304Y-135561874D01*
X116229530Y-135549280D01*
X116070780Y-135708030D01*
X116070780Y-136357280D01*
X116144780Y-136357280D01*
X116144780Y-136611280D01*
X116070780Y-136611280D01*
X116070780Y-137260530D01*
X116229530Y-137419280D01*
X116338304Y-137406686D01*
X116457029Y-137367312D01*
X116565792Y-137305532D01*
X116660411Y-137223721D01*
X116737253Y-137125022D01*
X116779201Y-137041443D01*
X116779202Y-138855156D01*
X116078120Y-138856490D01*
X116078120Y-138820586D01*
X116040267Y-138630286D01*
X115966016Y-138451028D01*
X115858219Y-138289699D01*
X115776520Y-138208000D01*
X115776520Y-137408790D01*
X115924780Y-137260530D01*
X115924780Y-136896700D01*
X115935852Y-136784280D01*
X115935852Y-136184280D01*
X115924780Y-136071860D01*
X115924780Y-135708030D01*
X115781180Y-135564430D01*
X115781180Y-134754332D01*
X115784977Y-134715779D01*
X115781180Y-134677226D01*
X115781180Y-134677219D01*
X115769821Y-134561893D01*
X115766250Y-134550119D01*
X115748001Y-134489962D01*
X115724934Y-134413920D01*
X115682192Y-134333954D01*
X115682192Y-134078720D01*
X115671696Y-133972152D01*
X116779201Y-135079657D01*
G36*
X108931048Y-134438720D02*
G01*
X108939266Y-134522161D01*
X108931009Y-134551412D01*
X108921168Y-134676108D01*
X108924120Y-134877970D01*
X109129870Y-135083720D01*
X109331732Y-135086672D01*
X109456428Y-135076831D01*
X109485679Y-135068574D01*
X109569120Y-135076792D01*
X109571048Y-135076768D01*
X109571048Y-135290720D01*
X109082870Y-135290720D01*
X108924120Y-135449470D01*
X108921168Y-135651332D01*
X108931009Y-135776028D01*
X108964989Y-135896408D01*
X109021800Y-136007846D01*
X109099260Y-136106060D01*
X109122113Y-136125570D01*
X108875101Y-136372582D01*
X108875101Y-135355753D01*
X108878898Y-135317200D01*
X108875101Y-135278647D01*
X108875101Y-135278640D01*
X108863742Y-135163314D01*
X108818855Y-135015341D01*
X108745963Y-134878968D01*
X108717120Y-134843823D01*
X108717120Y-134436792D01*
X108931072Y-134436792D01*
X108931048Y-134438720D01*
X108931048Y-134438720D01*
G37*
X108931048Y-134438720D02*
X108939266Y-134522161D01*
X108931009Y-134551412D01*
X108921168Y-134676108D01*
X108924120Y-134877970D01*
X109129870Y-135083720D01*
X109331732Y-135086672D01*
X109456428Y-135076831D01*
X109485679Y-135068574D01*
X109569120Y-135076792D01*
X109571048Y-135076768D01*
X109571048Y-135290720D01*
X109082870Y-135290720D01*
X108924120Y-135449470D01*
X108921168Y-135651332D01*
X108931009Y-135776028D01*
X108964989Y-135896408D01*
X109021800Y-136007846D01*
X109099260Y-136106060D01*
X109122113Y-136125570D01*
X108875101Y-136372582D01*
X108875101Y-135355753D01*
X108878898Y-135317200D01*
X108875101Y-135278647D01*
X108875101Y-135278640D01*
X108863742Y-135163314D01*
X108818855Y-135015341D01*
X108745963Y-134878968D01*
X108717120Y-134843823D01*
X108717120Y-134436792D01*
X108931072Y-134436792D01*
X108931048Y-134438720D01*
G36*
X111217870Y-130592970D02*
G01*
X111255120Y-130592970D01*
X111260870Y-130598720D01*
X111312302Y-130592970D01*
X111419546Y-130592970D01*
X111509120Y-130601792D01*
X111879120Y-130601792D01*
X111968694Y-130592970D01*
X112069546Y-130592970D01*
X112159120Y-130601792D01*
X112529120Y-130601792D01*
X112618694Y-130592970D01*
X112719546Y-130592970D01*
X112809120Y-130601792D01*
X113179120Y-130601792D01*
X113303602Y-130589532D01*
X113317414Y-130585342D01*
X113322511Y-130586997D01*
X113410790Y-130596866D01*
X113418308Y-130673202D01*
X113423015Y-130688720D01*
X113418308Y-130704238D01*
X113406048Y-130828720D01*
X113406048Y-131198720D01*
X113414870Y-131288294D01*
X113414870Y-131389146D01*
X113406048Y-131478720D01*
X113406048Y-131848720D01*
X113414870Y-131938294D01*
X113414870Y-132039146D01*
X113406048Y-132128720D01*
X113406048Y-132498720D01*
X113414870Y-132588294D01*
X113414870Y-132689146D01*
X113406048Y-132778720D01*
X113406048Y-133148720D01*
X113414870Y-133238294D01*
X113414870Y-133345538D01*
X113409120Y-133396970D01*
X113414870Y-133402720D01*
X113414870Y-133824720D01*
X113409120Y-133830470D01*
X113420843Y-133935329D01*
X113422498Y-133940426D01*
X113418308Y-133954238D01*
X113410806Y-134030406D01*
X113334638Y-134037908D01*
X113319120Y-134042615D01*
X113303602Y-134037908D01*
X113179120Y-134025648D01*
X112809120Y-134025648D01*
X112719546Y-134034470D01*
X112618694Y-134034470D01*
X112529120Y-134025648D01*
X112159120Y-134025648D01*
X112069546Y-134034470D01*
X111968694Y-134034470D01*
X111879120Y-134025648D01*
X111509120Y-134025648D01*
X111419546Y-134034470D01*
X111318694Y-134034470D01*
X111229120Y-134025648D01*
X110859120Y-134025648D01*
X110769546Y-134034470D01*
X110668694Y-134034470D01*
X110579120Y-134025648D01*
X110209120Y-134025648D01*
X110084638Y-134037908D01*
X110070826Y-134042098D01*
X110065729Y-134040443D01*
X109977285Y-134030555D01*
X109967397Y-133942111D01*
X109965742Y-133937014D01*
X109969932Y-133923202D01*
X109982192Y-133798720D01*
X109982192Y-133428720D01*
X109973370Y-133339146D01*
X109973370Y-133238294D01*
X109982192Y-133148720D01*
X109982192Y-132778720D01*
X109973370Y-132689146D01*
X109973370Y-132588294D01*
X109982192Y-132498720D01*
X109982192Y-132128720D01*
X109973370Y-132039146D01*
X109973370Y-131938294D01*
X109982192Y-131848720D01*
X109982192Y-131478720D01*
X109973370Y-131389146D01*
X109973370Y-131288294D01*
X109977021Y-131251220D01*
X109993548Y-131251220D01*
X109996620Y-131496720D01*
X110095880Y-131595980D01*
X110101083Y-131605714D01*
X110180435Y-131702405D01*
X110277126Y-131781757D01*
X110278460Y-131782470D01*
X110277126Y-131783183D01*
X110180435Y-131862535D01*
X110101083Y-131959226D01*
X110095880Y-131968960D01*
X109996620Y-132068220D01*
X109993548Y-132313720D01*
X109996620Y-132559220D01*
X110095880Y-132658480D01*
X110101083Y-132668214D01*
X110180435Y-132764905D01*
X110277126Y-132844257D01*
X110278460Y-132844970D01*
X110277126Y-132845683D01*
X110180435Y-132925035D01*
X110101083Y-133021726D01*
X110095880Y-133031460D01*
X109996620Y-133130720D01*
X109993548Y-133376220D01*
X109996620Y-133621720D01*
X110095880Y-133720980D01*
X110101083Y-133730714D01*
X110180435Y-133827405D01*
X110277126Y-133906757D01*
X110286860Y-133911960D01*
X110386120Y-134011220D01*
X110631620Y-134014292D01*
X110877120Y-134011220D01*
X110976380Y-133911960D01*
X110986114Y-133906757D01*
X111082805Y-133827405D01*
X111162157Y-133730714D01*
X111162870Y-133729380D01*
X111163583Y-133730714D01*
X111242935Y-133827405D01*
X111339626Y-133906757D01*
X111349360Y-133911960D01*
X111448620Y-134011220D01*
X111694120Y-134014292D01*
X111939620Y-134011220D01*
X112038880Y-133911960D01*
X112048614Y-133906757D01*
X112145305Y-133827405D01*
X112224657Y-133730714D01*
X112225370Y-133729380D01*
X112226083Y-133730714D01*
X112305435Y-133827405D01*
X112402126Y-133906757D01*
X112411860Y-133911960D01*
X112511120Y-134011220D01*
X112756620Y-134014292D01*
X113002120Y-134011220D01*
X113101380Y-133911960D01*
X113111114Y-133906757D01*
X113207805Y-133827405D01*
X113287157Y-133730714D01*
X113292360Y-133720980D01*
X113391620Y-133621720D01*
X113394692Y-133376220D01*
X113391620Y-133130720D01*
X113292360Y-133031460D01*
X113287157Y-133021726D01*
X113207805Y-132925035D01*
X113111114Y-132845683D01*
X113109780Y-132844970D01*
X113111114Y-132844257D01*
X113207805Y-132764905D01*
X113287157Y-132668214D01*
X113292360Y-132658480D01*
X113391620Y-132559220D01*
X113394692Y-132313720D01*
X113391620Y-132068220D01*
X113292360Y-131968960D01*
X113287157Y-131959226D01*
X113207805Y-131862535D01*
X113111114Y-131783183D01*
X113109780Y-131782470D01*
X113111114Y-131781757D01*
X113207805Y-131702405D01*
X113287157Y-131605714D01*
X113292360Y-131595980D01*
X113391620Y-131496720D01*
X113394692Y-131251220D01*
X113391620Y-131005720D01*
X113292360Y-130906460D01*
X113287157Y-130896726D01*
X113207805Y-130800035D01*
X113111114Y-130720683D01*
X113101380Y-130715480D01*
X113002120Y-130616220D01*
X112756620Y-130613148D01*
X112511120Y-130616220D01*
X112411860Y-130715480D01*
X112402126Y-130720683D01*
X112305435Y-130800035D01*
X112226083Y-130896726D01*
X112225370Y-130898060D01*
X112224657Y-130896726D01*
X112145305Y-130800035D01*
X112048614Y-130720683D01*
X112038880Y-130715480D01*
X111939620Y-130616220D01*
X111694120Y-130613148D01*
X111448620Y-130616220D01*
X111349360Y-130715480D01*
X111339626Y-130720683D01*
X111242935Y-130800035D01*
X111163583Y-130896726D01*
X111162870Y-130898060D01*
X111162157Y-130896726D01*
X111082805Y-130800035D01*
X110986114Y-130720683D01*
X110976380Y-130715480D01*
X110877120Y-130616220D01*
X110631620Y-130613148D01*
X110386120Y-130616220D01*
X110286860Y-130715480D01*
X110277126Y-130720683D01*
X110180435Y-130800035D01*
X110101083Y-130896726D01*
X110095880Y-130906460D01*
X109996620Y-131005720D01*
X109993548Y-131251220D01*
X109977021Y-131251220D01*
X109982192Y-131198720D01*
X109982192Y-130828720D01*
X109969932Y-130704238D01*
X109965225Y-130688720D01*
X109969932Y-130673202D01*
X109977434Y-130597034D01*
X110053602Y-130589532D01*
X110069120Y-130584825D01*
X110084638Y-130589532D01*
X110209120Y-130601792D01*
X110579120Y-130601792D01*
X110668694Y-130592970D01*
X110775938Y-130592970D01*
X110827370Y-130598720D01*
X110833120Y-130592970D01*
X111107870Y-130592970D01*
X111127870Y-130572970D01*
X111197870Y-130572970D01*
X111217870Y-130592970D01*
X111217870Y-130592970D01*
G37*
X111217870Y-130592970D02*
X111255120Y-130592970D01*
X111260870Y-130598720D01*
X111312302Y-130592970D01*
X111419546Y-130592970D01*
X111509120Y-130601792D01*
X111879120Y-130601792D01*
X111968694Y-130592970D01*
X112069546Y-130592970D01*
X112159120Y-130601792D01*
X112529120Y-130601792D01*
X112618694Y-130592970D01*
X112719546Y-130592970D01*
X112809120Y-130601792D01*
X113179120Y-130601792D01*
X113303602Y-130589532D01*
X113317414Y-130585342D01*
X113322511Y-130586997D01*
X113410790Y-130596866D01*
X113418308Y-130673202D01*
X113423015Y-130688720D01*
X113418308Y-130704238D01*
X113406048Y-130828720D01*
X113406048Y-131198720D01*
X113414870Y-131288294D01*
X113414870Y-131389146D01*
X113406048Y-131478720D01*
X113406048Y-131848720D01*
X113414870Y-131938294D01*
X113414870Y-132039146D01*
X113406048Y-132128720D01*
X113406048Y-132498720D01*
X113414870Y-132588294D01*
X113414870Y-132689146D01*
X113406048Y-132778720D01*
X113406048Y-133148720D01*
X113414870Y-133238294D01*
X113414870Y-133345538D01*
X113409120Y-133396970D01*
X113414870Y-133402720D01*
X113414870Y-133824720D01*
X113409120Y-133830470D01*
X113420843Y-133935329D01*
X113422498Y-133940426D01*
X113418308Y-133954238D01*
X113410806Y-134030406D01*
X113334638Y-134037908D01*
X113319120Y-134042615D01*
X113303602Y-134037908D01*
X113179120Y-134025648D01*
X112809120Y-134025648D01*
X112719546Y-134034470D01*
X112618694Y-134034470D01*
X112529120Y-134025648D01*
X112159120Y-134025648D01*
X112069546Y-134034470D01*
X111968694Y-134034470D01*
X111879120Y-134025648D01*
X111509120Y-134025648D01*
X111419546Y-134034470D01*
X111318694Y-134034470D01*
X111229120Y-134025648D01*
X110859120Y-134025648D01*
X110769546Y-134034470D01*
X110668694Y-134034470D01*
X110579120Y-134025648D01*
X110209120Y-134025648D01*
X110084638Y-134037908D01*
X110070826Y-134042098D01*
X110065729Y-134040443D01*
X109977285Y-134030555D01*
X109967397Y-133942111D01*
X109965742Y-133937014D01*
X109969932Y-133923202D01*
X109982192Y-133798720D01*
X109982192Y-133428720D01*
X109973370Y-133339146D01*
X109973370Y-133238294D01*
X109982192Y-133148720D01*
X109982192Y-132778720D01*
X109973370Y-132689146D01*
X109973370Y-132588294D01*
X109982192Y-132498720D01*
X109982192Y-132128720D01*
X109973370Y-132039146D01*
X109973370Y-131938294D01*
X109982192Y-131848720D01*
X109982192Y-131478720D01*
X109973370Y-131389146D01*
X109973370Y-131288294D01*
X109977021Y-131251220D01*
X109993548Y-131251220D01*
X109996620Y-131496720D01*
X110095880Y-131595980D01*
X110101083Y-131605714D01*
X110180435Y-131702405D01*
X110277126Y-131781757D01*
X110278460Y-131782470D01*
X110277126Y-131783183D01*
X110180435Y-131862535D01*
X110101083Y-131959226D01*
X110095880Y-131968960D01*
X109996620Y-132068220D01*
X109993548Y-132313720D01*
X109996620Y-132559220D01*
X110095880Y-132658480D01*
X110101083Y-132668214D01*
X110180435Y-132764905D01*
X110277126Y-132844257D01*
X110278460Y-132844970D01*
X110277126Y-132845683D01*
X110180435Y-132925035D01*
X110101083Y-133021726D01*
X110095880Y-133031460D01*
X109996620Y-133130720D01*
X109993548Y-133376220D01*
X109996620Y-133621720D01*
X110095880Y-133720980D01*
X110101083Y-133730714D01*
X110180435Y-133827405D01*
X110277126Y-133906757D01*
X110286860Y-133911960D01*
X110386120Y-134011220D01*
X110631620Y-134014292D01*
X110877120Y-134011220D01*
X110976380Y-133911960D01*
X110986114Y-133906757D01*
X111082805Y-133827405D01*
X111162157Y-133730714D01*
X111162870Y-133729380D01*
X111163583Y-133730714D01*
X111242935Y-133827405D01*
X111339626Y-133906757D01*
X111349360Y-133911960D01*
X111448620Y-134011220D01*
X111694120Y-134014292D01*
X111939620Y-134011220D01*
X112038880Y-133911960D01*
X112048614Y-133906757D01*
X112145305Y-133827405D01*
X112224657Y-133730714D01*
X112225370Y-133729380D01*
X112226083Y-133730714D01*
X112305435Y-133827405D01*
X112402126Y-133906757D01*
X112411860Y-133911960D01*
X112511120Y-134011220D01*
X112756620Y-134014292D01*
X113002120Y-134011220D01*
X113101380Y-133911960D01*
X113111114Y-133906757D01*
X113207805Y-133827405D01*
X113287157Y-133730714D01*
X113292360Y-133720980D01*
X113391620Y-133621720D01*
X113394692Y-133376220D01*
X113391620Y-133130720D01*
X113292360Y-133031460D01*
X113287157Y-133021726D01*
X113207805Y-132925035D01*
X113111114Y-132845683D01*
X113109780Y-132844970D01*
X113111114Y-132844257D01*
X113207805Y-132764905D01*
X113287157Y-132668214D01*
X113292360Y-132658480D01*
X113391620Y-132559220D01*
X113394692Y-132313720D01*
X113391620Y-132068220D01*
X113292360Y-131968960D01*
X113287157Y-131959226D01*
X113207805Y-131862535D01*
X113111114Y-131783183D01*
X113109780Y-131782470D01*
X113111114Y-131781757D01*
X113207805Y-131702405D01*
X113287157Y-131605714D01*
X113292360Y-131595980D01*
X113391620Y-131496720D01*
X113394692Y-131251220D01*
X113391620Y-131005720D01*
X113292360Y-130906460D01*
X113287157Y-130896726D01*
X113207805Y-130800035D01*
X113111114Y-130720683D01*
X113101380Y-130715480D01*
X113002120Y-130616220D01*
X112756620Y-130613148D01*
X112511120Y-130616220D01*
X112411860Y-130715480D01*
X112402126Y-130720683D01*
X112305435Y-130800035D01*
X112226083Y-130896726D01*
X112225370Y-130898060D01*
X112224657Y-130896726D01*
X112145305Y-130800035D01*
X112048614Y-130720683D01*
X112038880Y-130715480D01*
X111939620Y-130616220D01*
X111694120Y-130613148D01*
X111448620Y-130616220D01*
X111349360Y-130715480D01*
X111339626Y-130720683D01*
X111242935Y-130800035D01*
X111163583Y-130896726D01*
X111162870Y-130898060D01*
X111162157Y-130896726D01*
X111082805Y-130800035D01*
X110986114Y-130720683D01*
X110976380Y-130715480D01*
X110877120Y-130616220D01*
X110631620Y-130613148D01*
X110386120Y-130616220D01*
X110286860Y-130715480D01*
X110277126Y-130720683D01*
X110180435Y-130800035D01*
X110101083Y-130896726D01*
X110095880Y-130906460D01*
X109996620Y-131005720D01*
X109993548Y-131251220D01*
X109977021Y-131251220D01*
X109982192Y-131198720D01*
X109982192Y-130828720D01*
X109969932Y-130704238D01*
X109965225Y-130688720D01*
X109969932Y-130673202D01*
X109977434Y-130597034D01*
X110053602Y-130589532D01*
X110069120Y-130584825D01*
X110084638Y-130589532D01*
X110209120Y-130601792D01*
X110579120Y-130601792D01*
X110668694Y-130592970D01*
X110775938Y-130592970D01*
X110827370Y-130598720D01*
X110833120Y-130592970D01*
X111107870Y-130592970D01*
X111127870Y-130572970D01*
X111197870Y-130572970D01*
X111217870Y-130592970D01*
G36*
X112226083Y-132668214D02*
G01*
X112305435Y-132764905D01*
X112402126Y-132844257D01*
X112403460Y-132844970D01*
X112402126Y-132845683D01*
X112305435Y-132925035D01*
X112226083Y-133021726D01*
X112225370Y-133023060D01*
X112224657Y-133021726D01*
X112145305Y-132925035D01*
X112048614Y-132845683D01*
X112047280Y-132844970D01*
X112048614Y-132844257D01*
X112145305Y-132764905D01*
X112224657Y-132668214D01*
X112225370Y-132666880D01*
X112226083Y-132668214D01*
X112226083Y-132668214D01*
G37*
X112226083Y-132668214D02*
X112305435Y-132764905D01*
X112402126Y-132844257D01*
X112403460Y-132844970D01*
X112402126Y-132845683D01*
X112305435Y-132925035D01*
X112226083Y-133021726D01*
X112225370Y-133023060D01*
X112224657Y-133021726D01*
X112145305Y-132925035D01*
X112048614Y-132845683D01*
X112047280Y-132844970D01*
X112048614Y-132844257D01*
X112145305Y-132764905D01*
X112224657Y-132668214D01*
X112225370Y-132666880D01*
X112226083Y-132668214D01*
G36*
X111163583Y-132668214D02*
G01*
X111242935Y-132764905D01*
X111339626Y-132844257D01*
X111340960Y-132844970D01*
X111339626Y-132845683D01*
X111242935Y-132925035D01*
X111163583Y-133021726D01*
X111162870Y-133023060D01*
X111162157Y-133021726D01*
X111082805Y-132925035D01*
X110986114Y-132845683D01*
X110984780Y-132844970D01*
X110986114Y-132844257D01*
X111082805Y-132764905D01*
X111162157Y-132668214D01*
X111162870Y-132666880D01*
X111163583Y-132668214D01*
X111163583Y-132668214D01*
G37*
X111163583Y-132668214D02*
X111242935Y-132764905D01*
X111339626Y-132844257D01*
X111340960Y-132844970D01*
X111339626Y-132845683D01*
X111242935Y-132925035D01*
X111163583Y-133021726D01*
X111162870Y-133023060D01*
X111162157Y-133021726D01*
X111082805Y-132925035D01*
X110986114Y-132845683D01*
X110984780Y-132844970D01*
X110986114Y-132844257D01*
X111082805Y-132764905D01*
X111162157Y-132668214D01*
X111162870Y-132666880D01*
X111163583Y-132668214D01*
G36*
X112226083Y-131605714D02*
G01*
X112305435Y-131702405D01*
X112402126Y-131781757D01*
X112403460Y-131782470D01*
X112402126Y-131783183D01*
X112305435Y-131862535D01*
X112226083Y-131959226D01*
X112225370Y-131960560D01*
X112224657Y-131959226D01*
X112145305Y-131862535D01*
X112048614Y-131783183D01*
X112047280Y-131782470D01*
X112048614Y-131781757D01*
X112145305Y-131702405D01*
X112224657Y-131605714D01*
X112225370Y-131604380D01*
X112226083Y-131605714D01*
X112226083Y-131605714D01*
G37*
X112226083Y-131605714D02*
X112305435Y-131702405D01*
X112402126Y-131781757D01*
X112403460Y-131782470D01*
X112402126Y-131783183D01*
X112305435Y-131862535D01*
X112226083Y-131959226D01*
X112225370Y-131960560D01*
X112224657Y-131959226D01*
X112145305Y-131862535D01*
X112048614Y-131783183D01*
X112047280Y-131782470D01*
X112048614Y-131781757D01*
X112145305Y-131702405D01*
X112224657Y-131605714D01*
X112225370Y-131604380D01*
X112226083Y-131605714D01*
G36*
X111163583Y-131605714D02*
G01*
X111242935Y-131702405D01*
X111339626Y-131781757D01*
X111340960Y-131782470D01*
X111339626Y-131783183D01*
X111242935Y-131862535D01*
X111163583Y-131959226D01*
X111162870Y-131960560D01*
X111162157Y-131959226D01*
X111082805Y-131862535D01*
X110986114Y-131783183D01*
X110984780Y-131782470D01*
X110986114Y-131781757D01*
X111082805Y-131702405D01*
X111162157Y-131605714D01*
X111162870Y-131604380D01*
X111163583Y-131605714D01*
X111163583Y-131605714D01*
G37*
X111163583Y-131605714D02*
X111242935Y-131702405D01*
X111339626Y-131781757D01*
X111340960Y-131782470D01*
X111339626Y-131783183D01*
X111242935Y-131862535D01*
X111163583Y-131959226D01*
X111162870Y-131960560D01*
X111162157Y-131959226D01*
X111082805Y-131862535D01*
X110986114Y-131783183D01*
X110984780Y-131782470D01*
X110986114Y-131781757D01*
X111082805Y-131702405D01*
X111162157Y-131605714D01*
X111162870Y-131604380D01*
X111163583Y-131605714D01*
G36*
X105054540Y-130405902D02*
G01*
X105174238Y-130442212D01*
X105298720Y-130454472D01*
X105953112Y-130454472D01*
X105951900Y-130478450D01*
X106110650Y-130637200D01*
X106713900Y-130637200D01*
X106713900Y-130617200D01*
X106810981Y-130617200D01*
X106796503Y-130764200D01*
X106810981Y-130911200D01*
X106713900Y-130911200D01*
X106713900Y-130891200D01*
X106565170Y-130891200D01*
X106559810Y-130885840D01*
X106513516Y-130891200D01*
X106110650Y-130891200D01*
X105951900Y-131049950D01*
X105958096Y-131172557D01*
X105991318Y-131293149D01*
X105994103Y-131298698D01*
X105962756Y-131412483D01*
X105956560Y-131535090D01*
X106107311Y-131685841D01*
X105228322Y-131685841D01*
X105105900Y-131620406D01*
X105063950Y-131607681D01*
X105055985Y-131597975D01*
X104959294Y-131518623D01*
X104848980Y-131459658D01*
X104729282Y-131423348D01*
X104604800Y-131411088D01*
X104204800Y-131411088D01*
X104080318Y-131423348D01*
X103960620Y-131459658D01*
X103954463Y-131462949D01*
X103845324Y-131426754D01*
X103736550Y-131414160D01*
X103577800Y-131572910D01*
X103577800Y-131936740D01*
X103566728Y-132049160D01*
X103566728Y-132075512D01*
X103530399Y-132195273D01*
X103515242Y-132349160D01*
X103518607Y-132383328D01*
X103357800Y-132383328D01*
X103357800Y-132222160D01*
X103431800Y-132222160D01*
X103431800Y-131572910D01*
X103281320Y-131422430D01*
X103282272Y-130922400D01*
X103270012Y-130797918D01*
X103233702Y-130678220D01*
X103174737Y-130567906D01*
X103095385Y-130471215D01*
X103010997Y-130401960D01*
X105047165Y-130401960D01*
X105054540Y-130405902D01*
X105054540Y-130405902D01*
G37*
X105054540Y-130405902D02*
X105174238Y-130442212D01*
X105298720Y-130454472D01*
X105953112Y-130454472D01*
X105951900Y-130478450D01*
X106110650Y-130637200D01*
X106713900Y-130637200D01*
X106713900Y-130617200D01*
X106810981Y-130617200D01*
X106796503Y-130764200D01*
X106810981Y-130911200D01*
X106713900Y-130911200D01*
X106713900Y-130891200D01*
X106565170Y-130891200D01*
X106559810Y-130885840D01*
X106513516Y-130891200D01*
X106110650Y-130891200D01*
X105951900Y-131049950D01*
X105958096Y-131172557D01*
X105991318Y-131293149D01*
X105994103Y-131298698D01*
X105962756Y-131412483D01*
X105956560Y-131535090D01*
X106107311Y-131685841D01*
X105228322Y-131685841D01*
X105105900Y-131620406D01*
X105063950Y-131607681D01*
X105055985Y-131597975D01*
X104959294Y-131518623D01*
X104848980Y-131459658D01*
X104729282Y-131423348D01*
X104604800Y-131411088D01*
X104204800Y-131411088D01*
X104080318Y-131423348D01*
X103960620Y-131459658D01*
X103954463Y-131462949D01*
X103845324Y-131426754D01*
X103736550Y-131414160D01*
X103577800Y-131572910D01*
X103577800Y-131936740D01*
X103566728Y-132049160D01*
X103566728Y-132075512D01*
X103530399Y-132195273D01*
X103515242Y-132349160D01*
X103518607Y-132383328D01*
X103357800Y-132383328D01*
X103357800Y-132222160D01*
X103431800Y-132222160D01*
X103431800Y-131572910D01*
X103281320Y-131422430D01*
X103282272Y-130922400D01*
X103270012Y-130797918D01*
X103233702Y-130678220D01*
X103174737Y-130567906D01*
X103095385Y-130471215D01*
X103010997Y-130401960D01*
X105047165Y-130401960D01*
X105054540Y-130405902D01*
G36*
X110922286Y-116925919D02*
G01*
X110181175Y-117667030D01*
X110062540Y-117703018D01*
X110056720Y-117706129D01*
X110050900Y-117703018D01*
X109931202Y-117666708D01*
X109806720Y-117654448D01*
X109406720Y-117654448D01*
X109282238Y-117666708D01*
X109162540Y-117703018D01*
X109052226Y-117761983D01*
X108955535Y-117841335D01*
X108876183Y-117938026D01*
X108817218Y-118048340D01*
X108780908Y-118168038D01*
X108768648Y-118292520D01*
X108768648Y-118892520D01*
X108780908Y-119017002D01*
X108817218Y-119136700D01*
X108876183Y-119247014D01*
X108955535Y-119343705D01*
X109051614Y-119422555D01*
X109039488Y-119545680D01*
X109039488Y-119945680D01*
X109051748Y-120070162D01*
X109088058Y-120189860D01*
X109091169Y-120195680D01*
X109088058Y-120201500D01*
X109051748Y-120321198D01*
X109039488Y-120445680D01*
X109039488Y-120845680D01*
X109049875Y-120951147D01*
X109033606Y-120959843D01*
X108936915Y-121039195D01*
X108857563Y-121135886D01*
X108798598Y-121246200D01*
X108762288Y-121365898D01*
X108750028Y-121490380D01*
X108750028Y-122090380D01*
X108762288Y-122214862D01*
X108798598Y-122334560D01*
X108857563Y-122444874D01*
X108936915Y-122541565D01*
X109033606Y-122620917D01*
X109143920Y-122679882D01*
X109263618Y-122716192D01*
X109388100Y-122728452D01*
X109557648Y-122728452D01*
X109557648Y-122950080D01*
X109569908Y-123074562D01*
X109606218Y-123194260D01*
X109609329Y-123200080D01*
X109606218Y-123205900D01*
X109569908Y-123325598D01*
X109557648Y-123450080D01*
X109557648Y-123850080D01*
X109569908Y-123974562D01*
X109581347Y-124012271D01*
X109581347Y-124147689D01*
X109569908Y-124185398D01*
X109557648Y-124309880D01*
X109557648Y-124709880D01*
X109569908Y-124834362D01*
X109606218Y-124954060D01*
X109609329Y-124959880D01*
X109606218Y-124965700D01*
X109569908Y-125085398D01*
X109557648Y-125209880D01*
X109557648Y-125429920D01*
X109468718Y-125429920D01*
X109468718Y-125534668D01*
X109363970Y-125429920D01*
X109255196Y-125442514D01*
X109136471Y-125481888D01*
X109027708Y-125543668D01*
X108933089Y-125625479D01*
X108856247Y-125724178D01*
X108831153Y-125774175D01*
X108798362Y-125764228D01*
X108673880Y-125751968D01*
X108273880Y-125751968D01*
X108149398Y-125764228D01*
X108029700Y-125800538D01*
X108023543Y-125803829D01*
X107914404Y-125767634D01*
X107805630Y-125755040D01*
X107646880Y-125913790D01*
X107646880Y-126277620D01*
X107635808Y-126390040D01*
X107635808Y-126413624D01*
X107598639Y-126536154D01*
X107587280Y-126651480D01*
X107587281Y-127728431D01*
X107587280Y-127728440D01*
X107587280Y-128538327D01*
X107583483Y-128576880D01*
X107587280Y-128615433D01*
X107587280Y-128615441D01*
X107591285Y-128656100D01*
X107598639Y-128730766D01*
X107613237Y-128778888D01*
X107422640Y-128778888D01*
X107422640Y-128643960D01*
X107442640Y-128643960D01*
X107442640Y-128601490D01*
X107500880Y-128543250D01*
X107500880Y-127894000D01*
X107426880Y-127894000D01*
X107426880Y-127640000D01*
X107500880Y-127640000D01*
X107500880Y-126817040D01*
X107426880Y-126817040D01*
X107426880Y-126563040D01*
X107500880Y-126563040D01*
X107500880Y-125913790D01*
X107342130Y-125755040D01*
X107233356Y-125767634D01*
X107114631Y-125807008D01*
X107005868Y-125868788D01*
X106911249Y-125950599D01*
X106834407Y-126049298D01*
X106778298Y-126161091D01*
X106762693Y-126217735D01*
X106673202Y-126190588D01*
X106548720Y-126178328D01*
X106209470Y-126181400D01*
X106050720Y-126340150D01*
X106050720Y-127189400D01*
X106070720Y-127189400D01*
X106070720Y-127443400D01*
X106050720Y-127443400D01*
X106050720Y-127463400D01*
X105796720Y-127463400D01*
X105796720Y-127443400D01*
X104822470Y-127443400D01*
X104663720Y-127602150D01*
X104660648Y-127816400D01*
X104672908Y-127940882D01*
X104709218Y-128060580D01*
X104768183Y-128170894D01*
X104847535Y-128267585D01*
X104907016Y-128316400D01*
X104847535Y-128365215D01*
X104768183Y-128461906D01*
X104709218Y-128572220D01*
X104672908Y-128691918D01*
X104660648Y-128816400D01*
X104660648Y-128831960D01*
X103271482Y-128831960D01*
X103282272Y-128722400D01*
X103279200Y-127108150D01*
X103120450Y-126949400D01*
X102271200Y-126949400D01*
X102271200Y-126969400D01*
X102017200Y-126969400D01*
X102017200Y-126949400D01*
X101997200Y-126949400D01*
X101997200Y-126816400D01*
X104660648Y-126816400D01*
X104663720Y-127030650D01*
X104822470Y-127189400D01*
X105796720Y-127189400D01*
X105796720Y-126340150D01*
X105637970Y-126181400D01*
X105298720Y-126178328D01*
X105174238Y-126190588D01*
X105054540Y-126226898D01*
X104944226Y-126285863D01*
X104847535Y-126365215D01*
X104768183Y-126461906D01*
X104709218Y-126572220D01*
X104672908Y-126691918D01*
X104660648Y-126816400D01*
X101997200Y-126816400D01*
X101997200Y-126695400D01*
X102017200Y-126695400D01*
X102017200Y-124446150D01*
X102271200Y-124446150D01*
X102271200Y-126695400D01*
X103120450Y-126695400D01*
X103279200Y-126536650D01*
X103282272Y-124922400D01*
X103270012Y-124797918D01*
X103233702Y-124678220D01*
X103174737Y-124567906D01*
X103095385Y-124471215D01*
X102998694Y-124391863D01*
X102888380Y-124332898D01*
X102768682Y-124296588D01*
X102644200Y-124284328D01*
X102429950Y-124287400D01*
X102271200Y-124446150D01*
X102017200Y-124446150D01*
X101902781Y-124331731D01*
X101902781Y-123313069D01*
X102017200Y-123198650D01*
X102017200Y-120949400D01*
X102271200Y-120949400D01*
X102271200Y-123198650D01*
X102429950Y-123357400D01*
X102644200Y-123360472D01*
X102768682Y-123348212D01*
X102888380Y-123311902D01*
X102998694Y-123252937D01*
X103095385Y-123173585D01*
X103174737Y-123076894D01*
X103233702Y-122966580D01*
X103270012Y-122846882D01*
X103282272Y-122722400D01*
X103279200Y-121108150D01*
X103120450Y-120949400D01*
X102271200Y-120949400D01*
X102017200Y-120949400D01*
X101997200Y-120949400D01*
X101997200Y-120695400D01*
X102017200Y-120695400D01*
X102017200Y-120675400D01*
X102271200Y-120675400D01*
X102271200Y-120695400D01*
X103120450Y-120695400D01*
X103279200Y-120536650D01*
X103282272Y-118922400D01*
X103270012Y-118797918D01*
X103233702Y-118678220D01*
X103174737Y-118567906D01*
X103095385Y-118471215D01*
X102998694Y-118391863D01*
X102888380Y-118332898D01*
X102768682Y-118296588D01*
X102652337Y-118285129D01*
X102918788Y-118018679D01*
X108323101Y-118018679D01*
X108364119Y-118022719D01*
X108405137Y-118018679D01*
X108405138Y-118018679D01*
X108527808Y-118006597D01*
X108685206Y-117958851D01*
X108830265Y-117881315D01*
X108957410Y-117776970D01*
X108983565Y-117745100D01*
X109796466Y-116932200D01*
X110528781Y-116932200D01*
X110569800Y-116936240D01*
X110610818Y-116932200D01*
X110610819Y-116932200D01*
X110733489Y-116920118D01*
X110890887Y-116872372D01*
X110929598Y-116851681D01*
X110922286Y-116925919D01*
X110922286Y-116925919D01*
G37*
X110922286Y-116925919D02*
X110181175Y-117667030D01*
X110062540Y-117703018D01*
X110056720Y-117706129D01*
X110050900Y-117703018D01*
X109931202Y-117666708D01*
X109806720Y-117654448D01*
X109406720Y-117654448D01*
X109282238Y-117666708D01*
X109162540Y-117703018D01*
X109052226Y-117761983D01*
X108955535Y-117841335D01*
X108876183Y-117938026D01*
X108817218Y-118048340D01*
X108780908Y-118168038D01*
X108768648Y-118292520D01*
X108768648Y-118892520D01*
X108780908Y-119017002D01*
X108817218Y-119136700D01*
X108876183Y-119247014D01*
X108955535Y-119343705D01*
X109051614Y-119422555D01*
X109039488Y-119545680D01*
X109039488Y-119945680D01*
X109051748Y-120070162D01*
X109088058Y-120189860D01*
X109091169Y-120195680D01*
X109088058Y-120201500D01*
X109051748Y-120321198D01*
X109039488Y-120445680D01*
X109039488Y-120845680D01*
X109049875Y-120951147D01*
X109033606Y-120959843D01*
X108936915Y-121039195D01*
X108857563Y-121135886D01*
X108798598Y-121246200D01*
X108762288Y-121365898D01*
X108750028Y-121490380D01*
X108750028Y-122090380D01*
X108762288Y-122214862D01*
X108798598Y-122334560D01*
X108857563Y-122444874D01*
X108936915Y-122541565D01*
X109033606Y-122620917D01*
X109143920Y-122679882D01*
X109263618Y-122716192D01*
X109388100Y-122728452D01*
X109557648Y-122728452D01*
X109557648Y-122950080D01*
X109569908Y-123074562D01*
X109606218Y-123194260D01*
X109609329Y-123200080D01*
X109606218Y-123205900D01*
X109569908Y-123325598D01*
X109557648Y-123450080D01*
X109557648Y-123850080D01*
X109569908Y-123974562D01*
X109581347Y-124012271D01*
X109581347Y-124147689D01*
X109569908Y-124185398D01*
X109557648Y-124309880D01*
X109557648Y-124709880D01*
X109569908Y-124834362D01*
X109606218Y-124954060D01*
X109609329Y-124959880D01*
X109606218Y-124965700D01*
X109569908Y-125085398D01*
X109557648Y-125209880D01*
X109557648Y-125429920D01*
X109468718Y-125429920D01*
X109468718Y-125534668D01*
X109363970Y-125429920D01*
X109255196Y-125442514D01*
X109136471Y-125481888D01*
X109027708Y-125543668D01*
X108933089Y-125625479D01*
X108856247Y-125724178D01*
X108831153Y-125774175D01*
X108798362Y-125764228D01*
X108673880Y-125751968D01*
X108273880Y-125751968D01*
X108149398Y-125764228D01*
X108029700Y-125800538D01*
X108023543Y-125803829D01*
X107914404Y-125767634D01*
X107805630Y-125755040D01*
X107646880Y-125913790D01*
X107646880Y-126277620D01*
X107635808Y-126390040D01*
X107635808Y-126413624D01*
X107598639Y-126536154D01*
X107587280Y-126651480D01*
X107587281Y-127728431D01*
X107587280Y-127728440D01*
X107587280Y-128538327D01*
X107583483Y-128576880D01*
X107587280Y-128615433D01*
X107587280Y-128615441D01*
X107591285Y-128656100D01*
X107598639Y-128730766D01*
X107613237Y-128778888D01*
X107422640Y-128778888D01*
X107422640Y-128643960D01*
X107442640Y-128643960D01*
X107442640Y-128601490D01*
X107500880Y-128543250D01*
X107500880Y-127894000D01*
X107426880Y-127894000D01*
X107426880Y-127640000D01*
X107500880Y-127640000D01*
X107500880Y-126817040D01*
X107426880Y-126817040D01*
X107426880Y-126563040D01*
X107500880Y-126563040D01*
X107500880Y-125913790D01*
X107342130Y-125755040D01*
X107233356Y-125767634D01*
X107114631Y-125807008D01*
X107005868Y-125868788D01*
X106911249Y-125950599D01*
X106834407Y-126049298D01*
X106778298Y-126161091D01*
X106762693Y-126217735D01*
X106673202Y-126190588D01*
X106548720Y-126178328D01*
X106209470Y-126181400D01*
X106050720Y-126340150D01*
X106050720Y-127189400D01*
X106070720Y-127189400D01*
X106070720Y-127443400D01*
X106050720Y-127443400D01*
X106050720Y-127463400D01*
X105796720Y-127463400D01*
X105796720Y-127443400D01*
X104822470Y-127443400D01*
X104663720Y-127602150D01*
X104660648Y-127816400D01*
X104672908Y-127940882D01*
X104709218Y-128060580D01*
X104768183Y-128170894D01*
X104847535Y-128267585D01*
X104907016Y-128316400D01*
X104847535Y-128365215D01*
X104768183Y-128461906D01*
X104709218Y-128572220D01*
X104672908Y-128691918D01*
X104660648Y-128816400D01*
X104660648Y-128831960D01*
X103271482Y-128831960D01*
X103282272Y-128722400D01*
X103279200Y-127108150D01*
X103120450Y-126949400D01*
X102271200Y-126949400D01*
X102271200Y-126969400D01*
X102017200Y-126969400D01*
X102017200Y-126949400D01*
X101997200Y-126949400D01*
X101997200Y-126816400D01*
X104660648Y-126816400D01*
X104663720Y-127030650D01*
X104822470Y-127189400D01*
X105796720Y-127189400D01*
X105796720Y-126340150D01*
X105637970Y-126181400D01*
X105298720Y-126178328D01*
X105174238Y-126190588D01*
X105054540Y-126226898D01*
X104944226Y-126285863D01*
X104847535Y-126365215D01*
X104768183Y-126461906D01*
X104709218Y-126572220D01*
X104672908Y-126691918D01*
X104660648Y-126816400D01*
X101997200Y-126816400D01*
X101997200Y-126695400D01*
X102017200Y-126695400D01*
X102017200Y-124446150D01*
X102271200Y-124446150D01*
X102271200Y-126695400D01*
X103120450Y-126695400D01*
X103279200Y-126536650D01*
X103282272Y-124922400D01*
X103270012Y-124797918D01*
X103233702Y-124678220D01*
X103174737Y-124567906D01*
X103095385Y-124471215D01*
X102998694Y-124391863D01*
X102888380Y-124332898D01*
X102768682Y-124296588D01*
X102644200Y-124284328D01*
X102429950Y-124287400D01*
X102271200Y-124446150D01*
X102017200Y-124446150D01*
X101902781Y-124331731D01*
X101902781Y-123313069D01*
X102017200Y-123198650D01*
X102017200Y-120949400D01*
X102271200Y-120949400D01*
X102271200Y-123198650D01*
X102429950Y-123357400D01*
X102644200Y-123360472D01*
X102768682Y-123348212D01*
X102888380Y-123311902D01*
X102998694Y-123252937D01*
X103095385Y-123173585D01*
X103174737Y-123076894D01*
X103233702Y-122966580D01*
X103270012Y-122846882D01*
X103282272Y-122722400D01*
X103279200Y-121108150D01*
X103120450Y-120949400D01*
X102271200Y-120949400D01*
X102017200Y-120949400D01*
X101997200Y-120949400D01*
X101997200Y-120695400D01*
X102017200Y-120695400D01*
X102017200Y-120675400D01*
X102271200Y-120675400D01*
X102271200Y-120695400D01*
X103120450Y-120695400D01*
X103279200Y-120536650D01*
X103282272Y-118922400D01*
X103270012Y-118797918D01*
X103233702Y-118678220D01*
X103174737Y-118567906D01*
X103095385Y-118471215D01*
X102998694Y-118391863D01*
X102888380Y-118332898D01*
X102768682Y-118296588D01*
X102652337Y-118285129D01*
X102918788Y-118018679D01*
X108323101Y-118018679D01*
X108364119Y-118022719D01*
X108405137Y-118018679D01*
X108405138Y-118018679D01*
X108527808Y-118006597D01*
X108685206Y-117958851D01*
X108830265Y-117881315D01*
X108957410Y-117776970D01*
X108983565Y-117745100D01*
X109796466Y-116932200D01*
X110528781Y-116932200D01*
X110569800Y-116936240D01*
X110610818Y-116932200D01*
X110610819Y-116932200D01*
X110733489Y-116920118D01*
X110890887Y-116872372D01*
X110929598Y-116851681D01*
X110922286Y-116925919D01*
G36*
X117010500Y-128513520D02*
G01*
X116990500Y-128513520D01*
X116990500Y-128541221D01*
X116842757Y-128541221D01*
X116716500Y-128414965D01*
X116716500Y-128378592D01*
X117010500Y-128378592D01*
X117010500Y-128513520D01*
X117010500Y-128513520D01*
G37*
X117010500Y-128513520D02*
X116990500Y-128513520D01*
X116990500Y-128541221D01*
X116842757Y-128541221D01*
X116716500Y-128414965D01*
X116716500Y-128378592D01*
X117010500Y-128378592D01*
X117010500Y-128513520D01*
G36*
X125188885Y-123595671D02*
G01*
X125187320Y-123611560D01*
X125203442Y-123775249D01*
X125251188Y-123932647D01*
X125328724Y-124077706D01*
X125433069Y-124204851D01*
X125560214Y-124309196D01*
X125705273Y-124386732D01*
X125862671Y-124434478D01*
X125985341Y-124446560D01*
X125985342Y-124446560D01*
X126026360Y-124450600D01*
X126067379Y-124446560D01*
X127233057Y-124446560D01*
X127203015Y-124471215D01*
X127123663Y-124567906D01*
X127064698Y-124678220D01*
X127028388Y-124797918D01*
X127016128Y-124922400D01*
X127019200Y-126536650D01*
X127177950Y-126695400D01*
X128027200Y-126695400D01*
X128027200Y-126675400D01*
X128281200Y-126675400D01*
X128281200Y-126695400D01*
X128301200Y-126695400D01*
X128301200Y-126949400D01*
X128281200Y-126949400D01*
X128281200Y-126969400D01*
X128027200Y-126969400D01*
X128027200Y-126949400D01*
X127177950Y-126949400D01*
X127019200Y-127108150D01*
X127016867Y-128334080D01*
X124617089Y-128334080D01*
X124622680Y-128305974D01*
X124622680Y-128111946D01*
X124584827Y-127921646D01*
X124510576Y-127742388D01*
X124402779Y-127581059D01*
X124321080Y-127499360D01*
X124321080Y-122727866D01*
X125188885Y-123595671D01*
X125188885Y-123595671D01*
G37*
X125188885Y-123595671D02*
X125187320Y-123611560D01*
X125203442Y-123775249D01*
X125251188Y-123932647D01*
X125328724Y-124077706D01*
X125433069Y-124204851D01*
X125560214Y-124309196D01*
X125705273Y-124386732D01*
X125862671Y-124434478D01*
X125985341Y-124446560D01*
X125985342Y-124446560D01*
X126026360Y-124450600D01*
X126067379Y-124446560D01*
X127233057Y-124446560D01*
X127203015Y-124471215D01*
X127123663Y-124567906D01*
X127064698Y-124678220D01*
X127028388Y-124797918D01*
X127016128Y-124922400D01*
X127019200Y-126536650D01*
X127177950Y-126695400D01*
X128027200Y-126695400D01*
X128027200Y-126675400D01*
X128281200Y-126675400D01*
X128281200Y-126695400D01*
X128301200Y-126695400D01*
X128301200Y-126949400D01*
X128281200Y-126949400D01*
X128281200Y-126969400D01*
X128027200Y-126969400D01*
X128027200Y-126949400D01*
X127177950Y-126949400D01*
X127019200Y-127108150D01*
X127016867Y-128334080D01*
X124617089Y-128334080D01*
X124622680Y-128305974D01*
X124622680Y-128111946D01*
X124584827Y-127921646D01*
X124510576Y-127742388D01*
X124402779Y-127581059D01*
X124321080Y-127499360D01*
X124321080Y-122727866D01*
X125188885Y-123595671D01*
G36*
X113373238Y-126766552D02*
G01*
X113497720Y-126778812D01*
X114097720Y-126778812D01*
X114222202Y-126766552D01*
X114244822Y-126759690D01*
X114255846Y-126768737D01*
X114366160Y-126827702D01*
X114485858Y-126864012D01*
X114610340Y-126876272D01*
X115010340Y-126876272D01*
X115134822Y-126864012D01*
X115254520Y-126827702D01*
X115260340Y-126824591D01*
X115266160Y-126827702D01*
X115385858Y-126864012D01*
X115510340Y-126876272D01*
X115910340Y-126876272D01*
X115925428Y-126874786D01*
X115925428Y-127037780D01*
X115937688Y-127162262D01*
X115945844Y-127189150D01*
X115937688Y-127216038D01*
X115925428Y-127340520D01*
X115925428Y-127740520D01*
X115935001Y-127837716D01*
X115843658Y-127828719D01*
X115843650Y-127828719D01*
X115805097Y-127824922D01*
X115766544Y-127828719D01*
X113082673Y-127828719D01*
X113044120Y-127824922D01*
X113005567Y-127828719D01*
X113005560Y-127828719D01*
X112890234Y-127840078D01*
X112742261Y-127884965D01*
X112605888Y-127957857D01*
X112504833Y-128040792D01*
X112504833Y-127191899D01*
X112598398Y-127098334D01*
X112677750Y-127001643D01*
X112736715Y-126891329D01*
X112738631Y-126885013D01*
X112744947Y-126883097D01*
X112855261Y-126824132D01*
X112941311Y-126753513D01*
X113330254Y-126753513D01*
X113373238Y-126766552D01*
X113373238Y-126766552D01*
G37*
X113373238Y-126766552D02*
X113497720Y-126778812D01*
X114097720Y-126778812D01*
X114222202Y-126766552D01*
X114244822Y-126759690D01*
X114255846Y-126768737D01*
X114366160Y-126827702D01*
X114485858Y-126864012D01*
X114610340Y-126876272D01*
X115010340Y-126876272D01*
X115134822Y-126864012D01*
X115254520Y-126827702D01*
X115260340Y-126824591D01*
X115266160Y-126827702D01*
X115385858Y-126864012D01*
X115510340Y-126876272D01*
X115910340Y-126876272D01*
X115925428Y-126874786D01*
X115925428Y-127037780D01*
X115937688Y-127162262D01*
X115945844Y-127189150D01*
X115937688Y-127216038D01*
X115925428Y-127340520D01*
X115925428Y-127740520D01*
X115935001Y-127837716D01*
X115843658Y-127828719D01*
X115843650Y-127828719D01*
X115805097Y-127824922D01*
X115766544Y-127828719D01*
X113082673Y-127828719D01*
X113044120Y-127824922D01*
X113005567Y-127828719D01*
X113005560Y-127828719D01*
X112890234Y-127840078D01*
X112742261Y-127884965D01*
X112605888Y-127957857D01*
X112504833Y-128040792D01*
X112504833Y-127191899D01*
X112598398Y-127098334D01*
X112677750Y-127001643D01*
X112736715Y-126891329D01*
X112738631Y-126885013D01*
X112744947Y-126883097D01*
X112855261Y-126824132D01*
X112941311Y-126753513D01*
X113330254Y-126753513D01*
X113373238Y-126766552D01*
G36*
X112141428Y-118253443D02*
G01*
X112141428Y-118632202D01*
X112146747Y-118686207D01*
X112146748Y-119625230D01*
X112118065Y-119678891D01*
X112081755Y-119798589D01*
X112069495Y-119923071D01*
X112081755Y-120047553D01*
X112118065Y-120167251D01*
X112177030Y-120277565D01*
X112256382Y-120374256D01*
X112539224Y-120657098D01*
X112635915Y-120736450D01*
X112746229Y-120795415D01*
X112752545Y-120797331D01*
X112754461Y-120803647D01*
X112813426Y-120913961D01*
X112892778Y-121010652D01*
X113175620Y-121293494D01*
X113272311Y-121372846D01*
X113382625Y-121431811D01*
X113502323Y-121468121D01*
X113626805Y-121480381D01*
X113751287Y-121468121D01*
X113870985Y-121431811D01*
X113981299Y-121372846D01*
X114068199Y-121301529D01*
X114449681Y-121301529D01*
X114469626Y-121317897D01*
X114579940Y-121376862D01*
X114699638Y-121413172D01*
X114824120Y-121425432D01*
X115224120Y-121425432D01*
X115348602Y-121413172D01*
X115468300Y-121376862D01*
X115474120Y-121373751D01*
X115479940Y-121376862D01*
X115599638Y-121413172D01*
X115724120Y-121425432D01*
X116038088Y-121425432D01*
X116038088Y-121636280D01*
X116050348Y-121760762D01*
X116086658Y-121880460D01*
X116145623Y-121990774D01*
X116224975Y-122087465D01*
X116321666Y-122166817D01*
X116431980Y-122225782D01*
X116551678Y-122262092D01*
X116676160Y-122274352D01*
X117176160Y-122274352D01*
X117300642Y-122262092D01*
X117327455Y-122253958D01*
X117540410Y-122251280D01*
X117699160Y-122092530D01*
X117699160Y-121999958D01*
X117706697Y-121990774D01*
X117765662Y-121880460D01*
X117801972Y-121760762D01*
X117814232Y-121636280D01*
X117814232Y-121336280D01*
X117804383Y-121236280D01*
X117814232Y-121136280D01*
X117814232Y-120836280D01*
X117804383Y-120736280D01*
X117814232Y-120636280D01*
X117814232Y-120336280D01*
X117804383Y-120236280D01*
X117812952Y-120149280D01*
X117839368Y-120149280D01*
X117847937Y-120236280D01*
X117838088Y-120336280D01*
X117838088Y-120462664D01*
X117835762Y-120486280D01*
X117838088Y-120509896D01*
X117838088Y-120636280D01*
X117847937Y-120736280D01*
X117838088Y-120836280D01*
X117838088Y-121136280D01*
X117847937Y-121236280D01*
X117838088Y-121336280D01*
X117838088Y-121636280D01*
X117850348Y-121760762D01*
X117886658Y-121880460D01*
X117945623Y-121990774D01*
X117953160Y-121999958D01*
X117953160Y-122092530D01*
X118111910Y-122251280D01*
X118324865Y-122253958D01*
X118351678Y-122262092D01*
X118476160Y-122274352D01*
X118976160Y-122274352D01*
X119100642Y-122262092D01*
X119220340Y-122225782D01*
X119330654Y-122166817D01*
X119427345Y-122087465D01*
X119506697Y-121990774D01*
X119565662Y-121880460D01*
X119601972Y-121760762D01*
X119614232Y-121636280D01*
X119614232Y-121336280D01*
X119613164Y-121325432D01*
X120022448Y-121325432D01*
X120022448Y-121591600D01*
X120034708Y-121716082D01*
X120046147Y-121753793D01*
X120046148Y-122296550D01*
X120046147Y-122296559D01*
X120046148Y-122934407D01*
X120034708Y-122972118D01*
X120022448Y-123096600D01*
X120022448Y-123496600D01*
X120034708Y-123621082D01*
X120071018Y-123740780D01*
X120074129Y-123746600D01*
X120071018Y-123752420D01*
X120034708Y-123872118D01*
X120022448Y-123996600D01*
X120022448Y-124150128D01*
X119562440Y-124150128D01*
X119437958Y-124162388D01*
X119411145Y-124170522D01*
X119198190Y-124173200D01*
X119039440Y-124331950D01*
X119039440Y-124424522D01*
X119031903Y-124433706D01*
X118972938Y-124544020D01*
X118936628Y-124663718D01*
X118924368Y-124788200D01*
X118924368Y-125088200D01*
X118934217Y-125188200D01*
X118924368Y-125288200D01*
X118924368Y-125588200D01*
X118934217Y-125688200D01*
X118924368Y-125788200D01*
X118924368Y-125914584D01*
X118922042Y-125938200D01*
X118924368Y-125961816D01*
X118924368Y-126088200D01*
X118934217Y-126188200D01*
X118924368Y-126288200D01*
X118924368Y-126414593D01*
X118922043Y-126438200D01*
X118924368Y-126461807D01*
X118924368Y-126588200D01*
X118927961Y-126624680D01*
X118927960Y-127485503D01*
X118812492Y-127370035D01*
X118812492Y-127340520D01*
X118800232Y-127216038D01*
X118763922Y-127096340D01*
X118753343Y-127076547D01*
X118785440Y-127044450D01*
X118785440Y-126951878D01*
X118792977Y-126942694D01*
X118851942Y-126832380D01*
X118888252Y-126712682D01*
X118900512Y-126588200D01*
X118900512Y-126288200D01*
X118890663Y-126188200D01*
X118900512Y-126088200D01*
X118900512Y-125788200D01*
X118890663Y-125688200D01*
X118900512Y-125588200D01*
X118900512Y-125288200D01*
X118890663Y-125188200D01*
X118900512Y-125088200D01*
X118900512Y-124788200D01*
X118888252Y-124663718D01*
X118851942Y-124544020D01*
X118792977Y-124433706D01*
X118785440Y-124424522D01*
X118785440Y-124331950D01*
X118626690Y-124173200D01*
X118413735Y-124170522D01*
X118386922Y-124162388D01*
X118262440Y-124150128D01*
X117762440Y-124150128D01*
X117637958Y-124162388D01*
X117518260Y-124198698D01*
X117407946Y-124257663D01*
X117311255Y-124337015D01*
X117231903Y-124433706D01*
X117172938Y-124544020D01*
X117136628Y-124663718D01*
X117124368Y-124788200D01*
X117124368Y-125088200D01*
X117125501Y-125099708D01*
X116563500Y-125099708D01*
X116439018Y-125111968D01*
X116396034Y-125125007D01*
X116285968Y-125125007D01*
X116264834Y-125107663D01*
X116154520Y-125048698D01*
X116034822Y-125012388D01*
X115910340Y-125000128D01*
X115510340Y-125000128D01*
X115385858Y-125012388D01*
X115266160Y-125048698D01*
X115260340Y-125051809D01*
X115254520Y-125048698D01*
X115134822Y-125012388D01*
X115010340Y-125000128D01*
X114732720Y-125000128D01*
X114732720Y-124913738D01*
X114627972Y-124913738D01*
X114732720Y-124808990D01*
X114720126Y-124700216D01*
X114680752Y-124581491D01*
X114618972Y-124472728D01*
X114537161Y-124378109D01*
X114438462Y-124301267D01*
X114326669Y-124245158D01*
X114206077Y-124211936D01*
X114083470Y-124205740D01*
X113924720Y-124364490D01*
X113924720Y-124967740D01*
X113944720Y-124967740D01*
X113944720Y-125102668D01*
X113497720Y-125102668D01*
X113385300Y-125113740D01*
X113021470Y-125113740D01*
X113007243Y-125127967D01*
X112801590Y-125127967D01*
X112713839Y-125055952D01*
X112603525Y-124996987D01*
X112483827Y-124960677D01*
X112359345Y-124948417D01*
X112234863Y-124960677D01*
X112115165Y-124996987D01*
X112004851Y-125055952D01*
X111908160Y-125135304D01*
X111625318Y-125418146D01*
X111545966Y-125514837D01*
X111487001Y-125625151D01*
X111485085Y-125631467D01*
X111478769Y-125633383D01*
X111428849Y-125660066D01*
X111433792Y-125609880D01*
X111433792Y-125209880D01*
X111421532Y-125085398D01*
X111385222Y-124965700D01*
X111382111Y-124959880D01*
X111385222Y-124954060D01*
X111421532Y-124834362D01*
X111424030Y-124808990D01*
X112862720Y-124808990D01*
X113021470Y-124967740D01*
X113670720Y-124967740D01*
X113670720Y-124364490D01*
X113511970Y-124205740D01*
X113389363Y-124211936D01*
X113268771Y-124245158D01*
X113156978Y-124301267D01*
X113058279Y-124378109D01*
X112976468Y-124472728D01*
X112914688Y-124581491D01*
X112875314Y-124700216D01*
X112862720Y-124808990D01*
X111424030Y-124808990D01*
X111433792Y-124709880D01*
X111433792Y-124309880D01*
X111421532Y-124185398D01*
X111389554Y-124079980D01*
X111421532Y-123974562D01*
X111433792Y-123850080D01*
X111433792Y-123450080D01*
X111421532Y-123325598D01*
X111385222Y-123205900D01*
X111382111Y-123200080D01*
X111385222Y-123194260D01*
X111421532Y-123074562D01*
X111433792Y-122950080D01*
X111433792Y-122550080D01*
X111421532Y-122425598D01*
X111385222Y-122305900D01*
X111326257Y-122195586D01*
X111316930Y-122184221D01*
X111326172Y-122090380D01*
X111326172Y-121490380D01*
X111325505Y-121483608D01*
X111448522Y-121471492D01*
X111568220Y-121435182D01*
X111678534Y-121376217D01*
X111775225Y-121296865D01*
X111854577Y-121200174D01*
X111913542Y-121089860D01*
X111949852Y-120970162D01*
X111962112Y-120845680D01*
X111962112Y-120445680D01*
X111949852Y-120321198D01*
X111913542Y-120201500D01*
X111910431Y-120195680D01*
X111913542Y-120189860D01*
X111949852Y-120070162D01*
X111962112Y-119945680D01*
X111962112Y-119545680D01*
X111949852Y-119421198D01*
X111913542Y-119301500D01*
X111854577Y-119191186D01*
X111775225Y-119094495D01*
X111678534Y-119015143D01*
X111568220Y-118956178D01*
X111448522Y-118919868D01*
X111343121Y-118909487D01*
X111344792Y-118892520D01*
X111344792Y-118802282D01*
X111886803Y-118260272D01*
X111955800Y-118260272D01*
X112080282Y-118248012D01*
X112084128Y-118246845D01*
X112141428Y-118253443D01*
X112141428Y-118253443D01*
G37*
X112141428Y-118253443D02*
X112141428Y-118632202D01*
X112146747Y-118686207D01*
X112146748Y-119625230D01*
X112118065Y-119678891D01*
X112081755Y-119798589D01*
X112069495Y-119923071D01*
X112081755Y-120047553D01*
X112118065Y-120167251D01*
X112177030Y-120277565D01*
X112256382Y-120374256D01*
X112539224Y-120657098D01*
X112635915Y-120736450D01*
X112746229Y-120795415D01*
X112752545Y-120797331D01*
X112754461Y-120803647D01*
X112813426Y-120913961D01*
X112892778Y-121010652D01*
X113175620Y-121293494D01*
X113272311Y-121372846D01*
X113382625Y-121431811D01*
X113502323Y-121468121D01*
X113626805Y-121480381D01*
X113751287Y-121468121D01*
X113870985Y-121431811D01*
X113981299Y-121372846D01*
X114068199Y-121301529D01*
X114449681Y-121301529D01*
X114469626Y-121317897D01*
X114579940Y-121376862D01*
X114699638Y-121413172D01*
X114824120Y-121425432D01*
X115224120Y-121425432D01*
X115348602Y-121413172D01*
X115468300Y-121376862D01*
X115474120Y-121373751D01*
X115479940Y-121376862D01*
X115599638Y-121413172D01*
X115724120Y-121425432D01*
X116038088Y-121425432D01*
X116038088Y-121636280D01*
X116050348Y-121760762D01*
X116086658Y-121880460D01*
X116145623Y-121990774D01*
X116224975Y-122087465D01*
X116321666Y-122166817D01*
X116431980Y-122225782D01*
X116551678Y-122262092D01*
X116676160Y-122274352D01*
X117176160Y-122274352D01*
X117300642Y-122262092D01*
X117327455Y-122253958D01*
X117540410Y-122251280D01*
X117699160Y-122092530D01*
X117699160Y-121999958D01*
X117706697Y-121990774D01*
X117765662Y-121880460D01*
X117801972Y-121760762D01*
X117814232Y-121636280D01*
X117814232Y-121336280D01*
X117804383Y-121236280D01*
X117814232Y-121136280D01*
X117814232Y-120836280D01*
X117804383Y-120736280D01*
X117814232Y-120636280D01*
X117814232Y-120336280D01*
X117804383Y-120236280D01*
X117812952Y-120149280D01*
X117839368Y-120149280D01*
X117847937Y-120236280D01*
X117838088Y-120336280D01*
X117838088Y-120462664D01*
X117835762Y-120486280D01*
X117838088Y-120509896D01*
X117838088Y-120636280D01*
X117847937Y-120736280D01*
X117838088Y-120836280D01*
X117838088Y-121136280D01*
X117847937Y-121236280D01*
X117838088Y-121336280D01*
X117838088Y-121636280D01*
X117850348Y-121760762D01*
X117886658Y-121880460D01*
X117945623Y-121990774D01*
X117953160Y-121999958D01*
X117953160Y-122092530D01*
X118111910Y-122251280D01*
X118324865Y-122253958D01*
X118351678Y-122262092D01*
X118476160Y-122274352D01*
X118976160Y-122274352D01*
X119100642Y-122262092D01*
X119220340Y-122225782D01*
X119330654Y-122166817D01*
X119427345Y-122087465D01*
X119506697Y-121990774D01*
X119565662Y-121880460D01*
X119601972Y-121760762D01*
X119614232Y-121636280D01*
X119614232Y-121336280D01*
X119613164Y-121325432D01*
X120022448Y-121325432D01*
X120022448Y-121591600D01*
X120034708Y-121716082D01*
X120046147Y-121753793D01*
X120046148Y-122296550D01*
X120046147Y-122296559D01*
X120046148Y-122934407D01*
X120034708Y-122972118D01*
X120022448Y-123096600D01*
X120022448Y-123496600D01*
X120034708Y-123621082D01*
X120071018Y-123740780D01*
X120074129Y-123746600D01*
X120071018Y-123752420D01*
X120034708Y-123872118D01*
X120022448Y-123996600D01*
X120022448Y-124150128D01*
X119562440Y-124150128D01*
X119437958Y-124162388D01*
X119411145Y-124170522D01*
X119198190Y-124173200D01*
X119039440Y-124331950D01*
X119039440Y-124424522D01*
X119031903Y-124433706D01*
X118972938Y-124544020D01*
X118936628Y-124663718D01*
X118924368Y-124788200D01*
X118924368Y-125088200D01*
X118934217Y-125188200D01*
X118924368Y-125288200D01*
X118924368Y-125588200D01*
X118934217Y-125688200D01*
X118924368Y-125788200D01*
X118924368Y-125914584D01*
X118922042Y-125938200D01*
X118924368Y-125961816D01*
X118924368Y-126088200D01*
X118934217Y-126188200D01*
X118924368Y-126288200D01*
X118924368Y-126414593D01*
X118922043Y-126438200D01*
X118924368Y-126461807D01*
X118924368Y-126588200D01*
X118927961Y-126624680D01*
X118927960Y-127485503D01*
X118812492Y-127370035D01*
X118812492Y-127340520D01*
X118800232Y-127216038D01*
X118763922Y-127096340D01*
X118753343Y-127076547D01*
X118785440Y-127044450D01*
X118785440Y-126951878D01*
X118792977Y-126942694D01*
X118851942Y-126832380D01*
X118888252Y-126712682D01*
X118900512Y-126588200D01*
X118900512Y-126288200D01*
X118890663Y-126188200D01*
X118900512Y-126088200D01*
X118900512Y-125788200D01*
X118890663Y-125688200D01*
X118900512Y-125588200D01*
X118900512Y-125288200D01*
X118890663Y-125188200D01*
X118900512Y-125088200D01*
X118900512Y-124788200D01*
X118888252Y-124663718D01*
X118851942Y-124544020D01*
X118792977Y-124433706D01*
X118785440Y-124424522D01*
X118785440Y-124331950D01*
X118626690Y-124173200D01*
X118413735Y-124170522D01*
X118386922Y-124162388D01*
X118262440Y-124150128D01*
X117762440Y-124150128D01*
X117637958Y-124162388D01*
X117518260Y-124198698D01*
X117407946Y-124257663D01*
X117311255Y-124337015D01*
X117231903Y-124433706D01*
X117172938Y-124544020D01*
X117136628Y-124663718D01*
X117124368Y-124788200D01*
X117124368Y-125088200D01*
X117125501Y-125099708D01*
X116563500Y-125099708D01*
X116439018Y-125111968D01*
X116396034Y-125125007D01*
X116285968Y-125125007D01*
X116264834Y-125107663D01*
X116154520Y-125048698D01*
X116034822Y-125012388D01*
X115910340Y-125000128D01*
X115510340Y-125000128D01*
X115385858Y-125012388D01*
X115266160Y-125048698D01*
X115260340Y-125051809D01*
X115254520Y-125048698D01*
X115134822Y-125012388D01*
X115010340Y-125000128D01*
X114732720Y-125000128D01*
X114732720Y-124913738D01*
X114627972Y-124913738D01*
X114732720Y-124808990D01*
X114720126Y-124700216D01*
X114680752Y-124581491D01*
X114618972Y-124472728D01*
X114537161Y-124378109D01*
X114438462Y-124301267D01*
X114326669Y-124245158D01*
X114206077Y-124211936D01*
X114083470Y-124205740D01*
X113924720Y-124364490D01*
X113924720Y-124967740D01*
X113944720Y-124967740D01*
X113944720Y-125102668D01*
X113497720Y-125102668D01*
X113385300Y-125113740D01*
X113021470Y-125113740D01*
X113007243Y-125127967D01*
X112801590Y-125127967D01*
X112713839Y-125055952D01*
X112603525Y-124996987D01*
X112483827Y-124960677D01*
X112359345Y-124948417D01*
X112234863Y-124960677D01*
X112115165Y-124996987D01*
X112004851Y-125055952D01*
X111908160Y-125135304D01*
X111625318Y-125418146D01*
X111545966Y-125514837D01*
X111487001Y-125625151D01*
X111485085Y-125631467D01*
X111478769Y-125633383D01*
X111428849Y-125660066D01*
X111433792Y-125609880D01*
X111433792Y-125209880D01*
X111421532Y-125085398D01*
X111385222Y-124965700D01*
X111382111Y-124959880D01*
X111385222Y-124954060D01*
X111421532Y-124834362D01*
X111424030Y-124808990D01*
X112862720Y-124808990D01*
X113021470Y-124967740D01*
X113670720Y-124967740D01*
X113670720Y-124364490D01*
X113511970Y-124205740D01*
X113389363Y-124211936D01*
X113268771Y-124245158D01*
X113156978Y-124301267D01*
X113058279Y-124378109D01*
X112976468Y-124472728D01*
X112914688Y-124581491D01*
X112875314Y-124700216D01*
X112862720Y-124808990D01*
X111424030Y-124808990D01*
X111433792Y-124709880D01*
X111433792Y-124309880D01*
X111421532Y-124185398D01*
X111389554Y-124079980D01*
X111421532Y-123974562D01*
X111433792Y-123850080D01*
X111433792Y-123450080D01*
X111421532Y-123325598D01*
X111385222Y-123205900D01*
X111382111Y-123200080D01*
X111385222Y-123194260D01*
X111421532Y-123074562D01*
X111433792Y-122950080D01*
X111433792Y-122550080D01*
X111421532Y-122425598D01*
X111385222Y-122305900D01*
X111326257Y-122195586D01*
X111316930Y-122184221D01*
X111326172Y-122090380D01*
X111326172Y-121490380D01*
X111325505Y-121483608D01*
X111448522Y-121471492D01*
X111568220Y-121435182D01*
X111678534Y-121376217D01*
X111775225Y-121296865D01*
X111854577Y-121200174D01*
X111913542Y-121089860D01*
X111949852Y-120970162D01*
X111962112Y-120845680D01*
X111962112Y-120445680D01*
X111949852Y-120321198D01*
X111913542Y-120201500D01*
X111910431Y-120195680D01*
X111913542Y-120189860D01*
X111949852Y-120070162D01*
X111962112Y-119945680D01*
X111962112Y-119545680D01*
X111949852Y-119421198D01*
X111913542Y-119301500D01*
X111854577Y-119191186D01*
X111775225Y-119094495D01*
X111678534Y-119015143D01*
X111568220Y-118956178D01*
X111448522Y-118919868D01*
X111343121Y-118909487D01*
X111344792Y-118892520D01*
X111344792Y-118802282D01*
X111886803Y-118260272D01*
X111955800Y-118260272D01*
X112080282Y-118248012D01*
X112084128Y-118246845D01*
X112141428Y-118253443D01*
G36*
X122752834Y-121159619D02*
G01*
X122690533Y-121310026D01*
X122652680Y-121500326D01*
X122652680Y-121694354D01*
X122690533Y-121884654D01*
X122751081Y-122030830D01*
X122751080Y-127159393D01*
X122724800Y-127145346D01*
X122576827Y-127100459D01*
X122461501Y-127089100D01*
X122461493Y-127089100D01*
X122442366Y-127087216D01*
X122402250Y-127047100D01*
X122038420Y-127047100D01*
X121926000Y-127036028D01*
X121479000Y-127036028D01*
X121479000Y-126901100D01*
X121499000Y-126901100D01*
X121499000Y-126827100D01*
X121753000Y-126827100D01*
X121753000Y-126901100D01*
X122402250Y-126901100D01*
X122561000Y-126742350D01*
X122548406Y-126633576D01*
X122509032Y-126514851D01*
X122447252Y-126406088D01*
X122365441Y-126311469D01*
X122266742Y-126234627D01*
X122154949Y-126178518D01*
X122034357Y-126145296D01*
X121911750Y-126139100D01*
X121897148Y-126153702D01*
X121898592Y-126139040D01*
X121898592Y-125739040D01*
X121886332Y-125614558D01*
X121850022Y-125494860D01*
X121846911Y-125489040D01*
X121850022Y-125483220D01*
X121886332Y-125363522D01*
X121898592Y-125239040D01*
X121898592Y-124839040D01*
X121886332Y-124714558D01*
X121856987Y-124617820D01*
X121886332Y-124521082D01*
X121898592Y-124396600D01*
X121898592Y-123996600D01*
X121886332Y-123872118D01*
X121850022Y-123752420D01*
X121846911Y-123746600D01*
X121850022Y-123740780D01*
X121886332Y-123621082D01*
X121898592Y-123496600D01*
X121898592Y-123271480D01*
X121987522Y-123271480D01*
X121987522Y-123166732D01*
X122092270Y-123271480D01*
X122201044Y-123258886D01*
X122319769Y-123219512D01*
X122428532Y-123157732D01*
X122523151Y-123075921D01*
X122599993Y-122977222D01*
X122656102Y-122865429D01*
X122689324Y-122744837D01*
X122695520Y-122622230D01*
X122536770Y-122463480D01*
X121933520Y-122463480D01*
X121933520Y-122483480D01*
X121798592Y-122483480D01*
X121798592Y-122189480D01*
X121933520Y-122189480D01*
X121933520Y-122209480D01*
X122536770Y-122209480D01*
X122695520Y-122050730D01*
X122689324Y-121928123D01*
X122656102Y-121807531D01*
X122599993Y-121695738D01*
X122523151Y-121597039D01*
X122428532Y-121515228D01*
X122319769Y-121453448D01*
X122201044Y-121414074D01*
X122092270Y-121401480D01*
X121987522Y-121506228D01*
X121987522Y-121401480D01*
X121898592Y-121401480D01*
X121898592Y-121191600D01*
X121886332Y-121067118D01*
X121850022Y-120947420D01*
X121846911Y-120941600D01*
X121850022Y-120935780D01*
X121886332Y-120816082D01*
X121898592Y-120691600D01*
X121898592Y-120305377D01*
X122752834Y-121159619D01*
X122752834Y-121159619D01*
G37*
X122752834Y-121159619D02*
X122690533Y-121310026D01*
X122652680Y-121500326D01*
X122652680Y-121694354D01*
X122690533Y-121884654D01*
X122751081Y-122030830D01*
X122751080Y-127159393D01*
X122724800Y-127145346D01*
X122576827Y-127100459D01*
X122461501Y-127089100D01*
X122461493Y-127089100D01*
X122442366Y-127087216D01*
X122402250Y-127047100D01*
X122038420Y-127047100D01*
X121926000Y-127036028D01*
X121479000Y-127036028D01*
X121479000Y-126901100D01*
X121499000Y-126901100D01*
X121499000Y-126827100D01*
X121753000Y-126827100D01*
X121753000Y-126901100D01*
X122402250Y-126901100D01*
X122561000Y-126742350D01*
X122548406Y-126633576D01*
X122509032Y-126514851D01*
X122447252Y-126406088D01*
X122365441Y-126311469D01*
X122266742Y-126234627D01*
X122154949Y-126178518D01*
X122034357Y-126145296D01*
X121911750Y-126139100D01*
X121897148Y-126153702D01*
X121898592Y-126139040D01*
X121898592Y-125739040D01*
X121886332Y-125614558D01*
X121850022Y-125494860D01*
X121846911Y-125489040D01*
X121850022Y-125483220D01*
X121886332Y-125363522D01*
X121898592Y-125239040D01*
X121898592Y-124839040D01*
X121886332Y-124714558D01*
X121856987Y-124617820D01*
X121886332Y-124521082D01*
X121898592Y-124396600D01*
X121898592Y-123996600D01*
X121886332Y-123872118D01*
X121850022Y-123752420D01*
X121846911Y-123746600D01*
X121850022Y-123740780D01*
X121886332Y-123621082D01*
X121898592Y-123496600D01*
X121898592Y-123271480D01*
X121987522Y-123271480D01*
X121987522Y-123166732D01*
X122092270Y-123271480D01*
X122201044Y-123258886D01*
X122319769Y-123219512D01*
X122428532Y-123157732D01*
X122523151Y-123075921D01*
X122599993Y-122977222D01*
X122656102Y-122865429D01*
X122689324Y-122744837D01*
X122695520Y-122622230D01*
X122536770Y-122463480D01*
X121933520Y-122463480D01*
X121933520Y-122483480D01*
X121798592Y-122483480D01*
X121798592Y-122189480D01*
X121933520Y-122189480D01*
X121933520Y-122209480D01*
X122536770Y-122209480D01*
X122695520Y-122050730D01*
X122689324Y-121928123D01*
X122656102Y-121807531D01*
X122599993Y-121695738D01*
X122523151Y-121597039D01*
X122428532Y-121515228D01*
X122319769Y-121453448D01*
X122201044Y-121414074D01*
X122092270Y-121401480D01*
X121987522Y-121506228D01*
X121987522Y-121401480D01*
X121898592Y-121401480D01*
X121898592Y-121191600D01*
X121886332Y-121067118D01*
X121850022Y-120947420D01*
X121846911Y-120941600D01*
X121850022Y-120935780D01*
X121886332Y-120816082D01*
X121898592Y-120691600D01*
X121898592Y-120305377D01*
X122752834Y-121159619D01*
G36*
X120795748Y-126847098D02*
G01*
X120691000Y-126847098D01*
X120691000Y-126935608D01*
X120596765Y-126935608D01*
X120651942Y-126832380D01*
X120668707Y-126777112D01*
X120725762Y-126777112D01*
X120795748Y-126847098D01*
X120795748Y-126847098D01*
G37*
X120795748Y-126847098D02*
X120691000Y-126847098D01*
X120691000Y-126935608D01*
X120596765Y-126935608D01*
X120651942Y-126832380D01*
X120668707Y-126777112D01*
X120725762Y-126777112D01*
X120795748Y-126847098D01*
G36*
X109581347Y-126404841D02*
G01*
X109581348Y-126404850D01*
X109581348Y-126473848D01*
X109448720Y-126473848D01*
X109448720Y-126237920D01*
X109522720Y-126237920D01*
X109522720Y-126217920D01*
X109581347Y-126217920D01*
X109581347Y-126404841D01*
X109581347Y-126404841D01*
G37*
X109581347Y-126404841D02*
X109581348Y-126404850D01*
X109581348Y-126473848D01*
X109448720Y-126473848D01*
X109448720Y-126237920D01*
X109522720Y-126237920D01*
X109522720Y-126217920D01*
X109581347Y-126217920D01*
X109581347Y-126404841D01*
G36*
X119873000Y-112000000D02*
G01*
X119875440Y-112024776D01*
X119882667Y-112048601D01*
X119894403Y-112070557D01*
X119910197Y-112089803D01*
X119929443Y-112105597D01*
X119951399Y-112117333D01*
X119975224Y-112124560D01*
X120000000Y-112127000D01*
X129340000Y-112127000D01*
X129340000Y-123634673D01*
X128975830Y-123270503D01*
X129008694Y-123252937D01*
X129105385Y-123173585D01*
X129184737Y-123076894D01*
X129243702Y-122966580D01*
X129280012Y-122846882D01*
X129292272Y-122722400D01*
X129289200Y-121108150D01*
X129130450Y-120949400D01*
X128281200Y-120949400D01*
X128281200Y-120969400D01*
X128027200Y-120969400D01*
X128027200Y-120949400D01*
X127177950Y-120949400D01*
X127019200Y-121108150D01*
X127016128Y-122722400D01*
X127021462Y-122776560D01*
X126716140Y-122776560D01*
X126619651Y-122658987D01*
X126587788Y-122632838D01*
X124453412Y-120498463D01*
X124510576Y-120412912D01*
X124584827Y-120233654D01*
X124622680Y-120043354D01*
X124622680Y-119849326D01*
X124584827Y-119659026D01*
X124510576Y-119479768D01*
X124402779Y-119318439D01*
X124278327Y-119193987D01*
X124264834Y-119149506D01*
X124191942Y-119013133D01*
X124129559Y-118937120D01*
X124118425Y-118923553D01*
X124118422Y-118923550D01*
X124117479Y-118922400D01*
X127016128Y-118922400D01*
X127019200Y-120536650D01*
X127177950Y-120695400D01*
X128027200Y-120695400D01*
X128027200Y-118446150D01*
X128281200Y-118446150D01*
X128281200Y-120695400D01*
X129130450Y-120695400D01*
X129289200Y-120536650D01*
X129292272Y-118922400D01*
X129280012Y-118797918D01*
X129243702Y-118678220D01*
X129184737Y-118567906D01*
X129105385Y-118471215D01*
X129008694Y-118391863D01*
X128898380Y-118332898D01*
X128778682Y-118296588D01*
X128654200Y-118284328D01*
X128439950Y-118287400D01*
X128281200Y-118446150D01*
X128027200Y-118446150D01*
X127868450Y-118287400D01*
X127654200Y-118284328D01*
X127529718Y-118296588D01*
X127410020Y-118332898D01*
X127299706Y-118391863D01*
X127203015Y-118471215D01*
X127123663Y-118567906D01*
X127064698Y-118678220D01*
X127028388Y-118797918D01*
X127016128Y-118922400D01*
X124117479Y-118922400D01*
X124093844Y-118893602D01*
X124063896Y-118869024D01*
X121917272Y-116722400D01*
X127016128Y-116722400D01*
X127028388Y-116846882D01*
X127064698Y-116966580D01*
X127123663Y-117076894D01*
X127203015Y-117173585D01*
X127299706Y-117252937D01*
X127410020Y-117311902D01*
X127529718Y-117348212D01*
X127654200Y-117360472D01*
X127868450Y-117357400D01*
X128027200Y-117198650D01*
X128027200Y-115229400D01*
X128281200Y-115229400D01*
X128281200Y-117198650D01*
X128439950Y-117357400D01*
X128654200Y-117360472D01*
X128778682Y-117348212D01*
X128898380Y-117311902D01*
X129008694Y-117252937D01*
X129105385Y-117173585D01*
X129184737Y-117076894D01*
X129243702Y-116966580D01*
X129280012Y-116846882D01*
X129292272Y-116722400D01*
X129289200Y-115388150D01*
X129130450Y-115229400D01*
X128281200Y-115229400D01*
X128027200Y-115229400D01*
X127177950Y-115229400D01*
X127019200Y-115388150D01*
X127016128Y-116722400D01*
X121917272Y-116722400D01*
X120458300Y-115263429D01*
X120433717Y-115233475D01*
X120314186Y-115135377D01*
X120283206Y-115118818D01*
X121028450Y-115117400D01*
X121187200Y-114958650D01*
X121187200Y-114109400D01*
X121441200Y-114109400D01*
X121441200Y-114958650D01*
X121599950Y-115117400D01*
X123214200Y-115120472D01*
X123338682Y-115108212D01*
X123458380Y-115071902D01*
X123568694Y-115012937D01*
X123665385Y-114933585D01*
X123744737Y-114836894D01*
X123803702Y-114726580D01*
X123840012Y-114606882D01*
X123852272Y-114482400D01*
X124776128Y-114482400D01*
X124788388Y-114606882D01*
X124824698Y-114726580D01*
X124883663Y-114836894D01*
X124963015Y-114933585D01*
X125059706Y-115012937D01*
X125170020Y-115071902D01*
X125289718Y-115108212D01*
X125414200Y-115120472D01*
X126748450Y-115117400D01*
X126907200Y-114958650D01*
X126907200Y-114109400D01*
X124937950Y-114109400D01*
X124779200Y-114268150D01*
X124776128Y-114482400D01*
X123852272Y-114482400D01*
X123849200Y-114268150D01*
X123690450Y-114109400D01*
X121441200Y-114109400D01*
X121187200Y-114109400D01*
X118937950Y-114109400D01*
X118779200Y-114268150D01*
X118776128Y-114482400D01*
X118788388Y-114606882D01*
X118824698Y-114726580D01*
X118883663Y-114836894D01*
X118963015Y-114933585D01*
X119051544Y-115006239D01*
X117576856Y-115006239D01*
X117665385Y-114933585D01*
X117744737Y-114836894D01*
X117803702Y-114726580D01*
X117840012Y-114606882D01*
X117852272Y-114482400D01*
X117849200Y-114268150D01*
X117690450Y-114109400D01*
X115441200Y-114109400D01*
X115441200Y-114129400D01*
X115187200Y-114129400D01*
X115187200Y-114109400D01*
X115167200Y-114109400D01*
X115167200Y-113855400D01*
X115187200Y-113855400D01*
X115187200Y-113006150D01*
X115441200Y-113006150D01*
X115441200Y-113855400D01*
X117690450Y-113855400D01*
X117849200Y-113696650D01*
X117852272Y-113482400D01*
X118776128Y-113482400D01*
X118779200Y-113696650D01*
X118937950Y-113855400D01*
X121187200Y-113855400D01*
X121187200Y-113006150D01*
X121441200Y-113006150D01*
X121441200Y-113855400D01*
X123690450Y-113855400D01*
X123849200Y-113696650D01*
X123852272Y-113482400D01*
X124776128Y-113482400D01*
X124779200Y-113696650D01*
X124937950Y-113855400D01*
X126907200Y-113855400D01*
X126907200Y-113482400D01*
X127016128Y-113482400D01*
X127019200Y-114816650D01*
X127319950Y-115117400D01*
X128654200Y-115120472D01*
X128778682Y-115108212D01*
X128898380Y-115071902D01*
X129008694Y-115012937D01*
X129054433Y-114975400D01*
X129130450Y-114975400D01*
X129289200Y-114816650D01*
X129289914Y-114506337D01*
X129292272Y-114482400D01*
X129290288Y-114344040D01*
X129292272Y-113482400D01*
X129280012Y-113357918D01*
X129243702Y-113238220D01*
X129184737Y-113127906D01*
X129105385Y-113031215D01*
X129008694Y-112951863D01*
X128898380Y-112892898D01*
X128778682Y-112856588D01*
X128654200Y-112844328D01*
X127792560Y-112846312D01*
X127654200Y-112844328D01*
X127630263Y-112846686D01*
X127319950Y-112847400D01*
X127161200Y-113006150D01*
X127161200Y-113082167D01*
X127123663Y-113127906D01*
X127064698Y-113238220D01*
X127028388Y-113357918D01*
X127016128Y-113482400D01*
X126907200Y-113482400D01*
X126907200Y-113006150D01*
X126748450Y-112847400D01*
X125414200Y-112844328D01*
X125289718Y-112856588D01*
X125170020Y-112892898D01*
X125059706Y-112951863D01*
X124963015Y-113031215D01*
X124883663Y-113127906D01*
X124824698Y-113238220D01*
X124788388Y-113357918D01*
X124776128Y-113482400D01*
X123852272Y-113482400D01*
X123840012Y-113357918D01*
X123803702Y-113238220D01*
X123744737Y-113127906D01*
X123665385Y-113031215D01*
X123568694Y-112951863D01*
X123458380Y-112892898D01*
X123338682Y-112856588D01*
X123214200Y-112844328D01*
X121599950Y-112847400D01*
X121441200Y-113006150D01*
X121187200Y-113006150D01*
X121028450Y-112847400D01*
X119414200Y-112844328D01*
X119289718Y-112856588D01*
X119170020Y-112892898D01*
X119059706Y-112951863D01*
X118963015Y-113031215D01*
X118883663Y-113127906D01*
X118824698Y-113238220D01*
X118788388Y-113357918D01*
X118776128Y-113482400D01*
X117852272Y-113482400D01*
X117840012Y-113357918D01*
X117803702Y-113238220D01*
X117744737Y-113127906D01*
X117665385Y-113031215D01*
X117568694Y-112951863D01*
X117458380Y-112892898D01*
X117338682Y-112856588D01*
X117214200Y-112844328D01*
X115599950Y-112847400D01*
X115441200Y-113006150D01*
X115187200Y-113006150D01*
X115028450Y-112847400D01*
X113414200Y-112844328D01*
X113343872Y-112851254D01*
X113343872Y-112787160D01*
X113331612Y-112662678D01*
X113295302Y-112542980D01*
X113292191Y-112537160D01*
X113295302Y-112531340D01*
X113331612Y-112411642D01*
X113343872Y-112287160D01*
X113343872Y-111887160D01*
X113331612Y-111762678D01*
X113295302Y-111642980D01*
X113236337Y-111532666D01*
X113156985Y-111435975D01*
X113060294Y-111356623D01*
X112949980Y-111297658D01*
X112830282Y-111261348D01*
X112705800Y-111249088D01*
X112105800Y-111249088D01*
X111981318Y-111261348D01*
X111936950Y-111274807D01*
X103686242Y-111274807D01*
X103629000Y-111217565D01*
X103629000Y-111112000D01*
X103649000Y-111112000D01*
X103649000Y-110387750D01*
X103903000Y-110387750D01*
X103903000Y-111112000D01*
X104552250Y-111112000D01*
X104711000Y-110953250D01*
X104714072Y-110864000D01*
X104701812Y-110739518D01*
X104665502Y-110619820D01*
X104606537Y-110509506D01*
X104527185Y-110412815D01*
X104430494Y-110333463D01*
X104320180Y-110274498D01*
X104200482Y-110238188D01*
X104076000Y-110225928D01*
X104061750Y-110229000D01*
X103903000Y-110387750D01*
X103649000Y-110387750D01*
X103490250Y-110229000D01*
X103476000Y-110225928D01*
X103351518Y-110238188D01*
X103231820Y-110274498D01*
X103176000Y-110304335D01*
X103120180Y-110274498D01*
X103000482Y-110238188D01*
X102876000Y-110225928D01*
X102313331Y-110225928D01*
X102314072Y-110114000D01*
X102303048Y-110002072D01*
X102876000Y-110002072D01*
X103000482Y-109989812D01*
X103120180Y-109953502D01*
X103176000Y-109923665D01*
X103231820Y-109953502D01*
X103351518Y-109989812D01*
X103476000Y-110002072D01*
X103490250Y-109999000D01*
X103649000Y-109840250D01*
X103649000Y-109116000D01*
X103903000Y-109116000D01*
X103903000Y-109840250D01*
X104061750Y-109999000D01*
X104076000Y-110002072D01*
X104200482Y-109989812D01*
X104320180Y-109953502D01*
X104430494Y-109894537D01*
X104527185Y-109815185D01*
X104606537Y-109718494D01*
X104665502Y-109608180D01*
X104701812Y-109488482D01*
X104714072Y-109364000D01*
X104711000Y-109274750D01*
X104552250Y-109116000D01*
X103903000Y-109116000D01*
X103649000Y-109116000D01*
X103629000Y-109116000D01*
X103629000Y-108862000D01*
X103649000Y-108862000D01*
X103649000Y-108842000D01*
X103903000Y-108842000D01*
X103903000Y-108862000D01*
X104552250Y-108862000D01*
X104711000Y-108703250D01*
X104714072Y-108614000D01*
X104701812Y-108489518D01*
X104665502Y-108369820D01*
X104606537Y-108259506D01*
X104527185Y-108162815D01*
X104430494Y-108083463D01*
X104320180Y-108024498D01*
X104200482Y-107988188D01*
X104076000Y-107975928D01*
X104061750Y-107979000D01*
X103903002Y-108137748D01*
X103903002Y-108080885D01*
X108390095Y-103593793D01*
X119873000Y-103593793D01*
X119873000Y-112000000D01*
X119873000Y-112000000D01*
G37*
X119873000Y-112000000D02*
X119875440Y-112024776D01*
X119882667Y-112048601D01*
X119894403Y-112070557D01*
X119910197Y-112089803D01*
X119929443Y-112105597D01*
X119951399Y-112117333D01*
X119975224Y-112124560D01*
X120000000Y-112127000D01*
X129340000Y-112127000D01*
X129340000Y-123634673D01*
X128975830Y-123270503D01*
X129008694Y-123252937D01*
X129105385Y-123173585D01*
X129184737Y-123076894D01*
X129243702Y-122966580D01*
X129280012Y-122846882D01*
X129292272Y-122722400D01*
X129289200Y-121108150D01*
X129130450Y-120949400D01*
X128281200Y-120949400D01*
X128281200Y-120969400D01*
X128027200Y-120969400D01*
X128027200Y-120949400D01*
X127177950Y-120949400D01*
X127019200Y-121108150D01*
X127016128Y-122722400D01*
X127021462Y-122776560D01*
X126716140Y-122776560D01*
X126619651Y-122658987D01*
X126587788Y-122632838D01*
X124453412Y-120498463D01*
X124510576Y-120412912D01*
X124584827Y-120233654D01*
X124622680Y-120043354D01*
X124622680Y-119849326D01*
X124584827Y-119659026D01*
X124510576Y-119479768D01*
X124402779Y-119318439D01*
X124278327Y-119193987D01*
X124264834Y-119149506D01*
X124191942Y-119013133D01*
X124129559Y-118937120D01*
X124118425Y-118923553D01*
X124118422Y-118923550D01*
X124117479Y-118922400D01*
X127016128Y-118922400D01*
X127019200Y-120536650D01*
X127177950Y-120695400D01*
X128027200Y-120695400D01*
X128027200Y-118446150D01*
X128281200Y-118446150D01*
X128281200Y-120695400D01*
X129130450Y-120695400D01*
X129289200Y-120536650D01*
X129292272Y-118922400D01*
X129280012Y-118797918D01*
X129243702Y-118678220D01*
X129184737Y-118567906D01*
X129105385Y-118471215D01*
X129008694Y-118391863D01*
X128898380Y-118332898D01*
X128778682Y-118296588D01*
X128654200Y-118284328D01*
X128439950Y-118287400D01*
X128281200Y-118446150D01*
X128027200Y-118446150D01*
X127868450Y-118287400D01*
X127654200Y-118284328D01*
X127529718Y-118296588D01*
X127410020Y-118332898D01*
X127299706Y-118391863D01*
X127203015Y-118471215D01*
X127123663Y-118567906D01*
X127064698Y-118678220D01*
X127028388Y-118797918D01*
X127016128Y-118922400D01*
X124117479Y-118922400D01*
X124093844Y-118893602D01*
X124063896Y-118869024D01*
X121917272Y-116722400D01*
X127016128Y-116722400D01*
X127028388Y-116846882D01*
X127064698Y-116966580D01*
X127123663Y-117076894D01*
X127203015Y-117173585D01*
X127299706Y-117252937D01*
X127410020Y-117311902D01*
X127529718Y-117348212D01*
X127654200Y-117360472D01*
X127868450Y-117357400D01*
X128027200Y-117198650D01*
X128027200Y-115229400D01*
X128281200Y-115229400D01*
X128281200Y-117198650D01*
X128439950Y-117357400D01*
X128654200Y-117360472D01*
X128778682Y-117348212D01*
X128898380Y-117311902D01*
X129008694Y-117252937D01*
X129105385Y-117173585D01*
X129184737Y-117076894D01*
X129243702Y-116966580D01*
X129280012Y-116846882D01*
X129292272Y-116722400D01*
X129289200Y-115388150D01*
X129130450Y-115229400D01*
X128281200Y-115229400D01*
X128027200Y-115229400D01*
X127177950Y-115229400D01*
X127019200Y-115388150D01*
X127016128Y-116722400D01*
X121917272Y-116722400D01*
X120458300Y-115263429D01*
X120433717Y-115233475D01*
X120314186Y-115135377D01*
X120283206Y-115118818D01*
X121028450Y-115117400D01*
X121187200Y-114958650D01*
X121187200Y-114109400D01*
X121441200Y-114109400D01*
X121441200Y-114958650D01*
X121599950Y-115117400D01*
X123214200Y-115120472D01*
X123338682Y-115108212D01*
X123458380Y-115071902D01*
X123568694Y-115012937D01*
X123665385Y-114933585D01*
X123744737Y-114836894D01*
X123803702Y-114726580D01*
X123840012Y-114606882D01*
X123852272Y-114482400D01*
X124776128Y-114482400D01*
X124788388Y-114606882D01*
X124824698Y-114726580D01*
X124883663Y-114836894D01*
X124963015Y-114933585D01*
X125059706Y-115012937D01*
X125170020Y-115071902D01*
X125289718Y-115108212D01*
X125414200Y-115120472D01*
X126748450Y-115117400D01*
X126907200Y-114958650D01*
X126907200Y-114109400D01*
X124937950Y-114109400D01*
X124779200Y-114268150D01*
X124776128Y-114482400D01*
X123852272Y-114482400D01*
X123849200Y-114268150D01*
X123690450Y-114109400D01*
X121441200Y-114109400D01*
X121187200Y-114109400D01*
X118937950Y-114109400D01*
X118779200Y-114268150D01*
X118776128Y-114482400D01*
X118788388Y-114606882D01*
X118824698Y-114726580D01*
X118883663Y-114836894D01*
X118963015Y-114933585D01*
X119051544Y-115006239D01*
X117576856Y-115006239D01*
X117665385Y-114933585D01*
X117744737Y-114836894D01*
X117803702Y-114726580D01*
X117840012Y-114606882D01*
X117852272Y-114482400D01*
X117849200Y-114268150D01*
X117690450Y-114109400D01*
X115441200Y-114109400D01*
X115441200Y-114129400D01*
X115187200Y-114129400D01*
X115187200Y-114109400D01*
X115167200Y-114109400D01*
X115167200Y-113855400D01*
X115187200Y-113855400D01*
X115187200Y-113006150D01*
X115441200Y-113006150D01*
X115441200Y-113855400D01*
X117690450Y-113855400D01*
X117849200Y-113696650D01*
X117852272Y-113482400D01*
X118776128Y-113482400D01*
X118779200Y-113696650D01*
X118937950Y-113855400D01*
X121187200Y-113855400D01*
X121187200Y-113006150D01*
X121441200Y-113006150D01*
X121441200Y-113855400D01*
X123690450Y-113855400D01*
X123849200Y-113696650D01*
X123852272Y-113482400D01*
X124776128Y-113482400D01*
X124779200Y-113696650D01*
X124937950Y-113855400D01*
X126907200Y-113855400D01*
X126907200Y-113482400D01*
X127016128Y-113482400D01*
X127019200Y-114816650D01*
X127319950Y-115117400D01*
X128654200Y-115120472D01*
X128778682Y-115108212D01*
X128898380Y-115071902D01*
X129008694Y-115012937D01*
X129054433Y-114975400D01*
X129130450Y-114975400D01*
X129289200Y-114816650D01*
X129289914Y-114506337D01*
X129292272Y-114482400D01*
X129290288Y-114344040D01*
X129292272Y-113482400D01*
X129280012Y-113357918D01*
X129243702Y-113238220D01*
X129184737Y-113127906D01*
X129105385Y-113031215D01*
X129008694Y-112951863D01*
X128898380Y-112892898D01*
X128778682Y-112856588D01*
X128654200Y-112844328D01*
X127792560Y-112846312D01*
X127654200Y-112844328D01*
X127630263Y-112846686D01*
X127319950Y-112847400D01*
X127161200Y-113006150D01*
X127161200Y-113082167D01*
X127123663Y-113127906D01*
X127064698Y-113238220D01*
X127028388Y-113357918D01*
X127016128Y-113482400D01*
X126907200Y-113482400D01*
X126907200Y-113006150D01*
X126748450Y-112847400D01*
X125414200Y-112844328D01*
X125289718Y-112856588D01*
X125170020Y-112892898D01*
X125059706Y-112951863D01*
X124963015Y-113031215D01*
X124883663Y-113127906D01*
X124824698Y-113238220D01*
X124788388Y-113357918D01*
X124776128Y-113482400D01*
X123852272Y-113482400D01*
X123840012Y-113357918D01*
X123803702Y-113238220D01*
X123744737Y-113127906D01*
X123665385Y-113031215D01*
X123568694Y-112951863D01*
X123458380Y-112892898D01*
X123338682Y-112856588D01*
X123214200Y-112844328D01*
X121599950Y-112847400D01*
X121441200Y-113006150D01*
X121187200Y-113006150D01*
X121028450Y-112847400D01*
X119414200Y-112844328D01*
X119289718Y-112856588D01*
X119170020Y-112892898D01*
X119059706Y-112951863D01*
X118963015Y-113031215D01*
X118883663Y-113127906D01*
X118824698Y-113238220D01*
X118788388Y-113357918D01*
X118776128Y-113482400D01*
X117852272Y-113482400D01*
X117840012Y-113357918D01*
X117803702Y-113238220D01*
X117744737Y-113127906D01*
X117665385Y-113031215D01*
X117568694Y-112951863D01*
X117458380Y-112892898D01*
X117338682Y-112856588D01*
X117214200Y-112844328D01*
X115599950Y-112847400D01*
X115441200Y-113006150D01*
X115187200Y-113006150D01*
X115028450Y-112847400D01*
X113414200Y-112844328D01*
X113343872Y-112851254D01*
X113343872Y-112787160D01*
X113331612Y-112662678D01*
X113295302Y-112542980D01*
X113292191Y-112537160D01*
X113295302Y-112531340D01*
X113331612Y-112411642D01*
X113343872Y-112287160D01*
X113343872Y-111887160D01*
X113331612Y-111762678D01*
X113295302Y-111642980D01*
X113236337Y-111532666D01*
X113156985Y-111435975D01*
X113060294Y-111356623D01*
X112949980Y-111297658D01*
X112830282Y-111261348D01*
X112705800Y-111249088D01*
X112105800Y-111249088D01*
X111981318Y-111261348D01*
X111936950Y-111274807D01*
X103686242Y-111274807D01*
X103629000Y-111217565D01*
X103629000Y-111112000D01*
X103649000Y-111112000D01*
X103649000Y-110387750D01*
X103903000Y-110387750D01*
X103903000Y-111112000D01*
X104552250Y-111112000D01*
X104711000Y-110953250D01*
X104714072Y-110864000D01*
X104701812Y-110739518D01*
X104665502Y-110619820D01*
X104606537Y-110509506D01*
X104527185Y-110412815D01*
X104430494Y-110333463D01*
X104320180Y-110274498D01*
X104200482Y-110238188D01*
X104076000Y-110225928D01*
X104061750Y-110229000D01*
X103903000Y-110387750D01*
X103649000Y-110387750D01*
X103490250Y-110229000D01*
X103476000Y-110225928D01*
X103351518Y-110238188D01*
X103231820Y-110274498D01*
X103176000Y-110304335D01*
X103120180Y-110274498D01*
X103000482Y-110238188D01*
X102876000Y-110225928D01*
X102313331Y-110225928D01*
X102314072Y-110114000D01*
X102303048Y-110002072D01*
X102876000Y-110002072D01*
X103000482Y-109989812D01*
X103120180Y-109953502D01*
X103176000Y-109923665D01*
X103231820Y-109953502D01*
X103351518Y-109989812D01*
X103476000Y-110002072D01*
X103490250Y-109999000D01*
X103649000Y-109840250D01*
X103649000Y-109116000D01*
X103903000Y-109116000D01*
X103903000Y-109840250D01*
X104061750Y-109999000D01*
X104076000Y-110002072D01*
X104200482Y-109989812D01*
X104320180Y-109953502D01*
X104430494Y-109894537D01*
X104527185Y-109815185D01*
X104606537Y-109718494D01*
X104665502Y-109608180D01*
X104701812Y-109488482D01*
X104714072Y-109364000D01*
X104711000Y-109274750D01*
X104552250Y-109116000D01*
X103903000Y-109116000D01*
X103649000Y-109116000D01*
X103629000Y-109116000D01*
X103629000Y-108862000D01*
X103649000Y-108862000D01*
X103649000Y-108842000D01*
X103903000Y-108842000D01*
X103903000Y-108862000D01*
X104552250Y-108862000D01*
X104711000Y-108703250D01*
X104714072Y-108614000D01*
X104701812Y-108489518D01*
X104665502Y-108369820D01*
X104606537Y-108259506D01*
X104527185Y-108162815D01*
X104430494Y-108083463D01*
X104320180Y-108024498D01*
X104200482Y-107988188D01*
X104076000Y-107975928D01*
X104061750Y-107979000D01*
X103903002Y-108137748D01*
X103903002Y-108080885D01*
X108390095Y-103593793D01*
X119873000Y-103593793D01*
X119873000Y-112000000D01*
G36*
X113670620Y-116286702D02*
G01*
X113702092Y-116296249D01*
X113980854Y-116575011D01*
X114005437Y-116604965D01*
X114124968Y-116703063D01*
X114226251Y-116757199D01*
X114261341Y-116775955D01*
X114409314Y-116820843D01*
X114484227Y-116828221D01*
X114524640Y-116832201D01*
X114524645Y-116832201D01*
X114563201Y-116835998D01*
X114601757Y-116832201D01*
X115354648Y-116832201D01*
X115393201Y-116835998D01*
X115431754Y-116832201D01*
X115431762Y-116832201D01*
X115547088Y-116820842D01*
X115695061Y-116775955D01*
X115831434Y-116703063D01*
X115950965Y-116604965D01*
X115974540Y-116576239D01*
X115987296Y-116576239D01*
X115999514Y-116681764D01*
X116035709Y-116790903D01*
X116032418Y-116797060D01*
X115996108Y-116916758D01*
X115983848Y-117041240D01*
X115983848Y-117441240D01*
X115996108Y-117565722D01*
X116026994Y-117667540D01*
X115996108Y-117769358D01*
X115983848Y-117893840D01*
X115983848Y-118293840D01*
X115996108Y-118418322D01*
X116032418Y-118538020D01*
X116035529Y-118543840D01*
X116032418Y-118549660D01*
X115996108Y-118669358D01*
X115983848Y-118793840D01*
X115983848Y-119193840D01*
X115996108Y-119318322D01*
X116032418Y-119438020D01*
X116039561Y-119451383D01*
X116039560Y-119549288D01*
X115724120Y-119549288D01*
X115599638Y-119561548D01*
X115479940Y-119597858D01*
X115474120Y-119600969D01*
X115468300Y-119597858D01*
X115348602Y-119561548D01*
X115224120Y-119549288D01*
X114824120Y-119549288D01*
X114699638Y-119561548D01*
X114579940Y-119597858D01*
X114469626Y-119656823D01*
X114446279Y-119675983D01*
X114209621Y-119675983D01*
X114122721Y-119604666D01*
X114012407Y-119545701D01*
X114006091Y-119543785D01*
X114004175Y-119537469D01*
X114001572Y-119532600D01*
X114088122Y-119532600D01*
X114088122Y-119427852D01*
X114192870Y-119532600D01*
X114301644Y-119520006D01*
X114420369Y-119480632D01*
X114529132Y-119418852D01*
X114623751Y-119337041D01*
X114700593Y-119238342D01*
X114756702Y-119126549D01*
X114789924Y-119005957D01*
X114796120Y-118883350D01*
X114637370Y-118724600D01*
X114034120Y-118724600D01*
X114034120Y-118744600D01*
X113899192Y-118744600D01*
X113899192Y-118297600D01*
X113888120Y-118185180D01*
X113888120Y-117821350D01*
X114034120Y-117821350D01*
X114034120Y-118470600D01*
X114637370Y-118470600D01*
X114796120Y-118311850D01*
X114789924Y-118189243D01*
X114756702Y-118068651D01*
X114700593Y-117956858D01*
X114623751Y-117858159D01*
X114529132Y-117776348D01*
X114420369Y-117714568D01*
X114301644Y-117675194D01*
X114192870Y-117662600D01*
X114034120Y-117821350D01*
X113888120Y-117821350D01*
X113865748Y-117798978D01*
X113881612Y-117746682D01*
X113893872Y-117622200D01*
X113893872Y-116972200D01*
X113881612Y-116847718D01*
X113845302Y-116728020D01*
X113786337Y-116617706D01*
X113706985Y-116521015D01*
X113610294Y-116441663D01*
X113499980Y-116382698D01*
X113382959Y-116347200D01*
X113499980Y-116311702D01*
X113608685Y-116253597D01*
X113670620Y-116286702D01*
X113670620Y-116286702D01*
G37*
X113670620Y-116286702D02*
X113702092Y-116296249D01*
X113980854Y-116575011D01*
X114005437Y-116604965D01*
X114124968Y-116703063D01*
X114226251Y-116757199D01*
X114261341Y-116775955D01*
X114409314Y-116820843D01*
X114484227Y-116828221D01*
X114524640Y-116832201D01*
X114524645Y-116832201D01*
X114563201Y-116835998D01*
X114601757Y-116832201D01*
X115354648Y-116832201D01*
X115393201Y-116835998D01*
X115431754Y-116832201D01*
X115431762Y-116832201D01*
X115547088Y-116820842D01*
X115695061Y-116775955D01*
X115831434Y-116703063D01*
X115950965Y-116604965D01*
X115974540Y-116576239D01*
X115987296Y-116576239D01*
X115999514Y-116681764D01*
X116035709Y-116790903D01*
X116032418Y-116797060D01*
X115996108Y-116916758D01*
X115983848Y-117041240D01*
X115983848Y-117441240D01*
X115996108Y-117565722D01*
X116026994Y-117667540D01*
X115996108Y-117769358D01*
X115983848Y-117893840D01*
X115983848Y-118293840D01*
X115996108Y-118418322D01*
X116032418Y-118538020D01*
X116035529Y-118543840D01*
X116032418Y-118549660D01*
X115996108Y-118669358D01*
X115983848Y-118793840D01*
X115983848Y-119193840D01*
X115996108Y-119318322D01*
X116032418Y-119438020D01*
X116039561Y-119451383D01*
X116039560Y-119549288D01*
X115724120Y-119549288D01*
X115599638Y-119561548D01*
X115479940Y-119597858D01*
X115474120Y-119600969D01*
X115468300Y-119597858D01*
X115348602Y-119561548D01*
X115224120Y-119549288D01*
X114824120Y-119549288D01*
X114699638Y-119561548D01*
X114579940Y-119597858D01*
X114469626Y-119656823D01*
X114446279Y-119675983D01*
X114209621Y-119675983D01*
X114122721Y-119604666D01*
X114012407Y-119545701D01*
X114006091Y-119543785D01*
X114004175Y-119537469D01*
X114001572Y-119532600D01*
X114088122Y-119532600D01*
X114088122Y-119427852D01*
X114192870Y-119532600D01*
X114301644Y-119520006D01*
X114420369Y-119480632D01*
X114529132Y-119418852D01*
X114623751Y-119337041D01*
X114700593Y-119238342D01*
X114756702Y-119126549D01*
X114789924Y-119005957D01*
X114796120Y-118883350D01*
X114637370Y-118724600D01*
X114034120Y-118724600D01*
X114034120Y-118744600D01*
X113899192Y-118744600D01*
X113899192Y-118297600D01*
X113888120Y-118185180D01*
X113888120Y-117821350D01*
X114034120Y-117821350D01*
X114034120Y-118470600D01*
X114637370Y-118470600D01*
X114796120Y-118311850D01*
X114789924Y-118189243D01*
X114756702Y-118068651D01*
X114700593Y-117956858D01*
X114623751Y-117858159D01*
X114529132Y-117776348D01*
X114420369Y-117714568D01*
X114301644Y-117675194D01*
X114192870Y-117662600D01*
X114034120Y-117821350D01*
X113888120Y-117821350D01*
X113865748Y-117798978D01*
X113881612Y-117746682D01*
X113893872Y-117622200D01*
X113893872Y-116972200D01*
X113881612Y-116847718D01*
X113845302Y-116728020D01*
X113786337Y-116617706D01*
X113706985Y-116521015D01*
X113610294Y-116441663D01*
X113499980Y-116382698D01*
X113382959Y-116347200D01*
X113499980Y-116311702D01*
X113608685Y-116253597D01*
X113670620Y-116286702D01*
G36*
X121246743Y-119653528D02*
G01*
X120820870Y-119653528D01*
X120932158Y-119542240D01*
X121135455Y-119542240D01*
X121246743Y-119653528D01*
X121246743Y-119653528D01*
G37*
X121246743Y-119653528D02*
X120820870Y-119653528D01*
X120932158Y-119542240D01*
X121135455Y-119542240D01*
X121246743Y-119653528D01*
G36*
X117968876Y-119265004D02*
G01*
X118023421Y-119309769D01*
X117953162Y-119380028D01*
X117953162Y-119245857D01*
X117968876Y-119265004D01*
X117968876Y-119265004D01*
G37*
X117968876Y-119265004D02*
X118023421Y-119309769D01*
X117953162Y-119380028D01*
X117953162Y-119245857D01*
X117968876Y-119265004D01*
G36*
X117930523Y-119221280D02*
G01*
X117857289Y-119221280D01*
X117859992Y-119193840D01*
X117859992Y-119150749D01*
X117930523Y-119221280D01*
X117930523Y-119221280D01*
G37*
X117930523Y-119221280D02*
X117857289Y-119221280D01*
X117859992Y-119193840D01*
X117859992Y-119150749D01*
X117930523Y-119221280D01*
G36*
X119873000Y-101968247D02*
G01*
X108093351Y-101968247D01*
X108053432Y-101964315D01*
X108013513Y-101968247D01*
X108013511Y-101968247D01*
X107894102Y-101980008D01*
X107740894Y-102026483D01*
X107675167Y-102061615D01*
X107599695Y-102101955D01*
X107522945Y-102164942D01*
X107475935Y-102203522D01*
X107450486Y-102234532D01*
X105094556Y-104590463D01*
X105169503Y-104213677D01*
X105169503Y-103786323D01*
X105086130Y-103367179D01*
X104922588Y-102972355D01*
X104685163Y-102617023D01*
X104382977Y-102314837D01*
X104027645Y-102077412D01*
X103632821Y-101913870D01*
X103213677Y-101830497D01*
X102786323Y-101830497D01*
X102367179Y-101913870D01*
X101972355Y-102077412D01*
X101617023Y-102314837D01*
X101314837Y-102617023D01*
X101077412Y-102972355D01*
X100913870Y-103367179D01*
X100830497Y-103786323D01*
X100830497Y-104213677D01*
X100913870Y-104632821D01*
X101077412Y-105027645D01*
X101314837Y-105382977D01*
X101617023Y-105685163D01*
X101972355Y-105922588D01*
X102367179Y-106086130D01*
X102786323Y-106169503D01*
X103213677Y-106169503D01*
X103590463Y-106094555D01*
X102029517Y-107655502D01*
X101998502Y-107680955D01*
X101896935Y-107804717D01*
X101821463Y-107945915D01*
X101807952Y-107990454D01*
X101800482Y-107988188D01*
X101676000Y-107975928D01*
X101661750Y-107979000D01*
X101503000Y-108137750D01*
X101503000Y-108862000D01*
X101523000Y-108862000D01*
X101523000Y-109116000D01*
X101503000Y-109116000D01*
X101503000Y-110737000D01*
X101523000Y-110737000D01*
X101523000Y-110991000D01*
X101503000Y-110991000D01*
X101503000Y-112090250D01*
X101661750Y-112249000D01*
X101676000Y-112252072D01*
X101800482Y-112239812D01*
X101920180Y-112203502D01*
X101976000Y-112173665D01*
X102031820Y-112203502D01*
X102151518Y-112239812D01*
X102276000Y-112252072D01*
X102364638Y-112252072D01*
X102746633Y-112634068D01*
X102772082Y-112665078D01*
X102895843Y-112766645D01*
X103037041Y-112842117D01*
X103053852Y-112847216D01*
X102665447Y-112846421D01*
X102644200Y-112844328D01*
X102519164Y-112846121D01*
X101644200Y-112844328D01*
X101519718Y-112856588D01*
X101400020Y-112892898D01*
X101289706Y-112951863D01*
X101193015Y-113031215D01*
X101113663Y-113127906D01*
X101054698Y-113238220D01*
X101018388Y-113357918D01*
X101006128Y-113482400D01*
X101008112Y-114344040D01*
X101006128Y-114482400D01*
X101008486Y-114506337D01*
X101009200Y-114816650D01*
X101167950Y-114975400D01*
X101243967Y-114975400D01*
X101289706Y-115012937D01*
X101400020Y-115071902D01*
X101519718Y-115108212D01*
X101644200Y-115120472D01*
X103143450Y-115117400D01*
X103302200Y-114958650D01*
X103302200Y-114109400D01*
X103556200Y-114109400D01*
X103556200Y-114958650D01*
X103714950Y-115117400D01*
X105214200Y-115120472D01*
X105338682Y-115108212D01*
X105458380Y-115071902D01*
X105568694Y-115012937D01*
X105665385Y-114933585D01*
X105744737Y-114836894D01*
X105803702Y-114726580D01*
X105840012Y-114606882D01*
X105852272Y-114482400D01*
X105849200Y-114268150D01*
X105690450Y-114109400D01*
X103556200Y-114109400D01*
X103302200Y-114109400D01*
X103282200Y-114109400D01*
X103282200Y-113855400D01*
X103302200Y-113855400D01*
X103302200Y-113835400D01*
X103556200Y-113835400D01*
X103556200Y-113855400D01*
X105690450Y-113855400D01*
X105849200Y-113696650D01*
X105852272Y-113482400D01*
X105840012Y-113357918D01*
X105803702Y-113238220D01*
X105744737Y-113127906D01*
X105665385Y-113031215D01*
X105568694Y-112951863D01*
X105472327Y-112900353D01*
X107156073Y-112900353D01*
X107059706Y-112951863D01*
X106963015Y-113031215D01*
X106883663Y-113127906D01*
X106824698Y-113238220D01*
X106788388Y-113357918D01*
X106776128Y-113482400D01*
X106779200Y-113696650D01*
X106937950Y-113855400D01*
X109187200Y-113855400D01*
X109187200Y-113835400D01*
X109441200Y-113835400D01*
X109441200Y-113855400D01*
X109461200Y-113855400D01*
X109461200Y-114109400D01*
X109441200Y-114109400D01*
X109441200Y-114129400D01*
X109187200Y-114129400D01*
X109187200Y-114109400D01*
X106937950Y-114109400D01*
X106779200Y-114268150D01*
X106776128Y-114482400D01*
X106788388Y-114606882D01*
X106824698Y-114726580D01*
X106883663Y-114836894D01*
X106963015Y-114933585D01*
X107059706Y-115012937D01*
X107170020Y-115071902D01*
X107289718Y-115108212D01*
X107414200Y-115120472D01*
X108942514Y-115117564D01*
X109095150Y-115270200D01*
X109328354Y-115270200D01*
X109286909Y-115274282D01*
X109129511Y-115322028D01*
X108984452Y-115399564D01*
X108857307Y-115503909D01*
X108831156Y-115535774D01*
X108018252Y-116348679D01*
X103281412Y-116348679D01*
X103279200Y-115388150D01*
X103120450Y-115229400D01*
X102271200Y-115229400D01*
X102271200Y-115249400D01*
X102017200Y-115249400D01*
X102017200Y-115229400D01*
X101167950Y-115229400D01*
X101009200Y-115388150D01*
X101006128Y-116722400D01*
X101018388Y-116846882D01*
X101054698Y-116966580D01*
X101113663Y-117076894D01*
X101193015Y-117173585D01*
X101289706Y-117252937D01*
X101311268Y-117264462D01*
X100660000Y-117915731D01*
X100660000Y-112094060D01*
X100721506Y-112144537D01*
X100831820Y-112203502D01*
X100951518Y-112239812D01*
X101076000Y-112252072D01*
X101090250Y-112249000D01*
X101249000Y-112090250D01*
X101249000Y-110991000D01*
X101229000Y-110991000D01*
X101229000Y-110737000D01*
X101249000Y-110737000D01*
X101249000Y-109116000D01*
X101229000Y-109116000D01*
X101229000Y-108862000D01*
X101249000Y-108862000D01*
X101249000Y-108137750D01*
X101090250Y-107979000D01*
X101076000Y-107975928D01*
X100951518Y-107988188D01*
X100831820Y-108024498D01*
X100721506Y-108083463D01*
X100660000Y-108133940D01*
X100660000Y-101660000D01*
X119873000Y-101660000D01*
X119873000Y-101968247D01*
X119873000Y-101968247D01*
G37*
X119873000Y-101968247D02*
X108093351Y-101968247D01*
X108053432Y-101964315D01*
X108013513Y-101968247D01*
X108013511Y-101968247D01*
X107894102Y-101980008D01*
X107740894Y-102026483D01*
X107675167Y-102061615D01*
X107599695Y-102101955D01*
X107522945Y-102164942D01*
X107475935Y-102203522D01*
X107450486Y-102234532D01*
X105094556Y-104590463D01*
X105169503Y-104213677D01*
X105169503Y-103786323D01*
X105086130Y-103367179D01*
X104922588Y-102972355D01*
X104685163Y-102617023D01*
X104382977Y-102314837D01*
X104027645Y-102077412D01*
X103632821Y-101913870D01*
X103213677Y-101830497D01*
X102786323Y-101830497D01*
X102367179Y-101913870D01*
X101972355Y-102077412D01*
X101617023Y-102314837D01*
X101314837Y-102617023D01*
X101077412Y-102972355D01*
X100913870Y-103367179D01*
X100830497Y-103786323D01*
X100830497Y-104213677D01*
X100913870Y-104632821D01*
X101077412Y-105027645D01*
X101314837Y-105382977D01*
X101617023Y-105685163D01*
X101972355Y-105922588D01*
X102367179Y-106086130D01*
X102786323Y-106169503D01*
X103213677Y-106169503D01*
X103590463Y-106094555D01*
X102029517Y-107655502D01*
X101998502Y-107680955D01*
X101896935Y-107804717D01*
X101821463Y-107945915D01*
X101807952Y-107990454D01*
X101800482Y-107988188D01*
X101676000Y-107975928D01*
X101661750Y-107979000D01*
X101503000Y-108137750D01*
X101503000Y-108862000D01*
X101523000Y-108862000D01*
X101523000Y-109116000D01*
X101503000Y-109116000D01*
X101503000Y-110737000D01*
X101523000Y-110737000D01*
X101523000Y-110991000D01*
X101503000Y-110991000D01*
X101503000Y-112090250D01*
X101661750Y-112249000D01*
X101676000Y-112252072D01*
X101800482Y-112239812D01*
X101920180Y-112203502D01*
X101976000Y-112173665D01*
X102031820Y-112203502D01*
X102151518Y-112239812D01*
X102276000Y-112252072D01*
X102364638Y-112252072D01*
X102746633Y-112634068D01*
X102772082Y-112665078D01*
X102895843Y-112766645D01*
X103037041Y-112842117D01*
X103053852Y-112847216D01*
X102665447Y-112846421D01*
X102644200Y-112844328D01*
X102519164Y-112846121D01*
X101644200Y-112844328D01*
X101519718Y-112856588D01*
X101400020Y-112892898D01*
X101289706Y-112951863D01*
X101193015Y-113031215D01*
X101113663Y-113127906D01*
X101054698Y-113238220D01*
X101018388Y-113357918D01*
X101006128Y-113482400D01*
X101008112Y-114344040D01*
X101006128Y-114482400D01*
X101008486Y-114506337D01*
X101009200Y-114816650D01*
X101167950Y-114975400D01*
X101243967Y-114975400D01*
X101289706Y-115012937D01*
X101400020Y-115071902D01*
X101519718Y-115108212D01*
X101644200Y-115120472D01*
X103143450Y-115117400D01*
X103302200Y-114958650D01*
X103302200Y-114109400D01*
X103556200Y-114109400D01*
X103556200Y-114958650D01*
X103714950Y-115117400D01*
X105214200Y-115120472D01*
X105338682Y-115108212D01*
X105458380Y-115071902D01*
X105568694Y-115012937D01*
X105665385Y-114933585D01*
X105744737Y-114836894D01*
X105803702Y-114726580D01*
X105840012Y-114606882D01*
X105852272Y-114482400D01*
X105849200Y-114268150D01*
X105690450Y-114109400D01*
X103556200Y-114109400D01*
X103302200Y-114109400D01*
X103282200Y-114109400D01*
X103282200Y-113855400D01*
X103302200Y-113855400D01*
X103302200Y-113835400D01*
X103556200Y-113835400D01*
X103556200Y-113855400D01*
X105690450Y-113855400D01*
X105849200Y-113696650D01*
X105852272Y-113482400D01*
X105840012Y-113357918D01*
X105803702Y-113238220D01*
X105744737Y-113127906D01*
X105665385Y-113031215D01*
X105568694Y-112951863D01*
X105472327Y-112900353D01*
X107156073Y-112900353D01*
X107059706Y-112951863D01*
X106963015Y-113031215D01*
X106883663Y-113127906D01*
X106824698Y-113238220D01*
X106788388Y-113357918D01*
X106776128Y-113482400D01*
X106779200Y-113696650D01*
X106937950Y-113855400D01*
X109187200Y-113855400D01*
X109187200Y-113835400D01*
X109441200Y-113835400D01*
X109441200Y-113855400D01*
X109461200Y-113855400D01*
X109461200Y-114109400D01*
X109441200Y-114109400D01*
X109441200Y-114129400D01*
X109187200Y-114129400D01*
X109187200Y-114109400D01*
X106937950Y-114109400D01*
X106779200Y-114268150D01*
X106776128Y-114482400D01*
X106788388Y-114606882D01*
X106824698Y-114726580D01*
X106883663Y-114836894D01*
X106963015Y-114933585D01*
X107059706Y-115012937D01*
X107170020Y-115071902D01*
X107289718Y-115108212D01*
X107414200Y-115120472D01*
X108942514Y-115117564D01*
X109095150Y-115270200D01*
X109328354Y-115270200D01*
X109286909Y-115274282D01*
X109129511Y-115322028D01*
X108984452Y-115399564D01*
X108857307Y-115503909D01*
X108831156Y-115535774D01*
X108018252Y-116348679D01*
X103281412Y-116348679D01*
X103279200Y-115388150D01*
X103120450Y-115229400D01*
X102271200Y-115229400D01*
X102271200Y-115249400D01*
X102017200Y-115249400D01*
X102017200Y-115229400D01*
X101167950Y-115229400D01*
X101009200Y-115388150D01*
X101006128Y-116722400D01*
X101018388Y-116846882D01*
X101054698Y-116966580D01*
X101113663Y-117076894D01*
X101193015Y-117173585D01*
X101289706Y-117252937D01*
X101311268Y-117264462D01*
X100660000Y-117915731D01*
X100660000Y-112094060D01*
X100721506Y-112144537D01*
X100831820Y-112203502D01*
X100951518Y-112239812D01*
X101076000Y-112252072D01*
X101090250Y-112249000D01*
X101249000Y-112090250D01*
X101249000Y-110991000D01*
X101229000Y-110991000D01*
X101229000Y-110737000D01*
X101249000Y-110737000D01*
X101249000Y-109116000D01*
X101229000Y-109116000D01*
X101229000Y-108862000D01*
X101249000Y-108862000D01*
X101249000Y-108137750D01*
X101090250Y-107979000D01*
X101076000Y-107975928D01*
X100951518Y-107988188D01*
X100831820Y-108024498D01*
X100721506Y-108083463D01*
X100660000Y-108133940D01*
X100660000Y-101660000D01*
X119873000Y-101660000D01*
X119873000Y-101968247D01*
G36*
X119989047Y-117014491D02*
G01*
X119882898Y-117067767D01*
X119875940Y-117073184D01*
X119868982Y-117067767D01*
X119757189Y-117011658D01*
X119636597Y-116978436D01*
X119513990Y-116972240D01*
X119355240Y-117130990D01*
X119355240Y-117734240D01*
X120396640Y-117734240D01*
X120396640Y-117660240D01*
X120634797Y-117660240D01*
X120650640Y-117676083D01*
X120650640Y-117734240D01*
X120670640Y-117734240D01*
X120670640Y-117869168D01*
X120223640Y-117869168D01*
X120111220Y-117880240D01*
X119640660Y-117880240D01*
X119528240Y-117869168D01*
X119081240Y-117869168D01*
X119081240Y-117734240D01*
X119101240Y-117734240D01*
X119101240Y-117130990D01*
X118942490Y-116972240D01*
X118819883Y-116978436D01*
X118699291Y-117011658D01*
X118587498Y-117067767D01*
X118488799Y-117144609D01*
X118406988Y-117239228D01*
X118345208Y-117347991D01*
X118320802Y-117421584D01*
X118215100Y-117365086D01*
X118067127Y-117320199D01*
X117951801Y-117308840D01*
X117951793Y-117308840D01*
X117913240Y-117305043D01*
X117874687Y-117308840D01*
X117859992Y-117308840D01*
X117859992Y-117041240D01*
X117847732Y-116916758D01*
X117811422Y-116797060D01*
X117808131Y-116790903D01*
X117844326Y-116681764D01*
X117856544Y-116576239D01*
X119550796Y-116576239D01*
X119989047Y-117014491D01*
X119989047Y-117014491D01*
G37*
X119989047Y-117014491D02*
X119882898Y-117067767D01*
X119875940Y-117073184D01*
X119868982Y-117067767D01*
X119757189Y-117011658D01*
X119636597Y-116978436D01*
X119513990Y-116972240D01*
X119355240Y-117130990D01*
X119355240Y-117734240D01*
X120396640Y-117734240D01*
X120396640Y-117660240D01*
X120634797Y-117660240D01*
X120650640Y-117676083D01*
X120650640Y-117734240D01*
X120670640Y-117734240D01*
X120670640Y-117869168D01*
X120223640Y-117869168D01*
X120111220Y-117880240D01*
X119640660Y-117880240D01*
X119528240Y-117869168D01*
X119081240Y-117869168D01*
X119081240Y-117734240D01*
X119101240Y-117734240D01*
X119101240Y-117130990D01*
X118942490Y-116972240D01*
X118819883Y-116978436D01*
X118699291Y-117011658D01*
X118587498Y-117067767D01*
X118488799Y-117144609D01*
X118406988Y-117239228D01*
X118345208Y-117347991D01*
X118320802Y-117421584D01*
X118215100Y-117365086D01*
X118067127Y-117320199D01*
X117951801Y-117308840D01*
X117951793Y-117308840D01*
X117913240Y-117305043D01*
X117874687Y-117308840D01*
X117859992Y-117308840D01*
X117859992Y-117041240D01*
X117847732Y-116916758D01*
X117811422Y-116797060D01*
X117808131Y-116790903D01*
X117844326Y-116681764D01*
X117856544Y-116576239D01*
X119550796Y-116576239D01*
X119989047Y-117014491D01*
G36*
X115067824Y-115262201D02*
G01*
X114952872Y-115262201D01*
X114952872Y-115250200D01*
X115077673Y-115250200D01*
X115067824Y-115262201D01*
X115067824Y-115262201D01*
G37*
X115067824Y-115262201D02*
X114952872Y-115262201D01*
X114952872Y-115250200D01*
X115077673Y-115250200D01*
X115067824Y-115262201D01*
G36*
X109744056Y-115262200D02*
G01*
X109698400Y-115262200D01*
X109698400Y-115250200D01*
X109745238Y-115250200D01*
X109744056Y-115262200D01*
X109744056Y-115262200D01*
G37*
X109744056Y-115262200D02*
X109698400Y-115262200D01*
X109698400Y-115250200D01*
X109745238Y-115250200D01*
X109744056Y-115262200D01*
G36*
X109187198Y-113006148D02*
G01*
X109081403Y-112900353D01*
X109187198Y-112900353D01*
X109187198Y-113006148D01*
X109187198Y-113006148D01*
G37*
X109187198Y-113006148D02*
X109081403Y-112900353D01*
X109187198Y-112900353D01*
X109187198Y-113006148D01*
G36*
X103556202Y-113006148D02*
G01*
X103556202Y-112900353D01*
X103661997Y-112900353D01*
X103556202Y-113006148D01*
X103556202Y-113006148D01*
G37*
X103556202Y-113006148D02*
X103556202Y-112900353D01*
X103661997Y-112900353D01*
X103556202Y-113006148D01*
M02*
