G04 #@! TF.GenerationSoftware,KiCad,Pcbnew,(5.1.4)-1*
G04 #@! TF.CreationDate,2020-12-03T17:16:16+01:00*
G04 #@! TF.ProjectId,LoRa_Balloon,4c6f5261-5f42-4616-9c6c-6f6f6e2e6b69,2*
G04 #@! TF.SameCoordinates,Original*
G04 #@! TF.FileFunction,Drawing*
%FSLAX46Y46*%
G04 Gerber Fmt 4.6, Leading zero omitted, Abs format (unit mm)*
G04 Created by KiCad (PCBNEW (5.1.4)-1) date 2020-12-03 17:16:16*
%MOMM*%
%LPD*%
G04 APERTURE LIST*
%ADD10C,0.150000*%
G04 APERTURE END LIST*
D10*
X176229573Y-146240924D02*
X175753450Y-146232932D01*
X175697845Y-146708256D01*
X175746257Y-146661443D01*
X175842281Y-146615429D01*
X176080342Y-146619425D01*
X176174768Y-146668636D01*
X176221581Y-146717048D01*
X176267595Y-146813072D01*
X176263599Y-147051133D01*
X176214388Y-147145559D01*
X176165976Y-147192372D01*
X176069952Y-147238386D01*
X175831891Y-147234389D01*
X175737465Y-147185179D01*
X175690652Y-147136767D01*
X176737324Y-147201963D02*
X176736525Y-147249575D01*
X176687314Y-147344001D01*
X176638903Y-147390814D01*
X177132609Y-146351335D02*
X177181021Y-146304522D01*
X177277045Y-146258508D01*
X177515107Y-146262504D01*
X177609532Y-146311715D01*
X177656345Y-146360126D01*
X177702359Y-146456150D01*
X177700760Y-146551375D01*
X177650750Y-146693413D01*
X177069811Y-147255170D01*
X177688772Y-147265560D01*
X178164895Y-147273553D02*
X178355345Y-147276750D01*
X178451368Y-147230736D01*
X178499780Y-147183923D01*
X178597402Y-147042684D01*
X178648212Y-146853034D01*
X178654606Y-146472135D01*
X178608592Y-146376111D01*
X178561779Y-146327700D01*
X178467353Y-146278489D01*
X178276904Y-146275292D01*
X178180880Y-146321306D01*
X178132469Y-146368119D01*
X178083258Y-146462544D01*
X178079261Y-146700606D01*
X178125275Y-146796630D01*
X178172088Y-146845041D01*
X178266514Y-146894252D01*
X178456963Y-146897449D01*
X178552987Y-146851435D01*
X178601399Y-146804622D01*
X178650610Y-146710197D01*
X178991089Y-146287281D02*
X179657662Y-146298470D01*
X179212367Y-147291136D01*
X180783574Y-147317511D02*
X180794763Y-146650938D01*
X180793165Y-146746163D02*
X180841576Y-146699350D01*
X180937600Y-146653336D01*
X181080437Y-146655734D01*
X181174863Y-146704945D01*
X181220877Y-146800969D01*
X181212085Y-147324704D01*
X181220877Y-146800969D02*
X181270087Y-146706543D01*
X181366111Y-146660529D01*
X181508948Y-146662927D01*
X181603374Y-146712138D01*
X181649388Y-146808162D01*
X181640596Y-147331898D01*
X182116719Y-147339890D02*
X182127909Y-146673317D01*
X182126310Y-146768542D02*
X182174722Y-146721729D01*
X182270746Y-146675715D01*
X182413583Y-146678113D01*
X182508008Y-146727324D01*
X182554022Y-146823348D01*
X182545230Y-147347083D01*
X182554022Y-146823348D02*
X182603233Y-146728922D01*
X182699257Y-146682908D01*
X182842094Y-146685306D01*
X182936519Y-146734517D01*
X182982533Y-146830541D01*
X182973741Y-147354277D01*
X176693028Y-148096584D02*
X181988928Y-148185484D01*
X176682400Y-148729700D02*
X176702870Y-147510246D01*
X181978300Y-148818600D02*
X181998770Y-147599146D01*
X181988928Y-148185484D02*
X180852740Y-148752915D01*
X181988928Y-148185484D02*
X180872426Y-147580238D01*
X176693028Y-148096584D02*
X177809530Y-148701830D01*
X176693028Y-148096584D02*
X177829216Y-147529153D01*
M02*
